<svg width="84" height="84" viewBox="0 0 84 84" fill="none" xmlns="http://www.w3.org/2000/svg">
<path fill-rule="evenodd" clip-rule="evenodd" d="M63.8597 41.999V41.999L63.8761 42.2177L63.9253 42.4376L64.0073 42.6594L64.1221 42.8844L64.2697 43.1134L64.4502 43.3477L64.6634 43.5881L64.9094 43.8357L65.1881 44.0916L65.4992 44.3569L65.8426 44.6324L66.2178 44.9193L66.6245 45.2184L67.0619 45.5309L67.5292 45.8575L68.0255 46.1991L68.5493 46.5565L69.0992 46.9304L69.6733 47.3213L70.2694 47.7297L70.8848 48.1558L71.5166 48.5997L72.1615 49.0613L72.8154 49.5403L73.4743 50.036L74.1333 50.5474L74.7873 51.0734L75.4308 51.6125L76.0578 52.1626L76.6623 52.7216L77.2376 53.2869L77.7774 53.8556L78.2749 54.4245L78.7237 54.9899L79.1174 55.5483L79.4501 56.0958L79.7163 56.6282L79.911 57.1416L80.0301 57.6319L80.0703 58.0954L80.0293 58.5282L79.9057 58.9272L79.6993 59.2892L79.4109 59.6119L79.0426 59.8932L78.5973 60.1317L78.0791 60.3266L77.4929 60.4776L76.8443 60.5852L76.1398 60.6503L75.3863 60.6745L74.5909 60.6599L73.761 60.609L72.9043 60.5246L72.0281 60.4101L71.1397 60.2688L70.246 60.1045L69.3535 59.9208L68.4683 59.7217L67.596 59.5108L66.7416 59.292L65.9095 59.0689L65.1037 58.8449L64.3275 58.6235L63.5839 58.4078L62.8752 58.201L62.2033 58.0059L61.57 57.8252L60.9765 57.6617L60.4237 57.5178L59.9125 57.396L59.4436 57.2989L59.0174 57.2289L58.6345 57.1885L58.2953 57.1804L58.0006 57.2076L57.751 57.273L57.5474 57.3802L57.3909 57.533L57.2802 57.7329L57.2115 57.9789L57.1815 58.27L57.1868 58.6057L57.2248 58.9851L57.2925 59.4079L57.3876 59.8735L57.5075 60.3813L57.6497 60.9308L57.8117 61.5212L57.9911 62.1514L58.1852 62.8202L58.3912 63.526L58.6063 64.267L58.8273 65.0407L59.0512 65.8443L59.2745 66.6744L59.4938 67.5272L59.7054 68.3983L59.9056 69.2827L60.0906 70.1748L60.2566 71.0687L60.3999 71.9578L60.5167 72.8353L60.6036 73.6938L60.6573 74.5261L60.6749 75.3245L60.6539 76.0817L60.592 76.7904L60.4879 77.4436L60.3403 78.0351L60.149 78.5589L59.9139 79.0101L59.636 79.3847L59.3166 79.6795L58.9576 79.8925L58.5615 80.0227L58.1312 80.0703L57.6701 80.0365L57.1818 79.9235L56.6701 79.7347L56.139 79.474L55.5926 79.1465L55.035 78.7574L54.4699 78.3127L53.9012 77.8188L53.3324 77.2822L52.7668 76.7094L52.2072 76.107L51.6562 75.4815L51.1162 74.8391L50.5891 74.1858L50.0765 73.5269L49.5795 72.8679L49.0992 72.2134L48.6362 71.5676L48.1909 70.9346L47.7634 70.3178L47.3536 69.7201L46.9613 69.1441L46.5861 68.5922L46.2274 68.0662L45.8846 67.5677L45.5568 67.098L45.2433 66.6582L44.9431 66.249L44.6553 65.8713L44.3789 65.5253L44.1129 65.2116L43.8563 64.9304L43.608 64.6818L43.367 64.4659L43.1324 64.2828L42.9029 64.1326L42.6777 64.0151L42.4556 63.9305L42.2357 63.8787L42.0169 63.8597L41.7982 63.8735L41.5785 63.9201L41.3568 63.9995L41.1322 64.1117L40.9035 64.2567L40.6697 64.4345L40.4298 64.6452L40.1828 64.8886L39.9276 65.1647L39.6631 65.4732L39.3885 65.814L39.1025 66.1868L38.8044 66.5909L38.493 67.0259L38.1676 67.4909L37.8272 67.9849L37.4711 68.5066L37.0985 69.0546L36.709 69.6268L36.3021 70.2212L35.8774 70.8352L35.4349 71.4659L34.9747 72.1098L34.4971 72.7632L34.0027 73.4219L33.4925 74.0811L32.9676 74.7357L32.4295 75.3802L31.8802 76.0088L31.3218 76.6153L30.7569 77.1932L30.1884 77.7361L29.6195 78.2372L29.0536 78.6901L28.4945 79.0885L27.9461 79.4262L27.4123 79.6979L26.8972 79.8984L26.4049 80.0237L25.9392 80.0703L25.5038 80.0358L25.1021 79.9188L24.737 79.719L24.4111 79.4371L24.1265 79.075L23.8845 78.6357L23.6862 78.1231L23.5317 77.5421L23.4206 76.8983L23.3522 76.198L23.3248 75.4481L23.3364 74.6557L23.3845 73.8283L23.4663 72.9735L23.5786 72.0985L23.7179 71.2108L23.8805 70.3173L24.0628 69.4244L24.2608 68.5384L24.4708 67.6649L24.6891 66.8088L24.9121 65.9748L25.1361 65.1667L25.3578 64.3881L25.574 63.6418L25.7817 62.9302L25.9778 62.2553L26.1598 61.6189L26.3248 61.0221L26.4703 60.4661L26.5939 59.9515L26.6931 59.4792L26.7653 59.0496L26.8082 58.6632L26.8189 58.3205L26.7947 58.0222L26.7324 57.769L26.6287 57.5617L26.4797 57.4014L26.2835 57.2872L26.0411 57.2153L25.7535 57.1823L25.4215 57.185L25.0455 57.2204L24.6262 57.2859L24.164 57.3789L23.6595 57.4968L23.1133 57.6374L22.5262 57.798L21.8991 57.9761L21.2333 58.1691L20.5304 58.3742L19.7921 58.5887L19.021 58.8094L18.2197 59.0332L17.3915 59.2567L16.5404 59.4764L15.6706 59.6888L14.7871 59.89L13.8954 60.0764L13.0014 60.2441L12.1117 60.3893L11.2331 60.5083L10.3728 60.5977L9.53816 60.6542L8.73676 60.6747L7.97604 60.6569L7.26326 60.5984L6.60536 60.4976L6.00881 60.3535L5.47941 60.1657L5.02223 59.9341L4.64142 59.6595L4.34018 59.3433L4.12064 58.9874L3.98384 58.5941L3.92972 58.1664L3.95713 57.7076L4.06387 57.2213L4.2468 56.7114L4.50188 56.1817L4.82432 55.6364L5.20872 55.0794L5.64915 54.5148L6.13936 53.9463L6.67282 53.3774L7.24296 52.8113L7.84319 52.2511L8.46706 51.6994L9.10833 51.1585L9.76104 50.6303L10.4196 50.1164L11.0788 49.6181L11.7338 49.1365L12.3804 48.6721L13.0145 48.2253L13.6328 47.7963L14.2321 47.3852L14.8099 46.9915L15.3638 46.6149L15.8919 46.255L16.3926 45.9109L16.8646 45.5819L17.3069 45.2673L17.7184 44.9661L18.0987 44.6773L18.4472 44.4L18.7635 44.1332L19.0473 43.8759L19.2985 43.627L19.517 43.3855L19.7027 43.1504L19.8556 42.9205L19.9756 42.695L20.0628 42.4727L20.1172 42.2527L20.1388 42.0338L20.1277 41.8151L20.0837 41.5955L20.0069 41.374L19.8974 41.1496L19.755 40.9213L19.5797 40.688L19.3717 40.4486L19.1309 40.2022L18.8574 39.9477L18.5515 39.684L18.2132 39.4102L17.843 39.1252L17.4413 38.828L17.0088 38.5177L16.5461 38.1934L16.0544 37.8543L15.5349 37.4994L14.989 37.1282L14.4186 36.74L13.8259 36.3345L13.2133 35.9112L12.5839 35.4701L11.9409 35.0113L11.2881 34.5351L10.6297 34.042L9.97043 33.533L9.31527 33.0092L8.66973 32.4721L8.03965 31.9236L7.4312 31.3658L6.85077 30.8013L6.3049 30.233L5.8002 29.6639L5.34322 29.0977L4.94031 28.5379L4.59752 27.9884L4.32043 27.4534L4.11405 26.9367L3.98265 26.4424L3.92969 25.9744L3.95766 25.5365L4.06807 25.1319L4.26131 24.7638L4.53671 24.4347L4.89247 24.1467L5.32573 23.9013L5.83263 23.6995L6.40839 23.5415L7.04742 23.427L7.74345 23.3552L8.48968 23.3246L9.27893 23.3332L10.1038 23.3785L10.9567 23.4578L11.8303 23.5677L12.7172 23.705L13.6106 23.8659L14.5037 24.0467L15.3904 24.2437L16.2651 24.4529L17.1227 24.6707L17.9586 24.8934L18.7689 25.1174L19.5499 25.3395L20.2989 25.5563L21.0134 25.7647L21.6912 25.9619L22.3307 26.145L22.9307 26.3115L23.49 26.4587L24.0078 26.5841L24.4836 26.6853L24.9166 26.7598L25.3064 26.8051L25.6526 26.8185L25.9544 26.7972L26.2113 26.7381L26.4223 26.6377L26.5863 26.4925L26.7041 26.3L26.7792 26.0613L26.8151 25.7772L26.8152 25.4487L26.7823 25.0762L26.7191 24.6603L26.6282 24.2015L26.5122 23.7003L26.3733 23.1574L26.2143 22.5735L26.0375 21.9496L25.8456 21.2868L25.6413 20.5867L25.4274 19.8512L25.2071 19.0826L24.9835 18.2835L24.7598 17.4574L24.5397 16.6079L24.3266 15.7394L24.1243 14.8568L23.9366 13.9655L23.7673 13.0714L23.6202 12.1811L23.499 11.3013L23.4071 10.4393L23.3479 9.60234L23.3243 8.79801L23.3391 8.03376L23.3943 7.31688L23.4916 6.65436L23.6322 6.05269L23.8166 5.51774L24.0447 5.05463L24.3159 4.6676L24.6288 4.35993L24.9817 4.13382L25.372 3.99042L25.7971 3.92974L26.2535 3.95073L26.7378 4.05126L27.246 4.22826L27.7742 4.47776L28.3185 4.79504L28.8746 5.17472L29.4387 5.61093L30.0071 6.09741L30.5761 6.62769L31.1425 7.19516L31.7032 7.79324L32.2557 8.41547L32.7975 9.05559L33.3268 9.70762L33.8419 10.3659L34.3414 11.0253L34.8244 11.6808L35.2902 12.3282L35.7384 12.9635L36.1687 13.5831L36.5813 14.1841L36.9763 14.7636L37.3542 15.3195L37.7155 15.8498L38.0608 16.3527L38.3909 16.8271L38.7067 17.2717L39.0089 17.6858L39.2986 18.0686L39.5768 18.4196L39.8444 18.7385L40.1024 19.0249L40.3519 19.2788L40.594 19.4999L40.8296 19.6882L41.0598 19.8436L41.2856 19.9663L41.5081 20.0561L41.7283 20.1131L41.9473 20.1374L42.1659 20.1288L42.3854 20.0875L42.6067 20.0133L42.8308 19.9063L43.0588 19.7665L43.2917 19.5939L43.5305 19.3885L43.7763 19.1503L44.0302 18.8794L44.2931 18.576L44.566 18.2403L44.8501 17.8726L45.1462 17.4734L45.4554 17.0433L45.7786 16.583L46.1165 16.0936L46.4701 15.5762L46.84 15.0323L47.2268 14.4638L47.6309 13.8728L48.0528 13.2617L48.4924 12.6335L48.9498 11.9914L49.4247 11.3392L49.9164 10.6811L50.4242 10.0217L50.9469 9.36599L51.4829 8.71946L52.0306 8.08792L52.5877 7.4775L53.1518 6.89459L53.7199 6.34572L54.289 5.83749L54.8556 5.37646L55.416 4.96901L55.9664 4.62122L56.5028 4.3387L57.0211 4.12651L57.5173 3.989L57.9875 3.92969L58.428 3.95115L58.8353 4.05496L59.2064 4.24162L59.5387 4.51053L59.83 4.85999L60.0788 5.28722L60.2841 5.78843L60.4456 6.35892L60.5635 6.99314L60.6387 7.68489L60.6725 8.4274L60.667 9.2135L60.6244 10.0358L60.5478 10.8868L60.4401 11.759L60.3049 12.6452L60.1458 13.5383L59.9664 14.4316L59.7706 15.3191L59.5622 16.195L59.345 17.0541L59.1226 17.892L58.8985 18.7044L58.6762 19.4879L58.4589 20.2396L58.2497 20.9568L58.0515 21.6377L57.8671 22.2803L57.6993 22.8835L57.5504 23.4461L57.4232 23.9673L57.32 24.4464L57.2432 24.8828L57.1955 25.2761L57.1795 25.6258L57.1979 25.9312L57.2539 26.1917L57.3508 26.4064L57.4924 26.5742L57.6811 26.6955L57.9162 26.7738L58.1966 26.8128L58.5217 26.8156L58.8907 26.7853L59.3031 26.7244L59.7585 26.6356L60.2563 26.5214L60.7959 26.3843L61.3766 26.2268L61.9974 26.0513L62.6571 25.8605L63.3542 25.6571L64.087 25.4439L64.8531 25.224L65.6498 25.0005L66.4739 24.7767L67.3217 24.5561L68.1888 24.3423L69.0705 24.1391L69.9613 23.9501L70.8553 23.7792L71.7461 23.6301L72.627 23.5067L73.4907 23.4124L74.3299 23.3504L75.1371 23.324L75.9048 23.3356L76.6257 23.3875L77.2928 23.4814L77.8995 23.6185L78.44 23.7994L78.9089 24.0241L79.3021 24.2919L79.6162 24.6015L79.8489 24.9513L79.9989 25.3388L80.0661 25.7612L80.0516 26.2153L79.9573 26.6975L79.7862 27.2039L79.5424 27.7307L79.2303 28.2738L78.8554 28.8292L78.4235 29.3928L77.9407 29.961L77.4137 30.5301L76.849 31.0968L76.2531 31.6581L75.6326 32.2113L74.9937 32.7541L74.3424 33.2845L73.6844 33.8007L73.025 34.3015L72.369 34.7859L71.7208 35.2531L71.0844 35.7027L70.4634 36.1345L69.8609 36.5485L69.2796 36.9449L68.7217 37.3241L68.1894 37.6867L67.6842 38.0333L67.2075 38.3646L66.7605 38.6815L66.344 38.9848L65.9587 39.2754L65.6051 39.5545L65.2837 39.8229L64.9947 40.0816L64.7382 40.3318L64.5145 40.5744L64.3236 40.8105L64.1656 41.0411L64.0403 41.2673L63.9478 41.49L63.8882 41.7103L63.8614 41.9293L63.8597 41.999Z" fill="url(#paint0_linear_2054_8020)"/>
<path fill-rule="evenodd" clip-rule="evenodd" d="M52.9296 60.9305V60.9305L52.7484 61.0541L52.5826 61.2066L52.4315 61.3886L52.2941 61.6005L52.1695 61.8429L52.0569 62.1163L51.9553 62.4212L51.8638 62.758L51.7815 63.1273L51.7074 63.5294L51.6405 63.9645L51.5797 64.4329L51.5239 64.9347L51.472 65.4697L51.4228 66.0377L51.3751 66.6383L51.3275 67.2707L51.2787 67.9338L51.2272 68.6265L51.1715 69.3468L51.1102 70.0929L51.0417 70.862L50.9643 71.6513L50.8765 72.4571L50.7767 73.2755L50.6633 74.102L50.5347 74.9314L50.3896 75.7581L50.2267 76.5763L50.0448 77.3792L49.8429 78.1602L49.6203 78.9119L49.3765 79.6272L49.1111 80.2986L48.8244 80.9188L48.5167 81.4806L48.1886 81.9773L47.8414 82.4027L47.4763 82.751L47.095 83.0175L46.6997 83.1984L46.2924 83.2909L45.8756 83.2931L45.452 83.2048L45.0242 83.0264L44.5951 82.7601L44.1672 82.4087L43.7433 81.9765L43.3258 81.4687L42.9172 80.8911L42.5194 80.2506L42.1344 79.5545L41.7636 78.8104L41.4083 78.0262L41.0694 77.2102L40.7475 76.3701L40.443 75.514L40.1558 74.6492L39.8856 73.7831L39.6321 72.9222L39.3943 72.0728L39.1716 71.2407L38.9626 70.4308L38.7663 69.648L38.5812 68.8961L38.406 68.1789L38.2391 67.4995L38.0789 66.8607L37.9237 66.2649L37.7719 65.7143L37.6218 65.2107L37.4714 64.756L37.319 64.3519L37.1625 64.0001L36.9999 63.7024L36.8291 63.4607L36.6476 63.2773L36.4529 63.1545L36.2424 63.0954L36.0139 63.0995L35.7666 63.163L35.4994 63.2826L35.2114 63.455L34.9017 63.6776L34.5695 63.9477L34.2138 64.2628L33.8339 64.6205L33.4292 65.0184L32.9989 65.4539L32.5429 65.9244L32.0607 66.4269L31.5524 66.9582L31.0182 67.5149L30.4587 68.0932L29.8748 68.6889L29.2675 69.2974L28.6386 69.9137L27.99 70.5325L27.3242 71.1481L26.6441 71.7544L25.953 72.3451L25.2546 72.9137L24.5531 73.4536L23.853 73.9581L23.1591 74.4207L22.4765 74.8352L21.8102 75.1956L21.1656 75.4964L20.5477 75.7328L19.9618 75.9007L19.4124 75.9969L18.9041 76.019L18.4408 75.9656L18.0258 75.8363L17.6618 75.6319L17.351 75.354L17.0947 75.0052L16.8934 74.5889L16.747 74.1095L16.6547 73.572L16.6149 72.9818L16.6254 72.3448L16.6836 71.6673L16.7861 70.9556L16.9295 70.2162L17.1098 69.4553L17.323 68.679L17.5649 67.8932L17.8311 67.1033L18.1175 66.3145L18.4198 65.5313L18.734 64.7579L19.0563 63.998L19.383 63.2548L19.7107 62.531L20.0362 61.8288L20.3567 61.1501L20.6694 60.4964L20.972 59.8687L21.2624 59.2678L21.5386 58.6942L21.7989 58.148L22.0418 57.6293L22.2659 57.1378L22.4701 56.6733L22.6534 56.2352L22.8148 55.8228L22.9535 55.4356L23.0687 55.0728L23.1599 54.7335L23.2264 54.4169L23.2676 54.1221L23.283 53.8483L23.2721 53.5945L23.2343 53.3599L23.1692 53.1435L23.0763 52.9445L22.955 52.762L22.8048 52.595L22.6252 52.4427L22.4157 52.3043L22.1758 52.1787L21.9049 52.0652L21.6025 51.9628L21.2682 51.8705L20.9015 51.7876L20.5021 51.7128L20.0696 51.6454L19.6038 51.5841L19.1047 51.528L18.5723 51.4758L18.0069 51.4265L17.4089 51.3787L16.779 51.3312L16.1182 51.2825L15.4279 51.2313L14.7096 51.1761L13.9655 51.1153L13.1981 51.0474L12.4104 50.9708L11.6057 50.8839L10.7881 50.7851L9.96212 50.6728L9.13275 50.5455L8.30554 50.4018L7.4865 50.2404L6.68209 50.0601L5.89913 49.8598L5.14476 49.6389L4.4263 49.3968L3.75112 49.1331L3.12659 48.8481L2.55986 48.542L2.05773 48.2156L1.62652 47.8699L1.27188 47.5061L0.998673 47.1261L0.810844 46.7318L0.711297 46.3254L0.701811 45.9093L0.782987 45.4861L0.954215 45.0586L1.21368 44.6294L1.55842 44.2013L1.98434 43.777L2.4864 43.359L3.05864 42.9495L3.6944 42.5508L4.38642 42.1647L5.12702 41.7927L5.90826 41.4361L6.7221 41.0959L7.56052 40.7726L8.41569 40.4667L9.28003 40.1781L10.1463 39.9066L11.0079 39.6517L11.8584 39.4128L12.6922 39.1888L13.504 38.9788L14.2891 38.7815L15.0436 38.5956L15.7637 38.4196L16.4462 38.2521L17.0883 38.0914L17.6876 37.9359L18.242 37.7839L18.7494 37.6337L19.208 37.4834L19.6162 37.3312L19.9723 37.1751L20.2744 37.0131L20.5206 36.843L20.7088 36.6624L20.8364 36.4689L20.9007 36.2597L20.9016 36.0327L20.8426 35.7869L20.7274 35.5213L20.559 35.2351L20.3404 34.9272L20.074 34.5968L19.7624 34.243L19.408 33.8651L19.0132 33.4623L18.5805 33.0342L18.1128 32.5802L17.6127 32.1001L17.0836 31.5939L16.5287 31.0618L15.952 30.5043L15.3576 29.9222L14.7499 29.3168L14.1341 28.6895L13.5153 28.0425L12.8992 27.378L12.292 26.6989L11.6998 26.0085L11.1292 25.3106L10.5868 24.6092L10.0792 23.9089L9.61299 23.2143L9.19447 22.5306L8.8296 21.8628L8.52387 21.2163L8.28217 20.5962L8.10866 20.0075L8.00668 19.4551L7.97865 18.9434L8.02602 18.4763L8.14924 18.0573L8.34772 17.6892L8.61989 17.3741L8.9632 17.1134L9.37424 16.9077L9.84877 16.757L10.3819 16.6605L10.9681 16.6165L11.6016 16.6231L12.2761 16.6775L12.9853 16.7767L13.7228 16.9169L14.4822 17.0945L15.2575 17.3052L16.0428 17.5449L16.8325 17.8093L17.6216 18.0942L18.4054 18.3954L19.1797 18.7088L19.9408 19.0305L20.6854 19.357L21.4109 19.6847L22.1149 20.0105L22.7955 20.3315L23.4513 20.6449L24.0811 20.9484L24.6841 21.2398L25.2599 21.5172L25.8083 21.7788L26.3292 22.0231L26.8228 22.2488L27.2894 22.4546L27.7297 22.6396L28.144 22.8027L28.5332 22.9432L28.898 23.0604L29.2391 23.1535L29.5575 23.2219L29.854 23.2652L30.1295 23.2826L30.3848 23.2738L30.6209 23.2382L30.8387 23.1753L31.0391 23.0846L31.2229 22.9656L31.3911 22.8177L31.5445 22.6405L31.684 22.4334L31.8105 22.1959L31.925 21.9275L32.0283 21.6276L32.1213 21.2959L32.205 20.9318L32.2803 20.535L32.3484 20.1051L32.4101 19.642L32.4666 19.1456L32.519 18.6158L32.5685 18.053L32.6164 17.4576L32.6639 16.8302L32.7125 16.1719L32.7634 15.4838L32.8183 14.7677L32.8786 14.0256L32.9459 13.26L33.0217 12.4737L33.1078 11.6703L33.2056 10.8536L33.3168 10.0281L33.4428 9.19879L33.5852 8.3712L33.7451 7.55128L33.924 6.74546L34.1226 5.96055L34.3419 5.20364L34.5823 4.48204L34.8442 3.80315L35.1276 3.17433L35.432 2.60274L35.7569 2.09522L36.1012 1.65814L36.4635 1.29721L36.8423 1.01736L37.2356 0.822608L37.6411 0.715945L38.0565 0.699244L38.4792 0.773199L38.9065 0.937297L39.3357 1.18982L39.7639 1.52789L40.1886 1.94751L40.6073 2.4437L41.0175 3.01058L41.4171 3.64152L41.8043 4.32932L42.1774 5.06633L42.5353 5.84461L42.8768 6.65614L43.2014 7.49288L43.5087 8.34698L43.7987 9.21085L44.0715 10.0772L44.3277 10.9394L44.5679 11.791L44.793 12.6263L45.004 13.44L45.2023 14.2274L45.3891 14.9845L45.5658 15.7074L45.7339 16.393L45.8951 17.0384L46.0509 17.6412L46.2031 18.1992L46.3534 18.7104L46.5036 19.173L46.6556 19.5853L46.8113 19.9455L46.9727 20.252L47.1421 20.5027L47.3218 20.6956L47.5141 20.8282L47.722 20.8976L47.9475 20.9034L48.1918 20.849L48.4558 20.7382L48.7404 20.5739L49.0465 20.3592L49.3751 20.0965L49.727 19.7884L50.103 19.4373L50.5037 19.0456L50.9299 18.6159L51.3818 18.1508L51.8598 17.6532L52.364 17.1263L52.894 16.5734L53.4495 15.9982L54.0297 15.405L54.6333 14.7983L55.2589 14.1828L55.9045 13.5641L56.5678 12.9476L57.2458 12.3394L57.9354 11.7458L58.6329 11.1732L59.3342 10.6283L60.0348 10.1177L60.73 9.64796L61.4148 9.22541L62.0841 8.85606L62.7325 8.54542L63.3549 8.29845L63.9463 8.11937L64.5018 8.01158L65.0169 7.97759L65.4876 8.01892L65.9106 8.13609L66.2828 8.32862L66.6022 8.59499L66.8672 8.93274L67.0773 9.33852L67.2324 9.80816L67.3332 10.3368L67.3812 10.919L67.3786 11.549L67.3278 12.2204L67.2321 12.9271L67.095 13.6625L66.9203 14.4204L66.712 15.1947L66.4744 15.9793L66.2118 16.7689L65.9284 17.5582L65.6283 18.3426L65.3157 19.1178L64.9945 19.8801L64.6683 20.6262L64.3405 21.3532L64.0144 22.059L63.693 22.7415L63.3788 23.3993L63.0744 24.0312L62.782 24.6364L62.5034 25.2144L62.2405 25.7649L61.9947 26.288L61.7675 26.7838L61.5601 27.2526L61.3734 27.6949L61.2085 28.1113L61.0661 28.5024L60.9471 28.8691L60.852 29.2121L60.7816 29.5323L60.7363 29.8305L60.7168 30.1076L60.7235 30.3645L60.7569 30.6021L60.8176 30.8213L60.9061 31.023L61.0229 31.2081L61.1684 31.3775L61.3433 31.532L61.548 31.6727L61.783 31.8002L62.049 31.9156L62.3463 32.0197L62.6755 32.1135L63.037 32.1979L63.4312 32.2739L63.8584 32.3424L64.3188 32.4046L64.8126 32.4615L65.3397 32.5142L65.8999 32.5639L66.4928 32.6118L67.1176 32.6593L67.7736 32.7077L68.4593 32.7584L69.1732 32.8129L69.9134 32.8727L70.6773 32.9393L71.462 33.0144L72.2642 33.0996L73.08 33.1964L73.905 33.3064L74.7342 33.4312L75.5622 33.5722L76.3829 33.7307L77.1901 33.908L77.977 34.105L78.7364 34.3226L79.461 34.5613L80.1436 34.8215L80.7767 35.1031L81.3531 35.4059L81.8659 35.7292L82.3088 36.0719L82.676 36.4329L82.9625 36.8104L83.1641 37.2026L83.2779 37.6073L83.3018 38.022L83.2351 38.4442L83.0781 38.8712L82.8325 39.3003L82.5011 39.7288L82.0878 40.1538L81.5975 40.5731L81.036 40.984L80.4099 41.3846L79.7263 41.7728L78.9929 42.1471L78.2176 42.5063L77.4084 42.8491L76.5734 43.1751L75.7204 43.4838L74.857 43.7752L73.9905 44.0494L73.1278 44.3068L72.2751 44.5483L71.4383 44.7746L70.6227 44.9867L69.833 45.186L69.0734 45.3736L68.3476 45.551L67.6589 45.7198L67.0102 45.8815L66.4039 46.0377L65.8423 46.1901L65.3273 46.3405L64.8608 46.4907L64.4444 46.6424L64.0799 46.7978L63.7691 46.9587L63.5139 47.1274L63.3163 47.3061L63.1788 47.4974L63.1042 47.7039L63.0935 47.928L63.1432 48.1707L63.2497 48.4331L63.4098 48.716L63.6206 49.0204L63.8795 49.3472L64.1841 49.6972L64.5319 50.0712L64.9204 50.4699L65.3472 50.894L65.8095 51.3439L66.3047 51.8198L66.8294 52.3219L67.3804 52.8499L67.9539 53.4033L68.5458 53.9816L69.1517 54.5834L69.7666 55.2073L70.3853 55.8513L71.0022 56.5132L71.6112 57.1902L72.2062 57.879L72.7807 58.576L73.3281 59.2771L73.8416 59.9779L74.3148 60.6737L74.7414 61.3596L75.1152 62.0302L75.4307 62.6805L75.6829 63.3051L75.8675 63.8991L75.981 64.4576L76.021 64.9761L75.9857 65.4506L75.8745 65.8774L75.6879 66.2538L75.4274 66.5774L75.0952 66.8468L74.6947 67.0613L74.2299 67.2207L73.7058 67.3258L73.1276 67.378L72.5012 67.3793L71.8328 67.3323L71.1288 67.2401L70.3954 67.1061L69.639 66.9342L68.8658 66.7285L68.0818 66.4931L67.2924 66.2323L66.5029 65.9504L65.718 65.6516L64.9419 65.3399L64.1785 65.0192L63.431 64.6933L62.7023 64.3655L61.9948 64.0392L61.3103 63.7173L60.6505 63.4025L60.0165 63.0973L59.4092 62.8038L58.829 62.5241L58.2763 62.2598L57.751 62.0127L57.2531 61.784L56.7822 61.5749L56.3378 61.3866L55.9193 61.2199L55.5262 61.0757L55.1576 60.9548L54.8127 60.8578L54.4908 60.7854L54.1908 60.7381L53.9121 60.7165L53.6536 60.7211L53.4145 60.7524L53.1939 60.8109L52.9908 60.8972L52.9296 60.9305Z" fill="url(#paint1_linear_2054_8020)"/>
<path d="M67.7227 51.2153H60.1589L64.6706 46.9861C64.6809 46.9762 64.6921 46.9663 64.7024 46.9563C66.5683 45.158 68.085 43.1233 69.2094 40.9099C70.3975 38.5729 70.9995 35.7243 70.9995 32.4443C70.9995 30.6153 70.7673 28.8612 70.3085 27.2298C69.7796 25.3539 68.7956 23.6864 67.3838 22.2716C65.9907 20.8766 64.1332 19.792 61.8628 19.0458C59.7498 18.3519 57.0666 18 53.889 18C50.5542 18 47.7549 18.4033 45.5707 19.1983C43.1955 20.0636 41.293 21.3512 39.9159 23.025C39.3635 23.6954 38.8851 24.4236 38.4788 25.2041V21.1581C38.4788 19.4166 37.0089 18 35.202 18H27.0718C25.6225 18 24.3287 18.9366 23.9251 20.2775C23.6527 21.1816 23.3185 21.9305 22.9309 22.5044C22.6472 22.924 22.3111 23.2307 21.872 23.4708C21.3131 23.7776 20.5838 24.0085 19.7037 24.1592C18.6458 24.3406 17.3276 24.4326 15.7866 24.4326C13.9796 24.4326 12.5098 25.8493 12.5098 27.5908V34.3744C12.5098 36.1159 13.9796 37.5325 15.7866 37.5325H20.6399V62.5611C20.6399 64.3025 22.1098 65.7192 23.9167 65.7192H35.202C36.0118 65.7192 36.7533 65.434 37.3253 64.9639C37.8974 65.4349 38.6389 65.7192 39.4487 65.7192H67.7236C69.5305 65.7192 71.0004 64.3025 71.0004 62.5611V54.3743C71.0004 52.6328 69.5305 51.2162 67.7236 51.2162L67.7227 51.2153Z" fill="white"/>
<path d="M35.2009 63.689H23.9157C23.2697 63.689 22.7454 63.1837 22.7454 62.5611V35.5023H15.7855C15.1395 35.5023 14.6152 34.997 14.6152 34.3744V27.5908C14.6152 26.9682 15.1395 26.4629 15.7855 26.4629C17.4501 26.4629 18.8919 26.3609 20.0706 26.1588C21.1875 25.9684 22.1434 25.658 22.9121 25.2367C23.6442 24.836 24.2275 24.3046 24.6946 23.6134C25.1955 22.8717 25.6168 21.9405 25.9473 20.8442C26.0924 20.3623 26.5502 20.0303 27.0708 20.0303H35.2009C35.8469 20.0303 36.3712 20.5356 36.3712 21.1582V62.5611C36.3712 63.1837 35.8469 63.689 35.2009 63.689ZM25.086 61.4332H34.0307V22.2861H27.9255C27.5745 23.2561 27.1494 24.1142 26.656 24.8432C25.9894 25.8304 25.1187 26.6217 24.0692 27.1965C23.0675 27.746 21.8597 28.1439 20.4797 28.3794C19.4593 28.5545 18.2777 28.6619 16.9558 28.7016V33.2465H23.9157C24.5617 33.2465 25.086 33.7518 25.086 34.3744V61.4332Z" fill="#191B29"/>
<path d="M67.7225 63.6889H39.4476C38.8016 63.6889 38.2773 63.1836 38.2773 62.561C38.2773 59.5283 38.7576 56.6229 39.7041 53.9249C40.6666 51.1837 42.4613 48.4939 45.0388 45.9286C45.0406 45.9268 45.0434 45.9241 45.0453 45.9223L52.5688 38.5539C53.5659 37.592 54.2746 36.6861 54.6791 35.8542C55.0685 35.0538 55.2661 33.9458 55.2661 32.5616C55.2661 30.5323 54.8822 29.8285 54.7174 29.6201C54.415 29.2402 54.0471 29.0696 53.5238 29.0696C53.2635 29.0696 53.0248 29.1111 52.7944 29.1978C52.6428 29.2546 52.4724 29.399 52.3057 29.6128C52.1644 29.7942 51.9575 30.1605 51.7786 30.8689C51.6195 31.5005 51.539 32.3649 51.539 33.4387V35.1928C51.539 35.8154 51.0147 36.3207 50.3687 36.3207H39.8109C39.4972 36.3207 39.1958 36.1989 38.9758 35.9832C38.7558 35.7676 38.635 35.4752 38.6406 35.172C38.6818 33.0128 38.8934 31.006 39.2707 29.2086C39.6704 27.3047 40.4419 25.6489 41.5644 24.2864C42.7019 22.9041 44.3001 21.8303 46.3148 21.0967C48.2603 20.3884 50.8087 20.0293 53.8889 20.0293C56.9691 20.0293 59.289 20.3451 61.183 20.9668C63.1322 21.6075 64.7079 22.5197 65.866 23.6792C67.0297 24.845 67.8405 26.2183 68.2758 27.7622C68.6859 29.2194 68.8938 30.794 68.8938 32.4443C68.8938 35.412 68.3639 37.9593 67.3181 40.0166C66.2957 42.0296 64.9139 43.8821 63.2118 45.5225C63.2081 45.5261 63.2043 45.5297 63.2006 45.5334L56.5319 51.7855C56.0647 52.2358 55.5647 52.7266 55.0433 53.2464H67.7244C68.3704 53.2464 68.8947 53.7517 68.8947 54.3743V62.561C68.8947 63.1836 68.3704 63.6889 67.7244 63.6889H67.7225ZM40.6422 61.4331H66.5523V55.5022H52.918C52.5454 55.5022 52.1962 55.3316 51.9752 55.0429C51.7543 54.7542 51.6897 54.3815 51.8011 54.0386C52.0576 53.2482 52.5482 52.4875 53.2597 51.7783C53.828 51.2108 54.3739 50.6748 54.8813 50.1857C54.885 50.1821 54.8888 50.1785 54.8925 50.1749L61.5612 43.9227C63.0779 42.4601 64.3072 40.8124 65.2153 39.0249C66.1029 37.2798 66.5523 35.0655 66.5523 32.4452C66.5523 30.9943 66.3716 29.6182 66.0167 28.3541C65.6806 27.1639 65.0796 26.147 64.1789 25.2447C63.282 24.3469 62.02 23.6268 60.4275 23.1035C58.7769 22.5612 56.5768 22.2869 53.8879 22.2869C51.1991 22.2869 48.822 22.5973 47.1415 23.2082C45.5293 23.7956 44.2692 24.6311 43.3976 25.6904C42.5072 26.7714 41.8902 28.106 41.5644 29.657C41.2826 31.0015 41.1001 32.4804 41.0205 34.0658H49.1984V33.4396C49.1984 32.1691 49.2986 31.154 49.5046 30.3374C49.7264 29.4576 50.0307 28.7791 50.4333 28.2612C50.8686 27.7026 51.377 27.3119 51.9453 27.0972C52.4462 26.9095 52.977 26.8156 53.5238 26.8156C54.7746 26.8156 55.8306 27.3119 56.5768 28.2521C57.2696 29.1274 57.6066 30.5377 57.6066 32.5634C57.6066 34.2814 57.3342 35.7116 56.7977 36.8142C56.2772 37.8835 55.4131 39.0042 54.2297 40.1447L46.7155 47.5031C44.3834 49.8248 42.7703 52.2295 41.9202 54.6495C41.1731 56.779 40.7434 59.0564 40.6413 61.4349L40.6422 61.4331Z" fill="#191B29"/>
<defs>
<linearGradient id="paint0_linear_2054_8020" x1="42" y1="3.92969" x2="42" y2="80.0703" gradientUnits="userSpaceOnUse">
<stop stop-color="#FF4D00"/>
<stop offset="1" stop-color="#FFD339"/>
</linearGradient>
<linearGradient id="paint1_linear_2054_8020" x1="74.9687" y1="22.9648" x2="9.02905" y2="61.0351" gradientUnits="userSpaceOnUse">
<stop stop-color="#FF4D00"/>
<stop offset="1" stop-color="#FFD339"/>
</linearGradient>
</defs>
</svg>
