<svg width="16" height="16" viewBox="0 0 16 16" fill="none" xmlns="http://www.w3.org/2000/svg">
<path d="M6.82919 13C7.1233 13 7.35332 12.8751 7.51923 12.6254L12.836 4.18156C12.8925 4.08934 12.934 4.00288 12.9604 3.92219C12.9868 3.83766 13 3.75504 13 3.67435C13 3.47454 12.9378 3.31316 12.8133 3.1902C12.6889 3.0634 12.5287 3 12.3326 3C12.1893 3 12.0724 3.02882 11.9819 3.08646C11.8914 3.14025 11.8028 3.23439 11.7161 3.36888L6.80656 11.317L4.27262 8.00288C4.11425 7.79155 3.92006 7.68588 3.69005 7.68588C3.4902 7.68588 3.32428 7.7512 3.19231 7.88184C3.0641 8.01249 3 8.17771 3 8.37752C3 8.4659 3.01508 8.55235 3.04525 8.63689C3.07919 8.72142 3.13198 8.80788 3.20362 8.89625L6.13348 12.6311C6.32579 12.877 6.55769 13 6.82919 13Z" fill="#191B2A"/>
</svg>
