<svg width="32" height="32" viewBox="0 0 32 32" fill="none" xmlns="http://www.w3.org/2000/svg">
<path d="M24.9883 6.46094C24.8477 6.32812 24.6875 6.23828 24.5078 6.19141C24.3281 6.14453 24.1484 6.14453 23.9688 6.19141C23.7891 6.23828 23.6328 6.32812 23.5 6.46094L16 13.9609L8.5 6.46094C8.36719 6.32812 8.21094 6.23828 8.03125 6.19141C7.85157 6.14453 7.67188 6.14453 7.49219 6.19141C7.30469 6.23047 7.14454 6.32031 7.01172 6.46094C6.87891 6.59375 6.79297 6.75 6.75391 6.92969C6.70704 7.10937 6.70704 7.28906 6.75391 7.46875C6.79297 7.64844 6.87891 7.80469 7.01172 7.9375L14.5117 15.4492L7.01172 22.9492C6.87891 23.082 6.78906 23.2383 6.74219 23.418C6.69531 23.5977 6.69531 23.7773 6.74219 23.957C6.78906 24.1367 6.87891 24.293 7.01172 24.4258C7.15234 24.5664 7.3125 24.6562 7.49219 24.6953C7.67188 24.7422 7.85156 24.7422 8.03125 24.6953C8.21094 24.6562 8.36719 24.5664 8.5 24.4258L16 16.9258L23.5 24.4258C23.6328 24.5664 23.793 24.6562 23.9805 24.6953C24.1602 24.7422 24.3398 24.7422 24.5195 24.6953C24.6992 24.6562 24.8555 24.5664 24.9883 24.4258C25.1211 24.293 25.2109 24.1367 25.2578 23.957C25.2969 23.7773 25.2969 23.5977 25.2578 23.418C25.2109 23.2383 25.1211 23.082 24.9883 22.9492L17.4883 15.4492L24.9883 7.9375C25.1211 7.80469 25.2109 7.64844 25.2578 7.46875C25.3047 7.28906 25.3086 7.10937 25.2695 6.92969C25.2227 6.75 25.1289 6.59375 24.9883 6.46094Z" fill="#191B29"/>
</svg>
