<svg width="24" height="24" viewBox="0 0 24 24" xmlns="http://www.w3.org/2000/svg">
    <path d="M10.1807 19.4941C10.6377 19.4941 10.9951 19.3037 11.2529 18.9229L19.5146 6.04688C19.6025 5.90625 19.667 5.77442 19.708 5.65137C19.749 5.52246 19.7695 5.39649 19.7695 5.27344C19.7695 4.96875 19.6729 4.72266 19.4795 4.53516C19.2861 4.3418 19.0371 4.24512 18.7324 4.24512C18.5098 4.24512 18.3281 4.28906 18.1875 4.37695C18.0469 4.45899 17.9092 4.60254 17.7744 4.80762L10.1455 16.9277L6.20801 11.874C5.96191 11.5518 5.66016 11.3906 5.30273 11.3906C4.99219 11.3906 4.73437 11.4902 4.5293 11.6895C4.33008 11.8887 4.23047 12.1406 4.23047 12.4453C4.23047 12.5801 4.25391 12.7119 4.30078 12.8408C4.35351 12.9697 4.43555 13.1016 4.54687 13.2363L9.09961 18.9316C9.39844 19.3066 9.75879 19.4941 10.1807 19.4941Z" fill="#2F3038"/>
</svg>
