<svg width="40" height="40" viewBox="0 0 40 40" fill="none" xmlns="http://www.w3.org/2000/svg">
<g clip-path="url(#clip0_2302_13086)">
<path fill-rule="evenodd" clip-rule="evenodd" d="M35.3206 19.7335V19.7335L34.2 19.8752L33.2605 19.9981L32.4717 20.1068L31.8098 20.2049L31.2555 20.2952L30.7936 20.38L30.4117 20.4613L30.0999 20.5407L29.8499 20.6196L29.6552 20.6991L29.5104 20.7804L29.4111 20.8645L29.3537 20.9523L29.3353 21.0446L29.3534 21.1424L29.4061 21.2464L29.4917 21.3575L29.6089 21.4763L29.7565 21.6039L29.9336 21.7408L30.139 21.8879L30.3719 22.0459L30.6314 22.2155L30.9163 22.3973L31.2255 22.5919L31.5576 22.7998L31.9108 23.0213L32.2835 23.2567L32.6732 23.5061L33.0774 23.7692L33.4932 24.0458L33.9174 24.3353L34.3461 24.6368L34.7753 24.9491L35.2008 25.2709L35.6179 25.6005L36.0219 25.9358L36.4078 26.2746L36.7708 26.6145L37.1062 26.9529L37.4096 27.2868L37.6767 27.6137L37.9042 27.9306L38.0888 28.2349L38.2285 28.524L38.3216 28.7956L38.3673 29.0478L38.3658 29.2789L38.318 29.4877L38.2254 29.6733L38.0905 29.8354L37.9162 29.974L37.7059 30.0896L37.4635 30.1831L37.193 30.2557L36.8989 30.3089L36.5854 30.3444L36.2568 30.3642L35.9173 30.3703L35.571 30.365L35.2214 30.3504L34.8721 30.3288L34.5262 30.3022L34.1864 30.2728L33.8552 30.2427L33.5346 30.2137L33.2264 30.1875L32.932 30.166L32.6528 30.1506L32.3895 30.1428L32.1429 30.1439L31.9134 30.155L31.7014 30.1774L31.5069 30.2119L31.3301 30.2596L31.1707 30.3211L31.0286 30.3974L30.9034 30.4889L30.7946 30.5964L30.7018 30.7203L30.6243 30.8611L30.5616 31.0191L30.5129 31.1946L30.4774 31.3876L30.4541 31.5982L30.4421 31.8263L30.4403 32.0716L30.4474 32.3336L30.4623 32.6117L30.4833 32.9048L30.5091 33.212L30.538 33.5317L30.5681 33.8622L30.5976 34.2014L30.6245 34.547L30.6466 34.8961L30.6619 35.2458L30.668 35.5925L30.6629 35.9327L30.6442 36.2623L30.6101 36.5772L30.5584 36.8731L30.4874 37.1456L30.3956 37.3904L30.2818 37.6034L30.145 37.7808L29.9848 37.9189L29.8011 38.015L29.5941 38.0664L29.3648 38.0716L29.1142 38.0297L28.8441 37.9403L28.5563 37.8044L28.2532 37.6232L27.9372 37.399L27.611 37.1349L27.2775 36.8343L26.9395 36.5012L26.5996 36.1402L26.2606 35.7559L25.925 35.3532L25.5949 34.937L25.2724 34.512L24.9593 34.0828L24.6569 33.6539L24.3665 33.2292L24.0888 32.8126L23.8246 32.4073L23.5742 32.0163L23.3376 31.6422L23.115 31.2873L22.9061 30.9535L22.7104 30.6424L22.5276 30.3555L22.3571 30.0939L22.1982 29.8588L22.0503 29.6511L21.9126 29.4718L21.7844 29.3218L21.6648 29.2021L21.5532 29.1139L21.4487 29.0586L21.3504 29.0376L21.2577 29.0531L21.1696 29.1073L21.0852 29.2031L21.0037 29.3442L20.9241 29.5347L20.8452 29.7801L20.7659 30.0867L20.6849 30.4627L20.6004 30.9179L20.5106 31.4643L20.4133 32.1171L20.3055 32.895L20.1839 33.8215L20.0439 34.9265L19.9006 33.9847L19.7764 33.0319L19.6667 32.232L19.5679 31.5607L19.4771 30.9984L19.3919 30.5296L19.3104 30.1417L19.2309 29.8246L19.1521 29.57L19.0726 29.3711L18.9915 29.2225L18.9077 29.1197L18.8202 29.0591L18.7283 29.0376L18.631 29.0529L18.5275 29.1029L18.4171 29.1859L18.2988 29.3007L18.172 29.4459L18.0359 29.6207L17.8896 29.8239L17.7325 30.0547L17.5639 30.3121L17.3831 30.5951L17.1895 30.9024L16.9827 31.2327L16.7623 31.5843L16.528 31.9555L16.2798 32.344L16.0178 32.7472L15.7422 33.1622L15.4538 33.5859L15.1532 34.0144L14.8417 34.4438L14.5206 34.8698L14.1916 35.2877L13.8567 35.6929L13.5181 36.0805L13.1782 36.4455L12.8396 36.7833L12.5052 37.0894L12.1777 37.3596L11.8599 37.5903L11.5546 37.7785L11.2642 37.9218L10.9911 38.0186L10.7373 38.0681L10.5045 38.0704L10.2939 38.0262L10.1065 37.9371L9.94251 37.8055L9.80204 37.6342L9.6846 37.4266L9.58938 37.1865L9.51518 36.9182L9.46053 36.6257L9.42369 36.3136L9.40273 35.986L9.39558 35.6473L9.40007 35.3013L9.41401 34.9518L9.43519 34.6024L9.46144 34.2561L9.49065 33.9157L9.52081 33.5837L9.54999 33.2621L9.57639 32.9529L9.59834 32.6574L9.61427 32.3769L9.62273 32.1122L9.62242 31.8643L9.6121 31.6334L9.59069 31.42L9.55716 31.2241L9.5106 31.0459L9.45018 30.8851L9.37515 30.7416L9.28483 30.615L9.17864 30.505L9.05604 30.4109L8.91662 30.3323L8.76001 30.2684L8.58597 30.2186L8.39435 30.1821L8.18513 30.1578L7.95842 30.145L7.7145 30.1424L7.45383 30.1488L7.17704 30.1631L6.88504 30.1838L6.57897 30.2093L6.26023 30.2379L5.93054 30.268L5.59195 30.2976L5.24683 30.3248L4.89788 30.3474L4.54816 30.3633L4.20105 30.3702L3.86023 30.366L3.52964 30.3486L3.21344 30.3157L2.91591 30.2655L2.64141 30.1961L2.39423 30.106L2.17855 29.9939L1.99824 29.859L1.85684 29.7007L1.75738 29.5188L1.7023 29.3137L1.69336 29.0861L1.73156 28.8372L1.81711 28.5685L1.94942 28.282L2.12706 27.98L2.34786 27.6649L2.60894 27.3395L2.90678 27.0064L3.23738 26.6686L3.59631 26.3288L3.9789 25.9896L4.38029 25.6536L4.79562 25.323L5.22009 24.9998L5.64906 24.6858L6.07814 24.3825L6.50325 24.0911L6.92063 23.8124L7.32693 23.5471L7.71914 23.2955L8.09463 23.0579L8.45112 22.8341L8.78667 22.6241L9.09958 22.4274L9.38846 22.2436L9.65205 22.0721L9.88929 21.9123L10.0992 21.7635L10.2808 21.625L10.4332 21.4961L10.5553 21.3758L10.646 21.2636L10.7041 21.1585L10.7278 21.0598L10.7153 20.9667L10.6643 20.8782L10.5719 20.7936L10.4346 20.7119L10.2482 20.6322L10.0075 20.5533L9.70597 20.4741L9.33586 20.3932L8.88746 20.309L8.34884 20.2197L7.7052 20.1231L6.93809 20.0163L6.02441 19.8959L4.93502 19.7576L5.69807 19.613L6.66422 19.4874L7.47525 19.3767L8.15602 19.2771L8.72633 19.1858L9.20204 19.1002L9.59594 19.0185L9.91837 18.9389L10.1777 18.86L10.3808 18.7807L10.5332 18.6997L10.6395 18.6161L10.7034 18.529L10.7279 18.4374L10.7154 18.3406L10.6681 18.2376L10.5877 18.1278L10.4754 18.0102L10.3325 17.8841L10.1601 17.7487L9.95916 17.6033L9.73053 17.447L9.47522 17.2794L9.19427 17.0995L8.88887 16.907L8.56036 16.7012L8.21034 16.4819L7.84067 16.2487L7.45352 16.0016L7.05141 15.7406L6.6372 15.4661L6.21417 15.1787L5.78592 14.879L5.35646 14.5683L4.93006 14.2479L4.51131 13.9194L4.10494 13.5849L3.71584 13.2465L3.34885 12.9066L3.00873 12.5678L2.7 12.233L2.42681 11.9048L2.19283 11.5861L2.00117 11.2796L1.85424 10.9879L1.75368 10.7134L1.70038 10.458L1.69438 10.2234L1.73492 10.011L1.82048 9.82171L1.94882 9.65587L2.1171 9.51353L2.32192 9.39428L2.55951 9.29732L2.82577 9.2215L3.11644 9.16535L3.42716 9.12715L3.75362 9.105L4.09162 9.09683L4.43714 9.10047L4.78641 9.11374L5.13595 9.13443L5.48261 9.16035L5.82355 9.18941L6.15631 9.21956L6.47874 9.24889L6.78902 9.27558L7.08564 9.29794L7.36737 9.3144L7.63326 9.32351L7.88258 9.32394L8.11481 9.31447L8.32962 9.29397L8.52685 9.26144L8.70647 9.21595L8.86861 9.15666L9.01348 9.08281L9.14139 8.99373L9.25276 8.88881L9.34807 8.76754L9.4279 8.62946L9.4929 8.47422L9.54379 8.30157L9.58137 8.11134L9.60654 7.90351L9.62027 7.67817L9.62365 7.4356L9.61784 7.17622L9.60414 6.90067L9.58394 6.60983L9.55878 6.30481L9.5303 5.987L9.50025 5.6581L9.47052 5.32012L9.4431 4.9754L9.42008 4.62663L9.40359 4.27683L9.39585 3.92936L9.39905 3.58788L9.41539 3.25631L9.44695 2.93879L9.49573 2.6396L9.56353 2.36309L9.65191 2.11357L9.76216 1.89522L9.89523 1.71195L10.0517 1.56733L10.2317 1.46442L10.435 1.40573L10.6608 1.39307L10.9081 1.4275L11.1752 1.5093L11.4603 1.63793L11.7612 1.81204L12.0753 2.02951L12.4 2.28751L12.7325 2.58258L13.0701 2.91075L13.4098 3.26761L13.7491 3.64851L14.0855 4.04861L14.4166 4.46303L14.7404 4.88697L15.0551 5.31577L15.3593 5.74502L15.6517 6.17061L15.9314 6.58876L16.1978 6.99608L16.4505 7.38953L16.6892 7.76646L16.914 8.12456L17.1251 8.46186L17.3228 8.77665L17.5077 9.0675L17.6801 9.33316L17.8408 9.57255L17.9904 9.78466L18.1297 9.96857L18.2594 10.1233L18.3803 10.2479L18.4931 10.3412L18.5987 10.4019L18.6979 10.4284L18.7915 10.4189L18.8802 10.3711L18.9651 10.2821L19.047 10.1485L19.1269 9.96617L19.2058 9.72995L19.2849 9.43353L19.3656 9.06919L19.4494 8.62741L19.5382 8.09645L19.6342 7.46176L19.7401 6.70522L19.8592 5.80414L19.9959 4.72992L20.1415 5.31451L20.2685 6.29432L20.3802 7.11676L20.4805 7.80716L20.5724 8.38567L20.6584 8.86843L20.7404 9.26847L20.8201 9.59627L20.899 9.86039L20.9782 10.0678L21.059 10.224L21.1424 10.3339L21.2292 10.401L21.3203 10.4285L21.4167 10.4189L21.5191 10.3744L21.6284 10.2965L21.7454 10.1867L21.8708 10.0462L22.0054 9.87611L22.15 9.67735L22.3053 9.45088L22.472 9.19764L22.6508 8.91868L22.8423 8.61516L23.047 8.28843L23.2652 7.94004L23.4973 7.57184L23.7433 7.18597L24.0032 6.78492L24.2766 6.37154L24.563 5.94906L24.8617 5.52107L25.1716 5.09152L25.4913 4.66469L25.8191 4.24513L26.1532 3.83758L26.4914 3.4469L26.8313 3.07796L27.1702 2.73551L27.5055 2.4241L27.8343 2.14792L28.1538 1.91069L28.4613 1.71555L28.7542 1.56498L29.0302 1.46068L29.2872 1.40361L29.5235 1.39385L29.7376 1.43074L29.9288 1.51279L30.0965 1.63783L30.2407 1.80305L30.3618 2.0051L30.4605 2.24024L30.5379 2.50439L30.5956 2.79329L30.6351 3.10259L30.6585 3.42797L30.6677 3.76522L30.6649 4.1103L30.6523 4.45943L30.6322 4.80908L30.6066 5.1561L30.5777 5.49761L30.5476 5.83112L30.5181 6.15446L30.4911 6.46578L30.4684 6.76355L30.4514 7.04653L30.4416 7.31373L30.4405 7.5644L30.4491 7.79801L30.4687 8.01423L30.5002 8.21287L30.5446 8.39391L30.6028 8.55744L30.6755 8.70368L30.7633 8.83294L30.8669 8.94561L30.9869 9.04219L31.1236 9.12324L31.2775 9.18939L31.4487 9.24138L31.6375 9.27999L31.8439 9.30611L32.0679 9.32072L32.3091 9.32488L32.5671 9.31976L32.8414 9.30663L33.131 9.2869L33.435 9.26208L33.7518 9.23379L34.0799 9.2038L34.4172 9.17397L34.7615 9.14629L35.11 9.12284L35.4598 9.10575L35.8076 9.09723L36.1496 9.09948L36.4821 9.11469L36.8009 9.14497L37.1017 9.19232L37.3802 9.25854L37.632 9.34524L37.8529 9.45371L38.0391 9.58494L38.1869 9.73953L38.2933 9.91767L38.3556 10.1191L38.3719 10.3432L38.3413 10.5888L38.2632 10.8545L38.1383 11.1383L37.9678 11.438L37.7537 11.7512L37.4988 12.0751L37.2065 12.4072L36.8809 12.7444L36.5261 13.0841L36.147 13.4235L35.7483 13.7602L35.3348 14.0918L34.9115 14.4163L34.483 14.7319L34.0536 15.0369L33.6276 15.3304L33.2088 15.6111L32.8005 15.8786L32.4058 16.1324L32.0275 16.3722L31.6679 16.5982L31.3289 16.8104L31.0123 17.0092L30.7195 17.195L30.4518 17.3684L30.2103 17.53L29.996 17.6805L29.8098 17.8206L29.6527 17.951L29.5257 18.0726L29.4298 18.186L29.3665 18.2922L29.3372 18.3919L29.3437 18.4858L29.3885 18.575L29.474 18.6601L29.6039 18.7422L29.7822 18.8222L30.0139 18.9012L30.3052 18.9803L30.6638 19.0608L31.099 19.1443L31.6223 19.2326L32.2481 19.3279L32.9942 19.4329L33.8827 19.5509L34.9419 19.686L35.3206 19.7335Z" fill="url(#paint0_linear_2302_13086)"/>
<path fill-rule="evenodd" clip-rule="evenodd" d="M30.8426 30.5433V30.5433L29.9501 29.8512L29.1988 29.2737L28.5642 28.7929L28.0268 28.3941L27.571 28.0661L27.1844 27.7994L26.8569 27.5869L26.5802 27.4225L26.3477 27.3015L26.1538 27.2201L25.9939 27.1752L25.8642 27.1645L25.7616 27.1859L25.6832 27.2382L25.6269 27.3201L25.5906 27.4309L25.5726 27.57L25.5715 27.7369L25.5857 27.9315L25.614 28.1535L25.6553 28.4028L25.7083 28.6792L25.7718 28.9826L25.8447 29.3126L25.9258 29.6689L26.0136 30.0506L26.1067 30.4571L26.2037 30.887L26.303 31.3389L26.4028 31.8108L26.5012 32.3005L26.5964 32.805L26.6864 33.3214L26.769 33.8458L26.8424 34.3742L26.9043 34.9022L26.9528 35.4249L26.9861 35.9374L27.0024 36.4344L27.0004 36.9108L26.9787 37.3615L26.9365 37.7815L26.8732 38.1664L26.7887 38.5122L26.683 38.8153L26.5567 39.0732L26.4107 39.2839L26.2463 39.4463L26.0648 39.5601L25.8682 39.6259L25.6581 39.6451L25.4369 39.6198L25.2064 39.5529L24.9688 39.4476L24.7263 39.3077L24.4807 39.1373L24.2339 38.9407L23.9876 38.7224L23.7432 38.4867L23.502 38.238L23.2652 37.9805L23.0335 37.7182L22.8077 37.4548L22.5882 37.1938L22.3753 36.9382L22.1691 36.691L21.9696 36.4546L21.7767 36.2313L21.5901 36.0229L21.4095 35.8312L21.2343 35.6576L21.0642 35.5032L20.8985 35.3691L20.7366 35.256L20.5779 35.1647L20.4216 35.0955L20.2672 35.0489L20.1139 35.0251L19.961 35.0242L19.8077 35.0462L19.6534 35.091L19.4974 35.1584L19.3389 35.248L19.1772 35.3594L19.0119 35.4918L18.8421 35.6446L18.6673 35.8168L18.4871 36.0071L18.301 36.2142L18.1086 36.4364L17.9097 36.6719L17.704 36.9183L17.4916 37.1733L17.2726 37.434L17.0473 37.6974L16.816 37.9599L16.5795 38.2179L16.3387 38.4675L16.0945 38.7044L15.8483 38.9243L15.6014 39.1228L15.3557 39.2954L15.1128 39.4379L14.8748 39.5461L14.6437 39.6163L14.4216 39.645L14.2106 39.6294L14.0128 39.5674L13.8301 39.4574L13.6642 39.299L13.5167 39.0921L13.3888 38.8379L13.2815 38.5383L13.1953 38.1958L13.1303 37.8139L13.0865 37.3965L13.0632 36.9481L13.0597 36.4736L13.0746 35.978L13.1067 35.4665L13.1541 34.9444L13.215 34.4167L13.2875 33.8881L13.3696 33.3633L13.459 32.8461L13.5539 32.3405L13.6522 31.8496L13.752 31.3761L13.8514 30.9226L13.9487 30.4908L14.0422 30.0825L14.1305 29.6987L14.2121 29.3404L14.2857 29.0082L14.3501 28.7027L14.404 28.4241L14.4463 28.1727L14.4757 27.9485L14.4911 27.7517L14.4912 27.5826L14.4746 27.4413L14.4398 27.3282L14.3852 27.2439L14.3087 27.1893L14.208 27.1653L14.0806 27.1735L13.9233 27.2156L13.7322 27.294L13.503 27.4117L13.2301 27.5725L12.9069 27.781L12.5253 28.0431L12.0754 28.366L11.545 28.7587L10.9188 29.2326L10.1776 29.8018L9.2973 30.4841L9.86192 29.7169L10.4478 28.9553L10.9358 28.3121L11.3407 27.7676L11.6741 27.3058L11.9453 26.9141L12.1619 26.5821L12.33 26.3017L12.4543 26.0659L12.5387 25.8691L12.5864 25.7066L12.5999 25.5747L12.5809 25.47L12.5311 25.3898L12.4515 25.3318L12.3429 25.294L12.2061 25.2746L12.0414 25.2721L11.849 25.2852L11.6292 25.3125L11.382 25.3527L11.1078 25.4049L10.8065 25.4676L10.4786 25.5399L10.1244 25.6203L9.74464 25.7076L9.3401 25.8004L8.91198 25.8972L8.46178 25.9964L7.99137 26.0962L7.50305 26.1949L6.99954 26.2904L6.48401 26.3809L5.9601 26.4643L5.43183 26.5384L4.90365 26.6014L4.38032 26.651L3.86684 26.6856L3.36838 26.7034L2.89015 26.7029L2.43726 26.6829L2.01462 26.6424L1.62676 26.5808L1.27777 26.4979L0.971097 26.3939L0.709528 26.2693L0.495051 26.1248L0.328833 25.9618L0.211196 25.7817L0.141612 25.5862L0.118763 25.3771L0.140578 25.1567L0.204327 24.9268L0.306726 24.6898L0.444035 24.4475L0.612174 24.2021L0.806846 23.9553L1.02364 23.7089L1.25812 23.4643L1.50594 23.2228L1.76288 22.9856L2.02495 22.7535L2.2884 22.5272L2.54975 22.3071L2.80585 22.0937L3.05385 21.8869L3.2912 21.6869L3.51566 21.4935L3.72528 21.3064L3.91838 21.1253L4.09351 20.9497L4.24946 20.7792L4.38523 20.6131L4.5 20.4509L4.59311 20.292L4.66407 20.1356L4.71249 19.981L4.73814 19.8277L4.74088 19.6747L4.7207 19.5215L4.67772 19.3674L4.61213 19.2115L4.52427 19.0532L4.41463 18.8918L4.28382 18.7268L4.13261 18.5574L3.96197 18.383L3.77306 18.2033L3.56725 18.0177L3.34618 17.8258L3.11173 17.6274L2.86606 17.4223L2.61166 17.2105L2.3513 16.992L2.08806 16.7671L1.82535 16.5364L1.56684 16.3003L1.31648 16.0598L1.07843 15.8158L0.857022 15.5697L0.656675 15.3229L0.481814 15.077L0.336772 14.8338L0.225693 14.5953L0.152404 14.3636L0.120313 14.1407L0.13229 13.9287L0.190569 13.7298L0.296658 13.5458L0.451278 13.3786L0.654307 13.2296L0.904785 13.1001L1.20091 12.991L1.54009 12.9031L1.91901 12.8364L2.33375 12.7909L2.77985 12.766L3.25248 12.7609L3.74658 12.7744L4.25694 12.8051L4.77838 12.8514L5.30584 12.9113L5.8345 12.9829L6.35983 13.0642L6.8777 13.1531L7.38439 13.2477L7.8766 13.3457L8.3515 13.4454L8.80671 13.5449L9.24025 13.6423L9.65053 13.7362L10.0363 13.825L10.3967 13.9072L10.7309 13.9814L11.0386 14.0466L11.3193 14.1013L11.5729 14.1445L11.7993 14.175L11.9982 14.1916L12.1696 14.1929L12.3131 14.1777L12.4284 14.1445L12.515 14.0915L12.5721 14.0168L12.5985 13.9181L12.593 13.793L12.5537 13.6381L12.4783 13.4499L12.3639 13.2239L12.2067 12.9547L12.0022 12.6358L11.7446 12.2592L11.4269 11.8152L11.0401 11.2918L10.5732 10.6738L10.0122 9.94263L9.33975 9.07448L9.98153 9.51182L10.7535 10.1062L11.4053 10.6014L11.957 11.0124L12.4249 11.351L12.8218 11.6269L13.1581 11.8476L13.4424 12.0194L13.6816 12.147L13.8813 12.2345L14.0463 12.285L14.1806 12.3011L14.2873 12.2846L14.3694 12.2372L14.4291 12.1599L14.4684 12.0537L14.4892 11.9191L14.493 11.7565L14.4811 11.5664L14.455 11.3487L14.4157 11.1038L14.3645 10.8316L14.3025 10.5325L14.231 10.2067L14.1512 9.85463L14.0644 9.47686L13.972 9.07426L13.8755 8.64797L13.7765 8.19947L13.6767 7.7306L13.5779 7.24362L13.482 6.74121L13.3911 6.22652L13.3071 5.70313L13.2322 5.17506L13.1683 4.64671L13.1175 4.12281L13.0817 3.60836L13.0625 3.10852L13.0616 2.62848L13.08 2.17339L13.1189 1.74816L13.1788 1.35738L13.26 1.00515L13.3624 0.694994L13.4854 0.429742L13.6283 0.211454L13.7899 0.0413614L13.9688 -0.0801473L14.1631 -0.153529L14.3712 -0.180045L14.5908 -0.161707L14.8199 -0.101195L15.0565 -0.00175537L15.2984 0.132905L15.5436 0.298731L15.7904 0.491439L16.0369 0.706618L16.2817 0.93984L16.5234 1.18674L16.761 1.44309L16.9935 1.70488L17.2203 1.96833L17.4408 2.22996L17.6548 2.48658L17.8621 2.73531L18.0626 2.97358L18.2565 3.19914L18.4441 3.40999L18.6257 3.60445L18.8017 3.78105L18.9726 3.93856L19.139 4.07596L19.3014 4.19242L19.4606 4.28727L19.6172 4.35999L19.7718 4.41021L19.9253 4.43767L20.0782 4.44223L20.2314 4.42387L20.3854 4.38268L20.5412 4.31887L20.6992 4.23277L20.8603 4.12483L21.0251 3.99567L21.1941 3.84605L21.368 3.6769L21.5474 3.48939L21.7325 3.28486L21.9239 3.06493L22.1218 2.83145L22.3264 2.58658L22.5377 2.33277L22.7556 2.07276L22.98 1.80962L23.2103 1.54672L23.446 1.28772L23.6863 1.03655L23.93 0.79735L24.176 0.574444L24.4228 0.372243L24.6689 0.195178L24.9123 0.0475937L25.1513 -0.066349L25.3836 -0.14279L25.6073 -0.178288L25.8202 -0.169923L26.0203 -0.115407L26.2055 -0.0131716L26.3741 0.137566L26.5246 0.336758L26.6557 0.583504L26.7664 0.876071L26.856 1.21193L26.9243 1.58782L26.9715 1.99986L26.998 2.44363L27.0046 2.91434L26.9925 3.40692L26.9631 3.91617L26.918 4.43692L26.8591 4.96409L26.7883 5.49282L26.7076 6.01859L26.6192 6.5372L26.525 7.0449L26.4271 7.53838L26.3275 8.01476L26.2279 8.47163L26.1302 8.90696L26.0359 9.31915L25.9467 9.70692L25.8639 10.0693L25.789 10.4057L25.723 10.7155L25.6674 10.9984L25.6232 11.2541L25.5917 11.4827L25.5739 11.6838L25.5713 11.8574L25.5851 12.0031L25.6169 12.1207L25.6683 12.2096L25.7411 12.269L25.8378 12.298L25.9607 12.2951L26.1131 12.2585L26.2985 12.1861L26.5213 12.0749L26.7868 11.9212L27.1015 11.7207L27.4732 11.4675L27.9114 11.1549L28.4281 10.7739L29.0379 10.3138L29.7593 9.76093L30.6156 9.09803L30.3052 9.61433L29.7021 10.3969L29.1995 11.0575L28.7823 11.6166L28.4382 12.0907L28.1576 12.4928L27.9327 12.8337L27.7573 13.1218L27.6263 13.3643L27.5357 13.567L27.4824 13.7347L27.4636 13.8712L27.4775 13.9801L27.5225 14.064L27.5975 14.1254L27.7014 14.1663L27.8338 14.1885L27.9941 14.1936L28.1821 14.1829L28.3975 14.1578L28.6403 14.1195L28.9103 14.0692L29.2073 14.008L29.531 13.9372L29.881 13.858L30.2568 13.7717L30.6574 13.6797L31.0819 13.5834L31.5287 13.4845L31.996 13.3847L32.4816 13.2857L32.9829 13.1895L33.4968 13.0981L34.0196 13.0135L34.5475 12.9377L35.076 12.8728L35.6004 12.8209L36.1158 12.7838L36.617 12.7632L37.0988 12.7607L37.5561 12.7776L37.9838 12.8148L38.3775 12.873L38.733 12.9525L39.0466 13.0531L39.3155 13.1745L39.5376 13.3159L39.7115 13.4761L39.8369 13.6536L39.914 13.8468L39.9442 14.0538L39.9293 14.2726L39.8721 14.501L39.7756 14.7371L39.6436 14.9786L39.4801 15.2237L39.2893 15.4704L39.0757 15.717L38.8438 15.962L38.5978 16.204L38.342 16.442L38.0805 16.6749L37.8171 16.9022L37.5552 17.1233L37.298 17.3378L37.0486 17.5456L36.8094 17.7467L36.5827 17.9411L36.3706 18.1292L36.1748 18.3113L35.9967 18.4877L35.8376 18.659L35.6986 18.8257L35.5804 18.9885L35.4838 19.1479L35.4093 19.3047L35.3573 19.4595L35.328 19.613L35.3216 19.7659L35.3381 19.919L35.3775 20.073L35.4395 20.2286L35.5238 20.3864L35.63 20.5473L35.7575 20.7117L35.9055 20.8804L36.0732 21.0539L36.2592 21.2327L36.4625 21.4174L36.6812 21.6082L36.9137 21.8056L37.1577 22.0096L37.4109 22.2204L37.6705 22.4378L37.9335 22.6617L38.1966 22.8915L38.456 23.1268L38.7079 23.3667L38.9482 23.6102L39.1726 23.856L39.3766 24.1028L39.5558 24.349L39.7059 24.5927L39.8226 24.8321L39.9022 25.0651L39.941 25.2895L39.9362 25.5033L39.8854 25.7045L39.787 25.891L39.6402 26.061L39.4448 26.213L39.2018 26.3457L38.9128 26.458L38.5802 26.5493L38.2074 26.6194L37.7981 26.6683L37.3567 26.6964L36.8879 26.7046L36.3969 26.6939L35.8888 26.6659L35.3688 26.622L34.8419 26.5641L34.3131 26.4942L33.787 26.4143L33.2677 26.3265L32.759 26.2327L32.2643 26.1351L31.7864 26.0355L31.3279 25.9359L30.8908 25.838L30.4768 25.7434L30.087 25.6538L29.7225 25.5705L29.3841 25.4948L29.0722 25.4282L28.7872 25.3717L28.5292 25.3265L28.2985 25.294L28.0952 25.2751L27.9194 25.2712L27.7714 25.2837L27.6516 25.314L27.5604 25.3637L27.4986 25.4348L27.4671 25.5295L27.4675 25.6502L27.5012 25.8001L27.5707 25.9827L27.6787 26.2024L27.8288 26.4643L28.0254 26.7748L28.2741 27.1416L28.5817 27.5741L28.9568 28.084L29.4101 28.6857L29.955 29.3974L30.6084 30.242L30.8426 30.5433Z" fill="url(#paint1_linear_2302_13086)"/>
<path d="M31.2627 27.7738L28.6594 22.5289C28.7006 22.479 28.7408 22.4282 28.7788 22.3751C29.1956 21.8005 29.383 21.1019 29.3358 20.2989C29.3094 19.8482 29.215 19.433 29.1322 19.0671C29.1165 18.9981 29.098 18.9161 29.0804 18.835C29.1336 18.788 29.1873 18.7413 29.2331 18.7017C29.5176 18.4547 29.8401 18.1746 30.1297 17.8246C30.6492 17.1969 30.9125 16.5132 30.9125 15.7927C30.9125 15.0722 30.6492 14.3754 30.1297 13.7444C29.8345 13.3856 29.5074 13.1031 29.2187 12.8533C29.1743 12.8147 29.122 12.7699 29.0702 12.7242C29.0874 12.6422 29.1063 12.5593 29.1216 12.4894C29.2016 12.1305 29.2928 11.7241 29.3205 11.2851C29.3705 10.4942 29.1942 9.80448 28.7968 9.2359L28.7825 9.2154L28.7677 9.19489C28.3531 8.63098 27.7549 8.24276 26.9902 8.04143C26.5618 7.92865 26.1463 7.88903 25.7804 7.85455C25.7096 7.84802 25.6249 7.83963 25.5426 7.83078C25.5088 7.75388 25.4755 7.67465 25.4473 7.60847C25.3011 7.2622 25.1354 6.87026 24.894 6.48857C24.46 5.80302 23.8956 5.34583 23.2159 5.12958C22.9407 5.0401 22.6515 4.99536 22.3568 4.99536C21.4075 4.99536 20.6566 5.44183 20.0533 5.80115C19.9756 5.84729 19.8789 5.90508 19.7887 5.95635C19.6985 5.90508 19.6018 5.84776 19.524 5.80115C18.9208 5.4423 18.1704 4.99536 17.221 4.99536C16.9226 4.99536 16.6297 5.04103 16.3512 5.13191L16.3323 5.13797L16.3138 5.1445C15.655 5.37239 15.1063 5.82958 14.6829 6.50302C14.4451 6.88144 14.2809 7.26919 14.1361 7.6108C14.1097 7.67372 14.0778 7.74875 14.0459 7.82192C13.9686 7.82938 13.8904 7.83637 13.8247 7.84243C13.4523 7.87505 13.0304 7.91234 12.5923 8.02791C11.8178 8.23204 11.214 8.62958 10.7977 9.2098C10.3813 9.78444 10.1939 10.4826 10.2411 11.286C10.2675 11.7367 10.3619 12.1519 10.4447 12.5178C10.4604 12.5868 10.4789 12.6688 10.4965 12.7499C10.4433 12.7969 10.3896 12.8436 10.3438 12.8832C10.0593 13.1302 9.73682 13.4103 9.44721 13.7603C8.92766 14.388 8.66442 15.0717 8.66442 15.7922C8.66442 16.5127 8.92766 17.2095 9.44721 17.8405C9.74237 18.1993 10.0695 18.4818 10.3582 18.7316C10.4026 18.7702 10.4548 18.815 10.5067 18.8607C10.4895 18.9427 10.4706 19.0256 10.4553 19.0955C10.3753 19.4544 10.2841 19.8608 10.2564 20.2998C10.2064 21.0907 10.3827 21.7804 10.7801 22.349L10.7944 22.3695L10.8092 22.39C10.8444 22.438 10.8814 22.4842 10.9193 22.5294L8.33686 27.7789C7.92557 28.6131 7.96906 29.582 8.45391 30.3724C8.94339 31.1703 9.79327 31.6471 10.7273 31.6471C10.8259 31.6471 10.9258 31.6415 11.0244 31.6307C11.6064 31.5669 12.0584 31.5012 12.4215 31.4485C12.4243 31.4485 12.4271 31.4476 12.4299 31.4471C12.4303 31.4481 12.4313 31.4495 12.4317 31.4504C12.6094 31.7743 12.8301 32.1774 13.1317 32.6854C13.3769 33.0969 13.7248 33.4348 14.1384 33.6636C14.5307 33.8808 14.9753 33.9955 15.4232 33.9955C16.4313 33.9955 17.3381 33.4301 17.7901 32.52L17.7942 32.512L17.7979 32.5041L19.7804 28.4262L21.7822 32.5097L21.7845 32.5144L21.7868 32.519C22.2416 33.4357 23.1521 34.0048 24.163 34.0048C25.11 34.0048 25.9895 33.4875 26.4637 32.6537L27.1535 31.4602L28.5289 31.6275L28.5442 31.6293L28.5595 31.6307C28.6571 31.641 28.7566 31.6466 28.8546 31.6466C29.8003 31.6466 30.6585 31.1684 31.1503 30.3668C31.6351 29.5769 31.6772 28.6075 31.2636 27.7733L31.2627 27.7738Z" fill="white"/>
<path d="M13.0501 22.917C13.5368 23.0172 14.0763 23.006 14.5269 23.0997C14.9909 24.0802 15.2689 25.2952 16.5736 25.7617C16.7758 25.8368 16.9849 25.8689 17.1954 25.8689C17.8445 25.8689 18.5042 25.5595 19.009 25.2393L15.9254 31.5817C15.82 31.7938 15.621 31.8981 15.4202 31.8981C15.2194 31.8981 15.0298 31.8003 14.915 31.6078C13.8047 29.7399 13.8033 29.2701 13.0543 29.2701C12.6384 29.2701 11.9911 29.4151 10.7956 29.546C10.7716 29.5488 10.748 29.5502 10.7249 29.5502C10.296 29.5502 10.0031 29.107 10.1998 28.7109L13.0496 22.917M13.0496 21.7519C12.6171 21.7519 12.2118 21.9975 12.0138 22.3997L9.16437 28.1922C8.89511 28.7365 8.92287 29.368 9.23885 29.8825C9.55854 30.4035 10.1142 30.7149 10.7253 30.7149C10.791 30.7149 10.8576 30.7111 10.9233 30.7037C11.4878 30.6417 11.931 30.5774 12.2872 30.5256C12.5398 30.4888 12.767 30.4557 12.9243 30.4418C13.0103 30.5816 13.1301 30.8001 13.2393 30.9996C13.4133 31.317 13.6298 31.7122 13.9231 32.2057C14.2428 32.7426 14.8026 33.0628 15.4207 33.0628C16.0763 33.0628 16.6661 32.6946 16.9604 32.1027C16.9618 32.0999 16.9631 32.0967 16.9645 32.0939L20.0481 25.7515C20.2757 25.2836 20.167 24.7206 19.7825 24.3725C19.5646 24.1749 19.2875 24.0737 19.009 24.0737C18.7961 24.0737 18.5829 24.1324 18.3932 24.2527C17.9352 24.543 17.5095 24.7029 17.1954 24.7029C17.1107 24.7029 17.0381 24.6912 16.9733 24.667C16.9641 24.6637 16.9548 24.66 16.9451 24.6567C16.3853 24.4503 16.1748 24.0038 15.8241 23.1738C15.7445 22.9855 15.6627 22.7912 15.5706 22.5968C15.4147 22.2678 15.1149 22.031 14.7605 21.9574C14.4709 21.8973 14.1864 21.8731 13.9111 21.8498C13.6802 21.8302 13.4623 21.8115 13.2819 21.7743C13.2042 21.7584 13.1264 21.7505 13.0496 21.7505V21.7519Z" fill="#191B29"/>
<path d="M26.5227 22.9168L29.3985 28.7107C29.5947 29.1068 29.3023 29.5495 28.8521 29.5495C28.8276 29.5495 28.8022 29.5482 28.7767 29.5454L26.4191 29.2583C26.3955 29.2555 26.3719 29.2545 26.3488 29.2545C26.1401 29.2545 25.9421 29.358 25.8491 29.5454L24.6573 31.6071C24.5445 31.8094 24.3525 31.9077 24.1609 31.9077C23.9569 31.9077 23.7538 31.7963 23.6469 31.581L20.538 25.2391C21.2417 25.6804 21.8403 25.8729 22.3571 25.8729C23.6571 25.8729 24.4348 24.6514 25.0464 23.099C25.4975 23.03 26.0374 23.003 26.5232 22.9163M26.5232 21.7512C26.4561 21.7512 26.3886 21.7573 26.321 21.7694C26.0911 21.8104 25.8227 21.8379 25.5637 21.8649C25.3351 21.8882 25.0987 21.9129 24.8725 21.9474C24.4658 22.0099 24.123 22.2848 23.9712 22.6698C23.2518 24.4967 22.7055 24.7083 22.3571 24.7083C22.0448 24.7083 21.627 24.5498 21.1491 24.2502C20.9608 24.1322 20.7489 24.074 20.538 24.074C20.2576 24.074 19.9796 24.1765 19.7607 24.376C19.3781 24.7255 19.2717 25.2885 19.5003 25.755L22.6092 32.0969C22.6092 32.0969 22.6111 32.1002 22.612 32.1021C22.909 32.7009 23.5026 33.0728 24.1605 33.0728C24.7767 33.0728 25.3504 32.734 25.6594 32.1883L26.6578 30.4616L28.6375 30.7025C28.643 30.703 28.6486 30.7039 28.6541 30.7044C28.7198 30.7114 28.786 30.7151 28.8512 30.7151C29.4739 30.7151 30.0379 30.4019 30.3599 29.8776C30.6703 29.372 30.7009 28.7526 30.4441 28.2148C30.4404 28.2064 30.4362 28.1985 30.4321 28.1901L27.5563 22.3962C27.3578 21.9968 26.9544 21.7522 26.5223 21.7522L26.5232 21.7512Z" fill="#191B29"/>
<path d="M22.3555 7.09236C22.4341 7.09236 22.5114 7.10354 22.5854 7.12731C23.4145 7.3883 23.544 9.0847 24.2435 9.60667C24.943 10.1286 26.5752 9.73716 27.0934 10.4418C27.5856 11.1465 26.7048 12.608 26.9898 13.4431C27.2747 14.2522 28.8292 14.8786 28.8292 15.792C28.8292 16.7055 27.2488 17.3318 26.9898 18.1409C26.7307 19.0021 27.6116 20.4375 27.0934 21.1422C26.5752 21.873 24.943 21.4554 24.2435 21.9774C23.544 22.4732 23.4145 24.1696 22.5854 24.4567C22.5109 24.4809 22.4341 24.4917 22.3555 24.4917C21.5824 24.4917 20.6104 23.4389 19.7873 23.4389C18.9643 23.4389 17.9923 24.4917 17.2192 24.4917C17.1405 24.4917 17.0633 24.4805 16.9893 24.4567C16.1602 24.1957 16.0307 22.4993 15.3311 21.9774C14.6316 21.4554 12.9994 21.8469 12.4813 21.1422C11.989 20.4375 12.8699 18.976 12.5849 18.1409C12.2999 17.3318 10.7454 16.7055 10.7454 15.792C10.7454 14.8786 12.3258 14.2522 12.5849 13.4431C12.844 12.5819 11.9631 11.1465 12.4813 10.4418C12.9994 9.71106 14.6316 10.1286 15.3311 9.60667C16.0307 9.1108 16.1602 7.41439 16.9893 7.12731C17.0637 7.10308 17.1405 7.09236 17.2192 7.09236C17.9923 7.09236 18.9643 8.14515 19.7873 8.14515C20.6104 8.14515 21.5824 7.09189 22.3555 7.09236ZM18.4142 17.0965L16.7302 15.4001C16.6543 15.318 16.5733 15.2836 16.4896 15.2836C16.1163 15.2836 15.6925 15.9691 15.4607 16.1308C15.3052 16.2874 15.3052 16.5223 15.4607 16.6789L18.1292 19.3931C18.2069 19.4714 18.3041 19.5106 18.4012 19.5106C18.4984 19.5106 18.5956 19.4714 18.6733 19.3931L24.0362 13.9908C24.1917 13.8342 24.1917 13.5993 24.0362 13.4427C23.8058 13.2814 23.3798 12.5954 23.0064 12.5954C22.9231 12.5954 22.8422 12.6299 22.7668 12.7119L18.4142 17.0965ZM22.3555 5.92725C21.6587 5.92725 21.055 6.28657 20.5225 6.60348C20.3018 6.7349 19.9363 6.95208 19.7873 6.97911C19.6384 6.95208 19.2729 6.7349 19.0522 6.60348C18.5197 6.28657 17.9159 5.92771 17.2197 5.92725C17.0179 5.92725 16.8209 5.95801 16.6344 6.01859C16.6275 6.02092 16.6205 6.02325 16.6136 6.02558C16.1588 6.1831 15.772 6.5112 15.4639 7.00101C15.2659 7.31606 15.1174 7.66652 14.9865 7.97598C14.8949 8.19269 14.7441 8.54875 14.6511 8.662C14.5174 8.71652 14.1361 8.75008 13.9044 8.77058C13.16 8.8363 12.1408 8.92624 11.5453 9.7572C11.2576 10.1529 11.1294 10.6487 11.1632 11.2308C11.1849 11.6046 11.2664 11.963 11.345 12.3102C11.3978 12.5418 11.4829 12.9174 11.4773 13.0815C11.3857 13.2078 11.1142 13.4431 10.9462 13.589C10.373 14.0868 9.58789 14.7686 9.58789 15.7925C9.58789 16.8164 10.3804 17.5248 10.9587 18.0244C11.1262 18.1688 11.3978 18.4037 11.4866 18.5277C11.4931 18.6889 11.4084 19.0678 11.3561 19.3009C11.1859 20.0624 10.9735 21.0103 11.5347 21.8133C11.5402 21.8208 11.5453 21.8287 11.5509 21.8361C11.8368 22.2253 12.2634 22.4965 12.8185 22.6424C13.1748 22.7361 13.5338 22.7701 13.8812 22.8032C14.1153 22.8256 14.4984 22.8619 14.6404 22.9178C14.7362 23.0376 14.887 23.3946 14.9791 23.6127C15.1174 23.9408 15.2608 24.2801 15.4611 24.5961C15.7753 25.0924 16.1713 25.4191 16.6386 25.5678C16.8236 25.6274 17.0189 25.6572 17.2183 25.6572C17.915 25.6572 18.5183 25.2979 19.0513 24.981C19.2719 24.8496 19.6374 24.6324 19.7864 24.6054C19.9354 24.6324 20.3009 24.8496 20.5215 24.981C21.054 25.2979 21.6578 25.6572 22.3545 25.6572C22.5563 25.6572 22.7529 25.6265 22.9398 25.5659C22.9467 25.5636 22.9537 25.5612 22.9606 25.5589C23.4154 25.4014 23.8021 25.0733 24.1103 24.5835C24.3083 24.2684 24.4568 23.918 24.5877 23.6085C24.6793 23.3918 24.8301 23.0357 24.9231 22.9225C25.0568 22.868 25.4381 22.8344 25.6698 22.8139C26.4142 22.7482 27.433 22.6582 28.0284 21.8278C28.3162 21.4321 28.4448 20.9362 28.4105 20.3537C28.3888 19.9799 28.3074 19.6215 28.2287 19.2743C28.176 19.0427 28.0909 18.667 28.0964 18.503C28.188 18.3767 28.4596 18.1413 28.6275 17.9955C29.2007 17.4977 29.9858 16.8159 29.9858 15.792C29.9858 14.7681 29.1933 14.0597 28.615 13.5601C28.4476 13.4157 28.176 13.1808 28.0872 13.0568C28.0807 12.8955 28.1653 12.5167 28.2176 12.2836C28.3879 11.5221 28.6002 10.5742 28.039 9.77118C28.0335 9.76373 28.0284 9.7558 28.0228 9.74835C27.7369 9.3592 27.3104 9.08796 26.7552 8.94209C26.399 8.84841 26.04 8.81439 25.6925 8.7813C25.4584 8.75893 25.0753 8.72258 24.9333 8.66666C24.8375 8.54688 24.6867 8.18989 24.5947 7.97178C24.4563 7.64369 24.3129 7.30441 24.1126 6.98843C23.7984 6.49209 23.4024 6.16539 22.9352 6.01673C22.7501 5.95707 22.5553 5.92725 22.3555 5.92725Z" fill="#191B29"/>
</g>
<defs>
<linearGradient id="paint0_linear_2302_13086" x1="20.0326" y1="1.39307" x2="20.0326" y2="38.0716" gradientUnits="userSpaceOnUse">
<stop stop-color="#06BA00"/>
<stop offset="1" stop-color="#E8FF39"/>
</linearGradient>
<linearGradient id="paint1_linear_2302_13086" x1="33.001" y1="6.76446" x2="7.06537" y2="32.7001" gradientUnits="userSpaceOnUse">
<stop stop-color="#06BA00"/>
<stop offset="1" stop-color="#E8FF39"/>
</linearGradient>
<clipPath id="clip0_2302_13086">
<rect width="40" height="40" fill="white"/>
</clipPath>
</defs>
</svg>
