<svg width="39" height="39" viewBox="0 0 39 39" fill="none" xmlns="http://www.w3.org/2000/svg">
<g clip-path="url(#clip0_2302_13116)">
<path fill-rule="evenodd" clip-rule="evenodd" d="M30.4092 19.9996V19.9996L30.417 20.1037L30.4404 20.2084L30.4795 20.3141L30.5341 20.4212L30.6044 20.5303L30.6904 20.6418L30.7919 20.7563L30.9091 20.8742L31.0418 20.9961L31.1899 21.1224L31.3534 21.2536L31.5321 21.3902L31.7258 21.5327L31.934 21.6814L32.1566 21.837L32.3929 21.9996L32.6424 22.1698L32.9042 22.3479L33.1776 22.534L33.4614 22.7285L33.7545 22.9314L34.0554 23.1428L34.3624 23.3626L34.6738 23.5907L34.9876 23.8267L35.3014 24.0703L35.6128 24.3208L35.9192 24.5774L36.2178 24.8394L36.5057 25.1056L36.7796 25.3748L37.0367 25.6456L37.2736 25.9165L37.4873 26.1857L37.6748 26.4517L37.8332 26.7123L37.9599 26.9659L38.0527 27.2103L38.1094 27.4438L38.1285 27.6645L38.109 27.8706L38.0501 28.0606L37.9518 28.233L37.8145 28.3867L37.6391 28.5206L37.4271 28.6342L37.1803 28.727L36.9012 28.7989L36.5924 28.8501L36.2569 28.8812L35.898 28.8927L35.5193 28.8857L35.1241 28.8615L34.7162 28.8213L34.2989 28.7668L33.8759 28.6995L33.4503 28.6212L33.0253 28.5338L32.6038 28.439L32.1884 28.3386L31.7815 28.2344L31.3853 28.1281L31.0016 28.0214L30.632 27.916L30.2779 27.8133L29.9404 27.7148L29.6205 27.6219L29.3189 27.5359L29.0362 27.458L28.773 27.3895L28.5296 27.3315L28.3063 27.2853L28.1033 27.2519L27.921 27.2327L27.7595 27.2288L27.6192 27.2418L27.5003 27.2729L27.4033 27.324L27.3288 27.3967L27.2761 27.4919L27.2434 27.6091L27.2291 27.7477L27.2316 27.9075L27.2497 28.0882L27.282 28.2895L27.3272 28.5112L27.3843 28.7531L27.452 29.0147L27.5292 29.2959L27.6146 29.596L27.707 29.9144L27.8051 30.2506L27.9076 30.6034L28.0128 30.9718L28.1194 31.3545L28.2258 31.7498L28.3302 32.1559L28.431 32.5707L28.5263 32.9918L28.6144 33.4167L28.6935 33.8423L28.7617 34.2657L28.8173 34.6835L28.8587 35.0924L28.8842 35.4887L28.8926 35.8689L28.8826 36.2294L28.8532 36.5669L28.8036 36.878L28.7333 37.1596L28.6422 37.4091L28.5303 37.6239L28.3979 37.8023L28.2458 37.9427L28.0748 38.0441L27.8862 38.1061L27.6813 38.1288L27.4618 38.1127L27.2292 38.0589L26.9856 37.969L26.7327 37.8448L26.4725 37.6889L26.2069 37.5036L25.9379 37.2918L25.6671 37.0566L25.3962 36.8011L25.1268 36.5284L24.8604 36.2415L24.598 35.9437L24.3409 35.6378L24.0899 35.3266L23.8458 35.0129L23.6091 34.6991L23.3804 34.3874L23.1599 34.0799L22.9478 33.7785L22.7443 33.4847L22.5491 33.2001L22.3623 32.9258L22.1837 32.663L22.0129 32.4125L21.8496 32.1752L21.6935 31.9515L21.5442 31.7421L21.4013 31.5472L21.2642 31.3673L21.1326 31.2026L21.0059 31.0532L20.8837 30.9193L20.7655 30.8009L20.6508 30.6981L20.539 30.6109L20.4298 30.5394L20.3225 30.4835L20.2168 30.4432L20.1121 30.4185L20.0079 30.4095L19.9037 30.416L19.7991 30.4382L19.6935 30.476L19.5866 30.5294L19.4777 30.5985L19.3663 30.6832L19.2521 30.7835L19.1345 30.8994L19.0129 31.0309L18.887 31.1778L18.7562 31.3401L18.6201 31.5176L18.4781 31.71L18.3298 31.9172L18.1749 32.1386L18.0128 32.3738L17.8432 32.6223L17.6658 32.8832L17.4803 33.1557L17.2865 33.4387L17.0843 33.7311L16.8736 34.0314L16.6544 34.3381L16.427 34.6492L16.1916 34.9629L15.9486 35.2768L15.6987 35.5885L15.4424 35.8954L15.1809 36.1947L14.915 36.4835L14.646 36.7587L14.3752 37.0172L14.1043 37.2559L13.8349 37.4715L13.5686 37.6612L13.3075 37.8221L13.0533 37.9514L12.808 38.0469L12.5736 38.1066L12.3518 38.1288L12.1445 38.1123L11.9532 38.0566L11.7793 37.9615L11.6242 37.8272L11.4886 37.6548L11.3734 37.4457L11.2789 37.2016L11.2054 36.9249L11.1525 36.6183L11.1199 36.2848L11.1068 35.9277L11.1124 35.5504L11.1353 35.1564L11.1743 34.7493L11.2277 34.3327L11.294 33.91L11.3715 33.4845L11.4583 33.0593L11.5526 32.6374L11.6526 32.2214L11.7566 31.8138L11.8627 31.4166L11.9694 31.0318L12.075 30.6611L12.1779 30.3057L12.2768 29.9668L12.3702 29.6455L12.4568 29.3424L12.5354 29.0582L12.6047 28.7934L12.6636 28.5484L12.7108 28.3235L12.7452 28.1189L12.7656 27.9349L12.7707 27.7717L12.7592 27.6297L12.7295 27.5091L12.6801 27.4104L12.6092 27.3341L12.5158 27.2797L12.4004 27.2455L12.2634 27.2297L12.1053 27.231L11.9262 27.2479L11.7266 27.2791L11.5065 27.3233L11.2662 27.3795L11.0061 27.4464L10.7266 27.5229L10.428 27.6077L10.1109 27.6996L9.77617 27.7973L9.42464 27.8994L9.05742 28.0045L8.67585 28.1111L8.2815 28.2175L7.87618 28.3222L7.462 28.4233L7.04128 28.5191L6.61665 28.6079L6.19096 28.6877L5.76728 28.7569L5.3489 28.8135L4.93923 28.8561L4.54179 28.883L4.16018 28.8928L3.79793 28.8843L3.45851 28.8564L3.14522 28.8084L2.86115 28.7398L2.60906 28.6504L2.39135 28.5401L2.21001 28.4094L2.06657 28.2588L1.96202 28.0893L1.89688 27.902L1.87111 27.6984L1.88416 27.4799L1.93499 27.2483L2.0221 27.0055L2.14356 26.7532L2.29711 26.4936L2.48016 26.2284L2.68989 25.9595L2.92332 25.6888L3.17735 25.4179L3.44884 25.1483L3.73467 24.8815L4.03175 24.6188L4.33711 24.3612L4.64793 24.1097L4.96153 23.865L5.27543 23.6278L5.58736 23.3984L5.89524 23.1772L6.19721 22.9645L6.49162 22.7602L6.77701 22.5644L7.05213 22.377L7.31589 22.1977L7.56737 22.0262L7.80582 21.8624L8.03059 21.7057L8.24117 21.5559L8.43717 21.4125L8.61826 21.275L8.7842 21.1429L8.93481 21.0159L9.06997 20.8933L9.18959 20.7748L9.29363 20.6598L9.38205 20.5479L9.45484 20.4384L9.512 20.331L9.55354 20.2252L9.57945 20.1204L9.58974 20.0161L9.58442 19.912L9.56348 19.8074L9.52693 19.702L9.47475 19.5951L9.40693 19.4864L9.32349 19.3753L9.22443 19.2613L9.10976 19.144L8.97954 19.0228L8.83384 18.8972L8.67277 18.7668L8.49648 18.6311L8.30521 18.4896L8.09923 18.3418L7.87892 18.1874L7.64477 18.0259L7.39737 17.8569L7.13743 17.6802L6.86582 17.4953L6.58357 17.3022L6.29188 17.1006L5.99215 16.8906L5.68596 16.6721L5.37511 16.4453L5.0616 16.2105L4.74764 15.9681L4.43566 15.7187L4.12825 15.463L3.82822 15.2018L3.53848 14.9362L3.26208 14.6674L3.00215 14.3967L2.76182 14.1257L2.54421 13.8561L2.35234 13.5895L2.18911 13.3279L2.05716 13.0731L1.95888 12.827L1.89631 12.5917L1.87109 12.3688L1.88442 12.1603L1.93699 11.9676L2.02901 11.7923L2.16015 11.6356L2.32956 11.4985L2.53588 11.3816L2.77726 11.2855L3.05143 11.2103L3.35573 11.1558L3.68717 11.1216L4.04252 11.107L4.41835 11.1111L4.81113 11.1327L5.21729 11.1704L5.63328 11.2228L6.05563 11.2882L6.48103 11.3648L6.90632 11.4509L7.32858 11.5447L7.74511 11.6443L8.15349 11.748L8.55154 11.8541L8.93737 11.9607L9.30931 12.0665L9.66597 12.1697L10.0062 12.269L10.3289 12.3629L10.6335 12.4501L10.9192 12.5293L11.1855 12.5994L11.4321 12.6591L11.6587 12.7073L11.8649 12.7428L12.0505 12.7644L12.2153 12.7708L12.3591 12.7606L12.4814 12.7325L12.5819 12.6847L12.66 12.6155L12.716 12.5239L12.7518 12.4102L12.7689 12.2749L12.769 12.1185L12.7533 11.9411L12.7232 11.743L12.6799 11.5246L12.6247 11.2859L12.5586 11.0274L12.4828 10.7493L12.3986 10.4522L12.3072 10.1366L12.2099 9.80326L12.1081 9.45301L12.0032 9.08699L11.8967 8.7065L11.7902 8.31309L11.6854 7.90857L11.5839 7.495L11.4876 7.07471L11.3982 6.65028L11.3176 6.22455L11.2475 5.80059L11.1898 5.38165L11.146 4.97115L11.1178 4.5726L11.1066 4.18959L11.1137 3.82566L11.1399 3.48429L11.1863 3.1688L11.2532 2.88229L11.341 2.62755L11.4497 2.40702L11.5788 2.22273L11.7278 2.07621L11.8959 1.96855L12.0817 1.90026L12.2841 1.87136L12.5015 1.88136L12.7321 1.92923L12.9741 2.01351L13.2256 2.13232L13.4848 2.28341L13.7496 2.46421L14.0183 2.67193L14.2889 2.90359L14.5599 3.1561L14.8296 3.42632L15.0966 3.71113L15.3597 4.00743L15.6177 4.31224L15.8697 4.62273L16.115 4.93621L16.3529 5.25018L16.5829 5.56235L16.8047 5.87063L17.0181 6.17314L17.223 6.46822L17.4195 6.75438L17.6076 7.03036L17.7875 7.29507L17.9596 7.54757L18.124 7.78708L18.2812 8.01296L18.4316 8.2247L18.5755 8.42187L18.7135 8.60416L18.8459 8.77132L18.9733 8.92316L19.0962 9.05956L19.215 9.18042L19.3303 9.2857L19.4425 9.37537L19.5521 9.44941L19.6596 9.50781L19.7656 9.55059L19.8704 9.57775L19.9747 9.58929L20.0788 9.58521L20.1833 9.56551L20.2887 9.5302L20.3954 9.47926L20.504 9.4127L20.6149 9.3305L20.7286 9.23267L20.8457 9.11925L20.9666 8.99026L21.0917 8.84579L21.2217 8.68593L21.357 8.51084L21.498 8.32075L21.6453 8.11592L21.7991 7.89674L21.9601 7.66367L22.1284 7.41729L22.3046 7.15831L22.4887 6.88759L22.6812 6.60614L22.8821 6.31515L23.0914 6.016L23.3093 5.71025L23.5354 5.39969L23.7695 5.08631L24.0113 4.7723L24.2602 4.46006L24.5155 4.15218L24.7763 3.85145L25.0416 3.56077L25.3102 3.2832L25.5807 3.02183L25.8517 2.77982L26.1215 2.56028L26.3884 2.36626L26.6505 2.20064L26.9059 2.0661L27.1527 1.96506L27.389 1.89958L27.6129 1.87134L27.8227 1.88156L28.0166 1.93099L28.1933 2.01988L28.3516 2.14793L28.4903 2.31434L28.6088 2.51778L28.7065 2.75645L28.7834 3.02811L28.8396 3.33013L28.8754 3.65953L28.8915 4.0131L28.8888 4.38744L28.8686 4.77901L28.8321 5.18424L28.7808 5.59959L28.7164 6.02157L28.6407 6.44685L28.5552 6.87226L28.462 7.29487L28.3628 7.71196L28.2593 8.12108L28.1534 8.52004L28.0467 8.90691L27.9408 9.28002L27.8374 9.63795L27.7377 9.97951L27.6434 10.3037L27.5556 10.6097L27.4756 10.897L27.4048 11.1649L27.3442 11.413L27.295 11.6412L27.2585 11.849L27.2358 12.0363L27.2281 12.2028L27.2369 12.3482L27.2636 12.4723L27.3097 12.5745L27.3771 12.6544L27.467 12.7122L27.5789 12.7495L27.7125 12.7681L27.8673 12.7694L28.043 12.7549L28.2394 12.726L28.4563 12.6837L28.6933 12.6293L28.9503 12.564L29.2268 12.489L29.5224 12.4054L29.8365 12.3146L30.1685 12.2177L30.5174 12.1162L30.8822 12.0115L31.2616 11.905L31.654 11.7985L32.0577 11.6934L32.4707 11.5916L32.8905 11.4948L33.3147 11.4049L33.7404 11.3235L34.1646 11.2525L34.5841 11.1937L34.9954 11.1488L35.395 11.1193L35.7794 11.1067L36.145 11.1122L36.4882 11.137L36.8059 11.1817L37.0948 11.247L37.3522 11.3331L37.5755 11.4401L37.7627 11.5676L37.9123 11.7151L38.0231 11.8816L38.0945 12.0662L38.1265 12.2673L38.1196 12.4835L38.0747 12.7131L37.9933 12.9543L37.8771 13.2052L37.7285 13.4638L37.55 13.7282L37.3443 13.9966L37.1145 14.2672L36.8635 14.5382L36.5946 14.8081L36.3108 15.0753L36.0153 15.3388L35.7111 15.5973L35.401 15.8498L35.0876 16.0956L34.7736 16.3341L34.4612 16.5648L34.1526 16.7872L33.8496 17.0013L33.5538 17.2069L33.2669 17.4041L32.9901 17.5929L32.7245 17.7735L32.471 17.9461L32.2304 18.1112L32.0034 18.2689L31.7905 18.4198L31.5922 18.5642L31.4087 18.7027L31.2403 18.8355L31.0873 18.9633L30.9497 19.0866L30.8276 19.2057L30.721 19.3212L30.6301 19.4336L30.5548 19.5434L30.4952 19.6511L30.4512 19.7572L30.4228 19.8621L30.41 19.9664L30.4092 19.9996Z" fill="url(#paint0_linear_2302_13116)"/>
<path fill-rule="evenodd" clip-rule="evenodd" d="M25.2043 29.0147V29.0147L25.118 29.0735L25.0391 29.1461L24.9671 29.2328L24.9017 29.3337L24.8423 29.4491L24.7887 29.5793L24.7403 29.7245L24.6968 29.8849L24.6576 30.0608L24.6223 30.2522L24.5904 30.4594L24.5615 30.6825L24.5349 30.9214L24.5102 31.1762L24.4868 31.4467L24.464 31.7326L24.4414 32.0338L24.4181 32.3496L24.3936 32.6794L24.3671 33.0224L24.3379 33.3777L24.3053 33.744L24.2684 34.1198L24.2266 34.5035L24.1791 34.8932L24.1251 35.2868L24.0639 35.6817L23.9948 36.0754L23.9172 36.465L23.8306 36.8474L23.7344 37.2193L23.6284 37.5772L23.5123 37.9179L23.386 38.2376L23.2494 38.5329L23.1029 38.8004L22.9467 39.037L22.7813 39.2395L22.6075 39.4054L22.4259 39.5323L22.2377 39.6184L22.0437 39.6624L21.8452 39.6635L21.6435 39.6214L21.4398 39.5365L21.2355 39.4097L21.0317 39.2424L20.8298 39.0366L20.6311 38.7947L20.4365 38.5197L20.2471 38.2147L20.0637 37.8832L19.8871 37.5289L19.7179 37.1555L19.5566 36.7669L19.4033 36.3669L19.2583 35.9592L19.1215 35.5474L18.9929 35.1349L18.8721 34.725L18.7589 34.3205L18.6528 33.9243L18.5533 33.5386L18.4599 33.1658L18.3717 32.8078L18.2883 32.4663L18.2088 32.1428L18.1325 31.8386L18.0586 31.5549L17.9864 31.2927L17.9149 31.0529L17.8433 30.8363L17.7707 30.6439L17.6961 30.4764L17.6187 30.3346L17.5374 30.2195L17.4509 30.1322L17.3583 30.0737L17.258 30.0455L17.1492 30.0475L17.0314 30.0778L16.9042 30.1347L16.767 30.2168L16.6196 30.3228L16.4614 30.4514L16.292 30.6015L16.1111 30.7718L15.9184 30.9613L15.7135 31.1687L15.4963 31.3927L15.2667 31.632L15.0247 31.885L14.7703 32.1501L14.5039 32.4255L14.2258 32.7091L13.9366 32.9989L13.6371 33.2924L13.3283 33.587L13.0112 33.8802L12.6874 34.1689L12.3583 34.4502L12.0257 34.7209L11.6917 34.978L11.3583 35.2183L11.0279 35.4386L10.7028 35.6359L10.3855 35.8075L10.0786 35.9508L9.78436 36.0634L9.50533 36.1433L9.24374 36.1891L9.00169 36.1996L8.78104 36.1742L8.58341 36.1127L8.4101 36.0153L8.2621 35.883L8.14004 35.7169L8.04419 35.5187L7.9745 35.2904L7.93054 35.0344L7.91159 34.7534L7.91659 34.45L7.94427 34.1274L7.9931 33.7885L8.06138 33.4364L8.14726 33.0741L8.24879 32.7044L8.36396 32.3302L8.49073 31.9541L8.62709 31.5785L8.77104 31.2055L8.92067 30.8372L9.07414 30.4754L9.2297 30.1215L9.38575 29.7768L9.54076 29.4424L9.69337 29.1192L9.84229 28.8079L9.98641 28.509L10.1247 28.2229L10.2562 27.9497L10.3801 27.6896L10.4958 27.4426L10.6025 27.2086L10.6998 26.9874L10.7871 26.7788L10.8639 26.5824L10.9299 26.398L10.9848 26.2253L11.0282 26.0637L11.0599 25.9129L11.0795 25.7725L11.0869 25.6422L11.0817 25.5213L11.0637 25.4096L11.0327 25.3066L10.9884 25.2118L10.9306 25.1249L10.8591 25.0454L10.7736 24.9729L10.6739 24.9069L10.5596 24.8471L10.4306 24.7931L10.2866 24.7443L10.1274 24.7004L9.95281 24.6609L9.7626 24.6253L9.55665 24.5932L9.33486 24.564L9.09719 24.5373L8.84368 24.5124L8.57443 24.4889L8.28966 24.4662L7.98972 24.4435L7.67507 24.4204L7.34633 24.396L7.0043 24.3697L6.64998 24.3407L6.28454 24.3084L5.90941 24.2719L5.52624 24.2306L5.13691 24.1835L4.74359 24.13L4.34865 24.0694L3.95474 24.001L3.56472 23.9241L3.18167 23.8383L2.80883 23.7429L2.44961 23.6377L2.10748 23.5224L1.78597 23.3969L1.48857 23.2611L1.2187 23.1154L0.979592 22.9599L0.77425 22.7953L0.605373 22.6221L0.475277 22.4411L0.385835 22.2534L0.338431 22.0598L0.333914 21.8617L0.372569 21.6602L0.454107 21.4566L0.577663 21.2522L0.741822 21.0484L0.944644 20.8463L1.18372 20.6473L1.45621 20.4523L1.75896 20.2624L2.08849 20.0785L2.44115 19.9014L2.81318 19.7316L3.20072 19.5696L3.59997 19.4157L4.00719 19.27L4.41878 19.1326L4.83131 19.0033L5.24157 18.8819L5.64658 18.7681L6.0436 18.6615L6.43017 18.5615L6.80407 18.4675L7.16334 18.379L7.50623 18.2952L7.83123 18.2154L8.13701 18.1389L8.4224 18.0648L8.68637 17.9925L8.92798 17.9209L9.14639 17.8494L9.34077 17.7769L9.51032 17.7026L9.65417 17.6254L9.77142 17.5444L9.86104 17.4584L9.92183 17.3663L9.95245 17.2667L9.95284 17.1586L9.92476 17.0415L9.8699 16.915L9.78974 16.7787L9.68562 16.6321L9.55877 16.4748L9.41038 16.3063L9.24161 16.1264L9.05361 15.9346L8.8476 15.7307L8.62485 15.5145L8.38673 15.2859L8.13475 15.0448L7.87055 14.7914L7.59592 14.526L7.31285 14.2488L7.0235 13.9605L6.73022 13.6618L6.43555 13.3537L6.1422 13.0372L5.85303 12.7139L5.57104 12.3851L5.29933 12.0528L5.04104 11.7188L4.79934 11.3853L4.57733 11.0546L4.37804 10.729L4.20429 10.411L4.05871 10.1031L3.94361 9.80782L3.86099 9.52751L3.81242 9.26445L3.79908 9.02077L3.82163 8.79836L3.88031 8.59884L3.97482 8.42356L4.10443 8.27351L4.26791 8.14937L4.46364 8.05143L4.68961 7.97967L4.94347 7.93368L5.22264 7.91276L5.5243 7.9159L5.84549 7.94182L6.1832 7.98902L6.53438 8.05581L6.89601 8.14035L7.2652 8.24069L7.63913 8.35484L8.01519 8.48076L8.39095 8.61642L8.76419 8.75983L9.1329 8.90907L9.49533 9.06229L9.84993 9.21774L10.1954 9.3738L10.5306 9.52894L10.8547 9.68177L11.167 9.83103L11.4669 9.97556L11.7541 10.1143L12.0283 10.2464L12.2894 10.371L12.5374 10.4873L12.7725 10.5948L12.9947 10.6928L13.2043 10.7809L13.4016 10.8586L13.587 10.9255L13.7607 10.9813L13.9231 11.0256L14.0747 11.0582L14.2159 11.0788L14.3471 11.0871L14.4687 11.0829L14.5811 11.0659L14.6848 11.036L14.7802 10.9928L14.8678 10.9361L14.9478 10.8657L15.0209 10.7813L15.0873 10.6827L15.1476 10.5696L15.2021 10.4418L15.2513 10.299L15.2956 10.141L15.3354 9.96764L15.3713 9.77868L15.4037 9.57399L15.4331 9.35347L15.46 9.11707L15.485 8.86481L15.5085 8.59681L15.5313 8.31328L15.554 8.01453L15.5771 7.70103L15.6014 7.37339L15.6275 7.03239L15.6562 6.679L15.6882 6.31441L15.7244 5.93999L15.7653 5.5574L15.8119 5.16849L15.8648 4.7754L15.9249 4.3805L15.9927 3.98641L16.0688 3.59598L16.154 3.21225L16.2486 2.83848L16.353 2.47805L16.4675 2.13443L16.5922 1.81115L16.7271 1.51171L16.8721 1.23953L17.0268 0.997854L17.1907 0.78972L17.3633 0.617848L17.5437 0.484585L17.7309 0.391846L17.9241 0.341054L18.1219 0.333101L18.3232 0.368318L18.5266 0.44646L18.731 0.56671L18.9349 0.727694L19.1372 0.927514L19.3365 1.16379L19.5319 1.43374L19.7222 1.73419L19.9065 2.06171L20.0842 2.41266L20.2546 2.78328L20.4173 3.16972L20.5718 3.56817L20.7182 3.97488L20.8562 4.38625L20.9862 4.79882L21.1081 5.20937L21.2225 5.61489L21.3297 6.01263L21.4302 6.40011L21.5246 6.7751L21.6136 7.13559L21.6977 7.47984L21.7778 7.80631L21.8545 8.11366L21.9287 8.40071L22.0012 8.66641L22.0728 8.90984L22.1443 9.13012L22.2167 9.32644L22.2908 9.49799L22.3677 9.64392L22.4484 9.76332L22.5339 9.85518L22.6255 9.91831L22.7245 9.95138L22.8319 9.95411L22.9482 9.92823L23.0739 9.87544L23.2094 9.79724L23.3552 9.69498L23.5117 9.5699L23.6792 9.42318L23.8583 9.25599L24.0491 9.06948L24.252 8.86485L24.4673 8.64338L24.6949 8.40643L24.9349 8.1555L25.1874 7.8922L25.4519 7.61833L25.7281 7.33586L26.0156 7.04692L26.3135 6.75387L26.6209 6.45921L26.9368 6.16564L27.2596 5.87603L27.588 5.59335L27.9202 5.3207L28.2541 5.06122L28.5877 4.81808L28.9188 4.5944L29.2449 4.39318L29.5636 4.2173L29.8723 4.06938L30.1687 3.95177L30.4503 3.8665L30.7148 3.81517L30.9601 3.79898L31.1843 3.81866L31.3857 3.87446L31.563 3.96614L31.715 4.09298L31.8413 4.25382L31.9413 4.44704L32.0151 4.67068L32.0631 4.92242L32.086 5.19966L32.0847 5.49963L32.0606 5.81938L32.015 6.15588L31.9497 6.50609L31.8665 6.86701L31.7673 7.23569L31.6542 7.60934L31.5291 7.98532L31.3942 8.36119L31.2513 8.7347L31.1025 9.10385L30.9495 9.46683L30.7941 9.82211L30.6381 10.1683L30.4828 10.5044L30.3297 10.8294L30.1801 11.1427L30.0352 11.4436L29.8959 11.7318L29.7632 12.007L29.638 12.2692L29.521 12.5182L29.4128 12.7543L29.314 12.9775L29.2252 13.1882L29.1466 13.3864L29.0788 13.5727L29.0221 13.7473L28.9769 13.9107L28.9433 14.0631L28.9218 14.2051L28.9125 14.3371L28.9157 14.4594L28.9316 14.5726L28.9605 14.6769L29.0026 14.773L29.0582 14.8611L29.1275 14.9418L29.2108 15.0154L29.3083 15.0823L29.4202 15.1431L29.5468 15.198L29.6884 15.2476L29.8452 15.2923L30.0173 15.3325L30.205 15.3686L30.4085 15.4013L30.6277 15.4309L30.8629 15.458L31.1139 15.4831L31.3806 15.5067L31.6629 15.5296L31.9605 15.5522L32.2728 15.5752L32.5994 15.5994L32.9394 15.6253L33.2918 15.6538L33.6556 15.6855L34.0293 15.7213L34.4113 15.7618L34.7997 15.8079L35.1926 15.8603L35.5874 15.9198L35.9817 15.9869L36.3725 16.0624L36.7569 16.1468L37.1316 16.2406L37.4932 16.3442L37.8383 16.4579L38.1633 16.5818L38.4648 16.7159L38.7393 16.8601L38.9835 17.014L39.1944 17.1772L39.3693 17.3491L39.5057 17.5289L39.6017 17.7157L39.6559 17.9084L39.6672 18.1058L39.6355 18.3069L39.5607 18.5102L39.4438 18.7146L39.286 18.9186L39.0891 19.121L38.8557 19.3206L38.5883 19.5163L38.2901 19.7071L37.9646 19.8919L37.6154 20.0702L37.2462 20.2412L36.8609 20.4045L36.4632 20.5597L36.057 20.7067L35.6459 20.8454L35.2333 20.976L34.8225 21.0986L34.4164 21.2136L34.018 21.3213L33.6296 21.4224L33.2535 21.5172L32.8918 21.6066L32.5462 21.6911L32.2183 21.7715L31.9093 21.8485L31.6206 21.9228L31.3532 21.9954L31.108 22.067L30.8858 22.1385L30.6875 22.2108L30.514 22.2848L30.366 22.3614L30.2444 22.4417L30.1503 22.5269L30.0849 22.6179L30.0493 22.7163L30.0443 22.823L30.0679 22.9386L30.1186 23.0635L30.1948 23.1982L30.2952 23.3432L30.4185 23.4988L30.5636 23.6654L30.7292 23.8435L30.9142 24.0334L31.1174 24.2354L31.3376 24.4496L31.5734 24.6762L31.8232 24.9153L32.0856 25.1667L32.3587 25.4303L32.6406 25.7056L32.9291 25.9922L33.2219 26.2893L33.5165 26.596L33.8103 26.9112L34.1003 27.2336L34.3836 27.5616L34.6572 27.8935L34.9178 28.2273L35.1624 28.5611L35.3877 28.8924L35.5909 29.219L35.7688 29.5383L35.9191 29.848L36.0392 30.1454L36.1271 30.4283L36.1812 30.6942L36.2002 30.9411L36.1834 31.1671L36.1304 31.3703L36.0416 31.5495L35.9175 31.7037L35.7593 31.832L35.5686 31.9341L35.3473 32.01L35.0977 32.06L34.8224 32.0849L34.5241 32.0855L34.2058 32.0631L33.8706 32.0192L33.5213 31.9554L33.1612 31.8736L32.793 31.7756L32.4196 31.6635L32.0437 31.5393L31.6678 31.4051L31.294 31.2628L30.9244 31.1144L30.5609 30.9617L30.205 30.8064L29.858 30.6504L29.521 30.495L29.1951 30.3417L28.8809 30.1918L28.579 30.0464L28.2898 29.9067L28.0135 29.7735L27.7503 29.6477L27.5002 29.53L27.2631 29.4211L27.0388 29.3215L26.8272 29.2318L26.628 29.1525L26.4408 29.0838L26.2652 29.0262L26.101 28.98L25.9477 28.9456L25.8049 28.923L25.6721 28.9127L25.5491 28.9149L25.4352 28.9298L25.3301 28.9577L25.2334 28.9988L25.2043 29.0147Z" fill="url(#paint1_linear_2302_13116)"/>
<path d="M28.0686 19.273C27.7713 18.2817 27.3183 17.4615 26.7218 16.8359C26.6005 16.7087 26.4744 16.5884 26.3428 16.4749H26.5118C27.3722 16.4749 28.0722 15.8003 28.0722 14.9711C28.0722 14.1418 27.9594 13.407 27.7365 12.6607C27.4815 11.8091 27.0169 11.0468 26.3544 10.3954C25.704 9.75609 24.8346 9.25294 23.77 8.89888C22.7718 8.56717 21.5168 8.39917 20.0398 8.39917C18.2904 8.39917 16.829 8.66428 15.6957 9.18763C14.4938 9.7432 13.5509 10.5626 12.8933 11.6235C12.2852 12.6035 11.88 13.7985 11.6892 15.1752C11.5171 16.4135 11.4297 17.8439 11.4297 19.4264V21.6263C11.4297 23.3674 11.5987 24.8527 11.9312 26.0412C12.2915 27.3298 12.8523 28.3954 13.5977 29.2079C14.3801 30.0609 15.3694 30.6611 16.5379 30.9915C17.5624 31.2816 18.7505 31.4285 20.0688 31.4285C21.3167 31.4285 22.4522 31.2798 23.445 30.9864C24.5431 30.6615 25.49 30.1085 26.2608 29.3416C27.0192 28.5866 27.5911 27.6091 27.9616 26.4352C28.3036 25.3507 28.477 24.051 28.477 22.5729C28.477 21.286 28.3397 20.1757 28.0686 19.273Z" fill="white"/>
<path d="M20.0681 30.4618C18.8452 30.4618 17.7521 30.3282 16.8194 30.0644C15.835 29.7859 15.0036 29.2824 14.3487 28.5682C13.7062 27.8683 13.2185 26.9338 12.8989 25.7904C12.589 24.684 12.4316 23.2828 12.4316 21.6268V19.4269C12.4316 17.8874 12.5159 16.4999 12.6822 15.3037C12.8552 14.0577 13.2154 12.9865 13.7531 12.1198C14.3081 11.2244 15.1075 10.5313 16.1284 10.0595C17.1248 9.59934 18.4404 9.36646 20.0387 9.36646C21.4042 9.36646 22.5496 9.51684 23.4421 9.81332C24.3582 10.118 25.097 10.5416 25.6373 11.0727C26.1817 11.6081 26.5633 12.2328 26.7719 12.9289C26.9685 13.5876 27.0684 14.2746 27.0684 14.9711C27.0684 15.2676 26.8187 15.5082 26.5111 15.5082H21.4836C21.1818 15.5082 20.9348 15.2766 20.9263 14.9862C20.9067 14.3086 20.7631 14.0005 20.6459 13.8613C20.6441 13.8591 20.6423 13.8574 20.641 13.8553C20.5162 13.7023 20.2286 13.6701 20.0097 13.6701C19.7797 13.6701 19.5831 13.762 19.3905 13.9601C19.1934 14.1621 19.0935 14.5114 19.0935 14.9986V16.8132C19.2616 16.704 19.4457 16.6048 19.6464 16.5158C20.3427 16.206 21.1457 16.0488 22.0324 16.0488C22.8219 16.0488 23.5527 16.1566 24.2049 16.3693C24.8888 16.5927 25.4866 16.9696 25.9824 17.4895C26.4728 18.0042 26.8499 18.6947 27.1041 19.5416C27.3488 20.3571 27.4728 21.3772 27.4728 22.573C27.4728 23.9557 27.314 25.1609 27.0011 26.1543C26.6774 27.1795 26.1857 28.0256 25.5392 28.6692C24.8879 29.3172 24.0841 29.7859 23.1496 30.0622C22.2526 30.3273 21.2161 30.4618 20.0681 30.4618ZM20.0391 10.4402C18.6089 10.4402 17.4552 10.6379 16.6103 11.028C15.7789 11.4121 15.1569 11.9497 14.7098 12.6711C14.2501 13.4119 13.9394 14.3455 13.7869 15.4464C13.6273 16.5958 13.5462 17.9346 13.5462 19.4269V21.6268C13.5462 23.1883 13.6902 24.4949 13.9746 25.5107C14.2493 26.4929 14.6558 27.2818 15.1832 27.8567C15.7044 28.4252 16.3424 28.8102 17.1333 29.034C17.9638 29.269 18.9513 29.3881 20.0681 29.3881C21.1051 29.3881 22.032 29.2695 22.8228 29.0357C23.5749 28.8132 24.2196 28.4385 24.7385 27.9224C25.2606 27.4025 25.6632 26.7026 25.9347 25.8424C26.216 24.9504 26.3582 23.8504 26.3582 22.5734C26.3582 21.4786 26.249 20.5591 26.0332 19.8402C25.8272 19.154 25.5339 18.6079 25.1612 18.2165C24.7889 17.8259 24.3587 17.5544 23.8473 17.3872C23.3106 17.2119 22.7002 17.1234 22.0324 17.1234C21.3079 17.1234 20.6624 17.2471 20.1136 17.4916C19.6071 17.7168 19.2759 18.0042 19.1002 18.3707C19.0093 18.5611 18.8118 18.6827 18.5942 18.6827H18.5363C18.2287 18.6827 17.979 18.4421 17.979 18.1456V14.9991C17.979 14.2291 18.1805 13.6323 18.5782 13.2249C18.9843 12.8077 19.4663 12.5963 20.0097 12.5963C20.6856 12.5963 21.1916 12.7953 21.5139 13.188C21.7676 13.4909 21.9281 13.9013 21.9994 14.4341H25.9302C25.8945 14.0229 25.8179 13.6185 25.7006 13.2262C25.5419 12.696 25.2606 12.2371 24.8411 11.8246C24.4229 11.4134 23.8295 11.0783 23.0783 10.8286C22.303 10.5708 21.2803 10.4402 20.0382 10.4402H20.0391ZM20.0391 27.3153C19.2607 27.3153 18.6825 26.9784 18.3664 26.3417C18.1025 25.811 17.9794 24.9233 17.9794 23.5479C17.9794 22.1725 18.1203 21.2676 18.4226 20.7301C18.7712 20.1092 19.3303 19.7805 20.0396 19.7805C20.8171 19.7805 21.3953 20.1169 21.7123 20.7537C21.9762 21.2857 22.0993 22.1734 22.0993 23.5479C22.0993 24.9224 21.9584 25.8273 21.6566 26.3653C21.307 26.9866 20.748 27.3153 20.0396 27.3153H20.0391ZM20.0391 20.8547C19.7449 20.8547 19.5545 20.9703 19.4025 21.2414C19.287 21.4464 19.094 22.0183 19.094 23.5479C19.094 25.0776 19.2679 25.6692 19.3713 25.8776C19.4649 26.0662 19.6107 26.2407 20.0387 26.2407C20.3325 26.2407 20.5228 26.1251 20.6758 25.8535C20.7908 25.6486 20.9838 25.0763 20.9838 23.5475C20.9838 22.0187 20.81 21.4262 20.7061 21.2173C20.6125 21.0291 20.4662 20.8543 20.0387 20.8543L20.0391 20.8547Z" fill="#191B29"/>
</g>
<defs>
<linearGradient id="paint0_linear_2302_13116" x1="19.9998" y1="1.87134" x2="19.9998" y2="38.1288" gradientUnits="userSpaceOnUse">
<stop stop-color="#FF4D00"/>
<stop offset="1" stop-color="#FFD339"/>
</linearGradient>
<linearGradient id="paint1_linear_2302_13116" x1="35.6991" y1="10.9358" x2="4.29927" y2="29.0645" gradientUnits="userSpaceOnUse">
<stop stop-color="#FF4D00"/>
<stop offset="1" stop-color="#FFD339"/>
</linearGradient>
<clipPath id="clip0_2302_13116">
<rect width="39" height="39" fill="white"/>
</clipPath>
</defs>
</svg>
