<svg width="40" height="40" viewBox="0 0 40 40" fill="none" xmlns="http://www.w3.org/2000/svg">
<g clip-path="url(#clip0_2316_13184)">
<path fill-rule="evenodd" clip-rule="evenodd" d="M31.6381 28.7964V28.7964L31.5567 28.9181L31.4882 29.0503L31.4324 29.1934L31.3889 29.3477L31.357 29.5135L31.3364 29.6911L31.3263 29.8806L31.3262 30.082L31.3353 30.2954L31.3528 30.5207L31.3777 30.7576L31.4091 31.0058L31.4458 31.2647L31.4866 31.5336L31.5302 31.8115L31.5749 32.0975L31.6194 32.39L31.6617 32.6874L31.7001 32.9879L31.7327 33.2893L31.7575 33.5893L31.7725 33.8853L31.7758 34.1745L31.7655 34.4541L31.7397 34.7212L31.697 34.9728L31.636 35.206L31.5555 35.4184L31.455 35.6075L31.334 35.7714L31.1927 35.9084L31.0314 36.0176L30.851 36.0984L30.6527 36.1508L30.4381 36.1755L30.2089 36.1734L29.9671 36.1463L29.7148 36.0959L29.4543 36.0247L29.1876 35.9351L28.917 35.8299L28.6444 35.7117L28.3718 35.5835L28.1007 35.4479L27.8328 35.3076L27.5693 35.1651L27.3113 35.0227L27.0598 34.8826L26.8153 34.7466L26.5785 34.6167L26.3498 34.4943L26.1293 34.3809L25.9171 34.2775L25.7133 34.1854L25.5176 34.1054L25.33 34.0383L25.1502 33.9847L24.9778 33.9453L24.8125 33.9206L24.6538 33.9109L24.5014 33.9165L24.3547 33.9379L24.2134 33.9752L24.0768 34.0286L23.9445 34.0981L23.816 34.184L23.6906 34.2861L23.5678 34.4044L23.4471 34.5387L23.3279 34.6889L23.2095 34.8545L23.0915 35.0352L22.9732 35.2303L22.8539 35.4391L22.7332 35.6606L22.6104 35.8937L22.4849 36.1371L22.3562 36.3892L22.2237 36.6481L22.087 36.9118L21.9456 37.1778L21.7993 37.4435L21.6476 37.706L21.4905 37.9623L21.3278 38.209L21.1596 38.4428L20.9861 38.6601L20.8075 38.8577L20.6245 39.0323L20.4374 39.1807L20.2472 39.3004L20.0545 39.3891L19.8603 39.4451L19.6655 39.4672L19.4712 39.455L19.2782 39.4087L19.0877 39.329L18.9003 39.2176L18.717 39.0763L18.5384 38.9077L18.365 38.7147L18.1973 38.5005L18.0354 38.2683L17.8796 38.0218L17.7297 37.7642L17.5857 37.4989L17.4472 37.2292L17.314 36.958L17.1855 36.688L17.0614 36.4217L16.941 36.1615L16.8238 35.9091L16.7092 35.6664L16.5965 35.4347L16.4852 35.2153L16.3745 35.0091L16.2638 34.8171L16.1526 34.6397L16.0402 34.4776L15.926 34.3312L15.8094 34.2006L15.6898 34.086L15.5666 33.9875L15.4394 33.9052L15.3075 33.839L15.1705 33.7888L15.0278 33.7543L14.8789 33.7355L14.7234 33.7319L14.5609 33.7434L14.3909 33.7694L14.2131 33.8096L14.0271 33.8634L13.8327 33.9301L13.6297 34.009L13.418 34.0992L13.1975 34.1999L12.9683 34.3098L12.7307 34.4276L12.4849 34.5519L12.2316 34.6811L11.9713 34.8132L11.705 34.9464L11.4337 35.0783L11.1588 35.2067L10.8817 35.3289L10.6042 35.4424L10.3282 35.5444L10.0556 35.6323L9.78882 35.7033L9.52996 35.7549L9.28136 35.7848L9.04525 35.791L8.82376 35.7716L8.61884 35.7256L8.43219 35.6521L8.26517 35.5508L8.11881 35.422L7.99372 35.2667L7.89011 35.086L7.80775 34.8817L7.74603 34.6561L7.70395 34.4115L7.68021 34.1507L7.67322 33.8765L7.68118 33.5918L7.70214 33.2993L7.73406 33.0019L7.77484 32.7022L7.82243 32.4025L7.87478 32.1049L7.92996 31.8116L7.98611 31.5241L8.04151 31.2438L8.09457 30.972L8.14383 30.7096L8.18794 30.4575L8.22572 30.2162L8.25607 29.986L8.27802 29.7673L8.29071 29.5603L8.29336 29.3649L8.28526 29.181L8.2658 29.0085L8.23442 28.8473L8.19062 28.697L8.13396 28.5572L8.06404 28.4277L7.9805 28.3081L7.88305 28.1978L7.77143 28.0965L7.64543 28.0036L7.50491 27.9186L7.34977 27.8409L7.18 27.77L6.99569 27.7051L6.79702 27.6457L6.58426 27.591L6.35786 27.5402L6.11839 27.4925L5.86662 27.447L5.60352 27.4029L5.33026 27.359L5.04827 27.3144L4.75922 27.2681L4.46505 27.2187L4.168 27.1653L3.87053 27.1066L3.5754 27.0415L3.28557 26.9689L3.00419 26.8877L2.73454 26.7969L2.47995 26.6957L2.24375 26.5834L2.02912 26.4595L1.83903 26.3236L1.67613 26.1757L1.54267 26.0159L1.44037 25.8447L1.37039 25.6627L1.33329 25.4708L1.32897 25.27L1.35672 25.0615L1.41522 24.8467L1.50262 24.6269L1.6166 24.4036L1.75445 24.1781L1.91321 23.9519L2.08969 23.7261L2.28066 23.502L2.48284 23.2804L2.69305 23.0622L2.90823 22.8482L3.12549 22.6388L3.34216 22.4346L3.5558 22.2356L3.76421 22.0421L3.96545 21.8541L4.15779 21.6715L4.33974 21.4941L4.51003 21.3217L4.66756 21.1539L4.81142 20.9904L4.94086 20.8308L5.05525 20.6746L5.15409 20.5214L5.23698 20.3707L5.30361 20.2219L5.35375 20.0746L5.38725 19.9282L5.404 19.7823L5.40398 19.6362L5.38719 19.4894L5.35373 19.3415L5.30372 19.1918L5.23737 19.0399L5.15495 18.8853L5.05683 18.7275L4.94345 18.5659L4.81538 18.4002L4.67329 18.23L4.51802 18.0549L4.35054 17.8746L4.17202 17.6888L3.98382 17.4973L3.78751 17.3001L3.58488 17.0973L3.37798 16.8888L3.16907 16.675L2.96067 16.4563L2.75549 16.2331L2.55647 16.0063L2.36668 15.7767L2.18932 15.5452L2.0276 15.3131L1.8847 15.0816L1.76369 14.8522L1.66741 14.6263L1.59838 14.4054L1.5587 14.191L1.55001 13.9846L1.57336 13.7874L1.62921 13.6007L1.71739 13.4254L1.83711 13.2623L1.98697 13.112L2.16505 12.9746L2.36897 12.8501L2.59595 12.7384L2.84295 12.6389L3.10676 12.5509L3.38408 12.4736L3.67161 12.4058L3.96615 12.3466L4.26467 12.2947L4.56431 12.2488L4.86246 12.2077L5.15678 12.1702L5.44519 12.135L5.72588 12.101L5.99731 12.067L6.25819 12.0319L6.50744 11.9948L6.74422 11.9547L6.96786 11.9108L7.17786 11.8621L7.37388 11.808L7.55568 11.7477L7.72316 11.6805L7.87629 11.6059L8.01514 11.5232L8.13983 11.4319L8.25056 11.3315L8.34757 11.2215L8.43114 11.1014L8.50163 10.9709L8.5594 10.8296L8.60488 10.6771L8.63856 10.5131L8.66095 10.3374L8.67264 10.1498L8.67429 9.95032L8.66662 9.73881L8.65043 9.51541L8.62662 9.28033L8.59619 9.03392L8.56024 8.77669L8.52 8.50933L8.4768 8.23272L8.43211 7.94798L8.38752 7.65643L8.34473 7.35968L8.30557 7.05954L8.27192 6.75811L8.24575 6.45773L8.22903 6.16092L8.22375 5.87042L8.2318 5.58908L8.25497 5.31983L8.2949 5.06559L8.35295 4.82921L8.43024 4.61334L8.52754 4.42039L8.64525 4.2524L8.78338 4.11102L8.94154 3.99736L9.11895 3.91203L9.31446 3.85511L9.52659 3.82609L9.7536 3.82396L9.99353 3.84724L10.2443 3.89403L10.5036 3.9621L10.7695 4.04893L11.0396 4.15187L11.312 4.26814L11.5848 4.39495L11.8562 4.52955L12.1247 4.66928L12.389 4.8116L12.6479 4.95417L12.9005 5.0948L13.1461 5.2315L13.3842 5.3625L13.6142 5.48618L13.8361 5.60115L14.0496 5.70616L14.2547 5.80014L14.4517 5.88214L14.6405 5.95136L14.8216 6.00712L14.9952 6.04881L15.1616 6.07593L15.3213 6.08806L15.4746 6.08485L15.6222 6.06599L15.7643 6.03125L15.9016 5.98046L16.0346 5.91348L16.1637 5.83023L16.2896 5.73072L16.4127 5.615L16.5337 5.48319L16.6531 5.33552L16.7715 5.17231L16.8896 4.99399L17.0078 4.80114L17.1269 4.59449L17.2474 4.37493L17.3698 4.14356L17.4948 3.90169L17.623 3.65088L17.7548 3.39292L17.8908 3.12988L18.0314 2.86409L18.177 2.59815L18.3278 2.3349L18.484 2.07742L18.6458 1.82896L18.8132 1.5929L18.9859 1.37268L19.1636 1.17171L19.346 0.993296L19.5324 0.840495L19.7222 0.716058L19.9146 0.622303L20.1086 0.561036L20.3034 0.533476L20.4979 0.540206L20.6911 0.581145L20.8821 0.655556L21.07 0.762072L21.254 0.898754L21.4334 1.06317L21.6076 1.25249L21.7763 1.46356L21.9391 1.69307L22.0959 1.93757L22.2467 2.19362L22.3917 2.45787L22.531 2.7271L22.6651 2.99829L22.7942 3.26864L22.919 3.53563L23.0399 3.79699L23.1576 4.05072L23.2726 4.2951L23.3855 4.52864L23.4971 4.75009L23.6078 4.95841L23.7184 5.15276L23.8295 5.33247L23.9417 5.49702L24.0556 5.646L24.1718 5.77915L24.2909 5.89628L24.4134 5.9973L24.54 6.08217L24.6711 6.15095L24.8072 6.20373L24.949 6.24068L25.0969 6.26199L25.2513 6.26795L25.4126 6.25886L25.5814 6.23511L25.758 6.19715L25.9426 6.14552L26.1357 6.08083L26.3373 6.00381L26.5476 5.91529L26.7667 5.81623L26.9945 5.70774L27.2308 5.59108L27.4753 5.4677L27.7275 5.33919L27.9867 5.20737L28.2522 5.07423L28.5227 4.94194L28.7971 4.81285L29.074 4.68946L29.3515 4.5744L29.6279 4.47037L29.9012 4.38008L30.1691 4.30621L30.4293 4.25134L30.6797 4.21783L30.918 4.20779L31.1419 4.22297L31.3496 4.26469L31.5393 4.33381L31.7095 4.43068L31.8592 4.55509L31.9877 4.7063L32.0947 4.88307L32.1804 5.08371L32.2454 5.3061L32.2905 5.54782L32.3171 5.80622L32.3266 6.07848L32.3209 6.36174L32.3019 6.65314L32.2716 6.94993L32.2321 7.24947L32.1854 7.54935L32.1337 7.84734L32.0788 8.14148L32.0227 8.43004L31.9671 8.71155L31.9136 8.98476L31.8636 9.24867L31.8186 9.50248L31.7797 9.74558L31.7481 9.97753L31.7248 10.198L31.7106 10.407L31.7063 10.6042L31.7126 10.7899L31.7302 10.9642L31.7597 11.1272L31.8015 11.2793L31.856 11.4206L31.9238 11.5517L32.0052 11.6729L32.1004 11.7847L32.2097 11.8874L32.3334 11.9816L32.4716 12.0678L32.6244 12.1466L32.7919 12.2186L32.9739 12.2844L33.1703 12.3446L33.3808 12.4L33.6051 12.4514L33.8425 12.4995L34.0924 12.5453L34.3538 12.5896L34.6255 12.6334L34.9062 12.6778L35.1943 12.7238L35.4877 12.7726L35.7845 12.8253L36.0821 12.8831L36.3778 12.947L36.6687 13.0184L36.9516 13.0982L37.2233 13.1874L37.4805 13.2868L37.7199 13.3974L37.9382 13.5194L38.1324 13.6534L38.2997 13.7994L38.438 13.9573L38.5454 14.1267L38.6206 14.3071L38.6629 14.4975L38.6724 14.6969L38.6497 14.9043L38.596 15.1182L38.513 15.3373L38.4031 15.5601L38.2689 15.7853L38.1132 16.0115L37.9394 16.2374L37.7505 16.4619L37.5499 16.684L37.3407 16.9027L37.1262 17.1175L36.909 17.3276L36.6921 17.5327L36.4778 17.7325L36.2684 17.9268L36.0659 18.1157L35.8721 18.2992L35.6884 18.4774L35.5162 18.6506L35.3565 18.8191L35.2104 18.9833L35.0787 19.1435L34.9618 19.3002L34.8605 19.4538L34.775 19.6049L34.7058 19.754L34.653 19.9014L34.6169 20.0479L34.5974 20.1939L34.5948 20.3399L34.6089 20.4866L34.6397 20.6343L34.6871 20.7836L34.7509 20.9351L34.8308 21.0893L34.9264 21.2466L35.0374 21.4075L35.1632 21.5725L35.3031 21.742L35.4563 21.9163L35.6219 22.0958L35.7988 22.2807L35.9855 22.4713L36.1807 22.6675L36.3824 22.8695L36.5888 23.0771L36.7975 23.29L37.0062 23.508L37.2121 23.7305L37.4123 23.9568L37.6037 24.1861L37.7833 24.4173L37.9477 24.6494L38.0938 24.8811L38.2185 25.1109L38.3189 25.3375L38.3924 25.5593L38.4369 25.7748L38.4506 25.9826L38.4324 26.1813L38.3818 26.3697L38.2987 26.5469L38.1839 26.712L38.0387 26.8644L37.865 27.0039L37.665 27.1303L37.4415 27.2441L37.1975 27.3455L36.9361 27.4352L36.6608 27.5142L36.3746 27.5834L36.081 27.6439L35.7829 27.6969L35.4833 27.7437L35.1847 27.7854L34.8897 27.8234L34.6002 27.8589L34.3181 27.8931L34.0451 27.927L33.7825 27.9618L33.5313 27.9985L33.2925 28.0381L33.0668 28.0814L32.8546 28.1292L32.6563 28.1824L32.4722 28.2417L32.3025 28.3077L32.147 28.3811L32.0059 28.4625L31.879 28.5524L31.7661 28.6513L31.6669 28.7598L31.6381 28.7964Z" fill="url(#paint0_linear_2316_13184)"/>
<path fill-rule="evenodd" clip-rule="evenodd" d="M29.5812 8.99791V8.99791L29.697 9.0876L29.8241 9.16501L29.963 9.23056L30.114 9.28469L30.2772 9.32793L30.4529 9.3608L30.6412 9.38393L30.8422 9.39798L31.0557 9.40367L31.2816 9.40183L31.5197 9.39334L31.7695 9.37919L32.0303 9.36047L32.3014 9.33835L32.5817 9.31414L32.87 9.28924L33.1649 9.26515L33.4645 9.2435L33.7669 9.22595L34.0699 9.21429L34.3709 9.21029L34.6672 9.21577L34.956 9.2325L35.2342 9.26215L35.4988 9.3063L35.7469 9.36632L35.9754 9.44336L36.1817 9.53829L36.3634 9.65165L36.5185 9.78367L36.6454 9.93416L36.7431 10.1026L36.8113 10.2881L36.8499 10.4896L36.8596 10.7054L36.8417 10.9339L36.7979 11.1732L36.7303 11.4214L36.6412 11.6764L36.5334 11.9362L36.4097 12.1989L36.273 12.4627L36.1262 12.7258L35.9722 12.9869L35.8137 13.2444L35.6533 13.4974L35.4934 13.745L35.3362 13.9862L35.1837 14.2207L35.0377 14.4479L34.8998 14.6676L34.7713 14.8798L34.6536 15.0843L34.5476 15.2813L34.4542 15.4709L34.3743 15.6534L34.3084 15.8291L34.2572 15.9984L34.2211 16.1616L34.2004 16.3192L34.1955 16.4717L34.2067 16.6194L34.2341 16.763L34.2779 16.903L34.3382 17.0397L34.4149 17.1739L34.5081 17.3061L34.6176 17.4367L34.7433 17.5664L34.8849 17.6958L35.0419 17.8253L35.214 17.9555L35.4005 18.0871L35.6005 18.2205L35.8131 18.3562L36.0372 18.4949L36.2714 18.6369L36.5139 18.7828L36.7631 18.9328L37.0166 19.0874L37.2722 19.2468L37.5272 19.4112L37.7786 19.5807L38.0234 19.7552L38.2582 19.9345L38.4798 20.1185L38.6847 20.3066L38.8694 20.4984L39.0309 20.6931L39.1661 20.8899L39.2723 21.088L39.3475 21.2864L39.3899 21.484L39.3985 21.6798L39.3728 21.8729L39.3133 22.0621L39.2207 22.2467L39.0965 22.4259L38.9429 22.599L38.7624 22.7655L38.5578 22.9252L38.3325 23.0777L38.0898 23.2231L37.833 23.3615L37.5657 23.4932L37.2911 23.6186L37.0124 23.7381L36.7326 23.8522L36.4544 23.9617L36.1802 24.0671L35.9122 24.1692L35.6524 24.2686L35.4023 24.3662L35.1634 24.4626L34.9368 24.5585L34.7235 24.6547L34.5242 24.7518L34.3396 24.8505L34.1701 24.9514L34.0161 25.0552L33.8778 25.1625L33.7552 25.2739L33.6485 25.3899L33.5576 25.5112L33.4824 25.6382L33.4228 25.7714L33.3785 25.9114L33.3494 26.0586L33.3352 26.2135L33.3353 26.3764L33.3496 26.5478L33.3774 26.7279L33.4181 26.9172L33.4712 27.1157L33.5359 27.3237L33.6113 27.5412L33.6965 27.7681L33.7902 28.0043L33.8913 28.2495L33.9984 28.5033L34.1097 28.765L34.2235 29.0338L34.338 29.3087L34.4508 29.5884L34.5599 29.8715L34.6626 30.1564L34.7567 30.4411L34.8394 30.7235L34.9082 31.0015L34.9605 31.2726L34.9941 31.5344L35.0068 31.7845L34.9966 32.0204L34.962 32.24L34.9019 32.4413L34.8156 32.6224L34.703 32.782L34.5645 32.9191L34.4008 33.0332L34.2134 33.124L34.0039 33.1921L33.7745 33.238L33.5277 33.2631L33.2658 33.2688L32.9918 33.2568L32.7083 33.2291L32.418 33.188L32.1235 33.1356L31.8273 33.0742L31.5316 33.006L31.2384 32.9332L30.9496 32.8578L30.6666 32.7819L30.3909 32.7073L30.1234 32.6356L29.8651 32.5683L29.6166 32.5068L29.3784 32.4525L29.1509 32.4063L28.9343 32.3692L28.7286 32.3423L28.5338 32.3261L28.3499 32.3215L28.1765 32.329L28.0134 32.3491L27.8604 32.3824L27.7171 32.4293L27.5831 32.4901L27.458 32.5651L27.3412 32.6547L27.2324 32.7591L27.131 32.8783L27.0365 33.0126L26.9483 33.162L26.8658 33.3265L26.7883 33.5059L26.7153 33.7L26.646 33.9084L26.5797 34.1308L26.5156 34.3664L26.4528 34.6144L26.3905 34.8738L26.3279 35.1434L26.2639 35.4216L26.1977 35.7068L26.1281 35.9968L26.0543 36.2895L25.9752 36.5822L25.8898 36.8721L25.7973 37.1562L25.6969 37.4313L25.5877 37.694L25.4691 37.941L25.3407 38.1689L25.2022 38.3744L25.0535 38.5547L24.8947 38.7069L24.7261 38.829L24.5482 38.9192L24.3618 38.9765L24.1678 39.0002L23.9671 38.9906L23.7611 38.9485L23.5508 38.8753L23.3376 38.7729L23.1227 38.6438L22.9073 38.4907L22.6926 38.3166L22.4796 38.125L22.2692 37.9189L22.0621 37.7019L21.859 37.4771L21.6604 37.2477L21.4665 37.0164L21.2777 36.7862L21.0941 36.5593L20.9154 36.338L20.7418 36.1242L20.5729 35.9197L20.4085 35.7259L20.2483 35.5441L20.0918 35.3754L19.9386 35.2205L19.7883 35.0804L19.6405 34.9555L19.4944 34.8463L19.3498 34.7532L19.206 34.6764L19.0626 34.6162L18.9189 34.5726L18.7744 34.5458L18.6287 34.5358L18.4811 34.5424L18.3312 34.5655L18.1784 34.605L18.0223 34.6607L17.8624 34.7323L17.6981 34.8192L17.5291 34.9212L17.3549 35.0375L17.1753 35.1674L16.9899 35.3102L16.7984 35.4648L16.6007 35.6301L16.3967 35.8046L16.1864 35.9868L15.97 36.1749L15.7477 36.3669L15.52 36.5605L15.2874 36.7533L15.0506 36.9426L14.8105 37.1254L14.5683 37.2989L14.3251 37.4598L14.0824 37.6051L13.8416 37.7316L13.6044 37.8365L13.3723 37.9169L13.1472 37.9705L12.9306 37.9953L12.724 37.9896L12.529 37.9527L12.3466 37.8841L12.1778 37.784L12.0234 37.6533L11.8837 37.4934L11.759 37.3062L11.649 37.0942L11.5532 36.86L11.471 36.6067L11.4015 36.3375L11.3435 36.0555L11.2958 35.7639L11.2571 35.466L11.2259 35.1646L11.2009 34.8625L11.1805 34.5623L11.1634 34.266L11.1483 33.9759L11.1338 33.6935L11.1186 33.4204L11.1017 33.1577L11.0819 32.9065L11.0583 32.6675L11.0299 32.4414L10.9959 32.2285L10.9554 32.0292L10.9078 31.8437L10.8524 31.6719L10.7886 31.514L10.7157 31.3698L10.6332 31.2391L10.5407 31.1217L10.4377 31.0173L10.3237 30.9256L10.1984 30.8463L10.0614 30.7789L9.91234 30.7229L9.75108 30.678L9.57737 30.6435L9.39108 30.6189L9.19214 30.6034L8.98061 30.5965L8.75663 30.5972L8.52046 30.6046L8.27254 30.618L8.01344 30.636L7.74393 30.6577L7.465 30.6817L7.17785 30.7066L6.88392 30.7309L6.58491 30.753L6.28278 30.7713L5.97975 30.7841L5.67827 30.7894L5.38102 30.7856L5.09085 30.7707L4.81074 30.7433L4.54374 30.7015L4.29287 30.6441L4.06107 30.5698L3.85106 30.4778L3.6653 30.3674L3.50586 30.2383L3.37436 30.0908L3.27191 29.9251L3.19906 29.7422L3.15579 29.5433L3.14151 29.3296L3.15509 29.103L3.19491 28.8653L3.25893 28.6184L3.34477 28.3643L3.44978 28.1051L3.57116 27.8428L3.70599 27.5791L3.85136 27.3157L4.0044 27.0543L4.16236 26.7961L4.32263 26.5422L4.48276 26.2938L4.64052 26.0515L4.79389 25.8159L4.94103 25.5875L5.08033 25.3666L5.21036 25.1532L5.32989 24.9475L5.43783 24.7493L5.53325 24.5586L5.61537 24.3749L5.68351 24.1982L5.7371 24.0279L5.77567 23.8637L5.79882 23.7053L5.80622 23.552L5.79761 23.4036L5.77279 23.2593L5.73161 23.1189L5.67398 22.9816L5.59987 22.847L5.5093 22.7146L5.40237 22.5837L5.27924 22.4539L5.14019 22.3246L4.98556 22.1951L4.81583 22.065L4.63162 21.9337L4.4337 21.8007L4.22299 21.6653L4.00065 21.5271L3.76801 21.3857L3.52666 21.2405L3.27843 21.0911L3.02543 20.9373L2.77 20.7786L2.51476 20.615L2.26257 20.4464L2.01651 20.2727L1.77983 20.0941L1.55591 19.9108L1.34816 19.7233L1.15997 19.5321L0.994591 19.3378L0.85505 19.1413L0.744036 18.9433L0.663809 18.7449L0.616108 18.5471L0.602083 18.3509L0.622246 18.1574L0.67645 17.9675L0.763892 17.7821L0.883148 17.602L1.03223 17.4279L1.20866 17.2603L1.40957 17.0995L1.63181 16.9459L1.87202 16.7993L2.12678 16.6598L2.39265 16.527L2.66629 16.4007L2.94451 16.2803L3.22432 16.1654L3.50296 16.0552L3.77794 15.9492L4.04703 15.8466L4.3083 15.7468L4.56004 15.649L4.80083 15.5525L5.02946 15.4565L5.24495 15.3604L5.44648 15.2635L5.63345 15.1651L5.80536 15.0646L5.96186 14.9613L6.10273 14.8546L6.22781 14.7439L6.33706 14.6286L6.43048 14.5082L6.50816 14.3822L6.57024 14.25L6.6169 14.1111L6.64839 13.9651L6.665 13.8115L6.6671 13.6499L6.65507 13.4798L6.62942 13.3011L6.59068 13.1133L6.5395 12.9163L6.4766 12.7098L6.40284 12.4939L6.31917 12.2684L6.2267 12.0337L6.12666 11.7899L6.02048 11.5374L5.90973 11.2769L5.79615 11.0092L5.68168 10.7352L5.56841 10.4562L5.45861 10.1735L5.35467 9.88877L5.25908 9.60392L5.17441 9.32097L5.10323 9.04214L5.04807 8.76979L5.01133 8.50634L4.99522 8.25423L5.00168 8.01586L5.0323 7.7935L5.08829 7.5892L5.17037 7.40477L5.27877 7.24166L5.41323 7.10091L5.57297 6.98318L5.75672 6.88863L5.96281 6.817L6.18916 6.76758L6.43342 6.73928L6.69304 6.73066L6.96531 6.73997L7.24749 6.76525L7.53688 6.80438L7.83086 6.85514L8.12696 6.91528L8.42289 6.98254L8.71659 7.05475L9.00623 7.12982L9.29022 7.20575L9.5672 7.28072L9.83606 7.35302L10.0959 7.42111L10.346 7.48357L10.5858 7.53915L10.815 7.58672L11.0334 7.62527L11.2408 7.6539L11.4373 7.67182L11.623 7.67834L11.7981 7.67282L11.9627 7.65472L12.1173 7.62354L12.2621 7.57887L12.3976 7.52031L12.5241 7.44754L12.6422 7.36028L12.7522 7.2583L12.8548 7.14141L12.9503 7.0095L13.0395 6.86251L13.1229 6.70045L13.2011 6.52343L13.2748 6.33166L13.3446 6.12546L13.4114 5.90528L13.4758 5.67175L13.5387 5.42564L13.601 5.16796L13.6635 4.89991L13.7272 4.62295L13.7931 4.33877L13.862 4.04936L13.9351 3.75695L14.0133 3.46409L14.0976 3.17352L14.1889 2.88827L14.288 2.61152L14.3958 2.3466L14.5128 2.09689L14.6396 1.86575L14.7765 1.65644L14.9236 1.47199L15.0808 1.3151L15.2479 1.18807L15.4243 1.09268L15.6094 1.03016L15.8023 1.00108L16.002 1.00539L16.2073 1.04239L16.4169 1.11077L16.6298 1.20866L16.8445 1.33373L17.0598 1.48323L17.2747 1.65413L17.4881 1.84321L17.699 2.04717L17.9067 2.26265L18.1104 2.48642L18.3098 2.71534L18.5044 2.94647L18.694 3.17707L18.8785 3.40465L19.0579 3.62697L19.2323 3.84205L19.4019 4.04814L19.567 4.24372L19.7279 4.42751L19.885 4.59841L20.0386 4.75551L20.1894 4.89805L20.3376 5.02543L20.4839 5.13716L20.6287 5.23285L20.7726 5.31223L20.9161 5.37509L21.0597 5.42128L21.204 5.45076L21.3495 5.4635L21.4967 5.45955L21.6462 5.43903L21.7985 5.40208L21.954 5.34895L22.1134 5.27992L22.2769 5.19538L22.4451 5.0958L22.6184 4.98173L22.7972 4.85388L22.9817 4.71306L23.1722 4.56027L23.3689 4.39663L23.5719 4.2235L23.7811 4.04241L23.9966 3.85511L24.218 3.66359L24.4449 3.47007L24.6768 3.27698L24.9129 3.08698L25.1525 2.9029L25.3945 2.72775L25.6376 2.56461L25.8805 2.41663L26.1217 2.2869L26.3596 2.1784L26.5926 2.09391L26.8189 2.0359L27.037 2.00643L27.2453 2.00713L27.4422 2.03903L27.6267 2.10261L27.7977 2.19773L27.9545 2.32364L28.0965 2.47901L28.2236 2.66198L28.3359 2.87022L28.4339 3.10106L28.5182 3.35151L28.5897 3.61845L28.6495 3.89864L28.6987 4.18886L28.7388 4.48598L28.771 4.78701L28.7969 5.08916L28.818 5.38989L28.8355 5.68689L28.8508 5.97812L28.8654 6.26184L28.8804 6.53654L28.8969 6.80095L28.9162 7.05405L28.9391 7.29503L28.9667 7.52326L28.9998 7.73826L29.0391 7.93972L29.0855 8.12746L29.1397 8.30138L29.2021 8.4615L29.2736 8.6079L29.3545 8.74075L29.4453 8.86026L29.5467 8.9667L29.5812 8.99791Z" fill="url(#paint1_linear_2316_13184)"/>
<path d="M32.1575 19.9987L33.0395 18.3242C33.6627 17.136 33.2622 15.6441 32.1273 14.9277L30.5295 13.9204L30.456 12.0312C30.4025 10.6869 29.3084 9.59493 27.9672 9.54467L26.0799 9.47166L25.0715 7.87288C24.3551 6.7386 22.8631 6.33864 21.6727 6.96292L20.0008 7.84325L18.3284 6.96133C17.1417 6.33652 15.6491 6.73596 14.9285 7.87235L13.9206 9.47061L12.0318 9.54361C10.6901 9.59652 9.59753 10.6895 9.54462 12.0317L9.47108 13.9199L7.87273 14.9272C6.73468 15.6451 6.33522 17.1386 6.96165 18.3258L7.84204 19.9981L6.96271 21.6683C6.33469 22.8582 6.73468 24.3522 7.87273 25.0691L9.47055 26.0769L9.54409 27.9656C9.597 29.3073 10.6895 30.3997 12.0308 30.4527L13.9201 30.5272L14.9275 32.1244C15.6438 33.2608 17.1364 33.6619 18.3268 33.0371L20.0003 32.1567L21.6732 33.0381C22.0415 33.2317 22.4568 33.3338 22.8742 33.3338C23.7732 33.3338 24.5948 32.8826 25.072 32.1266L26.0805 30.5278L27.9693 30.4548C29.311 30.4019 30.4036 29.3094 30.4565 27.9667L30.5295 26.079L32.1289 25.0706C33.2627 24.3543 33.6632 22.8624 33.0389 21.6726L32.1585 19.9987H32.1575Z" fill="white"/>
<path d="M22.6371 31.9067C22.4175 31.9067 22.1953 31.8553 21.9906 31.7474L20.061 30.7311C19.9219 30.6581 19.6055 30.6576 19.4669 30.7311L17.5357 31.7469C16.8924 32.0849 16.085 31.868 15.6977 31.2533L14.5358 29.4106C14.4522 29.2778 14.1777 29.1191 14.0211 29.1128L11.8412 29.0271C11.1164 28.9985 10.526 28.4075 10.4969 27.6822L10.4122 25.5041C10.4058 25.3443 10.2503 25.0745 10.1154 24.9894L8.27154 23.8265C7.65622 23.4387 7.44036 22.6314 7.7795 21.9881L8.7948 20.0597C8.86782 19.9205 8.86834 19.6036 8.7948 19.465L7.77897 17.5351C7.44036 16.8933 7.65622 16.086 8.27101 15.6977L10.1154 14.5354C10.2482 14.4518 10.4064 14.1777 10.4122 14.0206L10.4974 11.842C10.526 11.1161 11.1169 10.5257 11.8423 10.4966L14.0205 10.412C14.1803 10.4056 14.4501 10.2501 14.5353 10.1152L15.6982 8.27091C16.0876 7.65615 16.895 7.44083 17.5368 7.77836L19.4669 8.79572C19.606 8.86926 19.9224 8.86926 20.061 8.79572L21.9911 7.77942C22.635 7.44189 23.4418 7.65827 23.8286 8.27144L24.9915 10.1162C25.0751 10.249 25.3492 10.4072 25.5063 10.4136L27.6845 10.4982C28.4099 10.5252 29.0014 11.1156 29.03 11.8425L29.1146 14.0222C29.121 14.1788 29.2792 14.4528 29.4114 14.5364L31.2558 15.6993C31.8695 16.0865 32.0859 16.8933 31.7489 17.5361L30.732 19.4661C30.6574 19.6079 30.6574 19.919 30.732 20.0607L31.7473 21.9912C32.0849 22.6346 31.8685 23.4414 31.2553 23.8286L29.4104 24.9915C29.2781 25.0751 29.1194 25.3496 29.1136 25.5062L29.0289 27.6849C29.0004 28.4102 28.4094 29.0006 27.684 29.0297L25.5047 29.1143C25.3481 29.1207 25.0741 29.2789 24.9905 29.4111L23.827 31.2565C23.563 31.6744 23.1048 31.9082 22.6361 31.9082L22.6371 31.9067ZM19.7632 29.3514C20.0875 29.3514 20.4123 29.4212 20.6774 29.5603L22.6064 30.5766C22.6329 30.5904 22.6927 30.5745 22.7091 30.5486L23.8725 28.7038C24.191 28.1986 24.8561 27.8145 25.4539 27.7907L27.6332 27.706C27.6639 27.705 27.7073 27.6621 27.7083 27.6314L27.793 25.4528C27.8168 24.8555 28.2004 24.1905 28.7057 23.8715L30.5506 22.7086C30.5765 22.6922 30.5924 22.633 30.5775 22.6049L29.5622 20.6755C29.2839 20.1465 29.2839 19.3777 29.5622 18.8487L30.5786 16.9198C30.5929 16.8928 30.577 16.8336 30.5506 16.8172L28.7067 15.6543C28.2014 15.3358 27.8173 14.6708 27.7935 14.073L27.7089 11.8933C27.7078 11.8637 27.665 11.8203 27.6348 11.8192L25.455 11.7346C24.8561 11.7108 24.191 11.3267 23.873 10.8209L22.7107 8.97719C22.6943 8.95126 22.635 8.93539 22.607 8.9502L20.6785 9.96598C20.1494 10.2453 19.3801 10.2453 18.8505 9.96598L16.9209 8.94915C16.8934 8.93486 16.8336 8.95126 16.8167 8.97824L15.6548 10.8209C15.3363 11.3262 14.6708 11.7102 14.0729 11.7341L11.8947 11.8187C11.8645 11.8198 11.8206 11.8637 11.8196 11.8944L11.7344 14.073C11.7106 14.6713 11.3264 15.3369 10.8206 15.6548L8.97733 16.8166C8.95194 16.8325 8.93554 16.8923 8.94982 16.9187L9.96566 18.8487C10.2445 19.3772 10.2445 20.1459 9.96566 20.676L8.94982 22.6049C8.93554 22.6324 8.95141 22.6912 8.97733 22.7076L10.8212 23.8704C11.3264 24.1889 11.7106 24.8539 11.7344 25.4523L11.819 27.6304C11.8201 27.661 11.8629 27.7044 11.8936 27.7055L14.0734 27.7912C14.6708 27.815 15.3363 28.1991 15.6548 28.7054L16.8167 30.5481C16.8331 30.574 16.8929 30.5904 16.9204 30.5761L18.8505 29.5609C19.1145 29.4217 19.4388 29.3519 19.7637 29.3519L19.7632 29.3514Z" fill="#191B29"/>
<path d="M23.1258 25.2961C23.0205 25.2961 22.9147 25.2713 22.8179 25.2199L19.7651 23.6143L16.7123 25.2199C16.4895 25.3369 16.2192 25.3178 16.0155 25.1697C15.8118 25.0215 15.7097 24.7708 15.7525 24.5227L16.3361 21.123L13.8658 18.7164C13.6854 18.5407 13.6209 18.2778 13.6981 18.0386C13.7759 17.799 13.9828 17.6249 14.232 17.5884L17.6451 17.0916L19.172 13.9994C19.2836 13.7735 19.5132 13.6306 19.7651 13.6306C20.0169 13.6306 20.2465 13.7735 20.3582 13.9994L21.8851 17.0916L25.2982 17.5884C25.5474 17.6249 25.7543 17.799 25.832 18.0386C25.9098 18.2783 25.8447 18.5407 25.6643 18.7164L23.194 21.123L23.7776 24.5227C23.8205 24.7708 23.7184 25.0215 23.5147 25.1697C23.3993 25.2533 23.2628 25.2961 23.1258 25.2961ZM19.7651 22.206C19.8709 22.206 19.9767 22.2313 20.073 22.2821L22.2475 23.4254L21.8317 21.004C21.7946 20.7892 21.8661 20.5701 22.0221 20.4183L23.7813 18.7042L21.3507 18.3508C21.1354 18.3196 20.9492 18.1841 20.8529 17.9889L19.7651 15.786L18.6773 17.9889C18.581 18.1841 18.3948 18.319 18.1794 18.3508L15.7488 18.7042L17.508 20.4183C17.6641 20.5701 17.735 20.7892 17.6985 21.004L17.2826 23.4254L19.4572 22.2821C19.5534 22.2313 19.6593 22.206 19.7651 22.206Z" fill="#191B29"/>
</g>
<defs>
<linearGradient id="paint0_linear_2316_13184" x1="31.7466" y1="4.45874" x2="8.25286" y2="35.5415" gradientUnits="userSpaceOnUse">
<stop stop-color="#0088FF"/>
<stop offset="1" stop-color="#39FFF3"/>
</linearGradient>
<linearGradient id="paint1_linear_2316_13184" x1="5.30933" y1="7.20656" x2="34.6929" y2="32.7937" gradientUnits="userSpaceOnUse">
<stop stop-color="#0088FF"/>
<stop offset="1" stop-color="#39FFF3"/>
</linearGradient>
<clipPath id="clip0_2316_13184">
</clipPath>
</defs>
</svg>
