<svg width="40" height="40" viewBox="0 0 40 40" fill="none" xmlns="http://www.w3.org/2000/svg">
<path fill-rule="evenodd" clip-rule="evenodd" d="M20.0451 38.7654V38.7654L19.8435 37.6884L19.663 36.7569L19.4995 35.9494L19.3497 35.2483L19.2108 34.6392L19.0805 34.1103L18.957 33.6519L18.8385 33.2559L18.7238 32.9154L18.6115 32.6247L18.5006 32.3789L18.3902 32.174L18.2794 32.0064L18.1674 31.8732L18.0535 31.7717L17.9371 31.6998L17.8174 31.6554L17.6939 31.637L17.5661 31.6431L17.4334 31.6722L17.2953 31.7232L17.1513 31.7949L17.0009 31.8864L16.8438 31.9965L16.6794 32.1244L16.5075 32.2689L16.3278 32.4291L16.1399 32.6039L15.9437 32.792L15.739 32.9922L15.5258 33.2032L15.3041 33.4233L15.0741 33.6511L14.8361 33.8846L14.5905 34.1219L14.3377 34.3608L14.0785 34.5992L13.8137 34.8345L13.5443 35.0642L13.2716 35.2857L12.9968 35.4961L12.7213 35.6928L12.4469 35.8729L12.1751 36.0337L11.9078 36.1726L11.647 36.2871L11.3943 36.3752L11.1517 36.4347L10.9211 36.4642L10.7039 36.4624L10.502 36.4285L10.3165 36.3622L10.1486 36.2637L9.99929 36.1335L9.86912 35.9727L9.75846 35.7826L9.66738 35.5651L9.59566 35.3223L9.54282 35.0567L9.50812 34.7709L9.4906 34.4677L9.4891 34.1499L9.50229 33.8205L9.52871 33.4823L9.56682 33.1381L9.61498 32.7906L9.67155 32.4422L9.73485 32.0955L9.80324 31.7524L9.87508 31.4149L9.9488 31.0847L10.0229 30.7634L10.0959 30.4523L10.1665 30.1525L10.2332 29.8649L10.295 29.5904L10.3505 29.3295L10.3987 29.0829L10.4384 28.851L10.4685 28.634L10.4881 28.4322L10.496 28.2459L10.4912 28.0753L10.4726 27.9205L10.439 27.7816L10.3892 27.6589L10.3218 27.5526L10.2354 27.4629L10.1284 27.3902L9.99887 27.3349L9.84483 27.2976L9.66392 27.2788L9.45346 27.2793L9.21034 27.3002L8.93097 27.3427L8.61115 27.4081L8.24595 27.4982L7.82957 27.6151L7.3551 27.7615L6.81432 27.9403L6.19738 28.1553L5.49234 28.411L4.6847 28.7131L3.75668 29.0682L3.25 29.1517L4.0542 28.4667L4.74707 27.8684L5.34445 27.3432L5.85921 26.8801L6.30188 26.4701L6.68113 26.1057L7.00414 25.7807L7.27687 25.4898L7.50432 25.2288L7.69067 24.9938L7.83944 24.7816L7.95359 24.5896L8.03563 24.4152L8.08768 24.2565L8.11155 24.1115L8.10876 23.9786L8.08064 23.8564L8.02831 23.7436L7.95276 23.6389L7.85485 23.5412L7.73537 23.4495L7.59502 23.3629L7.43449 23.2805L7.25444 23.2013L7.05556 23.1246L6.83855 23.0495L6.60418 22.9752L6.35331 22.901L6.08688 22.8261L5.80598 22.7498L5.51182 22.6714L5.2058 22.5901L4.88948 22.5052L4.56462 22.4161L4.23321 22.3222L3.89742 22.2228L3.55963 22.1174L3.22246 22.0057L2.88869 21.8871L2.56126 21.7613L2.24328 21.6282L1.93792 21.4877L1.64842 21.3397L1.37799 21.1845L1.12979 21.0223L0.906832 20.8535L0.71191 20.6787L0.547543 20.4985L0.41592 20.3137L0.318813 20.1252L0.257546 19.9339L0.232965 19.7409L0.245375 19.5472L0.294588 19.3539L0.379874 19.162L0.500018 18.9726L0.653338 18.7865L0.837749 18.6047L1.05079 18.4279L1.28974 18.2568L1.55161 18.0918L1.83329 17.9334L2.13158 17.7819L2.44323 17.6375L2.76507 17.5L3.09397 17.3695L3.42695 17.2458L3.76118 17.1286L4.09402 17.0174L4.42303 16.9119L4.74597 16.8115L5.06083 16.7157L5.36578 16.6239L5.6592 16.5355L5.93967 16.4497L6.2059 16.366L6.45677 16.2836L6.69129 16.2017L6.90857 16.1197L7.1078 16.0367L7.28824 15.9521L7.44917 15.8649L7.58991 15.7744L7.70975 15.6797L7.80795 15.5798L7.88372 15.4738L7.93615 15.3605L7.96427 15.2389L7.96691 15.1077L7.94275 14.9655L7.89024 14.8107L7.80757 14.6415L7.69261 14.4561L7.54283 14.252L7.35527 14.0269L7.12641 13.7775L6.85205 13.5005L6.52722 13.1916L6.14595 12.846L5.70107 12.458L5.18396 12.0205L4.58412 11.5251L3.88875 10.9615L3.08214 10.3173L3.28905 10.2164L4.24948 10.5498L5.08464 10.8328L5.81313 11.072L6.4501 11.2725L7.00799 11.4388L7.49709 11.5743L7.92596 11.6818L8.30176 11.7639L8.63053 11.8225L8.91739 11.8592L9.16668 11.8753L9.38213 11.872L9.56695 11.8503L9.7239 11.8107L9.85541 11.7539L9.96358 11.6804L10.0503 11.5906L10.1172 11.4846L10.1658 11.3629L10.1974 11.2255L10.2134 11.0726L10.2148 10.9043L10.2029 10.7208L10.1786 10.5222L10.1431 10.3086L10.0974 10.0804L10.0426 9.83775L9.97984 9.58106L9.91019 9.3108L9.8349 9.02756L9.75522 8.73206L9.67249 8.42519L9.58812 8.10801L9.50359 7.78174L9.42045 7.44783L9.34032 7.10791L9.26488 6.76385L9.19585 6.41768L9.13496 6.07167L9.08396 5.72824L9.04455 5.39L9.01841 5.05967L9.00709 4.74005L9.01204 4.434L9.03454 4.14435L9.07567 3.87387L9.13629 3.6252L9.21702 3.40078L9.31817 3.20279L9.43981 3.03312L9.58165 2.89327L9.74316 2.78435L9.9235 2.70704L10.1216 2.66158L10.336 2.64774L10.5653 2.66486L10.8078 2.71184L11.0615 2.78723L11.3247 2.88921L11.5953 3.01566L11.8714 3.16425L12.1512 3.33245L12.4328 3.5176L12.7144 3.717L12.9946 3.9279L13.2718 4.1476L13.5449 4.37345L13.8127 4.60291L14.0741 4.83357L14.3286 5.06313L14.5753 5.28946L14.8139 5.5106L15.044 5.72473L15.2653 5.93017L15.4778 6.1254L15.6815 6.30901L15.8763 6.47973L16.0625 6.63634L16.2403 6.77775L16.41 6.90289L16.5719 7.01073L16.7263 7.10027L16.8737 7.17049L17.0144 7.22031L17.1489 7.24863L17.2777 7.25423L17.4013 7.23579L17.5201 7.19182L17.6348 7.12065L17.7459 7.02036L17.8539 6.88876L17.9595 6.72331L18.0634 6.52108L18.1664 6.2786L18.2691 5.99186L18.3725 5.6561L18.4777 5.2657L18.5857 4.81401L18.6979 4.29307L18.8158 3.69333L18.9414 3.00329L19.0767 2.20898L19.2246 1.29331L19.3883 0.235269L19.5872 0.967805L19.7707 1.92086L19.9367 2.74685L20.0885 3.4639L20.2289 4.08681L20.3604 4.62775L20.4849 5.09677L20.6041 5.50225L20.7194 5.8512L20.832 6.1495L20.943 6.40213L21.0534 6.61331L21.1641 6.78663L21.2759 6.92516L21.3894 7.03154L21.5054 7.10804L21.6245 7.15663L21.7473 7.17906L21.8744 7.17683L22.0063 7.15131L22.1435 7.10373L22.2866 7.03521L22.4359 6.94682L22.592 6.83957L22.7551 6.71446L22.9258 6.5725L23.1043 6.41473L23.2909 6.24223L23.4857 6.05616L23.6891 5.85778L23.9009 5.64844L24.1212 5.42963L24.3499 5.20298L24.5867 4.97028L24.8311 4.73345L25.0828 4.49461L25.3411 4.25599L25.605 4.02002L25.8737 3.78923L26.146 3.56627L26.4206 3.35388L26.6961 3.15483L26.9708 2.97192L27.2431 2.80787L27.5112 2.66532L27.7732 2.54673L28.0273 2.45435L28.2716 2.39017L28.5043 2.35583L28.7237 2.35259L28.9282 2.3813L29.1164 2.44239L29.2871 2.53579L29.4394 2.661L29.5727 2.81708L29.6864 3.00263L29.7806 3.21591L29.8554 3.45481L29.9112 3.71694L29.9487 3.99971L29.9689 4.30035L29.9729 4.61599L29.962 4.94375L29.9375 5.28074L29.9012 5.62417L29.8545 5.97133L29.7992 6.31968L29.7368 6.66686L29.6691 7.01069L29.5978 7.3492L29.5242 7.68063L29.4501 8.00343L29.3768 8.31625L29.3058 8.61794L29.2383 8.90752L29.1757 9.18416L29.1191 9.44721L29.0697 9.69611L29.0286 9.93043L28.9968 10.1498L28.9755 10.354L28.9656 10.5428L28.9683 10.7159L28.9847 10.8733L29.0158 11.0147L29.0629 11.14L29.1274 11.2489L29.2107 11.3413L29.3143 11.4167L29.4401 11.4748L29.5901 11.5151L29.7666 11.5369L29.9721 11.5395L30.2098 11.5219L30.4832 11.4829L30.7962 11.4213L31.1538 11.3353L31.5616 11.2227L32.0263 11.0813L32.5559 10.9079L33.16 10.6989L33.8501 10.45L34.6403 10.1558L35.5478 9.80956L36.3508 9.54749L35.5272 10.2477L34.8177 10.8588L34.2061 11.3949L33.6789 11.8672L33.2254 12.2852L32.8366 12.6564L32.505 12.9873L32.2246 13.2833L31.9903 13.5488L31.7976 13.7877L31.6431 14.0033L31.5236 14.1984L31.4366 14.3755L31.3799 14.5366L31.3517 14.6836L31.3503 14.8183L31.3745 14.9421L31.423 15.0564L31.4949 15.1623L31.5893 15.261L31.7054 15.3536L31.8425 15.4409L31.9998 15.524L32.1768 15.6036L32.3728 15.6807L32.5869 15.756L32.8186 15.8304L33.0669 15.9045L33.3309 15.9792L33.6096 16.0552L33.9017 16.1333L34.206 16.2141L34.5207 16.2984L34.8444 16.3867L35.1749 16.4799L35.5101 16.5784L35.8478 16.6827L36.1852 16.7934L36.5197 16.9109L36.8484 17.0355L37.1681 17.1675L37.4756 17.3068L37.7679 17.4536L38.0416 17.6077L38.2935 17.7688L38.5207 17.9366L38.7203 18.1105L38.8896 18.2899L39.0266 18.474L39.1293 18.662L39.1964 18.8528L39.2268 19.0456L39.2203 19.2393L39.1769 19.4327L39.0973 19.6249L38.9826 19.8148L38.8344 20.0015L38.6548 20.184L38.4462 20.3617L38.2112 20.5337L37.9527 20.6997L37.674 20.8592L37.3781 21.0117L37.0684 21.1574L36.748 21.2959L36.42 21.4275L36.0875 21.5523L35.7532 21.6705L35.42 21.7827L35.0902 21.889L34.7662 21.9902L34.4499 22.0867L34.1433 22.179L33.8479 22.268L33.5653 22.3541L33.2967 22.4381L33.0433 22.5207L32.8061 22.6026L32.5861 22.6846L32.3839 22.7673L32.2004 22.8516L32.0363 22.9383L31.8923 23.0282L31.7691 23.1222L31.6674 23.2212L31.588 23.3262L31.5318 23.4382L31.4998 23.5584L31.493 23.688L31.5128 23.8284L31.5606 23.9811L31.6384 24.1479L31.748 24.3306L31.8921 24.5315L32.0734 24.7531L32.2954 24.9984L32.5622 25.2708L32.8787 25.5742L33.2505 25.9136L33.6847 26.2944L34.1897 26.7236L34.7755 27.2091L35.4547 27.761L36.2424 28.3915L36.3382 28.6592L35.3558 28.3171L34.502 28.0265L33.7576 27.7808L33.107 27.5744L32.5372 27.4029L32.0378 27.2627L31.5998 27.1509L31.216 27.0649L30.8801 27.0027L30.5869 26.9626L30.3319 26.9433L30.1113 26.9435L29.9218 26.9624L29.7606 26.9992L29.6251 27.0533L29.5134 27.1241L29.4234 27.2114L29.3534 27.3148L29.302 27.434L29.2678 27.5689L29.2494 27.7194L29.2457 27.8852L29.2556 28.0663L29.2779 28.2625L29.3117 28.4737L29.3559 28.6996L29.4093 28.94L29.4709 29.1945L29.5395 29.4626L29.614 29.7438L29.6931 30.0374L29.7754 30.3426L29.8596 30.6582L29.9442 30.9831L30.0277 31.3159L30.1084 31.655L30.1847 31.9985L30.2549 32.3445L30.3172 32.6907L30.3699 33.0347L30.4112 33.3739L30.4396 33.7057L30.4534 34.0272L30.4511 34.3356L30.4315 34.6281L30.3934 34.9018L30.3359 35.1541L30.2584 35.3825L30.1605 35.5849L30.0421 35.7592L29.9035 35.9039L29.7451 36.0178L29.5677 36.1001L29.3723 36.1507L29.1604 36.1695L28.9333 36.1573L28.6929 36.1149L28.4408 36.044L28.179 35.9461L27.9094 35.8234L27.6341 35.6781L27.3548 35.5129L27.0734 35.3303L26.7916 35.133L26.5111 34.9237L26.2333 34.7052L25.9595 34.4802L25.6908 34.2511L25.4283 34.0205L25.1727 33.7906L24.9247 33.5636L24.6847 33.3415L24.4533 33.1262L24.2305 32.9193L24.0166 32.7223L23.8116 32.5368L23.6154 32.3639L23.4278 32.205L23.2486 32.0611L23.0777 31.9333L22.9146 31.8226L22.759 31.7301L22.6106 31.6567L22.4688 31.6036L22.3333 31.5717L22.2037 31.5624L22.0793 31.577L21.9597 31.6168L21.8444 31.6835L21.7328 31.779L21.6243 31.9054L21.5184 32.0653L21.4142 32.2615L21.3112 32.4973L21.2085 32.7767L21.1053 33.1043L21.0005 33.4856L20.893 33.927L20.7815 34.4363L20.6646 35.0228L20.5404 35.6976L20.4068 36.4742L20.2611 37.3693L20.1002 38.403L20.0451 38.7654Z" fill="url(#paint0_linear_2302_13106)"/>
<path fill-rule="evenodd" clip-rule="evenodd" d="M33.011 5.53774V5.53774L32.4 6.44731L31.876 7.23823L31.4266 7.92883L31.0421 8.53396L30.7143 9.06579L30.4366 9.53432L30.2035 9.94788L30.0104 10.3134L29.8536 10.6367L29.73 10.9228L29.6368 11.1758L29.5719 11.3994L29.5335 11.5966L29.52 11.7701L29.5302 11.9223L29.5628 12.0552L29.6171 12.1707L29.6923 12.2703L29.7877 12.3556L29.9028 12.4279L30.037 12.4883L30.19 12.538L30.3614 12.5782L30.5507 12.6097L30.7575 12.6337L30.9815 12.6511L31.2219 12.6628L31.4784 12.6698L31.7502 12.6731L32.0366 12.6738L32.3365 12.6727L32.6489 12.671L32.9726 12.6697L33.306 12.67L33.6475 12.6729L33.9953 12.6796L34.3473 12.6912L34.7011 12.7089L35.0542 12.7338L35.404 12.767L35.7475 12.8095L36.0818 12.8623L36.4038 12.9262L36.7103 13.0019L36.9983 13.0902L37.2647 13.1913L37.5066 13.3056L37.7214 13.4331L37.9066 13.5738L38.0602 13.7272L38.1805 13.8929L38.2664 14.0702L38.3171 14.2581L38.3324 14.4556L38.3125 14.6616L38.2582 14.8747L38.1707 15.0937L38.0517 15.3172L37.9033 15.5437L37.7277 15.7718L37.5277 16.0004L37.3061 16.2281L37.0658 16.4539L36.8099 16.6766L36.5415 16.8954L36.2636 17.1096L35.9791 17.3184L35.6909 17.5214L35.4017 17.7182L35.1139 17.9086L34.83 18.0924L34.5519 18.2697L34.2818 18.4404L34.0213 18.6049L33.7722 18.7632L33.5357 18.9157L33.3133 19.0629L33.1061 19.205L32.9153 19.3427L32.7417 19.4763L32.5863 19.6065L32.4501 19.7338L32.3339 19.8589L32.2387 19.9824L32.1653 20.105L32.1149 20.2275L32.0884 20.3505L32.0872 20.475L32.1126 20.6019L32.1663 20.7321L32.25 20.8667L32.3658 21.0069L32.5163 21.154L32.7044 21.3095L32.9334 21.475L33.2074 21.6525L33.5311 21.8442L33.91 22.0526L34.3511 22.2807L34.8621 22.5322L35.4529 22.8112L36.135 23.1229L36.9228 23.4734L37.8337 23.8705L38.2536 24.166L37.1999 24.091L36.2864 24.0322L35.4922 23.9882L34.8004 23.9578L34.1973 23.94L33.6714 23.9342L33.2132 23.9396L32.8148 23.9559L32.4696 23.9828L32.172 24.0198L31.9172 24.0668L31.7012 24.1238L31.5204 24.1907L31.372 24.2675L31.2534 24.3542L31.1623 24.4509L31.0967 24.5578L31.0549 24.675L31.0354 24.8026L31.0368 24.9409L31.0578 25.09L31.0972 25.2501L31.154 25.4215L31.2269 25.6041L31.315 25.7982L31.4172 26.0039L31.5323 26.2211L31.6593 26.4499L31.7968 26.69L31.9437 26.9413L32.0986 27.2034L32.2599 27.4759L32.426 27.7581L32.5953 28.0493L32.7659 28.3486L32.9358 28.6548L33.1029 28.9667L33.2651 29.2828L33.42 29.6013L33.5654 29.9205L33.699 30.2383L33.8183 30.5525L33.9211 30.8609L34.0052 31.1612L34.0686 31.4509L34.1093 31.7275L34.1259 31.9888L34.1168 32.2326L34.0812 32.4566L34.0184 32.6592L33.928 32.8385L33.8103 32.9934L33.6657 33.1229L33.4951 33.2263L33.2998 33.3034L33.0813 33.3543L32.8416 33.3796L32.5826 33.38L32.3067 33.3568L32.0163 33.3115L31.7139 33.2456L31.402 33.1611L31.0831 33.0602L30.7595 32.9448L30.4336 32.8173L30.1075 32.6799L29.7833 32.5347L29.4627 32.3841L29.1474 32.2302L28.8387 32.0749L28.538 31.9201L28.2463 31.7678L27.9645 31.6195L27.6932 31.477L27.433 31.3416L27.1844 31.2147L26.9477 31.0977L26.723 30.9918L26.5106 30.898L26.3103 30.8175L26.1223 30.7514L25.9464 30.7008L25.7826 30.6667L25.6307 30.6503L25.4907 30.6528L25.3623 30.6753L25.2455 30.7193L25.1403 30.7864L25.0464 30.8781L24.9639 30.9965L24.8929 31.1437L24.8333 31.3223L24.7854 31.5352L24.7492 31.7857L24.7252 32.0778L24.7137 32.416L24.7152 32.8059L24.7305 33.2539L24.7603 33.7676L24.8056 34.3562L24.8679 35.0307L24.9486 35.8045L25.0496 36.6938L25.1735 37.7187L24.9552 37.6456L24.5037 36.7347L24.1063 35.9475L23.7543 35.2663L23.4405 34.6769L23.1591 34.1673L22.9051 33.7279L22.6746 33.3506L22.4641 33.0286L22.2706 32.7564L22.0917 32.5292L21.9252 32.343L21.7692 32.1943L21.6221 32.0804L21.4824 31.9986L21.3488 31.9469L21.2201 31.9235L21.0953 31.9269L20.9734 31.9555L20.8534 32.0083L20.7345 32.0842L20.616 32.182L20.497 32.3011L20.3769 32.4403L20.255 32.599L20.1307 32.7762L20.0033 32.9711L19.8723 33.1825L19.7372 33.4097L19.5975 33.6513L19.4527 33.9061L19.3025 34.1727L19.1464 34.4496L18.9843 34.7349L18.8159 35.0269L18.6412 35.3234L18.4601 35.622L18.2728 35.9203L18.0795 36.2156L17.8804 36.5051L17.6761 36.7858L17.4671 37.0547L17.2543 37.3087L17.0384 37.5446L16.8203 37.7594L16.6013 37.9503L16.3824 38.1144L16.1649 38.2493L15.95 38.3528L15.7391 38.4231L15.5334 38.4589L15.3342 38.4593L15.1427 38.4238L14.9599 38.3525L14.7867 38.2461L14.624 38.1057L14.4725 37.9328L14.3325 37.7294L14.2043 37.4977L14.088 37.2406L13.9836 36.9607L13.8908 36.6612L13.8091 36.3451L13.738 36.0157L13.6769 35.6761L13.6248 35.3293L13.581 34.9783L13.5445 34.6258L13.5143 34.2745L13.4895 33.9267L13.4689 33.5846L13.4515 33.2502L13.4363 32.9253L13.4222 32.6113L13.4083 32.3096L13.3936 32.0214L13.377 31.7478L13.3576 31.4894L13.3346 31.2472L13.3068 31.0217L13.2735 30.8135L13.2336 30.6232L13.1862 30.4511L13.1303 30.2977L13.0649 30.1636L12.9887 30.0491L12.9008 29.9548L12.7997 29.8813L12.6841 29.8294L12.5524 29.7998L12.4029 29.7935L12.2336 29.8117L12.0423 29.8557L11.8265 29.9271L11.5831 30.0279L11.3089 30.1605L10.9998 30.3275L10.6512 30.5323L10.2576 30.7788L9.81246 31.0717L9.308 31.4169L8.73484 31.8211L8.08159 32.2928L7.33439 32.8424L6.47611 33.4824L6.84764 32.8205L7.38464 32.012L7.84515 31.3065L8.23941 30.6886L8.57577 30.1458L8.86108 29.6678L9.10098 29.246L9.30015 28.8733L9.46249 28.5436L9.59123 28.2519L9.68908 27.9938L9.75832 27.7658L9.80083 27.5646L9.8182 27.3875L9.81176 27.232L9.78262 27.0961L9.73172 26.978L9.65983 26.8759L9.56762 26.7885L9.45565 26.7142L9.32442 26.652L9.17437 26.6006L9.0059 26.559L8.81942 26.5262L8.61535 26.501L8.39412 26.4827L8.15622 26.4701L7.90224 26.4624L7.63282 26.4586L7.34875 26.4576L7.05093 26.4585L6.74042 26.4601L6.41847 26.4615L6.08649 26.4616L5.74611 26.4592L5.39918 26.4532L5.04775 26.4424L4.69409 26.4257L4.34068 26.402L3.99019 26.3703L3.64546 26.3293L3.30947 26.2782L2.98531 26.2162L2.6761 26.1424L2.38496 26.0562L2.11493 25.9571L1.86895 25.8449L1.6497 25.7195L1.45965 25.5809L1.3009 25.4295L1.17516 25.2657L1.08372 25.0902L1.02739 24.9039L1.00649 24.7078L1.02082 24.5031L1.06971 24.291L1.15199 24.0729L1.26608 23.8501L1.40999 23.624L1.58139 23.396L1.77769 23.1674L1.99608 22.9394L2.23359 22.7133L2.48718 22.49L2.7538 22.2705L3.0304 22.0556L3.31401 21.8459L3.6018 21.642L3.89104 21.4441L4.17921 21.2527L4.46394 21.0678L4.74306 20.8895L5.01457 20.7177L5.27668 20.5523L5.52774 20.393L5.7663 20.2396L5.99102 20.0916L6.2007 19.9487L6.39426 19.8104L6.57067 19.6761L6.72899 19.5454L6.86831 19.4177L6.98774 19.2923L7.08638 19.1686L7.16329 19.0459L7.21746 18.9235L7.24781 18.8006L7.25313 18.6763L7.23205 18.5499L7.18302 18.4203L7.10425 18.2865L6.99366 18.1472L6.84884 18.0013L6.66697 17.8473L6.44472 17.6835L6.17821 17.508L5.86281 17.3188L5.49306 17.1133L5.06243 16.8885L4.56314 16.641L3.9858 16.3667L3.31908 16.0606L2.54918 15.7167L1.65922 15.3276L0.902768 14.9518L1.98101 15.0296L2.91538 15.0908L3.72737 15.1371L4.43444 15.1697L5.05087 15.1894L5.58841 15.1971L6.05682 15.1934L6.46425 15.1788L6.81752 15.1536L7.12238 15.1182L7.38371 15.0727L7.60567 15.0173L7.7918 14.952L7.94515 14.8768L8.06837 14.7917L8.16375 14.6966L8.23327 14.5913L8.27872 14.4758L8.30167 14.3498L8.30351 14.2133L8.28556 14.0659L8.249 13.9075L8.19496 13.738L8.12453 13.5571L8.03879 13.3648L7.93879 13.161L7.82565 12.9456L7.70049 12.7187L7.56452 12.4804L7.41901 12.2309L7.26534 11.9704L7.10496 11.6996L6.93947 11.4189L6.77056 11.129L6.60007 10.8309L6.42994 10.5257L6.26224 10.2147L6.09913 9.89919L5.94287 9.58093L5.79577 9.26173L5.66017 8.94358L5.53843 8.62861L5.43283 8.31909L5.3456 8.01738L5.2788 7.72587L5.23434 7.44698L5.21387 7.18306L5.21877 6.93638L5.2501 6.70906L5.30858 6.50299L5.39454 6.31985L5.50792 6.16098L5.64829 6.02742L5.8148 5.91984L6.00627 5.83855L6.22117 5.78348L6.45769 5.75417L6.71375 5.74983L6.9871 5.76934L7.27534 5.81129L7.576 5.87402L7.88657 5.95564L8.20456 6.05414L8.52755 6.16736L8.85321 6.29309L9.17939 6.42909L9.50404 6.57312L9.82532 6.72299L10.1416 6.87656L10.4514 7.03179L10.7534 7.18675L11.0466 7.33959L11.3301 7.48859L11.6031 7.63216L11.8651 7.76878L12.1156 7.89708L12.3542 8.01575L12.5808 8.12355L12.7952 8.21934L12.9974 8.302L13.1874 8.37044L13.3652 8.4236L13.5309 8.46039L13.6847 8.47969L13.8266 8.48035L13.9568 8.4611L14.0754 8.42059L14.1825 8.35733L14.2782 8.26963L14.3625 8.15562L14.4353 8.01314L14.4967 7.83972L14.5466 7.63253L14.5846 7.38828L14.6106 7.10312L14.6241 6.77255L14.6247 6.39127L14.6117 5.95302L14.5843 5.45036L14.5415 4.87438L14.482 4.21439L14.4044 3.45743L14.3067 2.58775L14.1867 1.58598L14.306 1.32793L14.767 2.26041L15.1724 3.06603L15.5311 3.76305L15.8506 4.36629L16.1368 4.8879L16.3949 5.33791L16.6289 5.72462L16.8424 6.05496L17.0384 6.33473L17.2195 6.56882L17.3878 6.76134L17.5454 6.91578L17.6938 7.03511L17.8346 7.12186L17.969 7.17819L18.0984 7.20596L18.2238 7.20679L18.3461 7.18207L18.4664 7.13305L18.5854 7.06082L18.7039 6.96639L18.8228 6.85068L18.9426 6.71457L19.0642 6.55892L19.1881 6.38461L19.315 6.19252L19.4453 5.98362L19.5797 5.75892L19.7187 5.51955L19.8627 5.26675L20.012 5.00191L20.1671 4.72656L20.3283 4.4424L20.4956 4.15134L20.6693 3.85545L20.8494 3.55701L21.0357 3.25849L21.2281 2.96251L21.4263 2.6719L21.6298 2.38959L21.8381 2.11861L22.0504 1.86206L22.2659 1.62306L22.4836 1.40466L22.7026 1.2098L22.9216 1.04126L23.1394 0.901558L23.3548 0.792921L23.5664 0.717203L23.773 0.675839L23.9733 0.669806L24.1662 0.699589L24.3504 0.765169L24.5252 0.866016L24.6896 1.00111L24.8429 1.16898L24.9848 1.36769L25.1149 1.59499L25.233 1.84828L25.3393 2.12473L25.434 2.42132L25.5174 2.73494L25.5901 3.06243L25.6528 3.40064L25.7063 3.7465L25.7513 4.09704L25.7889 4.44947L25.82 4.80114L25.8457 5.14965L25.8669 5.49276L25.8847 5.8285L25.9002 6.15506L25.9144 6.47089L25.9282 6.77461L25.9428 7.06501L25.959 7.34107L25.9778 7.6019L26.0003 7.84674L26.0272 8.07493L26.0596 8.2859L26.0983 8.47914L26.1445 8.65417L26.1989 8.81054L26.2628 8.94779L26.3372 9.06544L26.4231 9.16297L26.522 9.23978L26.6352 9.2952L26.7642 9.32842L26.9108 9.33849L27.0768 9.32431L27.2644 9.28454L27.4762 9.21759L27.7149 9.12158L27.984 8.99426L28.2872 8.83294L28.6292 8.63442L29.0152 8.39486L29.4517 8.10965L29.9461 7.77325L30.5076 7.37895L31.1473 6.91861L31.8784 6.38224L32.7177 5.75761L33.011 5.53774Z" fill="url(#paint1_linear_2302_13106)"/>
<path d="M31.6008 7.04312C28.4335 3.85305 23.2806 3.85258 20.1134 7.04312C19.041 8.12341 11.6285 18.4193 10.1536 20.4722L8.80867 22.3443C8.52923 22.7334 8.54774 23.2643 8.85401 23.6324C9.16028 24.0006 9.67566 24.1125 10.105 23.9032L11.5179 23.2149L5.20144 32.7175C4.92293 33.1365 4.97983 33.6958 5.33699 34.049C5.53778 34.2476 5.80148 34.3496 6.06658 34.3496C6.27338 34.3496 6.48111 34.2876 6.66061 34.1618L13.6021 29.2968L13.2884 29.7973C13.021 30.2242 13.0932 30.7825 13.461 31.126C13.8284 31.4695 14.3868 31.5002 14.7893 31.1996L31.4199 18.773L31.4541 18.7474C31.4953 18.7166 31.5337 18.6831 31.5698 18.6467L31.6003 18.6159C34.7671 15.4259 34.7671 10.2346 31.6003 7.04406L31.6008 7.04312Z" fill="white"/>
<path d="M6.06641 33.3007L14.5152 20.5898L9.65189 22.9587L10.9968 21.0866C11.3553 20.5874 19.793 8.8487 20.8497 7.78426C23.6108 5.0029 28.1035 5.0029 30.865 7.78426C33.6261 10.5656 33.6261 15.0918 30.865 17.8732L30.835 17.9035L30.8007 17.9291L14.1696 30.3562L17.2254 25.48L6.06687 33.3007H6.06641ZM17.8458 17.6737L10.4389 28.8169L21.2504 21.2394L18.4514 25.706L30.0767 17.0194C32.357 14.6901 32.3473 10.9254 30.0475 8.60823C27.7376 6.28127 23.9781 6.2808 21.6681 8.60823C20.9695 9.31196 16.1988 15.8613 13.2855 19.8949L17.8467 17.6733L17.8458 17.6737Z" fill="#191B29"/>
<path d="M25.8438 16.3674C24.9028 16.3674 24.021 15.9931 23.3599 15.3136C22.7006 14.6486 22.3379 13.7617 22.3379 12.8161C22.3379 11.8705 22.7015 10.9818 23.3622 10.3162C24.0228 9.65074 24.9042 9.28442 25.8438 9.28442C26.7834 9.28442 27.6648 9.65074 28.3254 10.3162C28.9861 10.9818 29.3497 11.8696 29.3497 12.8161C29.3497 13.7626 28.9865 14.6486 28.3277 15.3136C27.6671 15.9931 26.7848 16.3674 25.8438 16.3674ZM25.8438 10.4495C25.2132 10.4495 24.622 10.6947 24.1801 11.1402C23.7383 11.5858 23.4945 12.1809 23.4945 12.8161C23.4945 13.4513 23.7379 14.0469 24.1801 14.492L24.1848 14.4967C24.6266 14.9515 25.2155 15.2023 25.8438 15.2023C26.4721 15.2023 27.0615 14.9515 27.5028 14.4967L27.5075 14.492C27.9498 14.0465 28.1931 13.4513 28.1931 12.8161C28.1931 12.1809 27.9498 11.5853 27.5075 11.1402C27.0652 10.6951 26.4744 10.4495 25.8438 10.4495Z" fill="#191B29"/>
<defs>
<linearGradient id="paint0_linear_2302_13106" x1="39.2291" y1="19.1833" x2="0.234199" y2="19.8169" gradientUnits="userSpaceOnUse">
<stop stop-color="#FF02C7"/>
<stop offset="1" stop-color="#9C39FF"/>
</linearGradient>
<linearGradient id="paint1_linear_2302_13106" x1="5.60279" y1="6.06122" x2="33.8627" y2="32.9383" gradientUnits="userSpaceOnUse">
<stop stop-color="#FF02C7"/>
<stop offset="1" stop-color="#9C39FF"/>
</linearGradient>
</defs>
</svg>
