<svg width="16" height="16" viewBox="0 0 16 16" fill="none" xmlns="http://www.w3.org/2000/svg">
    <path d="M12.6689 8.06445C12.6644 7.89128 12.6302 7.73405 12.5664 7.59277C12.5026 7.44694 12.4001 7.30566 12.2588 7.16895L7.09766 2.11035C6.88802 1.90527 6.63281 1.80273 6.33203 1.80273C6.13607 1.80273 5.95378 1.85286 5.78516 1.95312C5.61654 2.04883 5.4821 2.17871 5.38184 2.34277C5.28613 2.50684 5.23828 2.68913 5.23828 2.88965C5.23828 3.19499 5.35449 3.46159 5.58691 3.68945L10.0918 8.05762L5.58691 12.4326C5.35449 12.6696 5.23828 12.9385 5.23828 13.2393C5.23828 13.4398 5.28613 13.6221 5.38184 13.7861C5.4821 13.9502 5.61654 14.0801 5.78516 14.1758C5.95378 14.276 6.13607 14.3262 6.33203 14.3262C6.63281 14.3262 6.88802 14.2214 7.09766 14.0117L12.2588 8.95312C12.4001 8.81641 12.5026 8.67741 12.5664 8.53613C12.6348 8.3903 12.6689 8.23307 12.6689 8.06445Z" fill="#474955"/>
</svg>
