<svg width="24" height="24" viewBox="0 0 24 24" xmlns="http://www.w3.org/2000/svg">
    <path d="M19.541 12.001C19.541 11.6318 19.4121 11.3154 19.1543 11.0518C18.8906 10.7939 18.5742 10.665 18.2051 10.665L13.3271 10.665L13.3271 5.78711C13.3271 5.42383 13.1982 5.11328 12.9404 4.85547C12.6826 4.5918 12.3691 4.45996 12 4.45996C11.6309 4.45996 11.3174 4.5918 11.0596 4.85547C10.7959 5.11328 10.6641 5.42383 10.6641 5.78711L10.6641 10.665L5.78613 10.665C5.42285 10.665 5.1123 10.7939 4.85449 11.0518C4.59082 11.3154 4.45898 11.6318 4.45898 12.001C4.45898 12.3701 4.59082 12.6836 4.85449 12.9414C5.1123 13.2051 5.42285 13.3369 5.78613 13.3369L10.6641 13.3369L10.6641 18.2061C10.6641 18.5752 10.7959 18.8887 11.0596 19.1465C11.3174 19.4102 11.6309 19.542 12 19.542C12.3691 19.542 12.6826 19.4102 12.9404 19.1465C13.1982 18.8887 13.3271 18.5752 13.3271 18.2061L13.3271 13.3369L18.2051 13.3369C18.5742 13.3369 18.8906 13.2051 19.1543 12.9414C19.4121 12.6836 19.541 12.3701 19.541 12.001Z" fill="#70717D"/>
</svg>
