<svg width="32" height="32" viewBox="0 0 32 32" fill="none" xmlns="http://www.w3.org/2000/svg">
<path d="M24.1152 17.8828V10.4121C24.1152 9.89779 24.0078 9.52995 23.793 9.30859C23.5781 9.08073 23.2624 8.88216 22.8457 8.71289C22.6178 8.61523 22.3021 8.48828 21.8984 8.33203C21.4948 8.17578 21.0488 8.00651 20.5605 7.82422C20.0788 7.64193 19.5938 7.46289 19.1055 7.28711C18.6172 7.10482 18.1712 6.94531 17.7676 6.80859C17.3639 6.66536 17.0482 6.5612 16.8203 6.49609C16.6901 6.46354 16.5534 6.43099 16.4102 6.39844C16.2734 6.36589 16.1367 6.34961 16 6.34961C15.8633 6.34961 15.7266 6.36589 15.5898 6.39844C15.4531 6.42448 15.3197 6.45703 15.1895 6.49609C14.9551 6.57422 14.6361 6.6849 14.2324 6.82812C13.8288 6.97135 13.3828 7.13086 12.8945 7.30664C12.4128 7.48242 11.9277 7.66146 11.4395 7.84375C10.9512 8.01953 10.5052 8.18555 10.1016 8.3418C9.69792 8.49154 9.38216 8.61523 9.1543 8.71289C8.74414 8.88867 8.42839 9.08724 8.20703 9.30859C7.99219 9.52995 7.88477 9.89779 7.88477 10.4121V17.8828C7.88477 18.7747 8.01497 19.5527 8.27539 20.2168C8.53581 20.8743 8.95573 21.4863 9.53516 22.0527C10.1146 22.6191 10.8796 23.2018 11.8301 23.8008C12.7871 24.4062 13.959 25.0996 15.3457 25.8809C15.4694 25.946 15.5898 25.9948 15.707 26.0273C15.8242 26.0599 15.9219 26.0762 16 26.0762C16.0781 26.0762 16.1758 26.0599 16.293 26.0273C16.4102 25.9948 16.5306 25.946 16.6543 25.8809C18.041 25.0996 19.2096 24.4062 20.1602 23.8008C21.1172 23.1953 21.8854 22.6094 22.4648 22.043C23.0443 21.4766 23.4642 20.8646 23.7246 20.207C23.985 19.5495 24.1152 18.7747 24.1152 17.8828ZM15.7949 24.2695C15.7363 24.25 15.6745 24.224 15.6094 24.1914C15.5443 24.1589 15.4727 24.1198 15.3945 24.0742C14.2682 23.3906 13.321 22.8014 12.5527 22.3066C11.791 21.8118 11.1823 21.3431 10.7266 20.9004C10.2708 20.4577 9.94206 19.9727 9.74023 19.4453C9.53841 18.918 9.4375 18.2767 9.4375 17.5215V10.7148C9.4375 10.5521 9.45703 10.4284 9.49609 10.3438C9.54167 10.2591 9.63281 10.194 9.76953 10.1484C10.069 10.0443 10.4141 9.92383 10.8047 9.78711C11.2018 9.64388 11.6185 9.49414 12.0547 9.33789C12.4909 9.18164 12.9238 9.02539 13.3535 8.86914C13.7897 8.70638 14.1999 8.55339 14.584 8.41016C14.9746 8.26042 15.3164 8.12695 15.6094 8.00977C15.6484 7.99023 15.681 7.97721 15.707 7.9707C15.7396 7.96419 15.7689 7.95768 15.7949 7.95117V24.2695Z" fill="#191B29" fill-opacity="0.8"/>
</svg>
