<svg width="16" height="16" viewBox="0 0 16 16" xmlns="http://www.w3.org/2000/svg">
<path d="M3.18066 8.85742C3.18066 8.98958 3.22624 9.10124 3.31738 9.19238C3.40853 9.27897 3.52702 9.32227 3.67285 9.32227H7.53516L5.49805 14.8594C5.42969 15.0371 5.41602 15.1898 5.45703 15.3174C5.5026 15.445 5.5778 15.5361 5.68262 15.5908C5.79199 15.6501 5.91276 15.6615 6.04492 15.625C6.18164 15.5931 6.30697 15.5065 6.4209 15.3652L12.6348 7.59961C12.7533 7.44922 12.8125 7.30339 12.8125 7.16211C12.8125 7.02995 12.7669 6.92057 12.6758 6.83398C12.5846 6.74284 12.4661 6.69727 12.3203 6.69727H8.45801L10.4951 1.16016C10.5635 0.986979 10.5749 0.836589 10.5293 0.708984C10.4883 0.58138 10.4131 0.490234 10.3037 0.435547C10.1989 0.376302 10.0781 0.36263 9.94141 0.394531C9.80924 0.426432 9.6862 0.515299 9.57227 0.661133L3.3584 8.41992C3.23991 8.57487 3.18066 8.7207 3.18066 8.85742Z" fill="#474955"/>
</svg>
