<svg width="40" height="40" viewBox="0 0 40 40" fill="none" xmlns="http://www.w3.org/2000/svg">
    <path d="M14.1992 37.6055C14.5508 37.6055 14.7441 37.418 14.7793 37.043C14.9316 35.8711 15.084 34.9512 15.2363 34.2832C15.4004 33.6152 15.6523 33.1113 15.9922 32.7715C16.3438 32.4316 16.8594 32.1738 17.5391 31.998C18.2188 31.8223 19.1562 31.6406 20.3516 31.4531C20.7617 31.3828 20.9668 31.1836 20.9668 30.8555C20.9668 30.5273 20.7852 30.3281 20.4219 30.2578C19.2266 30.0352 18.2832 29.8359 17.5918 29.6602C16.9004 29.4727 16.373 29.2148 16.0098 28.8867C15.6582 28.5586 15.4004 28.0664 15.2363 27.4102C15.084 26.7539 14.9316 25.8398 14.7793 24.668C14.7441 24.293 14.5508 24.1055 14.1992 24.1055C13.8477 24.1055 13.6484 24.2871 13.6016 24.6504C13.4492 25.8457 13.291 26.7832 13.127 27.4629C12.9629 28.1309 12.7051 28.6406 12.3535 28.9922C12.0137 29.332 11.498 29.5898 10.8066 29.7656C10.1152 29.9297 9.16602 30.0938 7.95898 30.2578C7.80664 30.2812 7.67773 30.3457 7.57227 30.4512C7.4668 30.5566 7.41406 30.6914 7.41406 30.8555C7.41406 31.1836 7.5957 31.3828 7.95898 31.4531C9.16602 31.6758 10.1152 31.8809 10.8066 32.0684C11.498 32.2559 12.0137 32.5195 12.3535 32.8594C12.7051 33.1875 12.957 33.6797 13.1094 34.3359C13.2734 34.9922 13.4375 35.9062 13.6016 37.0781C13.6133 37.2305 13.6719 37.3535 13.7773 37.4473C13.8945 37.5527 14.0352 37.6055 14.1992 37.6055ZM5.84961 22.2949C6.08398 22.2949 6.22461 22.1602 6.27148 21.8906C6.42383 21.0586 6.56445 20.4023 6.69336 19.9219C6.82227 19.4297 7.00977 19.0547 7.25586 18.7969C7.50195 18.5273 7.87109 18.3223 8.36328 18.1816C8.85547 18.041 9.54688 17.8945 10.4375 17.7422C10.707 17.6953 10.8418 17.5488 10.8418 17.3027C10.8418 17.0566 10.707 16.9102 10.4375 16.8633C9.54688 16.7109 8.85547 16.5645 8.36328 16.4238C7.87109 16.2715 7.50195 16.0664 7.25586 15.8086C7.00977 15.5508 6.82227 15.1816 6.69336 14.7012C6.56445 14.209 6.42383 13.541 6.27148 12.6973C6.22461 12.4395 6.08398 12.3105 5.84961 12.3105C5.60352 12.3105 5.45703 12.4395 5.41016 12.6973C5.25781 13.541 5.11719 14.209 4.98828 14.7012C4.85938 15.1816 4.67188 15.5508 4.42578 15.8086C4.17969 16.0664 3.81055 16.2715 3.31836 16.4238C2.82617 16.5645 2.14062 16.7109 1.26172 16.8633C0.992187 16.9102 0.857422 17.0566 0.857422 17.3027C0.857422 17.5488 0.992187 17.6953 1.26172 17.7422C2.14062 17.8945 2.82617 18.041 3.31836 18.1816C3.81055 18.3223 4.17969 18.5273 4.42578 18.7969C4.67188 19.0547 4.85938 19.4297 4.98828 19.9219C5.11719 20.4023 5.25781 21.0586 5.41016 21.8906C5.43359 22.0078 5.48047 22.1074 5.55078 22.1895C5.62109 22.2598 5.7207 22.2949 5.84961 22.2949ZM15.4824 11.0449C15.6699 11.0449 15.7871 10.9395 15.834 10.7285C15.9863 10.0254 16.1152 9.47461 16.2207 9.07617C16.3379 8.66602 16.4961 8.35547 16.6953 8.14453C16.9062 7.92187 17.2168 7.75195 17.627 7.63477C18.0371 7.50586 18.6055 7.36523 19.332 7.21289C19.5547 7.17773 19.666 7.06055 19.666 6.86133C19.666 6.66211 19.5547 6.53906 19.332 6.49219C18.6055 6.33984 18.0371 6.20508 17.627 6.08789C17.2168 5.95898 16.9062 5.78906 16.6953 5.57812C16.4961 5.35547 16.3379 5.04492 16.2207 4.64648C16.1152 4.24805 15.9863 3.69727 15.834 2.99414C15.7871 2.77148 15.6699 2.66016 15.4824 2.66016C15.2832 2.66016 15.1602 2.77148 15.1133 2.99414C14.9727 3.69727 14.8438 4.24805 14.7266 4.64648C14.6094 5.04492 14.4453 5.35547 14.2344 5.57812C14.0352 5.78906 13.7305 5.95898 13.3203 6.08789C12.9219 6.20508 12.3535 6.33984 11.6152 6.49219C11.3926 6.53906 11.2812 6.66211 11.2812 6.86133C11.2812 7.06055 11.3926 7.17773 11.6152 7.21289C12.3535 7.36523 12.9219 7.50586 13.3203 7.63477C13.7305 7.75195 14.0352 7.92187 14.2344 8.14453C14.4453 8.35547 14.6094 8.66602 14.7266 9.07617C14.8438 9.47461 14.9727 10.0254 15.1133 10.7285C15.1602 10.9395 15.2832 11.0449 15.4824 11.0449ZM30.002 17.25C30.2363 17.25 30.377 17.1211 30.4238 16.8633C30.5762 16.0195 30.7168 15.3574 30.8457 14.877C30.9746 14.3848 31.1621 14.0098 31.4082 13.752C31.6543 13.4941 32.0234 13.2949 32.5156 13.1543C33.0195 13.002 33.7109 12.8496 34.5898 12.6973C34.8594 12.6504 34.9941 12.5039 34.9941 12.2578C34.9941 12.0117 34.8594 11.8652 34.5898 11.8184C33.7109 11.666 33.0195 11.5195 32.5156 11.3789C32.0234 11.2383 31.6543 11.0391 31.4082 10.7812C31.1621 10.5117 30.9746 10.1367 30.8457 9.65625C30.7168 9.16406 30.5762 8.50195 30.4238 7.66992C30.377 7.40039 30.2363 7.26562 30.002 7.26562C29.7559 7.26562 29.6094 7.40039 29.5625 7.66992C29.4102 8.50195 29.2695 9.16406 29.1406 9.65625C29.0117 10.1367 28.8242 10.5117 28.5781 10.7812C28.332 11.0391 27.9629 11.2383 27.4707 11.3789C26.9785 11.5195 26.293 11.666 25.4141 11.8184C25.2969 11.8418 25.1973 11.8945 25.1152 11.9766C25.0449 12.0469 25.0098 12.1406 25.0098 12.2578C25.0098 12.5039 25.1445 12.6504 25.4141 12.6973C26.293 12.8496 26.9785 13.002 27.4707 13.1543C27.9629 13.2949 28.332 13.4941 28.5781 13.752C28.8242 14.0098 29.0117 14.3848 29.1406 14.877C29.2695 15.3574 29.4102 16.0195 29.5625 16.8633C29.6094 17.1211 29.7559 17.25 30.002 17.25ZM35.8555 37.3242C36.2305 37.6992 36.6875 37.8867 37.2266 37.8867C37.7773 37.8867 38.2285 37.6992 38.5801 37.3242C38.9434 36.9375 39.1191 36.4805 39.1074 35.9531C39.1074 35.4375 38.9316 34.9922 38.5801 34.6172L21.8633 17.8477C21.5 17.4727 21.043 17.2852 20.4922 17.2852C19.9531 17.2852 19.5078 17.4727 19.1562 17.8477C18.793 18.2344 18.6113 18.6914 18.6113 19.2188C18.6113 19.7461 18.793 20.1973 19.1562 20.5723L35.8555 37.3242ZM25.6426 25.248L20.4922 20.0801C20.3281 19.9277 20.2285 19.7695 20.1934 19.6055C20.1699 19.4297 20.2344 19.2656 20.3867 19.1133C20.5156 18.9727 20.668 18.9199 20.8438 18.9551C21.0195 18.9785 21.1895 19.0723 21.3535 19.2363L26.5215 24.4043L25.6426 25.248Z" fill="url(#paint0_linear_2305_9679)" fill-opacity="0.5"/>
    <defs>
        <linearGradient id="paint0_linear_2305_9679" x1="20" y1="2" x2="20" y2="38" gradientUnits="userSpaceOnUse">
            <stop stop-color="#191B29"/>
            <stop offset="0.944448" stop-color="#191B29" stop-opacity="0.4"/>
        </linearGradient>
    </defs>
</svg>
