<svg width="22" height="16" viewBox="0 0 22 16" xmlns="http://www.w3.org/2000/svg">
    <path d="M8.29297 8.9668C8.54362 8.9668 8.75553 8.88021 8.92871 8.70703C9.10645 8.5293 9.19531 8.3151 9.19531 8.06445C9.19531 7.8138 9.10645 7.60189 8.92871 7.42871C8.75553 7.25098 8.54362 7.16211 8.29297 7.16211C8.03776 7.16211 7.82129 7.25098 7.64355 7.42871C7.47038 7.60189 7.38379 7.8138 7.38379 8.06445C7.38379 8.3151 7.47038 8.5293 7.64355 8.70703C7.82129 8.88021 8.03776 8.9668 8.29297 8.9668ZM11.0137 8.9668C11.2643 8.9668 11.4762 8.88021 11.6494 8.70703C11.8271 8.5293 11.916 8.3151 11.916 8.06445C11.916 7.8138 11.8271 7.60189 11.6494 7.42871C11.4762 7.25098 11.2643 7.16211 11.0137 7.16211C10.763 7.16211 10.5488 7.25098 10.3711 7.42871C10.1979 7.60189 10.1113 7.8138 10.1113 8.06445C10.1113 8.3151 10.1979 8.5293 10.3711 8.70703C10.5488 8.88021 10.763 8.9668 11.0137 8.9668ZM13.7275 8.9668C13.9782 8.9668 14.1901 8.88021 14.3633 8.70703C14.541 8.5293 14.6299 8.3151 14.6299 8.06445C14.6299 7.8138 14.541 7.60189 14.3633 7.42871C14.1901 7.25098 13.9782 7.16211 13.7275 7.16211C13.4769 7.16211 13.2627 7.25098 13.085 7.42871C12.9118 7.60189 12.8252 7.8138 12.8252 8.06445C12.8252 8.3151 12.9118 8.5293 13.085 8.70703C13.2627 8.88021 13.4769 8.9668 13.7275 8.9668ZM0.670898 9.47949C0.670898 9.62988 0.723307 9.75977 0.828125 9.86914C0.9375 9.97396 1.06738 10.0264 1.21777 10.0264C1.37272 10.0264 1.5026 9.97396 1.60742 9.86914C1.7168 9.75977 1.77148 9.62988 1.77148 9.47949V7.08691C1.77148 6.95475 1.83757 6.88867 1.96973 6.88867C2.10645 6.88867 2.1748 6.95475 2.1748 7.08691V14.3193C2.1748 14.4834 2.23177 14.6247 2.3457 14.7432C2.46419 14.8617 2.60775 14.9209 2.77637 14.9209C2.94499 14.9209 3.08854 14.8617 3.20703 14.7432C3.32552 14.6247 3.38477 14.4834 3.38477 14.3193V9.91699C3.38477 9.8623 3.40527 9.81445 3.44629 9.77344C3.4873 9.73242 3.53516 9.71191 3.58984 9.71191C3.64453 9.71191 3.69238 9.73242 3.7334 9.77344C3.77897 9.81445 3.80176 9.8623 3.80176 9.91699V14.3193C3.80176 14.4834 3.85872 14.6247 3.97266 14.7432C4.09115 14.8617 4.2347 14.9209 4.40332 14.9209C4.57194 14.9209 4.71549 14.8617 4.83398 14.7432C4.95247 14.6247 5.01172 14.4834 5.01172 14.3193V7.08691C5.01172 6.95475 5.0778 6.88867 5.20996 6.88867C5.34668 6.88867 5.41504 6.95475 5.41504 7.08691V9.47949C5.41504 9.62988 5.46745 9.75977 5.57227 9.86914C5.68164 9.97396 5.81152 10.0264 5.96191 10.0264C6.11686 10.0264 6.24674 9.97396 6.35156 9.86914C6.45638 9.75977 6.50879 9.62988 6.50879 9.47949V6.80664C6.50879 6.35091 6.40397 5.95215 6.19434 5.61035C5.98926 5.26855 5.69987 5.00423 5.32617 4.81738C4.95703 4.62598 4.52865 4.53027 4.04102 4.53027H3.14551C2.65332 4.53027 2.22038 4.62598 1.84668 4.81738C1.47754 5.00423 1.18815 5.26855 0.978516 5.61035C0.773438 5.95215 0.670898 6.35091 0.670898 6.80664V9.47949ZM3.58984 3.81934C3.96354 3.81934 4.28255 3.68717 4.54688 3.42285C4.8112 3.15853 4.94336 2.83952 4.94336 2.46582C4.94336 2.09212 4.8112 1.77539 4.54688 1.51562C4.28255 1.2513 3.96354 1.11914 3.58984 1.11914C3.21615 1.11914 2.89714 1.2513 2.63281 1.51562C2.37305 1.77539 2.24316 2.09212 2.24316 2.46582C2.24316 2.83952 2.37305 3.15853 2.63281 3.42285C2.89714 3.68717 3.21615 3.81934 3.58984 3.81934ZM15.4844 9.47949C15.4844 9.62988 15.5368 9.75977 15.6416 9.86914C15.751 9.97396 15.8809 10.0264 16.0312 10.0264C16.1862 10.0264 16.3161 9.97396 16.4209 9.86914C16.5303 9.75977 16.585 9.62988 16.585 9.47949V7.08691C16.585 6.95475 16.651 6.88867 16.7832 6.88867C16.9199 6.88867 16.9883 6.95475 16.9883 7.08691V14.3193C16.9883 14.4834 17.0452 14.6247 17.1592 14.7432C17.2777 14.8617 17.4212 14.9209 17.5898 14.9209C17.7585 14.9209 17.902 14.8617 18.0205 14.7432C18.139 14.6247 18.1982 14.4834 18.1982 14.3193V9.91699C18.1982 9.8623 18.2188 9.81445 18.2598 9.77344C18.3008 9.73242 18.3486 9.71191 18.4033 9.71191C18.458 9.71191 18.5059 9.73242 18.5469 9.77344C18.5924 9.81445 18.6152 9.8623 18.6152 9.91699V14.3193C18.6152 14.4834 18.6722 14.6247 18.7861 14.7432C18.9046 14.8617 19.0482 14.9209 19.2168 14.9209C19.3854 14.9209 19.5267 14.8617 19.6406 14.7432C19.7591 14.6247 19.8184 14.4834 19.8184 14.3193V7.08691C19.8184 6.95475 19.8867 6.88867 20.0234 6.88867C20.1556 6.88867 20.2217 6.95475 20.2217 7.08691V9.47949C20.2217 9.62988 20.2741 9.75977 20.3789 9.86914C20.4883 9.97396 20.6204 10.0264 20.7754 10.0264C20.9258 10.0264 21.0534 9.97396 21.1582 9.86914C21.2676 9.75977 21.3223 9.62988 21.3223 9.47949V6.80664C21.3223 6.35091 21.2174 5.95215 21.0078 5.61035C20.8027 5.26855 20.5133 5.00423 20.1396 4.81738C19.7705 4.62598 19.3421 4.53027 18.8545 4.53027H17.9521C17.4645 4.53027 17.0339 4.62598 16.6602 4.81738C16.291 5.00423 16.0016 5.26855 15.792 5.61035C15.5869 5.95215 15.4844 6.35091 15.4844 6.80664V9.47949ZM18.4033 3.81934C18.777 3.81934 19.096 3.68717 19.3604 3.42285C19.6247 3.15853 19.7568 2.83952 19.7568 2.46582C19.7568 2.09212 19.6247 1.77539 19.3604 1.51562C19.096 1.2513 18.777 1.11914 18.4033 1.11914C18.0296 1.11914 17.7106 1.2513 17.4463 1.51562C17.1865 1.77539 17.0566 2.09212 17.0566 2.46582C17.0566 2.83952 17.1865 3.15853 17.4463 3.42285C17.7106 3.68717 18.0296 3.81934 18.4033 3.81934Z" fill="#474955"/>
</svg>
