<svg fill="none" height="32" viewBox="0 0 32 32" width="32" xmlns="http://www.w3.org/2000/svg"><path d="m7.73828 17.8984c0 .2266.07813.418.23438.5743.15625.1484.35937.2226.60937.2226h6.62107l-3.4922 9.4922c-.1171.3047-.1406.5664-.0703.7852.0782.2187.2071.375.3867.4687.1875.1016.3946.1211.6211.0586.2344-.0547.4493-.2031.6446-.4453l10.6523-13.3125c.2031-.2578.3047-.5078.3047-.75 0-.2266-.0781-.4141-.2344-.5625-.1562-.1563-.3594-.2344-.6094-.2344h-6.621l3.4921-9.49218c.1172-.29687.1368-.55468.0586-.77343-.0703-.21875-.1992-.375-.3867-.46875-.1797-.10157-.3867-.125-.6211-.07032-.2265.05469-.4375.20704-.6328.45704l-10.65233 13.30074c-.20313.2657-.30469.5157-.30469.75z" fill="#191b29" opacity=".8"/></svg>