<svg width="40" height="40" viewBox="0 0 40 40" fill="none" xmlns="http://www.w3.org/2000/svg">
<g clip-path="url(#clip0_2419_10018)">
<path fill-rule="evenodd" clip-rule="evenodd" d="M35.7154 20.0002V20.0002L35.7209 20.1575L35.7374 20.315L35.7648 20.4733L35.8031 20.6327L35.8522 20.7935L35.9119 20.9561L35.9821 21.1208L36.0625 21.2879L36.1529 21.4579L36.2531 21.6309L36.3625 21.8073L36.481 21.9874L36.6078 22.1714L36.7426 22.3596L36.8847 22.552L37.0333 22.749L37.1878 22.9505L37.347 23.1568L37.5102 23.3677L37.6761 23.5832L37.8437 23.8033L38.0114 24.0278L38.1781 24.2564L38.3422 24.4887L38.502 24.7244L38.6559 24.9629L38.8023 25.2038L38.9394 25.4462L39.0654 25.6894L39.1785 25.9326L39.2771 26.175L39.3596 26.4156L39.4244 26.6533L39.4701 26.8873L39.4957 27.1165L39.5 27.3398L39.4824 27.5565L39.4423 27.7655L39.3796 27.966L39.2942 28.1574L39.1866 28.339L39.0572 28.5104L38.907 28.6711L38.737 28.821L38.5486 28.9599L38.3432 29.088L38.1224 29.2055L37.8879 29.3125L37.6415 29.4097L37.3851 29.4974L37.1205 29.5764L36.8494 29.6472L36.5737 29.7107L36.295 29.7676L36.0149 29.8186L35.7348 29.8648L35.4561 29.9067L35.1801 29.9454L34.9079 29.9815L34.6404 30.0159L34.3786 30.0493L34.1232 30.0825L33.8748 30.1161L33.634 30.1509L33.4011 30.1874L33.1767 30.2263L32.9609 30.2681L32.7539 30.3133L32.5558 30.3625L32.3668 30.4162L32.1869 30.4747L32.0159 30.5385L31.854 30.608L31.7008 30.6836L31.5564 30.7656L31.4206 30.8544L31.2931 30.9502L31.1737 31.0534L31.0623 31.1642L30.9585 31.2829L30.8621 31.4098L30.7728 31.545L30.6902 31.6887L30.6141 31.8411L30.5442 32.0024L30.4799 32.1726L30.421 32.3518L30.3669 32.5401L30.3174 32.7374L30.2718 32.9437L30.2298 33.1588L30.1907 33.3826L30.154 33.6148L30.1191 33.855L30.0854 34.1028L30.0522 34.3577L30.0189 34.619L29.9846 34.886L29.9486 35.1579L29.9102 35.4336L29.8685 35.7121L29.8228 35.9921L29.7721 36.2723L29.7157 36.5512L29.6528 36.8272L29.5826 37.0987L29.5043 37.3639L29.4173 37.621L29.3209 37.8683L29.2146 38.1038L29.098 38.3257L28.9708 38.5324L28.8327 38.7223L28.6837 38.8937L28.5238 39.0456L28.3533 39.1766L28.1725 39.286L27.9819 39.3732L27.782 39.4377L27.5737 39.4796L27.3576 39.499L27.1347 39.4963L26.906 39.4725L26.6724 39.4283L26.4349 39.365L26.1945 39.2839L25.9522 39.1865L25.709 39.0744L25.4657 38.9494L25.2232 38.8132L24.9823 38.6675L24.7435 38.514L24.5076 38.3546L24.2749 38.1909L24.0461 38.0244L23.8213 37.8566L23.6008 37.689L23.3849 37.5229L23.1736 37.3595L22.967 37.1999L22.765 37.045L22.5677 36.8959L22.3749 36.7533L22.1864 36.6179L22.0021 36.4904L21.8217 36.3713L21.645 36.261L21.4717 36.1601L21.3015 36.0689L21.1341 35.9877L20.9693 35.9167L20.8065 35.8562L20.6456 35.8062L20.4861 35.7671L20.3277 35.7388L20.1701 35.7214L20.0129 35.715L19.8557 35.7197L19.6982 35.7353L19.5399 35.7618L19.3807 35.7993L19.22 35.8475L19.0576 35.9064L18.893 35.9757L18.7261 36.0553L18.5564 36.145L18.3836 36.2443L18.2074 36.3531L18.0276 36.4708L17.844 36.597L17.6562 36.7312L17.4641 36.8727L17.2675 37.0209L17.0663 37.1749L16.8604 37.3338L16.6499 37.4967L16.4347 37.6624L16.2149 37.8299L15.9908 37.9977L15.7625 38.1645L15.5305 38.3288L15.295 38.489L15.0567 38.6435L14.816 38.7906L14.5737 38.9284L14.3305 39.0553L14.0872 39.1696L13.8448 39.2694L13.604 39.3532L13.366 39.4194L13.1317 39.4668L12.9021 39.4939L12.6782 39.5L12.461 39.4842L12.2514 39.4459L12.0501 39.385L11.858 39.3014L11.6756 39.1955L11.5034 39.0678L11.3418 38.9193L11.1911 38.7508L11.0512 38.5638L10.9223 38.3597L10.804 38.1401L10.6961 37.9066L10.5982 37.6611L10.5097 37.4055L10.4301 37.1414L10.3586 36.8708L10.2946 36.5954L10.2372 36.3169L10.1857 36.0368L10.1392 35.7567L10.097 35.4778L10.0581 35.2016L10.0218 34.929L9.98728 34.6612L9.95381 34.3989L9.92064 34.1429L9.88706 33.8939L9.85241 33.6525L9.81605 33.419L9.77738 33.1939L9.73584 32.9774L9.69087 32.7697L9.64199 32.5709L9.58872 32.3812L9.5306 32.2005L9.46721 32.0289L9.39816 31.8662L9.32307 31.7124L9.24159 31.5673L9.15338 31.4308L9.05813 31.3026L8.95554 31.1826L8.84533 31.0705L8.72725 30.9662L8.60106 30.8692L8.46655 30.7793L8.32351 30.6963L8.17178 30.6197L8.01122 30.5492L7.84172 30.4845L7.66321 30.4252L7.47564 30.3708L7.27904 30.3209L7.07346 30.275L6.85904 30.2327L6.63594 30.1934L6.40443 30.1566L6.16485 30.1216L5.91763 30.0878L5.66328 30.0546L5.40243 30.0212L5.13582 29.9871L4.86429 29.9513L4.58882 29.9131L4.3105 29.8717L4.03056 29.8263L3.75033 29.7761L3.47128 29.7202L3.19496 29.6578L2.92305 29.5882L2.65727 29.5106L2.39943 29.4243L2.15135 29.3287L1.91486 29.2232L1.69176 29.1074L1.48377 28.981L1.29253 28.8438L1.11953 28.6957L0.966104 28.5367L0.833366 28.367L0.722207 28.187L0.633267 27.9971L0.566916 27.798L0.523249 27.5903L0.502083 27.3748L0.502966 27.1525L0.525187 26.9241L0.567801 26.6909L0.629649 26.4537L0.709389 26.2135L0.805533 25.9713L0.916473 25.7282L1.04052 25.4849L1.17593 25.2423L1.32095 25.0012L1.47382 24.7622L1.63283 24.526L1.79631 24.2931L1.96266 24.0639L2.13037 23.8388L2.29802 23.618L2.4643 23.4017L2.62797 23.19L2.78794 22.9831L2.94319 22.7808L3.0928 22.5831L3.23597 22.3899L3.37196 22.2011L3.50014 22.0165L3.61994 21.8358L3.73088 21.6588L3.83254 21.4852L3.92454 21.3148L4.00658 21.1472L4.0784 20.9821L4.13978 20.8192L4.19056 20.6582L4.23058 20.4986L4.25974 20.3402L4.27797 20.1825L4.28522 20.0253L4.28147 19.8681L4.26674 19.7106L4.24105 19.5524L4.20448 19.3933L4.15712 19.2327L4.09909 19.0704L4.03058 18.9061L3.95176 18.7394L3.8629 18.5699L3.76429 18.3973L3.65626 18.2215L3.53923 18.042L3.41366 17.8586L3.28009 17.6712L3.13914 17.4794L2.9915 17.2832L2.83795 17.0824L2.67938 16.8769L2.51677 16.6667L2.3512 16.4519L2.18385 16.2325L2.016 16.0087L1.84906 15.7808L1.6845 15.549L1.52389 15.3138L1.36887 15.0757L1.22116 14.8352L1.0825 14.593L0.954645 14.3499L0.839344 14.1066L0.738308 13.864L0.653175 13.6231L0.585474 13.3848L0.536599 13.1502L0.507769 12.9202L0.5 12.6958L0.514081 12.478L0.550548 12.2678L0.60967 12.0658L0.691442 11.8729L0.79558 11.6897L0.92153 11.5167L1.06848 11.3543L1.23538 11.2027L1.42096 11.062L1.62378 10.9321L1.84226 10.813L2.07468 10.7043L2.31927 10.6056L2.5742 10.5164L2.83764 10.4361L3.10779 10.364L3.38289 10.2994L3.66124 10.2416L3.94126 10.1896L4.22145 10.1428L4.50042 10.1002L4.77692 10.0611L5.04982 10.0246L5.31809 9.99L5.58086 9.95648L5.83736 9.92331L6.08691 9.88979L6.32898 9.85525L6.5631 9.81905L6.7889 9.78059L7.00612 9.73929L7.21453 9.69462L7.414 9.64607L7.60444 9.59316L7.78584 9.53544L7.95821 9.47249L8.1216 9.40391L8.27613 9.32931L8.42192 9.24835L8.55913 9.16069L8.68795 9.06601L8.80859 8.96402L8.92127 8.85443L9.02626 8.73699L9.12382 8.61146L9.21424 8.47762L9.29783 8.33526L9.37492 8.18424L9.44585 8.02439L9.511 7.8556L9.57075 7.67781L9.62552 7.49097L9.67575 7.29509L9.72191 7.09023L9.76449 6.8765L9.80401 6.65409L9.84105 6.42325L9.87617 6.1843L9.91002 5.93767L9.94325 5.68387L9.97654 5.42352L10.0106 5.15734L10.0463 4.88617L10.0842 4.61098L10.1253 4.33285L10.1704 4.053L10.2202 3.77274L10.2756 3.49354L10.3374 3.21696L10.4065 2.94463L10.4834 2.67831L10.569 2.41978L10.6639 2.17085L10.7685 1.93338L10.8834 1.70914L11.009 1.49989L11.1453 1.30727L11.2926 1.13277L11.4508 0.977743L11.6196 0.843323L11.7988 0.730421L11.9879 0.639696L12.1863 0.57154L12.3934 0.52607L12.6083 0.503126L12.8301 0.502276L13.058 0.52283L13.2909 0.563858L13.5279 0.62422L13.7678 0.702588L14.0099 0.797481L14.253 0.907302L14.4963 1.03037L14.739 1.16493L14.9803 1.30925L15.2194 1.46156L15.4558 1.62014L15.689 1.78332L15.9185 1.94949L16.144 2.11715L16.3652 2.28485L16.5818 2.45128L16.7939 2.6152L17.0012 2.7755L17.2039 2.93115L17.4019 3.08124L17.5955 3.22495L17.7846 3.36154L17.9696 3.49036L18.1506 3.61084L18.3278 3.72251L18.5017 3.82491L18.6723 3.91769L18.8401 4.00053L19.0054 4.07318L19.1685 4.1354L19.3297 4.18702L19.4893 4.2279L19.6479 4.25793L19.8056 4.27703L19.9628 4.28516L20.12 4.28229L20.2775 4.26843L20.4356 4.24361L20.5946 4.2079L20.7551 4.16139L20.9172 4.10422L21.0814 4.03653L21.2479 3.95853L21.4172 3.87046L21.5895 3.77261L21.765 3.66532L21.9442 3.549L22.1273 3.42409L22.3144 3.29114L22.5058 3.15075L22.7017 3.00361L22.9021 2.85051L23.1072 2.69231L23.3171 2.52998L23.5315 2.36461L23.7506 2.19735L23.974 2.0295L24.2016 1.86244L24.4331 1.69763L24.668 1.53665L24.9059 1.38113L25.1463 1.23278L25.3884 1.09333L25.6315 0.964555L25.8748 0.848193L26.1175 0.745962L26.3586 0.659505L26.5971 0.590365L26.8321 0.539944L27.0625 0.509478L27.2873 0.5L27.5056 0.512318L27.7165 0.546988L27.9192 0.604302L28.1128 0.684276L28.2968 0.786648L28.4707 0.910885L28.6339 1.05619L28.7864 1.22154L28.928 1.40569L29.0587 1.60719L29.1786 1.82448L29.2882 2.05585L29.3876 2.29953L29.4776 2.5537L29.5586 2.81653L29.6313 3.08621L29.6964 3.36097L29.7548 3.63912L29.8072 3.91906L29.8544 4.19928L29.8973 4.47839L29.9367 4.75512L29.9733 5.02834L30.0081 5.29702L30.0417 5.56025L30.0748 5.81727L30.1083 6.06739L30.1427 6.31007L30.1788 6.54483L30.217 6.77131L30.2581 6.98921L30.3025 7.19832L30.3507 7.39851L30.4032 7.58967L30.4606 7.77178L30.5231 7.94486L30.5912 8.10897L30.6653 8.2642L30.7458 8.41067L30.8329 8.54856L30.927 8.67804L31.0284 8.79931L31.1374 8.91262L31.2542 9.01821L31.379 9.11635L31.5122 9.20733L31.6539 9.29145L31.8042 9.36904L31.9634 9.44045L32.1314 9.50604L32.3085 9.56621L32.4946 9.62136L32.6898 9.67194L32.894 9.7184L33.107 9.76124L33.3287 9.80099L33.5589 9.8382L33.7972 9.87345L34.0433 9.90738L34.2965 9.94063L34.5564 9.97389L34.8221 10.0079L35.0929 10.0434L35.3679 10.0811L35.6458 10.122L35.9256 10.1667L36.2058 10.2161L36.4852 10.271L36.762 10.3323L37.0348 10.4007L37.3016 10.477L37.5609 10.5619L37.8106 10.656L38.0491 10.7598L38.2744 10.8739L38.485 10.9986L38.679 11.1341L38.855 11.2805L39.0116 11.4378L39.1477 11.6058L39.2623 11.7841L39.3548 11.9725L39.4248 12.1702L39.4721 12.3766L39.4968 12.5909L39.4994 12.8122L39.4805 13.0396L39.4411 13.2722L39.3822 13.5088L39.3052 13.7486L39.2116 13.9905L39.1029 14.2336L38.9808 14.4769L38.8471 14.7197L38.7035 14.9611L38.5517 15.2004L38.3936 15.437L38.2307 15.6705L38.0647 15.9003L37.8971 16.1261L37.7294 16.3476L37.5628 16.5646L37.3986 16.7771L37.238 16.9848L37.0819 17.1878L36.9314 17.3862L36.7871 17.5801L36.65 17.7696L36.5205 17.9549L36.3993 18.1362L36.2869 18.3137L36.1838 18.4878L36.0902 18.6587L36.0066 18.8267L35.9331 18.9922L35.8701 19.1554L35.8176 19.3168L35.7758 19.4765L35.7449 19.6351L35.725 19.7929L35.716 19.9502L35.7154 20.0002Z" fill="#B0FC33"/>
<path opacity="0.8" d="M18.7334 28.249C19.4658 28.249 20.0195 27.9678 20.3945 27.4053L28.5068 15.1797C28.6416 14.9805 28.7412 14.7842 28.8057 14.5908C28.8701 14.3916 28.9023 14.2012 28.9023 14.0195C28.9023 13.5156 28.7266 13.0996 28.375 12.7715C28.0293 12.4375 27.6016 12.2705 27.0918 12.2705C26.7402 12.2705 26.4414 12.3408 26.1953 12.4814C25.9551 12.6162 25.7266 12.8506 25.5098 13.1846L18.6982 23.8809L15.2881 19.7939C14.9189 19.3662 14.4561 19.1523 13.8994 19.1523C13.3779 19.1523 12.9473 19.3193 12.6074 19.6533C12.2676 19.9873 12.0977 20.4062 12.0977 20.9102C12.0977 21.1387 12.1328 21.3555 12.2031 21.5605C12.2793 21.7598 12.417 21.9678 12.6162 22.1846L17.1426 27.5195C17.5586 28.0059 18.0889 28.249 18.7334 28.249Z" fill="#191B29"/>
</g>
<defs>
<clipPath id="clip0_2419_10018">
<rect width="40" height="40" fill="white"/>
</clipPath>
</defs>
</svg>
