<svg fill="none" height="84" viewBox="0 0 84 84" width="84" xmlns="http://www.w3.org/2000/svg" xmlns:xlink="http://www.w3.org/1999/xlink"><linearGradient id="a"><stop offset="0" stop-color="#ff4d00"/><stop offset="1" stop-color="#ffd339"/></linearGradient><linearGradient id="b" gradientUnits="userSpaceOnUse" x1="42" x2="42" xlink:href="#a" y1="3.92969" y2="80.0703"/><linearGradient id="c" gradientUnits="userSpaceOnUse" x1="74.9687" x2="9.02905" xlink:href="#a" y1="22.9648" y2="61.0351"/><path clip-rule="evenodd" d="m63.8597 41.999.0164.2187.0492.2198.082.2219.1148.225.1476.229.1805.2343.2132.2404.246.2476.2787.2559.3111.2653.3434.2755.3752.2869.4067.2991.4374.3125.4673.3266.4963.3416.5238.3574.5499.3739.5741.3909.5961.4084.6154.4261.6318.4439.6449.4616.6539.479.6589.4957.659.5114.654.526.6435.5391.627.5501.6045.559.5753.5653.5398.5687.4975.5689.4488.5654.3937.5584.3327.5475.2662.5324.1947.5134.1191.4903.0402.4635-.041.4328-.1236.399-.2064.362-.2884.3227-.3683.2813-.4453.2385-.5182.1949-.5862.151-.6486.1076-.7045.0651-.7535.0242-.7954-.0146-.8299-.0509-.8567-.0844-.8762-.1145-.8884-.1413-.8937-.1643-.8925-.1837-.8852-.1991-.8723-.2109-.8544-.2188-.8321-.2231-.8058-.224-.7762-.2214-.7436-.2157-.7087-.2068-.6719-.1951-.6333-.1807-.5935-.1635-.5528-.1439-.5112-.1218-.4689-.0971-.4262-.07-.3829-.0404-.3392-.0081-.2947.0272-.2496.0654-.2036.1072-.1565.1528-.1107.1999-.0687.246-.03.2911.0053.3357.038.3794.0677.4228.0951.4656.1199.5078.1422.5495.162.5904.1794.6302.1941.6688.206.7058.2151.741.221.7737.2239.8036.2233.8301.2193.8528.2116.8711.2002.8844.185.8921.166.8939.1433.8891.1168.8775.0869.8585.0537.8323.0176.7984-.021.7572-.0619.7087-.1041.6532-.1476.5915-.1913.5238-.2351.4512-.2779.3746-.3194.2948-.359.213-.3961.1302-.4303.0476-.4611-.0338-.4883-.113-.5117-.1888-.5311-.2607-.5464-.3275-.5576-.3891-.5651-.4447-.5687-.4939-.5688-.5366-.5656-.5728-.5597-.6024-.5509-.6254-.54-.6425-.5271-.6533-.5126-.6589-.497-.659-.4803-.6545-.463-.6458-.4453-.633-.4275-.6168-.4098-.5977-.3923-.576-.3752-.5519-.3587-.526-.3428-.4985-.3278-.4697-.3135-.4398-.3002-.4092-.2878-.3777-.2764-.346-.266-.3137-.2566-.2812-.2483-.2486-.241-.2159-.2346-.1831-.2295-.1502-.2252-.1175-.2221-.0846-.2199-.0518-.2188-.019-.2187.0138-.2197.0466-.2217.0794-.2246.1122-.2287.145-.2338.1778-.2399.2107-.247.2434-.2552.2761-.2645.3085-.2746.3408-.286.3728-.2981.4041-.3114.435-.3254.465-.3404.494-.3561.5217-.3726.548-.3895.5722-.4069.5944-.4247.614-.4425.6307-.4602.6439-.4776.6534-.4944.6587-.5102.6592-.5249.6546-.5381.6445-.5493.6286-.5584.6065-.5649.5779-.5685.5429-.5689.5011-.5659.4529-.5591.3984-.5484.3377-.5338.2717-.5151.2005-.4923.1253-.4657.0466-.4354-.0345-.4017-.117-.3651-.1998-.3259-.2819-.2846-.3621-.242-.4393-.1983-.5126-.1545-.581-.1111-.6438-.0684-.7003-.0274-.7499.0116-.7924.0481-.8274.0818-.8548.1123-.875.1393-.8877.1626-.8935.1823-.8929.198-.886.21-.8735.2183-.8561.223-.834.224-.8081.2217-.7786.2162-.7463.2077-.7116.1961-.6749.182-.6364.165-.5968.1455-.556.1236-.5146.0992-.4723.0722-.4296.0429-.3864.0107-.3427-.0242-.2983-.0623-.2532-.1037-.2073-.149-.1603-.1962-.1142-.2424-.0719-.2876-.033-.332.0027-.376.0354-.4193.0655-.4622.093-.5045.1179-.5462.1406-.5871.1606-.6271.1781-.6658.193-.7029.2051-.7383.2145-.7711.2207-.8013.2238-.8282.2235-.8511.2197-.8698.2124-.8835.2012-.8917.1864-.894.1677-.8897.1452-.8786.119-.8603.0894-.83464.0565-.8014.0205-.76072-.0178-.71278-.0585-.6579-.1008-.59655-.1441-.5294-.1878-.45718-.2316-.38081-.2746-.30124-.3162-.21954-.3559-.1368-.3933-.05412-.4277.02741-.4588.10674-.4863.18293-.5099.25508-.5297.32244-.5453.3844-.557.44043-.5646.49021-.5685.53346-.5689.57014-.5661.60023-.5602.62387-.5517.64127-.5409.65271-.5282.65856-.5139.6592-.4983.655-.4816.6466-.4644.6341-.4468.6183-.429.5993-.4111.5778-.3937.5539-.3766.5281-.3599.5007-.3441.472-.329.4423-.3146.4115-.3012.3803-.2888.3485-.2773.3163-.2668.2838-.2573.2512-.2489.2185-.2415.1857-.2351.1529-.2299.12-.2255.0872-.2223.0544-.22.0216-.2189-.0111-.2187-.044-.2196-.0768-.2215-.1095-.2244-.1424-.2283-.1753-.2333-.208-.2394-.2408-.2464-.2735-.2545-.3059-.2637-.3383-.2738-.3702-.285-.4017-.2972-.4325-.3103-.4627-.3243-.4917-.3391-.5195-.3549-.5459-.3712-.5704-.3882-.5927-.4055-.6126-.4233-.6294-.4411-.643-.4588-.6528-.4762-.6584-.4931-.65927-.509-.65516-.5238-.64555-.5371-.63007-.5485-.60845-.5578-.58043-.5645-.54587-.5683-.5047-.5691-.45698-.5662-.40291-.5598-.34279-.5495-.27709-.535-.20638-.5167-.1314-.4943-.05296-.468.02797-.4379.11041-.4046.19324-.3681.2754-.3291.35576-.288.43326-.2454.5069-.2018.57576-.158.63903-.1145.69603-.0718.74623-.0306.78925.0086.82487.0453.8529.0793.8736.1099.8869.1373.8934.1609.8931.1808.8867.197.8747.2092.8576.2178.8359.2227.8103.224.781.2221.749.2168.7145.2084.6778.1972.6395.1831.6.1665.5593.1472.5178.1254.4758.1012.433.0745.3898.0453.3462.0134.3018-.0213.2569-.0591.211-.1004.164-.1452.1178-.1925.0751-.2387.0359-.284.0001-.3286-.0329-.3725-.0632-.4159-.0909-.4588-.116-.5012-.1389-.5429-.159-.5839-.1768-.6239-.1919-.6628-.2043-.7001-.2139-.7355-.2203-.7686-.2236-.7991-.2237-.8261-.2201-.8495-.2131-.8685-.2023-.8826-.1877-.8913-.1693-.8941-.1471-.8903-.1212-.8798-.0919-.862-.0592-.83696-.0236-.80433.0148-.76425.0552-.71688.0973-.66252.1406-.60167.1844-.53495.2281-.46311.2712-.38703.3129-.30767.3529-.22611.3903-.1434.4251-.06068.4564.02099.4843.10053.5082.177.5282.2495.5443.31728.5561.37968.5641.43621.5684.48648.569.53028.5664.56747.5607.59808.5525.62223.5418.64012.5293.65202.5151.65829.4995.6594.483.6555.4658.6474.4482.6353.4303.6196.4126.601.395.5795.3779.5559.3613.5303.3453.5029.3301.4744.3158.4446.3022.4141.2897.3828.2782.351.2676.3189.258.2864.2495.2539.2421.2211.2356.1883.2302.1554.2258.1227.2225.0898.2202.057.219.0243.2186-.0086.2195-.0413.2213-.0742.2241-.107.228-.1398.2329-.1726.2388-.2054.2458-.2382.2539-.2709.2629-.3034.2729-.3357.2841-.3677.2961-.3992.3092-.4301.3232-.4603.3379-.4894.3536-.5174.3699-.5439.3868-.5685.4041-.591.4219-.6111.4396-.6282.4574-.6421.4749-.6522.4917-.6581.5078-.6594.5227-.65571.536-.64653.5477-.63154.5571-.61042.5641-.58291.5681-.54887.5691-.50823.5666-.46103.5604-.40745.5504-.34779.5364-.28252.5183-.21219.4962-.13751.4702-.05931.4405.02146.4073.10381.3711.18666.3323.26891.2913.34946.2488.42723.2053.50121.1615.57049.1179.63422.0752.69175.0338.74251-.0055.7861-.0426.8223-.0766.851-.1077.8722-.1352.8862-.1591.8931-.1794.8933-.1958.8875-.2084.8759-.2172.8591-.2224.8379-.2241.8124-.2223.7835-.2173.7517-.2093.7172-.1981.6809-.1844.6426-.1679.6032-.1488.5626-.1272.5212-.1032.4791-.0768.4364-.0477.3933-.016.3497.0184.3054.056.2605.0969.2147.1416.1678.1887.1213.2351.0783.2804.039.3251.0028.369-.0303.4124-.0609.4554-.0888.4978-.1142.5396-.1371.5807-.1575.6208-.1755.6597-.1908.6971-.2034.7328-.2132.7661-.2199.7967-.2235.8241-.2238.8478-.2206.8671-.2138.8817-.2032.8908-.189.894-.1709.8908-.1491.8809-.1234.8637-.0943.8392-.062.8072-.0264.7677.0116.7209.0519.6671.0939.6067.1371.5404.1809.469.2247.3932.2678.3141.3096.2327.3498.15.3875.0672.4224-.0145.4541-.0943.4822-.1711.5064-.2438.5268-.3121.5431-.3749.5554-.4319.5636-.4827.5682-.5271.5691-.5647.5667-.5959.5613-.6205.5532-.6389.5428-.6513.5304-.658.5162-.6594.5008-.656.4844-.6482.4672-.6364.4496-.621.4318-.6025.414-.5813.3964-.5579.3792-.5323.3626-.5052.3466-.4767.3313-.447.3169-.4165.3033-.3853.2906-.3536.2791-.3214.2684-.289.2587-.2565.2502-.2237.2426-.1909.2361-.158.2306-.1253.2262-.0925.2227-.0596.2203-.0268.219z" fill="url(#b)" fill-rule="evenodd"/><path clip-rule="evenodd" d="m52.9296 60.9305-.1812.1236-.1658.1525-.1511.182-.1374.2119-.1246.2424-.1126.2734-.1016.3049-.0915.3368-.0823.3693-.0741.4021-.0669.4351-.0608.4684-.0558.5018-.0519.535-.0492.568-.0477.6006-.0476.6324-.0488.6631-.0515.6927-.0557.7203-.0613.7461-.0685.7691-.0774.7893-.0878.8058-.0998.8184-.1134.8265-.1286.8294-.1451.8267-.1629.8182-.1819.8029-.2019.781-.2226.7517-.2438.7153-.2654.6714-.2867.6202-.3077.5618-.3281.4967-.3472.4254-.3651.3483-.3813.2665-.3953.1809-.4073.0925-.4168.0022-.4236-.0883-.4278-.1784-.4291-.2663-.4279-.3514-.4239-.4322-.4175-.5078-.4086-.5776-.3978-.6405-.385-.6961-.3708-.7441-.3553-.7842-.3389-.816-.3219-.8401-.3045-.8561-.2872-.8648-.2702-.8661-.2535-.8609-.2378-.8494-.2227-.8321-.209-.8099-.1963-.7828-.1851-.7519-.1752-.7172-.1669-.6794-.1602-.6388-.1552-.5958-.1518-.5506-.1501-.5036-.1504-.4547-.1524-.4041-.1565-.3518-.1626-.2977-.1708-.2417-.1815-.1834-.1947-.1228-.2105-.0591-.2285.0041-.2473.0635-.2672.1196-.288.1724-.3097.2226-.3322.2701-.3557.3151-.3799.3577-.4047.3979-.4303.4355-.456.4705-.4822.5025-.5083.5313-.5342.5567-.5595.5783-.5839.5957-.6073.6085-.6289.6163-.6486.6188-.6658.6156-.6801.6063-.6911.5907-.6984.5686-.7015.5399-.7001.5045-.6939.4626-.6826.4145-.6663.3604-.6446.3008-.6179.2364-.5859.1679-.5493.0962-.5084.0221-.4633-.0534-.415-.1293-.364-.2044-.3108-.2779-.2563-.3488-.2013-.4163-.1464-.4794-.0923-.5375-.0398-.5902.0105-.637.0582-.6775.1025-.7117.1434-.7394.1803-.7609.2132-.7763.2419-.7858.2662-.7899.2864-.7888.3023-.7832.3142-.7734.3223-.7599.3267-.7432.3277-.7238.3255-.7022.3205-.6787.3127-.6537.3027-.6277.2903-.6009.2762-.5736.2603-.5462.2429-.5187.2241-.4914.2042-.4646.1833-.4381.1614-.4124.1387-.3872.1152-.3628.0912-.3393.0665-.3166.0412-.2948.0154-.2738-.0109-.2538-.0378-.2346-.0651-.2164-.0929-.199-.1213-.1825-.1502-.167-.1796-.1523-.2095-.1384-.2399-.1256-.2709-.1135-.3024-.1024-.3343-.0923-.3667-.0829-.3994-.0748-.4325-.0674-.4658-.0613-.4991-.0561-.5324-.0521-.5654-.0494-.598-.0478-.6299-.0475-.6608-.0487-.6903-.0512-.7183-.0552-.7441-.0608-.7674-.0679-.7877-.0766-.8047-.0869-.8176-.0988-.82598-.1123-.82936-.1273-.82722-.1437-.81904-.1614-.80441-.1803-.78296-.2003-.75436-.2209-.71848-.2421-.67517-.2637-.62453-.285-.56673-.3061-.50213-.3264-.43121-.3458-.35464-.3637-.27321-.38-.187826-.3943-.099551-.4064-.009485-.4161.081177-.4232.171232-.4275.259463-.4292.34474-.4281.42592-.4243.50205-.418.57225-.4095.63576-.3987.69201-.3861.74061-.372.78124-.3566.81384-.3402.83843-.3233.85516-.3059.86434-.2886.86627-.2715.8616-.2549.8505-.2389.8338-.224.8118-.21.7851-.1973.7545-.1859.7201-.176.6825-.1675.6421-.1607.5993-.1555.5544-.152.5074-.1502.4586-.1503.4082-.1522.3561-.1561.3021-.162.2462-.1701.1882-.1806.1276-.1935.0643-.2092.0009-.227-.059-.2458-.1152-.2656-.1684-.2862-.2186-.3079-.2664-.3304-.3116-.3538-.3544-.3779-.3948-.4028-.4327-.4281-.4677-.454-.5001-.4801-.5291-.5062-.5549-.5321-.5767-.5575-.5944-.5821-.6077-.6054-.6158-.6273-.6188-.647-.6161-.6645-.6072-.6791-.5922-.6904-.5706-.6979-.5424-.7014-.5076-.7003-.46621-.6946-.41852-.6837-.36487-.6678-.30573-.6465-.24169-.6201-.17352-.5887-.10198-.5524-.02803-.5117.04737-.4671.12322-.419.19848-.3681.27217-.3151.34331-.2607.41103-.2057.47454-.1507.53313-.0965.5862-.044.6335.0066.6745.0544.7092.0992.7375.1402.7594.1776.7753.2107.7853.2397.7897.2644.7891.2849.7838.3012.7743.3134.7611.3217.7446.3265.7255.3277.704.3258.6806.321.6558.3134.6298.3035.603.2914.5758.2774.5484.2616.5209.2443.4936.2257.4666.2058.4403.185.4143.1631.3892.1405.3648.1172.3411.0931.3184.0684.2965.0433.2755.0174.2553-.0088.2361-.0356.2178-.0629.2004-.0907.1838-.119.1682-.1479.1534-.1772.1395-.2071.1265-.2375.1145-.2684.1033-.2999.093-.3317.0837-.3641.0753-.3968.0681-.4299.0617-.4631.0565-.4964.0524-.5298.0495-.5628.0479-.5954.0475-.6274.0486-.6583.0509-.6881.0549-.7161.0603-.7421.0673-.7656.0758-.7863.0861-.8034.0978-.8167.1112-.8255.126-.82931.1424-.82759.1599-.81992.1789-.80582.1986-.78491.2193-.75691.2404-.7216.2619-.67889.2834-.62882.3044-.57159.3249-.50752.3443-.43708.3623-.36093.3788-.27985.3933-.194752.4055-.106663.4154-.016701.4227.073955.4273.164098.4292.252523.4282.33807.4247.41962.4187.49619.4102.56688.3996.63094.3872.6878.3731.73701.3579.77828.3415.81153.3246.83674.3073.8541.29.86387.2728.86635.2562.8622.2402.8516.2251.8353.211.8137.1983.7874.1868.7571.1767.7229.1681.6856.1612.6454.1558.6028.1522.558.1503.5112.1502.4626.152.4123.1557.3602.1614.3065.1694.2507.1797.1929.1923.1326.2079.0694.2255.0058.2443-.0544.264-.1108.2846-.1643.3061-.2147.3286-.2627.3519-.3081.376-.3511.4007-.3917.4262-.4297.4519-.4651.478-.4976.5042-.5269.53-.5529.5555-.5752.5802-.5932.6036-.6067.6256-.6155.6456-.6187.6633-.6165.678-.6082.6896-.5936.6975-.5726.7013-.5449.7006-.5106.6952-.46974.6848-.42255.6693-.36935.6484-.31064.6224-.24697.5914-.17908.5555-.10779.5151-.03399.4707.04133.423.11717.3722.19253.3194.26637.265.33775.2101.40578.1551.46964.1008.52864.048.5822-.0026.63-.0508.6714-.0957.7067-.1371.7354-.1747.7579-.2083.7743-.2376.7846-.2626.7896-.2834.7893-.3001.7844-.3126.7752-.3212.7623-.3262.7461-.3278.727-.3261.7058-.3214.6825-.3142.6578-.3044.6319-.2924.6052-.2786.578-.2629.5505-.2458.5231-.2272.4958-.2074.4688-.1867.4423-.1649.4164-.1424.3911-.119.3667-.0951.343-.0704.3202-.0453.2982-.0195.2771.0067.2569.0334.2376.0607.2192.0885.2017.1168.1851.1455.1694.1749.1546.2047.1406.235.1275.266.1154.2973.1041.3292.0938.3615.0844.3942.076.4272.0685.4604.0622.4938.0569.5271.0527.5602.0497.5929.0479.6248.0475.656.0484.6857.0507.7139.0545.7402.0598.7639.0666.7847.0751.8022.0852.8158.0968.825.11.8292.1248.828.141.8207.1585.8072.1773.7869.197.7594.2176.7246.2387.6826.2602.6331.2816.5764.3028.5128.3233.4429.3427.3672.361.2865.3775.2016.3922.1138.4047.0239.4147-.0667.4222-.157.427-.2456.4291-.3314.4285-.4133.425-.4903.4193-.5615.4109-.6261.4006-.6836.3882-.7334.3743-.7753.3592-.8092.3428-.835.326-.853.3087-.8634.2914-.8665.2742-.8627.2574-.8527.2415-.8368.2263-.8156.2121-.7897.1993-.7596.1876-.7258.1774-.6887.1688-.6487.1617-.6063.1562-.5616.1524-.515.1504-.4665.1502-.4164.1517-.3645.1554-.3108.1609-.2552.1687-.1976.1787-.1375.1913-.0746.2065-.0107.2241.0497.2427.1065.2624.1601.2829.2108.3044.2589.3268.3046.35.3478.374.3885.3987.4268.4241.4623.4499.4952.4759.5247.5021.551.528.5735.5534.5919.5783.6059.6018.6149.6239.6187.644.6169.662.609.6769.595.6888.5745.697.5474.7011.5135.7008.4732.6958.4266.6858.3738.6707.3155.6503.2522.6246.1846.594.1135.5585.04.5185-.0353.4744-.1112.4269-.1866.3764-.2605.3236-.3322.2694-.4005.2145-.4648.1594-.5241.1051-.5782.0522-.6264.0013-.6684-.047-.704-.0922-.7334-.134-.7564-.1719-.7732-.2057-.784-.2354-.7894-.2607-.7895-.282-.7849-.2988-.7761-.3117-.7634-.3207-.7475-.3259-.7287-.3278-.7075-.3263-.6845-.3219-.6598-.3148-.634-.3052-.6073-.2935-.5802-.2797-.5527-.2643-.5253-.2471-.4979-.2287-.4709-.2091-.4444-.1883-.4185-.1667-.3931-.1442-.3686-.1209-.3449-.097-.3219-.0724-.3-.0473-.2787-.0216-.2585.0046-.2391.0313-.2206.0585-.2031.0863z" fill="url(#c)" fill-rule="evenodd"/><path d="m67.7227 51.2153h-7.5638l4.5117-4.2292c.0103-.0099.0215-.0198.0318-.0298 1.8659-1.7983 3.3826-3.833 4.507-6.0464 1.1881-2.337 1.7901-5.1856 1.7901-8.4656 0-1.829-.2322-3.5831-.691-5.2145-.5289-1.8759-1.5129-3.5434-2.9247-4.9582-1.3931-1.395-3.2506-2.4796-5.521-3.2258-2.113-.6939-4.7962-1.0458-7.9738-1.0458-3.3348 0-6.1341.4033-8.3183 1.1983-2.3752.8653-4.2777 2.1529-5.6548 3.8267-.5524.6704-1.0308 1.3986-1.4371 2.1791v-4.046c0-1.7415-1.4699-3.1581-3.2768-3.1581h-8.1302c-1.4493 0-2.7431.9366-3.1467 2.2775-.2724.9041-.6066 1.653-.9942 2.2269-.2837.4196-.6198.7263-1.0589.9664-.5589.3068-1.2882.5377-2.1683.6884-1.0579.1814-2.3761.2734-3.9171.2734-1.807 0-3.2768 1.4167-3.2768 3.1582v6.7836c0 1.7415 1.4698 3.1581 3.2768 3.1581h4.8533v25.0286c0 1.7414 1.4699 3.1581 3.2768 3.1581h11.2853c.8098 0 1.5513-.2852 2.1233-.7553.5721.471 1.3136.7553 2.1234.7553h28.2749c1.8069 0 3.2768-1.4167 3.2768-3.1581v-8.1868c0-1.7415-1.4699-3.1581-3.2768-3.1581z" fill="#fff"/><g fill="#191b29"><path d="m35.2009 63.689h-11.2852c-.646 0-1.1703-.5053-1.1703-1.1279v-27.0588h-6.9599c-.646 0-1.1703-.5053-1.1703-1.1279v-6.7836c0-.6226.5243-1.1279 1.1703-1.1279 1.6646 0 3.1064-.102 4.2851-.3041 1.1169-.1904 2.0728-.5008 2.8415-.9221.7321-.4007 1.3154-.9321 1.7825-1.6233.5009-.7417.9222-1.6729 1.2527-2.7692.1451-.4819.6029-.8139 1.1235-.8139h8.1301c.646 0 1.1703.5053 1.1703 1.1279v41.4029c0 .6226-.5243 1.1279-1.1703 1.1279zm-10.1149-2.2558h8.9447v-39.1471h-6.1052c-.351.97-.7761 1.8281-1.2695 2.5571-.6666.9872-1.5373 1.7785-2.5868 2.3533-1.0017.5495-2.2095.9474-3.5895 1.1829-1.0204.1751-2.202.2825-3.5239.3222v4.5449h6.9599c.646 0 1.1703.5053 1.1703 1.1279z"/><path d="m67.7225 63.6889h-28.2749c-.646 0-1.1703-.5053-1.1703-1.1279 0-3.0327.4803-5.9381 1.4268-8.6361.9625-2.7412 2.7572-5.431 5.3347-7.9963.0018-.0018.0046-.0045.0065-.0063l7.5235-7.3684c.9971-.9619 1.7058-1.8678 2.1103-2.6997.3894-.8004.587-1.9084.587-3.2926 0-2.0293-.3839-2.7331-.5487-2.9415-.3024-.3799-.6703-.5505-1.1936-.5505-.2603 0-.4991.0415-.7294.1282-.1516.0568-.322.2012-.4887.415-.1413.1814-.3482.5477-.5271 1.2561-.1591.6316-.2396 1.496-.2396 2.5698v1.7541c0 .6226-.5243 1.1279-1.1703 1.1279h-10.5578c-.3137 0-.6151-.1218-.8351-.3375-.22-.2156-.3408-.508-.3352-.8112.0412-2.1592.2528-4.166.6301-5.9634.3997-1.9039 1.1712-3.5597 2.2937-4.9222 1.1375-1.3823 2.7357-2.4561 4.7504-3.1897 1.9455-.7083 4.4939-1.0674 7.5741-1.0674s5.4001.3158 7.2941.9375c1.9492.6407 3.5249 1.5529 4.683 2.7124 1.1637 1.1658 1.9745 2.5391 2.4099 4.083.41 1.4572.6179 3.0318.6179 4.6821 0 2.9677-.5299 5.515-1.5757 7.5723-1.0224 2.013-2.4042 3.8655-4.1063 5.5059-.0037.0036-.0075.0072-.0112.0109l-6.6687 6.2521c-.4672.4503-.9672.9411-1.4886 1.4609h12.6811c.646 0 1.1703.5053 1.1703 1.1279v8.1867c0 .6226-.5243 1.1279-1.1703 1.1279zm-27.0803-2.2558h25.9101v-5.9309h-13.6343c-.3726 0-.7218-.1706-.9428-.4593-.2209-.2887-.2855-.6614-.1741-1.0043.2565-.7904.7471-1.5511 1.4586-2.2603.5683-.5675 1.1142-1.1035 1.6216-1.5926.0037-.0036.0075-.0072.0112-.0108l6.6687-6.2522c1.5167-1.4626 2.746-3.1103 3.6541-4.8978.8876-1.7451 1.337-3.9594 1.337-6.5797 0-1.4509-.1807-2.827-.5356-4.0911-.3361-1.1902-.9371-2.2071-1.8378-3.1094-.8969-.8978-2.1589-1.6179-3.7514-2.1412-1.6506-.5423-3.8507-.8166-6.5396-.8166-2.6888 0-5.0659.3104-6.7464.9213-1.6122.5874-2.8723 1.4229-3.7439 2.4822-.8904 1.081-1.5074 2.4156-1.8332 3.9666-.2818 1.3445-.4643 2.8234-.5439 4.4088h8.1779v-.6262c0-1.2705.1002-2.2856.3062-3.1022.2218-.8798.5261-1.5583.9287-2.0762.4353-.5586.9437-.9493 1.512-1.164.5009-.1877 1.0317-.2816 1.5785-.2816 1.2508 0 2.3068.4963 3.053 1.4365.6928.8753 1.0298 2.2856 1.0298 4.3113 0 1.718-.2724 3.1482-.8089 4.2508-.5205 1.0693-1.3846 2.19-2.568 3.3305l-7.5142 7.3584c-2.3321 2.3217-3.9452 4.7264-4.7953 7.1464-.7471 2.1295-1.1768 4.4069-1.2789 6.7854z"/></g></svg>