<svg width="32" height="32" viewBox="0 0 32 32" fill="none" xmlns="http://www.w3.org/2000/svg">
<path fill-rule="evenodd" clip-rule="evenodd" d="M25.3089 23.0371L25.2438 23.1344L25.189 23.2402L25.1444 23.3547L25.1095 23.4781L25.0841 23.6108L25.0676 23.7528L25.0595 23.9044L25.0594 24.0656L25.0667 24.2363L25.0807 24.4165L25.1006 24.606L25.1257 24.8046L25.1551 25.0117L25.1877 25.2268L25.2226 25.4492L25.2584 25.6779L25.2939 25.9119L25.3278 26.1499L25.3585 26.3903L25.3846 26.6314L25.4044 26.8714L25.4165 27.1082L25.4191 27.3396L25.4108 27.5632L25.3902 27.7769L25.356 27.9782L25.3072 28.1648L25.2429 28.3347L25.1624 28.486L25.0657 28.617L24.9526 28.7267L24.8235 28.814L24.6792 28.8786L24.5206 28.9206L24.3489 28.9403L24.1656 28.9387L23.9721 28.917L23.7703 28.8767L23.5619 28.8197L23.3485 28.748L23.132 28.6638L22.914 28.5693L22.6958 28.4667L22.479 28.3583L22.2647 28.246L22.0539 28.132L21.8475 28.0181L21.6462 27.906L21.4507 27.7973L21.2613 27.6933L21.0783 27.5954L20.9019 27.5046L20.7321 27.422L20.569 27.3483L20.4125 27.2843L20.2625 27.2306L20.1186 27.1877L19.9807 27.1562L19.8484 27.1364L19.7215 27.1286L19.5995 27.1332L19.4822 27.1503L19.3692 27.1801L19.2599 27.2228L19.1541 27.2785L19.0512 27.3471L18.9509 27.4288L18.8527 27.5234L18.7561 27.6309L18.6607 27.7511L18.5661 27.8836L18.4716 28.0281L18.377 28.1842L18.2816 28.3512L18.185 28.5284L18.0867 28.7149L17.9863 28.9097L17.8834 29.1113L17.7774 29.3184L17.668 29.5294L17.5549 29.7422L17.4379 29.9547L17.3165 30.1648L17.1908 30.3698L17.0607 30.5671L16.9261 30.7542L16.7873 30.9281L16.6445 31.0861L16.498 31.2258L16.3484 31.3445L16.1962 31.4403L16.042 31.5112L15.8867 31.556L15.7308 31.5737L15.5754 31.5639L15.421 31.5269L15.2686 31.4632L15.1187 31.374L14.972 31.261L14.8292 31.1261L14.6905 30.9717L14.5563 30.8003L14.4268 30.6146L14.3021 30.4174L14.1822 30.2113L14.067 29.9991L13.9562 29.7833L13.8496 29.5663L13.7469 29.3503L13.6476 29.1373L13.5513 28.9291L13.4575 28.7272L13.3658 28.5331L13.2757 28.3477L13.1866 28.1722L13.098 28.0072L13.0095 27.8536L12.9205 27.7117L12.8306 27.5821L12.7392 27.4649L12.6459 27.3604L12.5502 27.2687L12.4517 27.19L12.3499 27.1241L12.2444 27.0712L12.1348 27.031L12.0206 27.0034L11.9016 26.9883L11.7772 26.9855L11.6472 26.9947L11.5112 27.0155L11.3689 27.0476L11.2201 27.0906L11.0646 27.144L10.9022 27.2071L10.7328 27.2793L10.5564 27.3599L10.3731 27.4478L10.183 27.542L9.98638 27.6415L9.78368 27.7448L9.57547 27.8505L9.36242 27.9571L9.14541 28.0626L8.92547 28.1653L8.70382 28.2631L8.48182 28.3539L8.26098 28.4355L8.04296 28.5058L7.8295 28.5626L7.62241 28.6039L7.42353 28.6278L7.23464 28.6327L7.05745 28.6173L6.89351 28.5804L6.74419 28.5216L6.61058 28.4406L6.49349 28.3376L6.39342 28.2133L6.31052 28.0687L6.24464 27.9053L6.19526 27.7248L6.1616 27.5292L6.14261 27.3205L6.13702 27.1012L6.14338 26.8734L6.16015 26.6394L6.18568 26.4015L6.21831 26.1617L6.25638 25.9219L6.29826 25.6839L6.3424 25.4492L6.38732 25.2192L6.43165 24.995L6.4741 24.7775L6.5135 24.5677L6.54879 24.366L6.57901 24.1729L6.60329 23.9888L6.62086 23.8138L6.63101 23.6482L6.63312 23.4918L6.62665 23.3447L6.61108 23.2068L6.58597 23.0778L6.55094 22.9575L6.50561 22.8457L6.44967 22.7421L6.38284 22.6464L6.30488 22.5582L6.21559 22.4771L6.11479 22.4028L6.00236 22.3348L5.87825 22.2727L5.74244 22.2159L5.59499 22.164L5.43605 22.1165L5.26585 22.0727L5.08472 22.0321L4.89315 21.9939L4.69174 21.9576L4.48125 21.9222L4.26265 21.8872L4.03705 21.8515L3.80581 21.8144L3.57048 21.7749L3.33284 21.7322L3.09487 21.6853L2.85876 21.6332L2.6269 21.5751L2.40179 21.5101L2.18607 21.4375L1.9824 21.3565L1.79344 21.2667L1.62173 21.1675L1.46966 21.0588L1.33935 20.9405L1.23257 20.8127L1.15073 20.6757L1.09475 20.5301L1.06507 20.3766L1.06162 20.2159L1.08381 20.0491L1.13062 19.8773L1.20054 19.7015L1.29172 19.5228L1.402 19.3425L1.52901 19.1615L1.67019 18.9809L1.82296 18.8015L1.98471 18.6242L2.15288 18.4497L2.32502 18.2785L2.49883 18.111L2.67217 17.9476L2.84308 17.7884L3.00981 17.6337L3.1708 17.4833L3.32467 17.3372L3.47023 17.1952L3.60646 17.0573L3.73249 16.9231L3.84758 16.7923L3.95113 16.6646L4.04264 16.5396L4.12171 16.4171L4.18802 16.2965L4.24132 16.1775L4.28144 16.0596L4.30824 15.9425L4.32164 15.8258L4.32162 15.7089L4.30819 15.5915L4.28142 15.4731L4.24141 15.3534L4.18833 15.2319L4.1224 15.1082L4.0439 14.9819L3.9532 14.8527L3.85074 14.7201L3.73707 14.584L3.61285 14.4439L3.47887 14.2996L3.33606 14.151L3.18549 13.9978L3.02845 13.8401L2.86635 13.6778L2.70082 13.511L2.5337 13.3399L2.36697 13.165L2.20283 12.9864L2.04362 12.805L1.89179 12.6213L1.74989 12.4361L1.62052 12.2504L1.5062 12.0652L1.40939 11.8817L1.33237 11.701L1.27714 11.5243L1.2454 11.3528L1.23845 11.1876L1.25713 11.0299L1.30181 10.8805L1.37235 10.7403L1.46812 10.6098L1.58801 10.4895L1.73048 10.3796L1.89361 10.2801L2.0752 10.1907L2.2728 10.1111L2.48385 10.0407L2.7057 9.9788L2.93573 9.92461L3.17136 9.87723L3.41017 9.83568L3.64988 9.79898L3.8884 9.76613L4.12386 9.73611L4.35459 9.70796L4.57914 9.68074L4.79629 9.65353L5.00499 9.6255L5.20439 9.59582L5.39382 9.56374L5.57273 9.52857L5.74073 9.48964L5.89754 9.44634L6.04298 9.39809L6.17696 9.34436L6.29947 9.28466L6.41055 9.21851L6.5103 9.14547L6.59889 9.06514L6.67649 8.97714L6.74335 8.8811L6.79974 8.77669L6.84596 8.66361L6.88234 8.5416L6.90928 8.41041L6.9272 8.26987L6.93655 8.11983L6.93787 7.96021L6.93173 7.791L6.91878 7.61228L6.89974 7.42421L6.87539 7.22709L6.84663 7.0213L6.81444 6.80741L6.77988 6.58613L6.74412 6.35833L6.70845 6.1251L6.67423 5.88769L6.6429 5.64758L6.61598 5.40644L6.59504 5.16613L6.58167 4.92869L6.57744 4.69628L6.58388 4.47121L6.60242 4.25581L6.63435 4.05242L6.6808 3.86331L6.74263 3.69062L6.82047 3.53626L6.91464 3.40187L7.02514 3.28876L7.15167 3.19783L7.2936 3.12958L7.45001 3.08403L7.61971 3.06082L7.80132 3.05912L7.99326 3.07774L8.19386 3.11518L8.40136 3.16963L8.61402 3.2391L8.83012 3.32145L9.04805 3.41446L9.26626 3.51591L9.48339 3.62359L9.6982 3.73537L9.90963 3.84923L10.1168 3.96329L10.3189 4.07579L10.5154 4.18515L10.7058 4.28995L10.8898 4.3889L11.0673 4.48087L11.2381 4.56488L11.4022 4.64006L11.5598 4.70566L11.7109 4.76104L11.8557 4.80564L11.9946 4.83899L12.1277 4.86069L12.2554 4.8704L12.3782 4.86783L12.4962 4.85274L12.6099 4.82495L12.7197 4.78432L12.8261 4.73073L12.9294 4.66414L13.0301 4.58453L13.1286 4.49195L13.2254 4.3865L13.3209 4.26837L13.4157 4.1378L13.5101 3.99514L13.6047 3.84087L13.7 3.67554L13.7963 3.49989L13.8943 3.3148L13.9943 3.12131L14.0968 2.92066L14.2023 2.71429L14.3111 2.50386L14.4236 2.29122L14.54 2.07847L14.6607 1.86787L14.7857 1.66189L14.9151 1.46312L15.049 1.27427L15.1871 1.09809L15.3293 0.937322L15.4752 0.794587L15.6244 0.672347L15.7762 0.572797L15.9301 0.497793L16.0853 0.44878L16.2411 0.426732L16.3967 0.432115L16.5513 0.464867L16.7041 0.524396L16.8544 0.609608L17.0016 0.718954L17.1451 0.850488L17.2845 1.00194L17.4195 1.1708L17.5497 1.35441L17.6752 1.55L17.7958 1.75485L17.9118 1.96625L18.0233 2.18163L18.1305 2.39858L18.2338 2.61486L18.3336 2.82846L18.4304 3.03754L18.5245 3.24053L18.6165 3.43603L18.7069 3.62286L18.7961 3.80002L18.8847 3.96668L18.9732 4.12216L19.062 4.26593L19.1518 4.39757L19.2429 4.51675L19.3359 4.62327L19.4311 4.71698L19.5292 4.79779L19.6304 4.86569L19.7353 4.92071L19.8442 4.96294L19.9576 4.99249L20.0759 5.00955L20.1994 5.01431L20.3285 5.00704L20.4636 4.98804L20.6048 4.95767L20.7525 4.91636L20.907 4.86461L21.0683 4.803L21.2365 4.73218L21.4118 4.65293L21.594 4.56614L21.7831 4.47282L21.9787 4.37411L22.1804 4.27131L22.3878 4.16585L22.6002 4.05933L22.8166 3.9535L23.0361 3.85023L23.2576 3.75152L23.4797 3.65947L23.7008 3.57624L23.9194 3.50401L24.1337 3.44492L24.3419 3.40102L24.5422 3.37422L24.7328 3.36618L24.912 3.37832L25.0781 3.4117L25.2299 3.467L25.366 3.5445L25.4858 3.64402L25.5886 3.76499L25.6742 3.90641L25.7428 4.06692L25.7947 4.24483L25.8308 4.43821L25.8521 4.64493L25.8597 4.86274L25.8552 5.08934L25.8399 5.32247L25.8157 5.55989L25.7841 5.79953L25.7468 6.03943L25.7054 6.27782L25.6615 6.51313L25.6166 6.74398L25.5721 6.96919L25.5293 7.18776L25.4893 7.39889L25.4533 7.60194L25.4222 7.79642L25.3969 7.98197L25.3783 8.15838L25.3669 8.32552L25.3635 8.48334L25.3685 8.6319L25.3826 8.7713L25.4062 8.90172L25.4396 9.02335L25.4833 9.13646L25.5375 9.24134L25.6026 9.33829L25.6787 9.42768L25.7662 9.50985L25.8652 9.58523L25.9757 9.65421L26.098 9.71725L26.2319 9.77483L26.3775 9.82745L26.5347 9.87564L26.7031 9.91997L26.8825 9.96107L27.0725 9.99957L27.2724 10.0362L27.4814 10.0716L27.6988 10.1067L27.9234 10.1422L28.1538 10.179L28.3886 10.218L28.626 10.2602L28.8641 10.3064L29.1007 10.3576L29.3334 10.4147L29.5597 10.4785L29.7771 10.5498L29.9829 10.6294L30.1744 10.7178L30.349 10.8155L30.5043 10.9227L30.6382 11.0395L30.7489 11.1658L30.8347 11.3013L30.8949 11.4456L30.9288 11.5979L30.9364 11.7575L30.9182 11.9234L30.8752 12.0945L30.8089 12.2698L30.7209 12.448L30.6135 12.6282L30.489 12.8091L30.3499 12.9899L30.1988 13.1695L30.0383 13.3471L29.871 13.5221L29.6994 13.6939L29.5257 13.862L29.3521 14.0261L29.1807 14.1859L29.0132 14.3414L28.8512 14.4925L28.6961 14.6393L28.5491 14.7819L28.4114 14.9204L28.2837 15.0553L28.1668 15.1866L28.0614 15.3147L27.9679 15.4401L27.8868 15.563L27.8185 15.6839L27.7631 15.8031L27.7209 15.9211L27.6919 16.0383L27.6764 16.1551L27.6743 16.2719L27.6856 16.3892L27.7102 16.5074L27.7481 16.6269L27.7991 16.7481L27.863 16.8714L27.9396 16.9972L28.0284 17.126L28.129 17.258L28.2409 17.3936L28.3635 17.533L28.496 17.6766L28.6374 17.8245L28.7869 17.977L28.943 18.134L29.1044 18.2955L29.2695 18.4616L29.4365 18.632L29.6034 18.8064L29.7681 18.9844L29.9283 19.1654L30.0814 19.3488L30.2251 19.5338L30.3566 19.7195L30.4735 19.9048L30.5733 20.0887L30.6536 20.2699L30.7124 20.4474L30.748 20.6198L30.7589 20.786L30.7444 20.945L30.7038 21.0957L30.6374 21.2375L30.5456 21.3695L30.4294 21.4915L30.2904 21.603L30.1305 21.7042L29.9517 21.7952L29.7564 21.8763L29.5474 21.9481L29.327 22.0113L29.0981 22.0667L28.8632 22.1151L28.6248 22.1575L28.3851 22.1949L28.1462 22.2283L27.9102 22.2587L27.6786 22.2871L27.453 22.3144L27.2346 22.3415L27.0244 22.3694L26.8235 22.3988L26.6325 22.4304L26.4518 22.465L26.2821 22.5033L26.1235 22.5459L25.9762 22.5933L25.8404 22.6461L25.7161 22.7049L25.6032 22.77L25.5016 22.8419L25.4113 22.921L25.3319 23.0078L25.3089 23.0371Z" fill="url(#paint0_linear_2036_19224)"/>
<path fill-rule="evenodd" clip-rule="evenodd" d="M23.665 7.19833L23.7576 7.27008L23.8593 7.33201L23.9704 7.38445L24.0912 7.42776L24.2218 7.46234L24.3623 7.48864L24.513 7.50715L24.6737 7.51838L24.8446 7.52294L25.0253 7.52147L25.2158 7.51468L25.4156 7.50336L25.6242 7.48838L25.8411 7.47068L26.0653 7.45132L26.296 7.43139L26.5319 7.41212L26.7716 7.3948L27.0136 7.38076L27.2559 7.37143L27.4967 7.36823L27.7338 7.37262L27.9648 7.386L28.1874 7.40972L28.3991 7.44504L28.5975 7.49306L28.7803 7.55469L28.9453 7.63063L29.0907 7.72133L29.2148 7.82693L29.3163 7.94733L29.3945 8.08209L29.449 8.23052L29.4799 8.39165L29.4877 8.56431L29.4734 8.74712L29.4383 8.93859L29.3842 9.13713L29.3129 9.34113L29.2267 9.54899L29.1277 9.75915L29.0184 9.97016L28.9009 10.1807L28.7777 10.3895L28.6509 10.5955L28.5226 10.798L28.3947 10.996L28.2689 11.189L28.1469 11.3765L28.0302 11.5583L27.9198 11.7341L27.8171 11.9038L27.7229 12.0674L27.6381 12.225L27.5634 12.3767L27.4994 12.5227L27.4467 12.6633L27.4058 12.7987L27.3769 12.9293L27.3603 13.0554L27.3564 13.1773L27.3654 13.2955L27.3873 13.4104L27.4223 13.5224L27.4705 13.6318L27.5319 13.7392L27.6065 13.8449L27.6941 13.9494L27.7946 14.0532L27.9079 14.1566L28.0336 14.2602L28.1712 14.3644L28.3204 14.4697L28.4804 14.5764L28.6505 14.685L28.8298 14.7959L29.0171 14.9095L29.2111 15.0262L29.4105 15.1463L29.6133 15.2699L29.8178 15.3975L30.0217 15.529L30.2229 15.6645L30.4187 15.8041L30.6066 15.9476L30.7839 16.0948L30.9477 16.2453L31.0956 16.3987L31.2247 16.5545L31.3329 16.7119L31.4179 16.8704L31.478 17.0291L31.5119 17.1872L31.5188 17.3439L31.4983 17.4983L31.4506 17.6497L31.3765 17.7974L31.2772 17.9407L31.1543 18.0792L31.0099 18.2124L30.8463 18.3401L30.666 18.4621L30.4718 18.5785L30.2664 18.6892L30.0525 18.7946L29.8329 18.8949L29.6099 18.9905L29.3861 19.0818L29.1635 19.1693L28.9442 19.2537L28.7298 19.3353L28.5219 19.4149L28.3218 19.493L28.1307 19.5701L27.9494 19.6468L27.7788 19.7237L27.6194 19.8014L27.4717 19.8804L27.3361 19.9611L27.2129 20.0442L27.1022 20.13L27.0042 20.2191L26.9188 20.312L26.846 20.409L26.7859 20.5105L26.7382 20.6171L26.7028 20.7291L26.6796 20.8469L26.6681 20.9708L26.6683 21.1011L26.6797 21.2382L26.7019 21.3824L26.7345 21.5338L26.777 21.6926L26.8287 21.859L26.8891 22.0329L26.9572 22.2145L27.0322 22.4035L27.1131 22.5996L27.1987 22.8026L27.2878 23.012L27.3788 23.227L27.4704 23.4469L27.5607 23.6707L27.6479 23.8972L27.7301 24.1251L27.8053 24.3529L27.8715 24.5788L27.9265 24.8012L27.9684 25.0181L27.9953 25.2275L28.0054 25.4276L27.9973 25.6163L27.9696 25.792L27.9215 25.953L27.8525 26.0979L27.7624 26.2256L27.6516 26.3353L27.5206 26.4265L27.3707 26.4992L27.2031 26.5537L27.0196 26.5904L26.8221 26.6105L26.6127 26.615L26.3934 26.6054L26.1666 26.5833L25.9344 26.5504L25.6988 26.5085L25.4618 26.4593L25.2253 26.4048L24.9907 26.3465L24.7597 26.2863L24.5333 26.2256L24.3127 26.1658L24.0987 26.1084L23.8921 26.0546L23.6933 26.0055L23.5028 25.962L23.3208 25.925L23.1475 25.8954L22.9829 25.8738L22.8271 25.8609L22.6799 25.8572L22.5412 25.8632L22.4108 25.8793L22.2884 25.9059L22.1737 25.9434L22.0665 25.9921L21.9664 26.0521L21.873 26.1238L21.7859 26.2072L21.7048 26.3027L21.6292 26.4101L21.5586 26.5296L21.4926 26.6612L21.4307 26.8047L21.3723 26.96L21.3168 27.1267L21.2638 27.3046L21.2124 27.4931L21.1622 27.6915L21.1124 27.8991L21.0623 28.1147L21.0111 28.3373L20.9581 28.5654L20.9025 28.7975L20.8434 29.0316L20.7801 29.2657L20.7119 29.4977L20.6379 29.725L20.5575 29.945L20.4701 30.1552L20.3753 30.3528L20.2726 30.5351L20.1618 30.6995L20.0428 30.8437L19.9157 30.9655L19.7809 31.0632L19.6386 31.1354L19.4894 31.1812L19.3342 31.2002L19.1737 31.1925L19.0089 31.1588L18.8406 31.1002L18.6701 31.0183L18.4982 30.915L18.3259 30.7925L18.1541 30.6533L17.9837 30.5L17.8153 30.3352L17.6497 30.1615L17.4872 29.9817L17.3283 29.7981L17.1732 29.6132L17.0222 29.4289L16.8752 29.2474L16.7324 29.0704L16.5934 28.8994L16.4583 28.7358L16.3268 28.5807L16.1986 28.4353L16.0734 28.3003L15.9509 28.1764L15.8307 28.0643L15.7124 27.9644L15.5956 27.877L15.4799 27.8025L15.3648 27.7411L15.25 27.6929L15.1351 27.6581L15.0195 27.6367L14.9029 27.6286L14.7849 27.6339L14.665 27.6524L14.5427 27.684L14.4179 27.7286L14.2899 27.7858L14.1585 27.8554L14.0233 27.9369L13.884 28.03L13.7402 28.134L13.5919 28.2482L13.4387 28.3719L13.2805 28.5041L13.1174 28.6437L12.9491 28.7894L12.776 28.9399L12.5982 29.0935L12.416 29.2484L12.2299 29.4026L12.0405 29.554L11.8484 29.7003L11.6546 29.8391L11.4601 29.9678L11.2659 30.0841L11.0733 30.1853L10.8835 30.2692L10.6979 30.3335L10.5178 30.3764L10.3445 30.3962L10.1792 30.3917L10.0232 30.3622L9.87725 30.3073L9.74224 30.2272L9.61871 30.1226L9.507 29.9947L9.4072 29.845L9.31917 29.6754L9.24256 29.488L9.17681 29.2854L9.12118 29.07L9.07479 28.8444L9.03664 28.6112L9.00567 28.3728L8.98074 28.1317L8.9607 27.89L8.94442 27.6498L8.93076 27.4128L8.91864 27.1807L8.907 26.9548L8.89488 26.7363L8.88134 26.5262L8.86553 26.3252L8.84663 26.134L8.82392 25.9531L8.7967 25.7828L8.76434 25.6234L8.72627 25.4749L8.68193 25.3376L8.63084 25.2112L8.57253 25.0958L8.50657 24.9913L8.43257 24.8973L8.35014 24.8138L8.25895 24.7405L8.15869 24.677L8.04908 24.6231L7.92987 24.5783L7.80087 24.5424L7.6619 24.5148L7.51286 24.4951L7.35371 24.4827L7.18449 24.4772L7.0053 24.4777L6.81637 24.4837L6.61803 24.4944L6.41075 24.5088L6.19515 24.5262L5.972 24.5453L5.74228 24.5652L5.50713 24.5847L5.26793 24.6024L5.02623 24.6171L4.7838 24.6273L4.54262 24.6315L4.30482 24.6284L4.07268 24.6166L3.84859 24.5946L3.63499 24.5612L3.4343 24.5153L3.24885 24.4559L3.08085 24.3822L2.93224 24.2939L2.80469 24.1907L2.69949 24.0726L2.61753 23.9401L2.55925 23.7938L2.52464 23.6346L2.51321 23.4637L2.52407 23.2824L2.55593 23.0922L2.60715 22.8947L2.67582 22.6915L2.75983 22.4841L2.85692 22.2742L2.96479 22.0632L3.08109 21.8526L3.20352 21.6434L3.32989 21.4368L3.4581 21.2338L3.58621 21.035L3.71242 20.8412L3.83511 20.6528L3.95282 20.47L4.06426 20.2933L4.16829 20.1226L4.26391 19.958L4.35026 19.7995L4.4266 19.6468L4.4923 19.4999L4.54681 19.3585L4.58968 19.2223L4.62054 19.091L4.63905 18.9642L4.64497 18.8416L4.63809 18.7228L4.61823 18.6075L4.58529 18.4951L4.53919 18.3853L4.4799 18.2776L4.40744 18.1717L4.32189 18.067L4.22339 17.9631L4.11215 17.8597L3.98845 17.7561L3.85266 17.652L3.7053 17.547L3.54696 17.4405L3.37839 17.3322L3.20052 17.2217L3.01441 17.1085L2.82133 16.9924L2.62275 16.8729L2.42034 16.7498L2.216 16.6229L2.01181 16.492L1.81005 16.3571L1.61321 16.2182L1.42387 16.0753L1.24473 15.9287L1.07853 15.7787L0.927975 15.6257L0.795673 15.4703L0.68404 15.313L0.595229 15.1547L0.531048 14.9959L0.492887 14.8377L0.481667 14.6807L0.497797 14.5259L0.541161 14.374L0.611114 14.2256L0.706518 14.0816L0.825783 13.9423L0.966927 13.8082L1.12766 13.6796L1.30545 13.5567L1.49762 13.4395L1.70142 13.3278L1.91412 13.2216L2.13303 13.1206L2.35561 13.0243L2.57946 12.9323L2.80237 12.8442L3.02235 12.7594L3.23763 12.6773L3.44664 12.5974L3.64803 12.5192L3.84067 12.442L4.02357 12.3652L4.19596 12.2884L4.35719 12.2108L4.50676 12.1321L4.64429 12.0517L4.76949 11.969L4.88218 11.8837L4.98225 11.7951L5.06965 11.7029L5.14439 11.6066L5.20653 11.5058L5.25619 11.4L5.29352 11.2889L5.31871 11.1721L5.332 11.0492L5.33368 10.9199L5.32406 10.7839L5.30354 10.6409L5.27255 10.4907L5.2316 10.333L5.18128 10.1678L5.12227 9.99508L5.05534 9.81474L4.98136 9.62693L4.90133 9.43188L4.81639 9.22993L4.72778 9.02155L4.63692 8.80737L4.54534 8.58818L4.45473 8.36493L4.36689 8.13878L4.28373 7.91101L4.20726 7.68313L4.13953 7.45678L4.08259 7.23372L4.03846 7.01584L4.00906 6.80507L3.99617 6.60339L4.00134 6.41269L4.02584 6.2348L4.07063 6.07136L4.13629 5.92382L4.22302 5.79333L4.33059 5.68073L4.45837 5.58655L4.60538 5.51091L4.77025 5.4536L4.95133 5.41407L5.14674 5.39143L5.35443 5.38453L5.57225 5.39198L5.79799 5.4122L6.02951 5.44351L6.26469 5.48411L6.50156 5.53222L6.73831 5.58604L6.97327 5.6438L7.20498 5.70385L7.43217 5.7646L7.65376 5.82458L7.86885 5.88242L8.07671 5.93689L8.27678 5.98686L8.46864 6.03132L8.65201 6.06938L8.8267 6.10021L8.99265 6.12312L9.14986 6.13746L9.29841 6.14267L9.43846 6.13826L9.57019 6.12378L9.69384 6.09884L9.80971 6.0631L9.91808 6.01625L10.0193 5.95803L10.1137 5.88823L10.2018 5.80664L10.2838 5.71313L10.3603 5.6076L10.4316 5.49001L10.4983 5.36036L10.5609 5.21875L10.6198 5.06533L10.6757 4.90037L10.7291 4.72423L10.7806 4.5374L10.831 4.34052L10.8808 4.13437L10.9308 3.91993L10.9818 3.69836L11.0345 3.47102L11.0896 3.23949L11.1481 3.00557L11.2106 2.77127L11.2781 2.53882L11.3511 2.31062L11.4304 2.08922L11.5166 1.87728L11.6103 1.67751L11.7117 1.4926L11.8212 1.32516L11.9389 1.17759L12.0647 1.05208L12.1983 0.950456L12.3395 0.874148L12.4876 0.824127L12.6419 0.800865L12.8016 0.804313L12.9658 0.833913L13.1336 0.888617L13.3038 0.966933L13.4756 1.06699L13.6479 1.18658L13.8198 1.3233L13.9905 1.47457L14.1592 1.63773L14.3253 1.81013L14.4883 1.98914L14.6478 2.17228L14.8035 2.35718L14.9552 2.54166L15.1028 2.72372L15.2463 2.90158L15.3859 3.07364L15.5216 3.23851L15.6536 3.39498L15.7823 3.54201L15.908 3.67873L16.0309 3.80441L16.1515 3.91844L16.2701 4.02035L16.3871 4.10973L16.5029 4.18628L16.6181 4.24979L16.7329 4.30007L16.8477 4.33703L16.9632 4.36061L17.0796 4.3708L17.1974 4.36764L17.317 4.35122L17.4388 4.32167L17.5632 4.27916L17.6907 4.22394L17.8215 4.15631L17.9561 4.07664L18.0947 3.98539L18.2377 3.8831L18.3853 3.77045L18.5377 3.64821L18.6951 3.51731L18.8575 3.3788L19.0249 3.23393L19.1973 3.08409L19.3744 2.93087L19.5559 2.77606L19.7414 2.62159L19.9303 2.46958L20.122 2.32232L20.3156 2.1822L20.5101 2.05169L20.7044 1.9333L20.8974 1.82952L21.0877 1.74272L21.2741 1.67513L21.4551 1.62872L21.6296 1.60515L21.7962 1.6057L21.9538 1.63122L22.1014 1.68209L22.2382 1.75818L22.3636 1.85891L22.4772 1.98321L22.5789 2.12958L22.6688 2.29618L22.7472 2.48085L22.8146 2.68121L22.8718 2.89476L22.9196 3.11891L22.959 3.35109L22.991 3.58878L23.0168 3.82961L23.0376 4.07133L23.0544 4.31191L23.0684 4.54951L23.0807 4.7825L23.0923 5.00948L23.1043 5.22923L23.1175 5.44076L23.1329 5.64324L23.1513 5.83603L23.1734 6.01861L23.1998 6.19061L23.2313 6.35178L23.2684 6.50197L23.3117 6.64111L23.3617 6.7692L23.4189 6.88632L23.4836 6.9926L23.5563 7.08821L23.6373 7.17336L23.665 7.19833Z" fill="url(#paint1_linear_2036_19224)"/>
<path d="M25.7252 15.999L26.4308 14.6595C26.9294 13.7089 26.609 12.5154 25.7011 11.9423L24.4228 11.1364L24.364 9.62506C24.3212 8.54961 23.4459 7.67604 22.373 7.63584L20.8632 7.57743L20.0564 6.2984C19.4833 5.39098 18.2897 5.07101 17.3374 5.57043L15.9999 6.2747L14.6619 5.56916C13.7126 5.06932 12.5185 5.38886 11.942 6.29798L11.1357 7.57658L9.62467 7.63499C8.55128 7.67731 7.67724 8.55172 7.63491 9.62548L7.57608 11.136L6.2974 11.9419C5.38696 12.5162 5.0674 13.711 5.56854 14.6607L6.27285 15.9986L5.56939 17.3348C5.06697 18.2866 5.38696 19.4819 6.2974 20.0553L7.57566 20.8616L7.63449 22.3726C7.67682 23.4459 8.55086 24.3199 9.62383 24.3622L11.1353 24.4219L11.9412 25.6997C12.5143 26.6088 13.7083 26.9296 14.6607 26.4297L15.9994 25.7255L17.3378 26.4306C17.6324 26.5855 17.9647 26.6672 18.2986 26.6672C19.0177 26.6672 19.6751 26.3062 20.0569 25.7013L20.8636 24.4223L22.3746 24.3639C23.448 24.3216 24.3221 23.4476 24.3644 22.3734L24.4228 20.8633L25.7023 20.0566C26.6094 19.4835 26.9298 18.29 26.4304 17.3382L25.726 15.999H25.7252Z" fill="white"/>
<path d="M18.1081 25.5255C17.9325 25.5255 17.7547 25.4844 17.5909 25.3981L16.0473 24.585C15.9359 24.5266 15.6828 24.5262 15.5719 24.585L14.027 25.3977C13.5123 25.6681 12.8664 25.4946 12.5566 25.0028L11.6271 23.5286C11.5602 23.4224 11.3406 23.2954 11.2153 23.2903L9.47143 23.2218C8.89156 23.1989 8.4192 22.7262 8.39592 22.1459L8.3282 20.4034C8.32312 20.2756 8.19868 20.0598 8.09075 19.9916L6.61567 19.0614C6.12342 18.7511 5.95072 18.1053 6.22204 17.5906L7.03428 16.0479C7.09269 15.9366 7.09311 15.6831 7.03428 15.5722L6.22161 14.0282C5.95072 13.5148 6.12342 12.869 6.61525 12.5583L8.09075 11.6284C8.19698 11.5616 8.32354 11.3423 8.3282 11.2166L8.39634 9.47373C8.4192 8.89305 8.89198 8.42071 9.47228 8.39744L11.2149 8.32972C11.3427 8.32464 11.5585 8.20021 11.6267 8.09228L12.557 6.61687C12.8685 6.12507 13.5144 5.95281 14.0279 6.22284L15.5719 7.03672C15.6832 7.09555 15.9364 7.09555 16.0473 7.03672L17.5913 6.22368C18.1064 5.95366 18.7519 6.12676 19.0613 6.61729L19.9916 8.09313C20.0585 8.19936 20.2778 8.32591 20.4035 8.33099L22.1461 8.39871C22.7264 8.42029 23.1996 8.89262 23.2224 9.47415L23.2901 11.2179C23.2952 11.3432 23.4218 11.5624 23.5276 11.6293L25.0031 12.5596C25.4941 12.8694 25.6672 13.5148 25.3976 14.029L24.5841 15.573C24.5244 15.6864 24.5244 15.9353 24.5841 16.0487L25.3963 17.5931C25.6663 18.1078 25.4932 18.7532 25.0027 19.063L23.5267 19.9933C23.4209 20.0602 23.294 20.2799 23.2893 20.4051L23.2216 22.148C23.1987 22.7283 22.7259 23.2006 22.1456 23.2239L20.4022 23.2916C20.2769 23.2967 20.0577 23.4232 19.9908 23.5291L19.06 25.0053C18.8488 25.3397 18.4823 25.5267 18.1073 25.5267L18.1081 25.5255ZM15.809 23.4812C16.0684 23.4812 16.3283 23.5371 16.5404 23.6484L18.0836 24.4615C18.1047 24.4725 18.1526 24.4598 18.1657 24.439L19.0964 22.9632C19.3513 22.559 19.8833 22.2517 20.3616 22.2327L22.105 22.165C22.1296 22.1641 22.1643 22.1298 22.1651 22.1053L22.2328 20.3624C22.2519 19.8846 22.5587 19.3525 22.963 19.0973L24.4389 18.167C24.4596 18.1539 24.4723 18.1065 24.4605 18.0841L23.6482 16.5405C23.4256 16.1173 23.4256 15.5023 23.6482 15.0791L24.4613 13.536C24.4727 13.5144 24.46 13.467 24.4389 13.4539L22.9638 12.5236C22.5596 12.2688 22.2523 11.7368 22.2333 11.2585L22.1655 9.51479C22.1647 9.49108 22.1304 9.45638 22.1063 9.45553L20.3624 9.38781C19.8833 9.36877 19.3513 9.0615 19.0969 8.65688L18.167 7.1819C18.1538 7.16116 18.1064 7.14846 18.084 7.16031L16.5412 7.97293C16.1179 8.1964 15.5025 8.1964 15.0788 7.97293L13.5352 7.15946C13.5132 7.14804 13.4653 7.16116 13.4518 7.18274L12.5223 8.65688C12.2675 9.06107 11.735 9.36834 11.2568 9.38739L9.51418 9.45511C9.49005 9.45596 9.45492 9.49108 9.45408 9.51563L9.38593 11.2585C9.36689 11.7372 9.0596 12.2696 8.65496 12.524L7.18031 13.4534C7.15999 13.4661 7.14687 13.514 7.1583 13.5351L7.97096 15.0791C8.19402 15.5019 8.19402 16.1169 7.97096 16.541L7.1583 18.0841C7.14687 18.1061 7.15957 18.1531 7.18031 18.1662L8.65538 19.0965C9.0596 19.3513 9.36689 19.8833 9.38593 20.362L9.45365 22.1044C9.4545 22.129 9.48879 22.1637 9.51333 22.1645L11.2572 22.2331C11.735 22.2521 12.2675 22.5594 12.5223 22.9645L13.4518 24.4386C13.4649 24.4593 13.5128 24.4725 13.5348 24.461L15.0788 23.6488C15.29 23.5375 15.5495 23.4817 15.8094 23.4817L15.809 23.4812Z" fill="#191B29"/>
<path d="M18.4995 20.2372C18.4152 20.2372 18.3306 20.2173 18.2531 20.1762L15.8109 18.8917L13.3687 20.1762C13.1905 20.2698 12.9742 20.2545 12.8112 20.136C12.6483 20.0175 12.5666 19.8169 12.6009 19.6184L13.0677 16.8987L11.0915 14.9734C10.9472 14.8329 10.8955 14.6225 10.9573 14.4312C11.0195 14.2395 11.185 14.1002 11.3844 14.071L14.1149 13.6736L15.3364 11.1998C15.4257 11.0191 15.6094 10.9048 15.8109 10.9048C16.0124 10.9048 16.1961 11.0191 16.2854 11.1998L17.5069 13.6736L20.2374 14.071C20.4367 14.1002 20.6022 14.2395 20.6645 14.4312C20.7267 14.6229 20.6746 14.8329 20.5303 14.9734L18.5541 16.8987L19.0209 19.6184C19.0552 19.8169 18.9735 20.0175 18.8106 20.136C18.7183 20.2029 18.6091 20.2372 18.4995 20.2372ZM15.8109 17.7651C15.8955 17.7651 15.9802 17.7854 16.0572 17.826L17.7968 18.7406L17.4642 16.8035C17.4345 16.6316 17.4917 16.4564 17.6165 16.3349L19.0239 14.9636L17.0794 14.6809C16.9071 14.6559 16.7582 14.5476 16.6811 14.3914L15.8109 12.6291L14.9407 14.3914C14.8636 14.5476 14.7146 14.6555 14.5424 14.6809L12.5979 14.9636L14.0052 16.3349C14.1301 16.4564 14.1868 16.6316 14.1576 16.8035L13.8249 18.7406L15.5645 17.826C15.6416 17.7854 15.7262 17.7651 15.8109 17.7651Z" fill="#191B29"/>
<defs>
<linearGradient id="paint0_linear_2036_19224" x1="25.3957" y1="3.56694" x2="6.60073" y2="28.4331" gradientUnits="userSpaceOnUse">
<stop stop-color="#0088FF"/>
<stop offset="1" stop-color="#39FFF3"/>
</linearGradient>
<linearGradient id="paint1_linear_2036_19224" x1="4.24746" y1="5.76525" x2="27.7543" y2="26.2349" gradientUnits="userSpaceOnUse">
<stop stop-color="#0088FF"/>
<stop offset="1" stop-color="#39FFF3"/>
</linearGradient>
</defs>
</svg>
