<svg width="24" height="24" viewBox="0 0 24 24" xmlns="http://www.w3.org/2000/svg">
    <path d="M7.2207 12.0007C7.2207 12.2175 7.26172 12.4197 7.34375 12.6072C7.42578 12.7888 7.55762 12.9675 7.73926 13.1433L14.3838 19.6472C14.6533 19.9167 14.9785 20.0515 15.3594 20.0515C15.6172 20.0515 15.8516 19.9871 16.0625 19.8582C16.2793 19.7351 16.4521 19.5681 16.5811 19.3572C16.71 19.1462 16.7744 18.9119 16.7744 18.6541C16.7744 18.2673 16.6221 17.9216 16.3174 17.6169L10.5254 11.9919L16.3174 6.37573C16.6221 6.08276 16.7744 5.73999 16.7744 5.34741C16.7744 5.0896 16.71 4.85522 16.5811 4.64429C16.4521 4.43335 16.2793 4.26636 16.0625 4.14331C15.8516 4.0144 15.6172 3.94995 15.3594 3.94995C14.9785 3.94995 14.6533 4.08179 14.3838 4.34546L7.73926 10.8494C7.56348 11.0251 7.43457 11.2068 7.35254 11.3943C7.27051 11.5759 7.22656 11.7781 7.2207 12.0007Z" fill="#70717D"/>
</svg>
