<svg width="20" height="20" viewBox="0 0 20 20" fill="none" xmlns="http://www.w3.org/2000/svg">
    <path d="M0.683596 18.0952C0.683596 17.8608 0.730471 17.6421 0.824221 17.439C0.910158 17.228 1.01563 17.0015 1.14063 16.7593L8.44141 1.7124C8.69141 1.20459 8.9375 0.856935 9.17969 0.669435C9.42188 0.481935 9.69922 0.388185 10.0117 0.388185C10.3164 0.388185 10.5938 0.481935 10.8438 0.669435C11.0859 0.856935 11.3281 1.20459 11.5703 1.7124L18.8828 16.7593C19 17.0093 19.1055 17.2397 19.1992 17.4507C19.2852 17.6538 19.3281 17.8726 19.3281 18.1069C19.3281 18.5444 19.1758 18.8882 18.8711 19.1382C18.5664 19.3882 18.1602 19.5132 17.6523 19.5132L2.3711 19.5015C1.85547 19.5015 1.44531 19.3765 1.14063 19.1265C0.83594 18.8765 0.683596 18.5327 0.683596 18.0952Z" fill="#191B29"/>
</svg>
