<svg width="24" height="24" viewBox="0 0 24 24" fill="none" xmlns="http://www.w3.org/2000/svg">
<path d="M17.0605 6.12451L15.6455 6.12451L15.6455 4.0415C15.6455 3.60205 15.5313 3.26514 15.3027 3.03076C15.0684 2.79053 14.7227 2.67041 14.2656 2.67041L10.3809 2.67041L10.3809 7.1792C10.3809 7.68897 10.2578 8.0669 10.0117 8.31299C9.75977 8.55908 9.38184 8.68213 8.87793 8.68213L4.76465 8.68213L4.76465 16.1968C4.76465 16.6362 4.88184 16.9761 5.11621 17.2163C5.35059 17.4507 5.69629 17.5679 6.15332 17.5679L7.88477 17.5679L7.88477 18.9829L6.07422 18.9829C5.16602 18.9829 4.48633 18.7515 4.03516 18.2886C3.57813 17.8257 3.34961 17.1372 3.34961 16.2231L3.34961 9.08643C3.34961 8.54736 3.41406 8.09033 3.54297 7.71533C3.67188 7.34033 3.90039 6.98291 4.22852 6.64307L8.66699 2.13428C8.97754 1.81201 9.32031 1.58643 9.69531 1.45752C10.0703 1.32276 10.4951 1.25537 10.9697 1.25537L14.3359 1.25537C15.2441 1.25537 15.9268 1.48682 16.3838 1.94971C16.835 2.4126 17.0605 3.10107 17.0605 4.01514L17.0605 6.12451ZM9.10645 6.96826L9.10645 3.36475L5.13379 7.40772L8.67578 7.40772C8.82813 7.40772 8.93945 7.37549 9.00977 7.31104C9.07422 7.24072 9.10645 7.12647 9.10645 6.96826ZM21.3232 20.6089C21.3232 21.5288 21.0977 22.2173 20.6465 22.6743C20.1895 23.1372 19.5068 23.3687 18.5986 23.3687L10.3369 23.3687C9.42871 23.3687 8.74903 23.1372 8.29785 22.6743C7.84082 22.2114 7.61231 21.523 7.61231 20.6089L7.61231 13.7446C7.61231 13.3696 7.63281 13.0532 7.67383 12.7954C7.71484 12.5376 7.79688 12.3032 7.91992 12.0923C8.03711 11.8755 8.21289 11.647 8.44727 11.4067L13.29 6.47608C13.624 6.13037 13.9521 5.90479 14.2744 5.79932C14.5967 5.69385 15.0039 5.64111 15.4961 5.64111L18.5986 5.64111C19.5068 5.64111 20.1895 5.87256 20.6465 6.33545C21.0977 6.79834 21.3232 7.48682 21.3232 8.40088L21.3232 20.6089ZM19.9082 20.5825L19.9082 8.41846C19.9082 7.98486 19.7939 7.65088 19.5654 7.4165C19.3311 7.17627 18.9854 7.05615 18.5283 7.05615L15.6455 7.05615L15.6455 12.1538C15.6455 12.7104 15.5078 13.1265 15.2324 13.4019C14.9512 13.6772 14.5381 13.8149 13.9932 13.8149L9.02735 13.8149L9.02735 20.5825C9.02735 21.022 9.14453 21.3589 9.37891 21.5933C9.61328 21.8335 9.95606 21.9536 10.4072 21.9536L18.5371 21.9536C18.9883 21.9536 19.3311 21.8335 19.5654 21.5933C19.7939 21.3589 19.9082 21.022 19.9082 20.5825ZM13.8262 12.4878C14.002 12.4878 14.1279 12.4497 14.2041 12.3735C14.2803 12.2974 14.3184 12.1714 14.3184 11.9956L14.3184 7.38135L9.29981 12.4878L13.8262 12.4878Z" fill="#191B29" fill-opacity="0.8"/>
</svg>
