<svg width="24" height="24" viewBox="0 0 24 24" xmlns="http://www.w3.org/2000/svg">
<path d="M5.42578 13.5176C5.77734 13.5176 6.09375 13.4355 6.375 13.2715C6.65625 13.1016 6.88183 12.876 7.05176 12.5947C7.22168 12.3135 7.30664 12.0029 7.30664 11.6631C7.30664 11.1416 7.125 10.7021 6.76172 10.3447C6.4043 9.98731 5.95898 9.80859 5.42578 9.80859C5.08594 9.80859 4.77539 9.89356 4.49414 10.0635C4.21289 10.2275 3.9873 10.4502 3.81738 10.7314C3.65332 11.0127 3.57129 11.3232 3.57129 11.6631C3.57129 12.0029 3.65332 12.3135 3.81738 12.5947C3.9873 12.876 4.21289 13.1016 4.49414 13.2715C4.77539 13.4355 5.08594 13.5176 5.42578 13.5176ZM12 13.5176C12.3398 13.5176 12.6504 13.4355 12.9316 13.2715C13.2129 13.1016 13.4355 12.876 13.5996 12.5947C13.7695 12.3135 13.8545 12.0029 13.8545 11.6631C13.8545 11.1416 13.6729 10.7021 13.3096 10.3447C12.9521 9.98731 12.5156 9.80859 12 9.80859C11.6602 9.80859 11.3496 9.89356 11.0684 10.0635C10.7871 10.2275 10.5615 10.4502 10.3916 10.7314C10.2275 11.0127 10.1455 11.3232 10.1455 11.6631C10.1455 12.0029 10.2275 12.3135 10.3916 12.5947C10.5615 12.876 10.7871 13.1016 11.0684 13.2715C11.3496 13.4355 11.6602 13.5176 12 13.5176ZM18.5654 13.5176C18.9053 13.5176 19.2158 13.4355 19.4971 13.2715C19.7783 13.1016 20.0039 12.876 20.1738 12.5947C20.3437 12.3135 20.4287 12.0029 20.4287 11.6631C20.4287 11.1416 20.2471 10.7022 19.8838 10.3447C19.5264 9.98731 19.0869 9.8086 18.5654 9.8086C18.2197 9.8086 17.9033 9.89356 17.6162 10.0635C17.335 10.2275 17.1094 10.4502 16.9395 10.7314C16.7754 11.0127 16.6934 11.3232 16.6934 11.6631C16.6934 12.0029 16.7754 12.3135 16.9395 12.5947C17.1094 12.876 17.335 13.1016 17.6162 13.2715C17.9033 13.4355 18.2197 13.5176 18.5654 13.5176Z" fill="#97979B"/>
</svg>
