<svg width="40" height="40" viewBox="0 0 40 40" fill="none" xmlns="http://www.w3.org/2000/svg">
<path d="M10.7539 2.37891L11.0879 8.54883C11.1113 9.11133 11.2285 9.57422 11.4395 9.9375C11.6621 10.2891 11.9727 10.6113 12.3711 10.9043L16.1855 13.6992C16.4199 13.8633 16.6016 14.0391 16.7305 14.2266C16.8594 14.4023 16.9238 14.6953 16.9238 15.1055V38.0449C16.9238 38.5254 17.0879 38.9297 17.416 39.2578C17.7559 39.5859 18.166 39.75 18.6465 39.75C19.1152 39.75 19.5137 39.5859 19.8418 39.2578C20.1816 38.9297 20.3516 38.5254 20.3516 38.0449V25.7051C20.3516 25.541 20.4102 25.4004 20.5273 25.2832C20.6445 25.166 20.7852 25.1074 20.9492 25.1074C21.1016 25.1074 21.2363 25.166 21.3535 25.2832C21.4707 25.4004 21.5293 25.541 21.5293 25.7051V38.0449C21.5293 38.5254 21.6934 38.9297 22.0215 39.2578C22.3613 39.5859 22.7715 39.75 23.252 39.75C23.7324 39.75 24.1367 39.5859 24.4648 39.2578C24.793 38.9297 24.957 38.5254 24.957 38.0449V17.6719C24.957 17.2969 25.1504 17.1094 25.5371 17.1094C25.9121 17.1094 26.0996 17.2969 26.0996 17.6719V24.4395C26.0996 24.873 26.252 25.2422 26.5566 25.5469C26.8613 25.8516 27.2305 26.0039 27.6641 26.0039C28.0977 26.0039 28.4668 25.8516 28.7715 25.5469C29.0762 25.2422 29.2285 24.873 29.2285 24.4395V16.8809C29.2285 15.5801 28.9297 14.4492 28.332 13.4883C27.7461 12.5156 26.9258 11.7598 25.8711 11.2207C24.8281 10.6816 23.6152 10.4121 22.2324 10.4121H18.5762C18.0488 10.4121 17.5977 10.3535 17.2227 10.2363C16.8477 10.1191 16.4492 9.9082 16.0273 9.60352L14.1992 8.30273L13.8652 2.2207C13.8418 1.78711 13.6719 1.42383 13.3555 1.13086C13.0391 0.826172 12.6641 0.691406 12.2305 0.726562C11.7969 0.761719 11.4336 0.9375 11.1406 1.25391C10.8594 1.57031 10.7305 1.94531 10.7539 2.37891ZM20.9492 8.44336C21.6523 8.44336 22.291 8.27344 22.8652 7.93359C23.4512 7.58203 23.9141 7.11914 24.2539 6.54492C24.6055 5.95898 24.7812 5.31445 24.7812 4.61133C24.7812 3.89648 24.6055 3.25195 24.2539 2.67773C23.9141 2.10352 23.4512 1.64648 22.8652 1.30664C22.291 0.955078 21.6523 0.779297 20.9492 0.779297C20.2344 0.779297 19.5898 0.955078 19.0156 1.30664C18.4414 1.64648 17.9785 2.10352 17.627 2.67773C17.2871 3.25195 17.1172 3.89648 17.1172 4.61133C17.1172 5.31445 17.2871 5.95898 17.627 6.54492C17.9785 7.11914 18.4414 7.58203 19.0156 7.93359C19.5898 8.27344 20.2344 8.44336 20.9492 8.44336Z" fill="url(#paint0_linear_2286_11390)" fill-opacity="0.5"/>
<defs>
<linearGradient id="paint0_linear_2286_11390" x1="20" y1="2" x2="20" y2="38" gradientUnits="userSpaceOnUse">
<stop stop-color="#191B29"/>
<stop offset="0.944448" stop-color="#191B29" stop-opacity="0.4"/>
</linearGradient>
</defs>
</svg>
