<svg width="16" height="16" viewBox="0 0 16 16" xmlns="http://www.w3.org/2000/svg">
    <path d="M8 11.708C8.08659 11.708 8.16862 11.6921 8.24609 11.6602C8.32812 11.6237 8.39876 11.5736 8.45801 11.5098L13.749 6.08887C13.8721 5.96582 13.9336 5.81999 13.9336 5.65137C13.9336 5.53288 13.9062 5.42578 13.8516 5.33008C13.7969 5.23438 13.7217 5.15918 13.626 5.10449C13.5348 5.0498 13.43 5.02246 13.3115 5.02246C13.1429 5.02246 12.9948 5.08171 12.8672 5.2002L7.63086 10.5527H8.3623L3.12598 5.2002C3.00293 5.08171 2.85482 5.02246 2.68164 5.02246C2.56315 5.02246 2.45605 5.0498 2.36035 5.10449C2.26921 5.15918 2.19629 5.23438 2.1416 5.33008C2.08691 5.42578 2.05957 5.53288 2.05957 5.65137C2.05957 5.73796 2.07552 5.81999 2.10742 5.89746C2.13932 5.97038 2.1849 6.03646 2.24414 6.0957L7.53516 11.5098C7.67188 11.6419 7.82682 11.708 8 11.708Z" fill="#454654"/>
</svg>
