<svg width="72" height="40" viewBox="0 0 72 40" fill="none" xmlns="http://www.w3.org/2000/svg">
    <path d="M5.2207 36.4102H27.2988C28.6934 36.4102 29.666 36.2109 30.2168 35.8125C30.7793 35.4258 31.0605 34.8457 31.0605 34.0723C31.0605 32.9473 30.7148 31.7578 30.0234 30.5039C29.3438 29.25 28.3594 28.0781 27.0703 26.9883C25.793 25.8867 24.2402 24.9961 22.4121 24.3164C20.5957 23.625 18.5449 23.2793 16.2598 23.2793C13.9863 23.2793 11.9355 23.625 10.1074 24.3164C8.29102 24.9961 6.73828 25.8867 5.44922 26.9883C4.16016 28.0781 3.17578 29.25 2.49609 30.5039C1.81641 31.7578 1.47656 32.9473 1.47656 34.0723C1.47656 34.8457 1.75195 35.4258 2.30273 35.8125C2.86523 36.2109 3.83789 36.4102 5.2207 36.4102ZM16.2773 20.1328C17.5312 20.1328 18.6914 19.793 19.7578 19.1133C20.8242 18.4219 21.6797 17.4902 22.3242 16.3184C22.9805 15.1465 23.3086 13.8281 23.3086 12.3633C23.3086 10.9219 22.9805 9.63281 22.3242 8.49609C21.6797 7.34766 20.8242 6.44531 19.7578 5.78906C18.6914 5.13281 17.5312 4.80469 16.2773 4.80469C15.0234 4.80469 13.8633 5.13867 12.7969 5.80664C11.7305 6.47461 10.8691 7.38281 10.2129 8.53125C9.56836 9.67969 9.24609 10.9688 9.24609 12.3984C9.24609 13.8516 9.56836 15.1641 10.2129 16.3359C10.8691 17.4961 11.7305 18.4219 12.7969 19.1133C13.8633 19.793 15.0234 20.1328 16.2773 20.1328ZM36 23.2793C34.5 23.2793 33.0938 23.4434 31.7812 23.7715C30.4805 24.0879 29.291 24.5156 28.2129 25.0547C29.748 26.25 30.9727 27.627 31.8867 29.1855C32.8125 30.7324 33.2754 32.3613 33.2754 34.0723C33.2754 34.9863 33.0762 35.7656 32.6777 36.4102H47.0391C48.4219 36.4102 49.3887 36.2109 49.9395 35.8125C50.502 35.4258 50.7832 34.8457 50.7832 34.0723C50.7832 32.9473 50.4434 31.7578 49.7637 30.5039C49.084 29.25 48.0996 28.0781 46.8105 26.9883C45.5215 25.8867 43.9629 24.9961 42.1348 24.3164C40.3184 23.625 38.2734 23.2793 36 23.2793ZM36 20.1328C37.2656 20.1328 38.4316 19.793 39.498 19.1133C40.5645 18.4219 41.4199 17.4902 42.0645 16.3184C42.709 15.1465 43.0312 13.8281 43.0312 12.3633C43.0312 10.9219 42.7031 9.63281 42.0469 8.49609C41.4023 7.34766 40.5469 6.44531 39.4805 5.78906C38.4141 5.13281 37.2539 4.80469 36 4.80469C34.7578 4.80469 33.5977 5.13867 32.5195 5.80664C31.4531 6.47461 30.5918 7.38281 29.9355 8.53125C29.291 9.67969 28.9746 10.9688 28.9863 12.3984C28.9863 13.8516 29.3086 15.1641 29.9531 16.3359C30.5977 17.4961 31.4531 18.4219 32.5195 19.1133C33.5859 19.793 34.7461 20.1328 36 20.1328ZM55.7051 23.2793C54.2168 23.2793 52.8164 23.4434 51.5039 23.7715C50.2031 24.0879 49.0137 24.5098 47.9355 25.0371C49.4824 26.2324 50.7129 27.6094 51.627 29.168C52.5527 30.7266 53.0156 32.3613 53.0156 34.0723C53.0156 34.9863 52.8164 35.7656 52.418 36.4102H66.7441C68.1387 36.4102 69.1113 36.2109 69.6621 35.8125C70.2246 35.4258 70.5059 34.8457 70.5059 34.0723C70.5059 32.9473 70.1602 31.7578 69.4688 30.5039C68.7891 29.25 67.8047 28.0781 66.5156 26.9883C65.2383 25.8867 63.6855 24.9961 61.8574 24.3164C60.041 23.625 57.9902 23.2793 55.7051 23.2793ZM55.7227 20.1328C56.9766 20.1328 58.1367 19.793 59.2031 19.1133C60.2695 18.4219 61.125 17.4902 61.7695 16.3184C62.4258 15.1465 62.7539 13.8281 62.7539 12.3633C62.7539 10.9219 62.4258 9.63281 61.7695 8.49609C61.125 7.34766 60.2695 6.44531 59.2031 5.78906C58.1367 5.13281 56.9766 4.80469 55.7227 4.80469C54.4688 4.80469 53.3086 5.13867 52.2422 5.80664C51.1758 6.47461 50.3145 7.38281 49.6582 8.53125C49.0137 9.67969 48.6914 10.9688 48.6914 12.3984C48.6914 13.8516 49.0137 15.1641 49.6582 16.3359C50.3145 17.4961 51.1758 18.4219 52.2422 19.1133C53.3086 19.793 54.4688 20.1328 55.7227 20.1328Z" fill="url(#paint0_linear_2305_9683)" fill-opacity="0.5"/>
    <defs>
        <linearGradient id="paint0_linear_2305_9683" x1="36" y1="2" x2="36" y2="38" gradientUnits="userSpaceOnUse">
            <stop stop-color="#191B29"/>
            <stop offset="0.944448" stop-color="#191B29" stop-opacity="0.4"/>
        </linearGradient>
    </defs>
</svg>
