<svg width="24" height="24" viewBox="0 0 24 24" xmlns="http://www.w3.org/2000/svg">
    <path d="M16.7764 12C16.7764 11.7832 16.7354 11.5811 16.6533 11.3936C16.5713 11.2119 16.4395 11.0332 16.2578 10.8574L9.61328 4.35352C9.34375 4.08398 9.01855 3.94922 8.6377 3.94922C8.37988 3.94922 8.14551 4.01367 7.93457 4.14258C7.71777 4.26563 7.54492 4.43262 7.41602 4.64355C7.28711 4.85449 7.22266 5.08887 7.22266 5.34668C7.22266 5.7334 7.375 6.0791 7.67969 6.38379L13.4717 12.0088L7.67969 17.625C7.375 17.918 7.22266 18.2607 7.22266 18.6533C7.22266 18.9111 7.28711 19.1455 7.41602 19.3564C7.54492 19.5674 7.71777 19.7344 7.93457 19.8574C8.14551 19.9863 8.37988 20.0508 8.6377 20.0508C9.01856 20.0508 9.34375 19.9189 9.61328 19.6553L16.2578 13.1514C16.4336 12.9756 16.5625 12.7939 16.6445 12.6064C16.7266 12.4248 16.7705 12.2227 16.7764 12Z" fill="#70717D"/>
</svg>
