<svg width="24" height="24" viewBox="0 0 24 24" xmlns="http://www.w3.org/2000/svg">
    <path d="M17.7373 10.6699L5.30957 10.6699C5.0752 10.6699 4.8584 10.7314 4.65918 10.8545C4.45996 10.9775 4.30176 11.1387 4.18457 11.3379C4.06152 11.543 4 11.7656 4 12.0059C4 12.2461 4.06152 12.4658 4.18457 12.665C4.30176 12.8701 4.45996 13.0313 4.65918 13.1484C4.8584 13.2715 5.0752 13.333 5.30957 13.333L17.7373 13.333C17.96 13.333 18.1709 13.2715 18.3701 13.1484C18.5693 13.0312 18.7334 12.8701 18.8623 12.665C18.9854 12.4658 19.0469 12.2461 19.0469 12.0059C19.0469 11.7656 18.9854 11.543 18.8623 11.3379C18.7334 11.1387 18.5693 10.9775 18.3701 10.8545C18.1709 10.7314 17.96 10.6699 17.7373 10.6699Z" fill="#70717D"/>
</svg>
