<svg width="32" height="32" viewBox="0 0 32 32" fill="none" xmlns="http://www.w3.org/2000/svg">
<path d="M16 25.9102C17.3607 25.9102 18.64 25.6497 19.8379 25.1289C21.0423 24.6081 22.1035 23.8887 23.0215 22.9707C23.9395 22.0527 24.6589 20.9948 25.1797 19.7969C25.7005 18.5924 25.9609 17.3099 25.9609 15.9492C25.9609 14.5885 25.7005 13.3092 25.1797 12.1113C24.6589 10.9069 23.9395 9.8457 23.0215 8.92773C22.1035 8.00977 21.0423 7.29036 19.8379 6.76953C18.6335 6.2487 17.3509 5.98828 15.9902 5.98828C14.6296 5.98828 13.347 6.2487 12.1426 6.76953C10.9447 7.29036 9.88672 8.00977 8.96875 8.92773C8.05729 9.8457 7.34115 10.9069 6.82031 12.1113C6.29948 13.3092 6.03906 14.5885 6.03906 15.9492C6.03906 17.3099 6.29948 18.5924 6.82031 19.7969C7.34115 20.9948 8.06055 22.0527 8.97852 22.9707C9.89648 23.8887 10.9544 24.6081 12.1523 25.1289C13.3568 25.6497 14.6393 25.9102 16 25.9102ZM16 24.25C14.8477 24.25 13.7702 24.0352 12.7676 23.6055C11.765 23.1758 10.8828 22.5833 10.1211 21.8281C9.36589 21.0664 8.77344 20.1842 8.34375 19.1816C7.92057 18.179 7.70898 17.1016 7.70898 15.9492C7.70898 14.7969 7.92057 13.7194 8.34375 12.7168C8.77344 11.7142 9.36589 10.832 10.1211 10.0703C10.8763 9.30859 11.7552 8.71615 12.7578 8.29297C13.7604 7.86328 14.8379 7.64844 15.9902 7.64844C17.1426 7.64844 18.2201 7.86328 19.2227 8.29297C20.2318 8.71615 21.1139 9.30859 21.8691 10.0703C22.6309 10.832 23.2266 11.7142 23.6562 12.7168C24.0859 13.7194 24.3008 14.7969 24.3008 15.9492C24.3008 17.1016 24.0859 18.179 23.6562 19.1816C23.2331 20.1842 22.6406 21.0664 21.8789 21.8281C21.1172 22.5833 20.235 23.1758 19.2324 23.6055C18.2298 24.0352 17.1523 24.25 16 24.25ZM15.8047 17.9707C16.0456 17.9707 16.2344 17.9023 16.3711 17.7656C16.5143 17.6289 16.5859 17.4661 16.5859 17.2773C16.5859 17.2578 16.5859 17.2383 16.5859 17.2188C16.5859 17.1927 16.5859 17.1732 16.5859 17.1602C16.5859 16.8867 16.6673 16.6523 16.8301 16.457C16.9928 16.2552 17.2467 16.0404 17.5918 15.8125C18.0605 15.5 18.4479 15.1745 18.7539 14.8359C19.0599 14.4974 19.2129 14.0352 19.2129 13.4492C19.2129 12.9089 19.0664 12.4531 18.7734 12.082C18.487 11.7109 18.1094 11.431 17.6406 11.2422C17.1719 11.0469 16.6608 10.9492 16.1074 10.9492C15.2676 10.9492 14.5807 11.1217 14.0469 11.4668C13.5195 11.8053 13.1875 12.1992 13.0508 12.6484C13.0247 12.7266 13.0052 12.8047 12.9922 12.8828C12.9792 12.9609 12.9727 13.0423 12.9727 13.127C12.9727 13.3483 13.0443 13.5176 13.1875 13.6348C13.3307 13.7454 13.4837 13.8008 13.6465 13.8008C13.8092 13.8008 13.946 13.765 14.0566 13.6934C14.1738 13.6217 14.2747 13.5273 14.3594 13.4102L14.5352 13.1758C14.6523 12.987 14.7858 12.8275 14.9355 12.6973C15.0853 12.5605 15.2513 12.4564 15.4336 12.3848C15.6224 12.3132 15.8242 12.2773 16.0391 12.2773C16.4883 12.2773 16.8464 12.3945 17.1133 12.6289C17.3802 12.8568 17.5137 13.1562 17.5137 13.5273C17.5137 13.8594 17.4095 14.1328 17.2012 14.3477C16.9928 14.556 16.6738 14.8099 16.2441 15.1094C15.8926 15.3503 15.5996 15.6172 15.3652 15.9102C15.1374 16.2031 15.0234 16.5905 15.0234 17.0723C15.0234 17.0918 15.0234 17.1146 15.0234 17.1406C15.0234 17.1602 15.0234 17.1797 15.0234 17.1992C15.0234 17.7135 15.2839 17.9707 15.8047 17.9707ZM15.7754 20.8809C16.0618 20.8809 16.3092 20.7832 16.5176 20.5879C16.7259 20.3926 16.8301 20.1517 16.8301 19.8652C16.8301 19.5788 16.7259 19.3379 16.5176 19.1426C16.3092 18.9473 16.0618 18.8496 15.7754 18.8496C15.4889 18.8496 15.2415 18.9505 15.0332 19.1523C14.8314 19.3477 14.7305 19.5853 14.7305 19.8652C14.7305 20.1452 14.8346 20.3861 15.043 20.5879C15.2513 20.7832 15.4954 20.8809 15.7754 20.8809Z" fill="#191B29" fill-opacity="0.8"/>
</svg>
