<svg width="24" height="24" viewBox="0 0 24 24" fill="none" xmlns="http://www.w3.org/2000/svg">
<g clip-path="url(#clip0_2315_9757)">
<rect width="24" height="24" fill="white"/>
<path d="M16.9805 20.9268L6.89942 20.9268C5.97949 20.9268 5.29102 20.6982 4.83399 20.2412C4.3711 19.7842 4.13965 19.1045 4.13965 18.2022L4.13965 9.43067C4.13965 8.52832 4.37109 7.84863 4.83399 7.3916C5.29102 6.93457 5.97949 6.70606 6.89941 6.70606L9.35156 6.70606L9.35156 8.1211L6.92578 8.1211C6.49219 8.1211 6.15527 8.23828 5.91504 8.47266C5.67481 8.70703 5.55469 9.05274 5.55469 9.50977L5.55469 18.123C5.55469 18.5801 5.67481 18.9258 5.91504 19.1602C6.15528 19.3945 6.49219 19.5117 6.92578 19.5117L16.9629 19.5117C17.4023 19.5117 17.7393 19.3945 17.9736 19.1602C18.208 18.9258 18.3252 18.5801 18.3252 18.123L18.3252 9.50977C18.3252 9.05273 18.208 8.70703 17.9736 8.47266C17.7393 8.23828 17.4023 8.12109 16.9629 8.12109L14.5283 8.12109L14.5283 6.70606L16.9805 6.70606C17.9004 6.70606 18.5918 6.93457 19.0547 7.3916C19.5117 7.84277 19.7402 8.52246 19.7402 9.43066L19.7402 18.2021C19.7402 19.1104 19.5117 19.79 19.0547 20.2412C18.5918 20.6982 17.9004 20.9268 16.9805 20.9268ZM11.9443 14.0449C11.751 14.0449 11.5869 13.9775 11.4521 13.8428C11.3115 13.708 11.2412 13.5469 11.2412 13.3594L11.2412 4.33301L11.2939 3.01465L10.7051 3.63867L9.36914 5.0625C9.24609 5.20313 9.08789 5.27344 8.89453 5.27344C8.71289 5.27344 8.56055 5.21485 8.4375 5.09766C8.31445 4.98047 8.25293 4.83106 8.25293 4.64942C8.25293 4.48535 8.32324 4.33301 8.46387 4.19238L11.4346 1.32715C11.5225 1.23926 11.6074 1.17774 11.6895 1.14258C11.7656 1.10742 11.8506 1.08984 11.9443 1.08984C12.0322 1.08984 12.1172 1.10742 12.1992 1.14258C12.2754 1.17774 12.3604 1.23926 12.4541 1.32715L15.4248 4.19238C15.5596 4.33301 15.627 4.48535 15.627 4.64941C15.627 4.83106 15.5684 4.98047 15.4512 5.09766C15.334 5.21484 15.1816 5.27344 14.9941 5.27344C14.7949 5.27344 14.6338 5.20313 14.5107 5.0625L13.1836 3.63867L12.5859 3.01465L12.6387 4.33301L12.6387 13.3594C12.6387 13.5469 12.5713 13.708 12.4365 13.8428C12.2959 13.9775 12.1318 14.0449 11.9443 14.0449Z" fill="#191B29" fill-opacity="0.8"/>
</g>
<defs>
<clipPath id="clip0_2315_9757">
<rect width="24" height="24" fill="white"/>
</clipPath>
</defs>
</svg>
