<svg width="24" height="24" viewBox="0 0 24 24" fill="none" xmlns="http://www.w3.org/2000/svg">
<g clip-path="url(#clip0_2315_9751)">
<rect width="24" height="24" fill="white"/>
<rect width="24" height="21.3333" transform="translate(24 22.3335) rotate(-180)" fill="white"/>
<path d="M19.7695 11.3799C19.7695 10.2959 19.5703 9.28223 19.1719 8.33887C18.7676 7.40137 18.2109 6.57519 17.502 5.86035C16.793 5.15137 15.9697 4.59766 15.0322 4.19922C14.0889 3.80078 13.0781 3.60156 12 3.60156C10.9277 3.60156 9.92285 3.80078 8.98535 4.19922C8.04199 4.59766 7.21582 5.15137 6.50684 5.86035C5.79199 6.57519 5.23535 7.40137 4.83692 8.33887C4.43848 9.28223 4.23926 10.2959 4.23926 11.3799C4.23926 11.5908 4.30664 11.7637 4.44141 11.8984C4.57617 12.0391 4.75195 12.1094 4.96875 12.1094C5.17969 12.1094 5.34668 12.0391 5.46973 11.8984C5.59277 11.7637 5.6543 11.5908 5.6543 11.3799C5.6543 10.4951 5.81836 9.66601 6.14649 8.89258C6.47461 8.125 6.92871 7.44824 7.50879 6.8623C8.08887 6.28223 8.7627 5.83105 9.53028 5.50879C10.2979 5.18066 11.1211 5.0166 12 5.0166C12.8848 5.0166 13.7109 5.18066 14.4785 5.50879C15.2461 5.83105 15.9199 6.28223 16.5 6.8623C17.0801 7.44824 17.5342 8.125 17.8623 8.89258C18.1904 9.66602 18.3545 10.4951 18.3545 11.3799C18.3545 12.2588 18.1904 13.082 17.8623 13.8496C17.5342 14.6172 17.0801 15.291 16.5 15.8711C15.9199 16.4512 15.2461 16.9053 14.4785 17.2334C13.7109 17.5615 12.8848 17.7256 12 17.7256C11.666 17.7256 11.3467 17.7109 11.042 17.6816C10.7314 17.6523 10.4473 17.6084 10.1895 17.5498L12.8174 14.9482C12.8818 14.8779 12.9316 14.7988 12.9668 14.7109C13.002 14.6289 13.0195 14.541 13.0195 14.4473C13.0195 14.248 12.9521 14.0811 12.8174 13.9463C12.6826 13.8115 12.5186 13.7441 12.3252 13.7441C12.1084 13.7441 11.9385 13.8115 11.8154 13.9463L8.19434 17.585C8.11816 17.6611 8.0625 17.7432 8.02734 17.8311C7.99219 17.9189 7.97461 18.0127 7.97461 18.1123C7.97461 18.3115 8.04785 18.4873 8.19434 18.6396L11.8154 22.3135C11.9443 22.4541 12.1143 22.5244 12.3252 22.5244C12.5244 22.5244 12.6914 22.4541 12.8262 22.3135C12.9551 22.1787 13.0195 22.0088 13.0195 21.8037C13.0195 21.7158 13.0049 21.6279 12.9756 21.54C12.9404 21.4521 12.8906 21.373 12.8262 21.3027L10.4883 18.9912C10.7168 19.0381 10.96 19.0732 11.2178 19.0967C11.4697 19.126 11.7305 19.1406 12 19.1406C13.0781 19.1406 14.0889 18.9385 15.0322 18.5342C15.9697 18.1357 16.793 17.582 17.502 16.873C18.2109 16.1641 18.7676 15.3379 19.1719 14.3945C19.5703 13.457 19.7695 12.4521 19.7695 11.3799Z" fill="#191B29" fill-opacity="0.8"/>
</g>
<defs>
<clipPath id="clip0_2315_9751">
<rect width="24" height="24" fill="white"/>
</clipPath>
</defs>
</svg>
