<svg width="66" height="40" viewBox="0 0 66 40" fill="none" xmlns="http://www.w3.org/2000/svg">
    <path d="M14.3496 19.9395C15.4863 19.9395 16.5352 19.6348 17.4961 19.0254C18.457 18.4043 19.2305 17.5605 19.8164 16.4941C20.4141 15.4277 20.7129 14.2324 20.7129 12.9082C20.7129 11.6074 20.4141 10.4473 19.8164 9.42773C19.2305 8.39648 18.4512 7.58203 17.4785 6.98438C16.5176 6.38672 15.4746 6.08789 14.3496 6.08789C13.2129 6.08789 12.1582 6.39258 11.1855 7.00195C10.2246 7.59961 9.44531 8.41406 8.84766 9.44531C8.26172 10.4766 7.97461 11.6426 7.98633 12.9434C7.98633 14.2559 8.2793 15.4453 8.86523 16.5117C9.45117 17.5664 10.2246 18.4043 11.1855 19.0254C12.1582 19.6348 13.2129 19.9395 14.3496 19.9395ZM4.18945 34.5645H24.4922C25.3594 34.5645 26.0273 34.3711 26.4961 33.9844C26.9766 33.6094 27.2168 33.082 27.2168 32.4023C27.2168 31.3828 26.9297 30.3105 26.3555 29.1855C25.7812 28.0605 24.9434 27.0059 23.8418 26.0215C22.752 25.0254 21.4043 24.2227 19.7988 23.6133C18.2051 22.9922 16.3828 22.6816 14.332 22.6816C12.2812 22.6816 10.459 22.9922 8.86523 23.6133C7.27148 24.2227 5.92383 25.0254 4.82227 26.0215C3.7207 27.0059 2.88281 28.0605 2.30859 29.1855C1.74609 30.3105 1.46484 31.3828 1.46484 32.4023C1.46484 33.082 1.69922 33.6094 2.16797 33.9844C2.64844 34.3711 3.32227 34.5645 4.18945 34.5645ZM51.668 19.9395C52.8047 19.9395 53.8535 19.6348 54.8145 19.0254C55.7754 18.4043 56.5488 17.5605 57.1348 16.4941C57.7324 15.4277 58.0312 14.2324 58.0312 12.9082C58.0312 11.6074 57.7324 10.4473 57.1348 9.42773C56.5488 8.39648 55.7695 7.58203 54.7969 6.98438C53.8359 6.38672 52.793 6.08789 51.668 6.08789C50.5312 6.08789 49.4766 6.39258 48.5039 7.00195C47.543 7.59961 46.7637 8.41406 46.166 9.44531C45.5801 10.4766 45.293 11.6426 45.3047 12.9434C45.3047 14.2559 45.5977 15.4453 46.1836 16.5117C46.7695 17.5664 47.543 18.4043 48.5039 19.0254C49.4766 19.6348 50.5312 19.9395 51.668 19.9395ZM41.5078 34.5645H61.8105C62.6777 34.5645 63.3457 34.3711 63.8145 33.9844C64.2949 33.6094 64.5352 33.082 64.5352 32.4023C64.5352 31.3828 64.248 30.3105 63.6738 29.1855C63.0996 28.0605 62.2617 27.0059 61.1602 26.0215C60.0703 25.0254 58.7227 24.2227 57.1172 23.6133C55.5234 22.9922 53.7012 22.6816 51.6504 22.6816C49.5996 22.6816 47.7773 22.9922 46.1836 23.6133C44.5898 24.2227 43.2422 25.0254 42.1406 26.0215C41.0391 27.0059 40.2012 28.0605 39.627 29.1855C39.0645 30.3105 38.7832 31.3828 38.7832 32.4023C38.7832 33.082 39.0176 33.6094 39.4863 33.9844C39.9668 34.3711 40.6406 34.5645 41.5078 34.5645ZM26.0918 21.293C26.7363 21.293 27.2871 21.0645 27.7441 20.6074C28.2012 20.1504 28.4297 19.5996 28.4297 18.9551C28.4297 18.3105 28.2012 17.7656 27.7441 17.3203C27.2871 16.8633 26.7363 16.6348 26.0918 16.6348C25.4473 16.6348 24.8965 16.8633 24.4395 17.3203C23.9941 17.7656 23.7715 18.3105 23.7715 18.9551C23.7715 19.5996 23.9941 20.1504 24.4395 20.6074C24.8965 21.0645 25.4473 21.293 26.0918 21.293ZM33 21.293C33.6445 21.293 34.1895 21.0645 34.6348 20.6074C35.0918 20.1504 35.3203 19.5996 35.3203 18.9551C35.3203 18.3105 35.0918 17.7656 34.6348 17.3203C34.1895 16.8633 33.6445 16.6348 33 16.6348C32.3555 16.6348 31.8047 16.8633 31.3477 17.3203C30.9023 17.7656 30.6797 18.3105 30.6797 18.9551C30.6797 19.5996 30.9023 20.1504 31.3477 20.6074C31.8047 21.0645 32.3555 21.293 33 21.293ZM39.873 21.293C40.5293 21.293 41.0801 21.0645 41.5254 20.6074C41.9824 20.1504 42.2109 19.5996 42.2109 18.9551C42.2109 18.3105 41.9824 17.7656 41.5254 17.3203C41.0801 16.8633 40.5293 16.6348 39.873 16.6348C39.2285 16.6348 38.6777 16.8633 38.2207 17.3203C37.7754 17.7656 37.5527 18.3105 37.5527 18.9551C37.5527 19.5996 37.7754 20.1504 38.2207 20.6074C38.6777 21.0645 39.2285 21.293 39.873 21.293Z" fill="url(#paint0_linear_2305_9675)" fill-opacity="0.5"/>
    <defs>
        <linearGradient id="paint0_linear_2305_9675" x1="33" y1="2" x2="33" y2="38" gradientUnits="userSpaceOnUse">
            <stop stop-color="#191B29"/>
            <stop offset="0.944448" stop-color="#191B29" stop-opacity="0.4"/>
        </linearGradient>
    </defs>
</svg>
