<svg width="84" height="84" viewBox="0 0 84 84" fill="none" xmlns="http://www.w3.org/2000/svg">
<path fill-rule="evenodd" clip-rule="evenodd" d="M36.7779 34.6986L36.8112 34.5948L36.771 34.3754L36.6567 34.0326L36.4657 33.5545L36.193 32.9251L35.8321 32.1242L35.3748 31.1275L34.8122 29.9075L34.1356 28.4351L33.3384 26.6828L32.4191 24.6299L31.3843 22.2703L30.2535 19.6223L29.0636 16.7409L27.8724 13.7287L26.7586 10.7418L25.817 7.98508L25.1464 5.69228L24.8327 4.0902L24.9294 3.35443L25.4442 3.56939L26.3351 4.70769L27.5191 6.63692L28.8903 9.15134L30.3403 12.0157L31.7755 15.0067L33.1262 17.9413L34.3487 20.6892L35.4223 23.1712L36.3435 25.3506L37.1198 27.2211L37.7652 28.7955L38.2957 30.0968L38.7276 31.1512L39.0755 31.9846L39.3524 32.619L39.5688 33.0717L39.733 33.3539L39.851 33.4697L39.9272 33.4164L39.9667 33.1946L39.9741 32.8027L39.9526 32.2314L39.9043 31.4649L39.8308 30.4813L39.6154 27.7535L39.4792 25.9513L39.3305 23.8246L39.1776 21.3649L39.032 18.5884L38.9091 15.5494L38.8275 12.3516L38.8074 9.15613L38.8675 6.17738L39.0207 3.66335L39.2706 1.85892L39.608 0.958862L40.0121 1.06428L40.4531 2.15836L40.899 4.11107L41.3205 6.71077L41.6965 9.71016L42.0152 12.8708L42.2737 15.9947L42.4754 18.9384L42.6282 21.6133L42.7413 23.9763L42.8242 26.0182L42.8854 27.7511L42.971 30.3914L43.0064 31.3571L43.0424 32.1232L43.0825 32.7129L43.1297 33.1449L43.1869 33.4335L43.2571 33.5884L43.3436 33.6149L43.45 33.5143L43.5809 33.2833L43.7416 32.9146L43.9386 32.3968L44.1799 31.714L44.4748 30.8467L45.2715 28.4643L45.7994 26.9001L46.4318 25.0595L47.1804 22.934L48.0518 20.5348L49.0438 17.9035L50.1404 15.1227L51.307 12.3237L52.4878 9.68628L53.6073 7.42513L54.5779 5.76164L55.3131 4.88377L55.7449 4.90469L55.8381 5.8347L55.5976 7.57741L55.0664 9.95219L54.3137 12.7341L53.4201 15.6967L52.4628 18.6456L51.5064 21.4361L50.5984 23.9763L49.7693 26.22L49.0354 28.1551L48.4026 29.7924L47.4332 32.2707L47.0861 33.1684L46.8228 33.8739L46.6388 34.4088L46.5314 34.7893L46.5008 35.026L46.5504 35.1231L46.6855 35.0822L46.9091 34.9081L47.2278 34.6002L47.6521 34.1526L48.1963 33.5545L48.8781 32.7916L49.7183 31.8472L50.7393 30.7042L51.9625 29.3487L53.405 27.7744L55.0732 25.9892L56.9556 24.0237L59.0135 21.9388L61.1734 19.8323L63.3226 17.8388L65.3143 16.1202L66.9833 14.8449L68.172 14.1573L68.7621 14.1469L68.7008 14.8257L68.0126 16.1247L66.7912 17.9099L65.1769 20.012L63.3262 22.2596L61.3857 24.5041L59.4745 26.6345L57.6776 28.5796L56.0469 30.3034L54.6075 31.7962L53.3651 33.0661L52.3132 34.131L51.4385 35.0132L50.7249 35.7357L50.1565 36.3201L49.7187 36.7853L49.3996 37.1474L49.19 37.4191L49.0839 37.6105L49.0783 37.7286L49.1736 37.7783L49.3735 37.762L49.6853 37.68L50.1197 37.5308L50.6916 37.3108L51.4195 37.0153L52.326 36.638L53.4366 36.1721L54.7786 35.6113L56.3783 34.9512L58.2561 34.1913L60.4202 33.3386L62.8568 32.4106L65.5191 31.4394L68.3171 30.4744L71.111 29.5818L73.7147 28.8407L75.9124 28.3328L77.4906 28.1282L78.2794 28.2692L78.19 28.7593L77.2367 29.5603L75.5328 30.6001L73.2635 31.7881L70.6456 33.0328L67.8883 34.2556L65.1659 35.3991L62.6043 36.4282L60.2817 37.3273L58.2361 38.0953L56.4762 38.7402L54.9918 39.2748L53.7629 39.714L52.7655 40.072L51.976 40.3622L51.3738 40.596L50.9428 40.7829L50.6725 40.9306L50.559 41.0453L50.6048 41.1317L50.8104 41.1952L51.1771 41.2406L51.7137 41.2722L52.4352 41.2937L53.3626 41.3088L55.94 41.3374L57.6468 41.3619L59.665 41.4029L62.005 41.4696L64.6544 41.5725L67.5657 41.7226L70.6442 41.9299L73.7404 42.2008L76.6524 42.5355L79.143 42.9252L80.9737 43.3516L81.9499 43.7876L81.9635 44.2021L81.0187 44.5654L79.2305 44.8552L76.7961 45.06L73.9517 45.1797L70.9286 45.2236L67.9222 45.2068L65.0758 45.1463L62.4798 45.0584L60.1797 44.9573L58.1876 44.8537L56.4939 44.7557L53.908 44.5972L52.9606 44.5428L52.2082 44.5075L51.6286 44.4928L51.2034 44.5001L50.9187 44.531L50.7653 44.5876L50.7377 44.6728L50.8349 44.7904L51.0601 44.9451L51.4205 45.1431L51.9275 45.3922L52.5968 45.702L53.4479 46.0838L55.79 47.1196L57.3311 47.8054L59.1479 48.6245L61.2511 49.5904L63.6322 50.7097L66.2537 51.9774L69.0378 53.3708L71.8581 54.8437L74.5394 56.3233L76.8688 57.7125L78.6231 58.8999L79.6085 59.7769L79.7018 60.259L78.8812 60.3047L77.2323 59.924L74.9283 59.1751L72.1915 58.1494L69.2495 56.9516L66.3009 55.6814L63.496 54.4213L60.9321 53.2311L58.6602 52.1485L56.6954 51.1929L55.0296 50.3704L52.5023 49.1098L51.585 48.6558L50.8634 48.3076L50.3158 48.0584L49.9256 47.9037L49.6823 47.8422L49.5817 47.877L49.6227 48.0134L49.8011 48.2542L50.1174 48.6058L50.578 49.0795L51.1942 49.6907L51.9813 50.459L52.9572 51.4074L54.1406 52.5606L55.5474 53.9428L57.1861 55.5727L59.0511 57.4578L61.114 59.5852L63.315 61.9116L65.556 64.3547L67.6991 66.7882L69.5758 69.0464L71.0075 70.9419L71.8365 72.295L71.9598 72.969L71.3539 72.9012L70.0813 72.1164L68.2759 70.7195L66.1126 68.8695L63.773 66.7454L61.4166 64.5156L59.1656 62.3178L57.0997 60.2502L55.2615 58.373L53.6643 56.7156L52.3021 55.2845L51.1577 54.0721L50.2084 53.0627L49.4305 52.2377L48.8013 51.5783L48.301 51.0675L47.9128 50.691L47.623 50.4378L47.4214 50.3003L47.3004 50.2747L47.2553 50.3605L47.2838 50.561L47.3861 50.8835L47.5647 51.3391L47.8239 51.9432L48.1702 52.7152L48.6116 53.6789L49.8148 56.2918L50.5925 57.9979L51.4925 60.0019L52.5098 62.3132L53.6273 64.9178L54.8111 67.7676L56.0069 70.768L57.139 73.7716L58.1148 76.5802L58.8348 78.9627L59.2101 80.6884L59.1805 81.5706L58.7307 81.5081L57.895 80.5105L56.7509 78.6948L55.4022 76.2581L53.9579 73.4338L52.515 70.4495L51.1472 67.4957L49.9024 64.7115L48.8045 62.1838L47.8593 59.9551L47.0607 58.0359L46.3955 56.4157L45.4013 53.9807L45.0409 53.1137L44.7534 52.4489L44.528 51.9682L44.3561 51.6593L44.231 51.517L44.1485 51.5432L44.1035 51.7382L44.0911 52.1026L44.1082 52.6444L44.1524 53.3785L44.222 54.3259L44.4305 56.9675L44.5642 58.7199L44.7113 60.7938L44.8643 63.2008L45.012 65.9293L45.1397 68.9321L45.2292 72.1138L45.2604 75.3228L45.2142 78.3521L45.0763 80.9572L44.8416 82.8896L44.5169 83.9433L44.1217 84L43.6843 83.0574L43.2372 81.2288L42.8101 78.716L42.4258 75.7636L42.0976 72.614L41.8296 69.4732L41.6193 66.4935L41.4593 63.7719L41.3405 61.3579L41.2534 59.2652L41.1893 57.4845L41.1009 54.7619L41.0653 53.7621L41.0296 52.9659L40.9904 52.3495L40.9445 51.8934L40.8891 51.5827L40.8211 51.407L40.7375 51.3602L40.6346 51.4405L40.5079 51.6504L40.3524 51.9964L40.1616 52.4896L39.928 53.1448L39.6423 53.9813L38.8699 56.2903L38.3574 57.8121L37.7425 59.6077L37.0131 61.688L36.1614 64.0454L35.1879 66.6441L34.1062 69.4086L32.9475 72.2156L31.7644 74.8925L30.6294 77.2286L29.6292 79.0013L28.8512 80.0142L28.3677 80.14L28.2199 79.3509L28.4093 77.7273L28.8983 75.4388L29.621 72.7061L30.4975 69.7582L31.4494 66.796L32.4096 63.9727L33.3277 61.3885L34.1708 59.0961L34.9205 57.1121L35.5695 55.4287L36.1178 54.0243L36.5695 52.8712L36.9305 51.9405L37.2067 51.2059L37.4031 50.6451L37.5226 50.2409L37.5657 49.9817L37.5292 49.8624L37.408 49.8817L37.1988 50.0347L36.8958 50.321L36.4892 50.7458L35.9652 51.319L35.3066 52.0546L34.4931 52.9689L33.5024 54.0792L32.3127 55.4002L30.906 56.9398L29.2735 58.6927L27.4234 60.6327L25.3895 62.7042L23.2394 64.8153L21.0794 66.8372L19.0517 68.6109L17.3202 69.9676L16.0457 70.7565L15.3549 70.8777L15.312 70.306L15.9051 69.0982L17.0501 67.3797L18.6123 65.3162L20.4356 63.081L22.3707 60.8275L24.2931 58.6732L26.1125 56.6954L27.772 54.9351L29.2426 53.4057L30.5161 52.1013L31.5976 51.0052L32.4995 50.0955L33.2376 49.349L33.8282 48.744L34.2859 48.2609L34.6232 47.8834L34.8497 47.598L34.9721 47.3944L34.9936 47.2649L34.9145 47.2046L34.7317 47.2104L34.4383 47.2819L34.0243 47.4203L33.4755 47.6286L32.7738 47.9118L31.8974 48.2756L29.5178 49.2722L27.9608 49.9164L26.1282 50.6606L24.0094 51.4994L21.6142 52.4171L18.983 53.3842L16.1986 54.3543L13.3926 55.2635L10.7446 56.0343L8.4675 56.5845L6.77757 56.8411L5.85463 56.7565L5.80235 56.3204L6.62334 55.5648L8.2187 54.5573L10.4122 53.3866L12.9892 52.1452L15.737 50.9145L18.4747 49.7555L21.0683 48.7066L23.4324 47.7864L25.5234 46.9979L27.3285 46.3342L28.8556 45.783L31.1563 44.9596L31.9774 44.6594L32.6082 44.4173L33.0656 44.2235L33.361 44.07L33.4996 43.9504L33.4794 43.8598L33.2991 43.793L32.9584 43.745L32.4498 43.7115L31.759 43.6886L30.866 43.6727L28.3706 43.645L26.7114 43.6223L24.744 43.5845L22.4551 43.5226L19.8529 43.4262L16.9783 43.2843L13.9179 43.0867L10.8122 42.8261L7.85558 42.5013L5.28148 42.1193L3.33093 41.6972L2.20872 41.2607L2.03906 40.8406L2.83625 40.4674L4.50171 40.1648L6.84856 39.9462L9.64378 39.8134L12.6526 39.7583L15.6727 39.7666L18.552 39.8213L21.1919 39.9058L23.5407 40.0056L25.5816 40.1094L27.3216 40.2087L29.9875 40.3719L30.9683 40.4292L31.7501 40.4676L32.356 40.4857L32.8047 40.482L33.111 40.455L33.2849 40.4027L33.3324 40.3222L33.2551 40.2101L33.0507 40.0617L32.7125 39.871L32.2297 39.6307L31.5875 39.3313L30.7668 38.9618L29.7451 38.509L28.4974 37.9577L26.9985 37.2918L25.2266 36.4949L23.1691 35.5531L20.8306 34.4583L18.2433 33.2132L15.478 31.8374L12.6529 30.373L9.93595 28.8885L7.53546 27.4776L5.67526 26.2505L4.55689 25.3175L4.31718 24.7684L4.99532 24.6526L6.52207 24.9682L8.73581 25.6639L11.4193 26.6524L14.343 27.8298L17.3019 29.0945L20.1376 30.3608L22.7443 31.5653L25.0646 32.6667L27.0782 33.6432L28.7904 34.4869L30.2213 35.1993L31.398 35.7869L32.3487 36.2586L33.0999 36.6231L33.674 36.8877L34.0884 37.0573L34.3546 37.1337L34.478 37.1147L34.4592 36.9946L34.3026 36.7708L34.0085 36.4374L33.5716 35.9841L32.9811 35.3961L32.2224 34.6542L30.1286 32.6172L28.7582 31.273L27.1565 29.6834L25.3263 27.8387L23.2919 25.7479L21.1073 23.4488L18.8645 21.017L16.6951 18.5718L14.7639 16.2734L13.2498 14.3074L12.3161 12.8573L12.0767 12.0687L12.5685 12.0177L13.7423 12.6935L15.4739 14.0026L17.5925 15.7923L19.9157 17.8846L22.2786 20.1077L24.5528 22.3182L26.6519 24.4116L28.5279 26.3217L30.1635 28.015L31.5621 29.482L32.7398 30.7283L34.5222 32.6219L35.1737 33.3064L35.6933 33.8399L36.0984 34.237L36.403 34.5092L36.6181 34.6648L36.7516 34.7081L36.7779 34.6986Z" fill="url(#paint0_linear_2053_9195)"/>
<path fill-rule="evenodd" clip-rule="evenodd" d="M68.4935 42.4834L68.5735 42.7486L68.8016 43.0185L69.1613 43.297L69.6371 43.5875L70.2139 43.8928L70.8757 44.2151L71.6055 44.5557L72.3844 44.9154L73.1919 45.2938L74.0053 45.6897L74.8006 46.1007L75.5526 46.5232L76.2361 46.9529L76.8273 47.3844L77.3045 47.8117L77.6498 48.2286L77.8502 48.6289L77.8984 49.0069L77.7933 49.3577L77.5399 49.6777L77.1488 49.9646L76.6354 50.2176L76.0186 50.4371L75.3197 50.6253L74.5608 50.785L73.7637 50.9202L72.9495 51.0354L72.137 51.1353L71.3431 51.2251L70.582 51.3097L69.8656 51.3938L69.2034 51.4821L68.6028 51.5788L68.0695 51.6878L67.6073 51.813L67.2191 51.9576L66.9065 52.1248L66.6703 52.3175L66.5105 52.5385L66.4267 52.7902L66.4177 53.0749L66.4819 53.3945L66.617 53.7509L66.8201 54.1452L67.0874 54.5784L67.4141 55.0506L67.7941 55.5611L68.22 56.1084L68.6829 56.6897L69.1718 57.3007L69.6742 57.9359L70.1757 58.5877L70.66 59.2472L71.1099 59.9034L71.5071 60.5444L71.8335 61.1568L72.0717 61.7271L72.2066 62.2417L72.2257 62.6884L72.1208 63.0567L71.8881 63.3386L71.5291 63.5296L71.0504 63.6288L70.4632 63.6391L69.7828 63.5669L69.0277 63.4218L68.2179 63.216L67.3745 62.9633L66.5182 62.6789L65.6685 62.378L64.8433 62.076L64.0586 61.7876L63.3283 61.5269L62.6644 61.3074L62.0772 61.1419L61.576 61.0431L61.1693 61.024L60.8656 61.0983L60.674 61.2809L60.5916 61.5759L60.6038 61.9747L60.6967 62.4687L60.8573 63.0494L61.073 63.7076L61.3309 64.433L61.9191 66.0363L62.2206 66.8846L62.5069 67.7411L62.7627 68.5863L62.9728 69.3995L63.1232 70.1597L63.2015 70.8467L63.1981 71.4419L63.1061 71.9297L62.9224 72.2986L62.6476 72.5414L62.286 72.6565L61.8452 72.647L61.3355 72.5209L60.7692 72.2904L60.1596 71.9704L59.5204 71.5782L58.8649 71.1319L58.2053 70.6496L57.5525 70.1489L56.9157 69.6461L56.3024 69.1556L55.7186 68.6902L55.1685 68.261L54.6549 67.8771L54.1797 67.5459L53.7434 67.2737L53.346 67.0653L52.9866 66.9247L52.6641 66.8547L52.3767 66.8578L52.1224 66.9357L51.8991 67.0894L51.7042 67.3195L51.5351 67.6261L51.3888 68.0083L51.2622 68.4646L51.152 68.9924L51.0545 69.5878L50.9657 70.2453L50.8814 70.9577L50.797 71.7156L50.7078 72.5074L50.6088 73.319L50.4951 74.1337L50.3616 74.9328L50.204 75.6956L50.0182 76.4001L49.8013 77.0242L49.551 77.5465L49.2668 77.948L48.9493 78.2128L48.6008 78.33L48.2248 78.294L47.8261 78.1056L47.4103 77.7714L46.9836 77.3041L46.5522 76.7213L46.1221 76.0442L45.6988 75.2968L45.2868 74.5041L44.8896 73.6912L44.5097 72.8825L44.1485 72.1004L43.8064 71.3661L43.4827 70.6982L43.1761 70.1141L42.8845 69.6297L42.6051 69.2602L42.3347 69.021L42.0692 68.9285L41.8042 68.996L41.5348 69.213L41.2571 69.5628L40.9677 70.0299L40.6636 70.5992L40.3428 71.2548L40.0036 71.9798L39.6454 72.7556L39.2685 73.5616L38.8739 74.3754L38.464 75.1729L38.0422 75.9293L37.6129 76.6192L37.1813 77.2185L36.7535 77.7055L36.3355 78.0618L35.9337 78.2741L35.5537 78.3346L35.2005 78.2416L34.878 77.9997L34.5884 77.619L34.3327 77.1147L34.1105 76.5054L33.92 75.8123L33.7581 75.0573L33.6211 74.2626L33.5046 73.449L33.4035 72.6357L33.3131 71.8398L33.2283 71.0756L33.1443 70.3553L33.0565 69.6885L32.9607 69.0828L32.8527 68.544L32.729 68.076L32.5861 67.6819L32.4208 67.3632L32.2302 67.1209L32.0115 66.955L31.7624 66.8652L31.4804 66.8503L31.1636 66.9087L30.8102 67.0383L30.4189 67.2361L29.9888 67.4985L29.5197 67.8206L29.0122 68.1966L28.4677 68.6192L27.889 69.0795L27.2801 69.5668L26.6466 70.0686L25.9958 70.5707L25.3366 71.057L24.6796 71.5103L24.0369 71.9123L23.4217 72.245L22.8476 72.4909L22.328 72.6344L21.8755 72.6631L21.5007 72.5683L21.2117 72.3458L21.0133 71.9967L20.9069 71.5271L20.8897 70.9481L20.9556 70.2745L21.0953 69.5246L21.2968 68.7185L21.5463 67.877L21.8288 67.021L22.1289 66.1701L22.4314 65.3424L22.7214 64.5539L22.9848 63.8189L23.2081 63.1493L23.3783 62.5556L23.4829 62.0473L23.5088 61.6327L23.4425 61.3206L23.269 61.1198L22.9826 61.0292L22.5917 61.0344L22.105 61.1214L21.5309 61.2771L20.8785 61.4888L20.1581 61.7438L18.5614 62.3296L17.7145 62.6317L16.8579 62.9198L16.0111 63.1785L15.1945 63.3927L14.4293 63.5484L13.7358 63.6329L13.1326 63.6363L12.6358 63.5515L12.2571 63.3751L12.0041 63.1075L11.8789 62.7526L11.8787 62.3177L11.9959 61.8131L12.2186 61.2508L12.5321 60.6442L12.9192 60.0069L13.3619 59.3522L13.842 58.6925L14.3418 58.0388L14.8451 57.4004L15.3371 56.7851L15.8049 56.1988L16.2373 55.6459L16.6252 55.1293L16.9608 54.651L17.2379 54.2116L17.4515 53.8111L17.5977 53.4488L17.6733 53.1234L17.6761 52.8333L17.6043 52.5765L17.4567 52.3508L17.2326 52.1537L16.9321 51.9826L16.5559 51.8346L16.1054 51.7066L15.5831 51.5952L14.9929 51.4968L14.3401 51.4075L13.6318 51.323L12.0874 51.1502L11.2769 51.0522L10.4617 50.9398L9.66057 50.8081L8.89411 50.6525L8.18413 50.4691L7.55282 50.2547L7.02161 50.0072L6.6099 49.7257L6.3337 49.4108L6.20448 49.0647L6.22819 48.6907L6.4047 48.2936L6.72766 47.879L7.18493 47.4529L7.75932 47.0217L8.42974 46.5913L9.17248 46.1673L9.96252 45.7542L10.7747 45.3558L11.5847 44.9744L12.3696 44.6117L13.1086 44.2681L13.7824 43.9429L14.3737 43.6351L14.8667 43.3424L15.2459 43.0622L15.496 42.7912L15.6008 42.5255L15.546 42.2606L15.3403 41.9917L15.0005 41.7148L14.5422 41.4264L13.9805 41.1237L13.3311 40.8042L12.6109 40.4665L11.8385 40.1099L11.0341 39.7344L10.22 39.3412L9.4202 38.9324L8.65965 38.5114L7.96354 38.0825L7.35612 37.6509L6.85947 37.2225L6.49214 36.8036L6.26801 36.4002L6.19531 36.0184L6.27618 35.6629L6.50656 35.3378L6.87666 35.0455L7.37177 34.7872L7.97345 34.5624L8.66077 34.3694L9.41165 34.2054L10.204 34.0666L11.0168 33.9486L11.8308 33.8465L12.6287 33.7554L13.3959 33.6704L14.1201 33.5865L14.7915 33.4991L15.4023 33.4041L15.9466 33.2972L16.4203 33.1749L16.8204 33.0336L17.1452 32.8702L17.3936 32.6817L17.5655 32.4654L17.6614 32.2188L17.6822 31.9395L17.6296 31.6255L17.5055 31.2751L17.313 30.8869L17.0557 30.4599L16.7381 29.994L16.3661 29.4895L15.9469 28.9479L15.4893 28.3718L15.0037 27.7651L14.5025 27.1333L13.9999 26.4836L13.5116 25.8247L13.0551 25.1671L12.6483 24.5229L12.3094 23.905L12.056 23.3271L11.9038 22.8027L11.8656 22.3444L11.9504 21.9631L12.1627 21.6671L12.5019 21.4614L12.9622 21.3477L13.533 21.3236L14.1997 21.3832L14.9442 21.5174L15.7467 21.7145L16.5861 21.9606L17.4418 22.2411L18.2938 22.5404L19.124 22.8432L19.9161 23.1348L20.6559 23.4008L21.3311 23.6277L21.9312 23.8026L22.4467 23.9129L22.869 23.9455L23.1896 23.8871L23.3996 23.7226L23.4984 23.445L23.5003 23.0621L23.4194 22.5827L23.2687 22.0153L23.0609 21.3688L22.8089 20.6533L22.5258 19.8805L22.2257 19.0636L21.9232 18.2182L21.6334 17.3618L21.3718 16.5134L21.1534 15.6938L20.9926 14.9237L20.9021 14.2238L20.8919 13.6128L20.9695 13.107L21.1385 12.7186L21.399 12.4554L21.7472 12.3201L22.176 12.3102L22.6755 12.4184L23.2337 12.6332L23.8374 12.9401L24.4727 13.322L25.1265 13.7609L25.7862 14.2386L26.4408 14.7375L27.0807 15.2411L28.2869 16.2045L28.8427 16.6402L29.3622 17.0319L29.8436 17.3719L30.2861 17.6538L30.6897 17.8727L31.055 18.0243L31.3833 18.1057L31.6762 18.1144L31.9356 18.0485L32.1637 17.907L32.3629 17.689L32.536 17.3946L32.6857 17.0243L32.8152 16.5797L32.9278 16.063L33.0271 15.4781L33.117 14.8301L33.2017 14.1258L33.3738 12.5872L33.4709 11.7777L33.582 10.9622L33.712 10.1593L33.8655 9.38931L34.0465 8.67403L34.2584 8.03567L34.5032 7.49576L34.7821 7.0739L35.0943 6.78643L35.4381 6.64521L35.81 6.65667L36.2055 6.82115L36.6189 7.13282L37.0444 7.57996L37.4754 8.14574L37.9061 8.80933L38.3308 9.5472L38.7449 10.3344L39.1446 11.1457L39.5274 11.9567L39.8916 12.7444L40.2368 13.4877L40.5633 14.1673L40.8725 14.7659L41.1664 15.2672L41.4474 15.656L41.719 15.917L41.985 16.034L42.2498 15.9919L42.5182 15.7976L42.7943 15.4679L43.0817 15.0185L43.3832 14.4645L43.7013 13.8215L44.0375 13.1063L44.3926 12.3373L44.7667 11.5347L45.1585 10.7205L45.5662 9.91872L45.9863 9.15413L46.4148 8.452L46.8464 7.83668L47.2753 7.33049L47.6952 6.9523L48.1 6.71638L48.4838 6.63147L48.8416 6.70018L49.1692 6.91893L49.4642 7.27838L49.7252 7.76416L49.9526 8.35808L50.1481 9.03936L50.3142 9.78598L50.4549 10.5758L50.5744 11.3877L50.6776 12.2022L50.7694 13.002L50.8547 13.7721L50.9386 14.5001L51.0254 15.176L51.1197 15.7918L51.2255 16.3416L51.3465 16.821L51.4861 17.2271L51.6477 17.5579L51.834 17.8124L52.048 17.9904L52.2922 18.0923L52.5688 18.119L52.8799 18.0722L53.2274 17.9537L53.6126 17.7665L54.0365 17.5142L54.4994 17.2012L55.0008 16.8333L55.5396 16.4176L56.1131 15.9627L56.7175 15.4789L57.3475 14.9785L57.9961 14.4754L58.6547 13.9854L59.3128 13.5257L59.9586 13.1143L60.5791 12.7694L61.1607 12.5086L61.6898 12.3478L62.1538 12.3001L62.5416 12.3749L62.8447 12.577L63.0576 12.9062L63.1786 13.3571L63.2097 13.9197L63.1565 14.5793L63.0278 15.3184L62.8353 16.1169L62.5925 16.9542L62.3142 17.8093L62.0158 18.6622L61.7127 19.4948L61.4197 20.2905L61.1512 21.0349L60.9206 21.7156L60.7411 22.322L60.6252 22.8446L60.5859 23.2746L60.6365 23.6037L60.7921 23.8227L61.0609 23.9299L61.4358 23.939L61.9078 23.8641L62.4686 23.7185L63.1091 23.5149L63.8195 23.2659L64.5882 22.9848L65.4021 22.6856L66.2459 22.3827L67.1022 22.0913L67.9519 21.8269L68.7747 21.6045L69.5495 21.4387L70.2557 21.3421L70.8744 21.3253L71.3892 21.3957L71.7872 21.5574L72.0606 21.8106L72.206 22.1521L72.2257 22.5748L72.1266 23.0691L71.9197 23.6231L71.6196 24.2235L71.243 24.8569L70.8079 25.5096L70.3326 26.1693L69.8348 26.8246L69.331 27.466L68.3639 28.6767L67.9252 29.2352L67.5297 29.7577L67.1853 30.2421L66.8985 30.6878L66.6745 31.0944L66.5173 31.4628L66.4303 31.7939L66.4157 32.0896L66.4756 32.3515L66.6111 32.582L66.823 32.7835L67.1113 32.9585L67.4756 33.11L67.9144 33.2409L68.4254 33.3547L69.0051 33.4549L69.6484 33.5454L70.3484 33.6304L71.8814 33.8019L72.6897 33.8981L73.5053 34.0079L74.31 34.1362L75.0834 34.2877L75.8039 34.4664L76.4492 34.6757L76.9977 34.9179L77.4296 35.194L77.7283 35.5036L77.8815 35.845L77.8823 36.2148L77.7298 36.6085L77.4295 37.0208L76.9926 37.4455L76.4356 37.8763L75.7789 38.3072L75.046 38.7326L74.2618 39.1476L73.4515 39.5486L72.6396 39.9328L71.1016 40.6452L70.4162 40.9732L69.8106 41.2837L69.301 41.5787L68.9027 41.8606L68.6309 42.1329L68.5018 42.3991L68.4935 42.4834Z" fill="url(#paint1_linear_2053_9195)"/>
<path d="M68.1989 45.72C68.152 44.3739 67.602 43.0489 66.6902 42.0853C65.6459 40.9821 64.1991 40.3969 62.6187 40.434C62.5967 40.434 62.5738 40.435 62.5509 40.4361L54.1467 40.7583C53.1632 37.7539 51.4752 35.0256 49.2003 32.7872C46.6603 30.2878 43.5454 28.5452 40.1375 27.708C38.9437 25.9634 36.9039 24.9446 34.6479 25.0409C32.4318 25.1353 30.5126 26.3007 29.4693 28.1065C25.5961 29.3482 22.1583 31.8095 19.704 35.12C16.7804 39.0629 15.4252 43.9463 15.8905 48.8709C15.8955 48.9251 15.9015 48.9783 15.9095 49.0335C16.2263 51.275 18.1435 52.9653 20.3696 52.9653C20.4314 52.9653 20.4932 52.9643 20.555 52.9613L62.9605 51.4115C64.5658 51.3533 65.9887 50.6566 66.9682 49.4521C67.8092 48.4182 68.2457 47.0932 68.1979 45.72H68.1989Z" fill="white"/>
<path d="M20.3693 50.7058C19.2493 50.7058 18.2917 49.8656 18.1292 48.7143C18.1263 48.6952 18.1243 48.6751 18.1223 48.6561C17.7107 44.2916 18.9105 39.9642 21.5003 36.4721C23.8848 33.2569 27.2618 30.9773 31.0763 29.9906C31.5755 28.4388 32.9746 27.3737 34.7423 27.2984C36.5389 27.2222 38.0456 28.1778 38.6743 29.7015C42.0593 30.3379 45.1424 31.953 47.6335 34.4043C50.0639 36.7963 51.72 39.7785 52.4624 43.085L62.6353 42.6946C62.6452 42.6946 62.6562 42.6946 62.6662 42.6946C64.7318 42.6414 65.9017 44.2484 65.9565 45.8013C65.9854 46.6254 65.7283 47.4134 65.233 48.0227C64.6671 48.7183 63.831 49.1208 62.8784 49.1559L20.4679 50.7058C20.4351 50.7068 20.4022 50.7078 20.3693 50.7078V50.7058ZM20.3723 48.1963C20.3723 48.1963 20.3703 48.1963 20.3693 48.1963H20.3723ZM34.9316 29.8029C34.9037 29.8029 34.8768 29.8029 34.8489 29.8049C34.6197 29.8149 33.4708 29.9244 33.3761 31.1299C33.3323 31.687 32.9287 32.1478 32.3856 32.2602C28.8392 32.997 25.6824 35.0256 23.4962 37.9737C21.3229 40.9048 20.2916 44.5245 20.5825 48.1883L62.7887 46.6465C63.4245 46.6234 63.4753 46.1084 63.4673 45.8886C63.4564 45.5644 63.3158 45.1799 62.7259 45.203C62.72 45.203 62.715 45.203 62.709 45.203L51.4908 45.6336C50.8621 45.6547 50.314 45.206 50.2134 44.5797C49.6982 41.3716 48.2045 38.4746 45.8927 36.199C43.5899 33.9335 40.6981 32.5011 37.5294 32.0554C36.9893 31.9801 36.5608 31.5585 36.4721 31.0165C36.3247 30.1171 35.5683 29.8029 34.9306 29.8029H34.9316Z" fill="#191B29"/>
<defs>
<linearGradient id="paint0_linear_2053_9195" x1="10.5359" y1="63.7321" x2="73.5427" y2="21.2335" gradientUnits="userSpaceOnUse">
<stop stop-color="#FF36D3"/>
<stop offset="1" stop-color="#F10101"/>
</linearGradient>
<linearGradient id="paint1_linear_2053_9195" x1="42.0469" y1="6.63147" x2="42.0469" y2="78.3346" gradientUnits="userSpaceOnUse">
<stop stop-color="#F10101"/>
<stop offset="1" stop-color="#FF36D3"/>
</linearGradient>
</defs>
</svg>
