<svg width="40" height="40" viewBox="0 0 40 40" fill="none" xmlns="http://www.w3.org/2000/svg">
<g clip-path="url(#clip0_2302_13098)">
<path fill-rule="evenodd" clip-rule="evenodd" d="M20.5972 15.5771L20.6419 15.5506L20.6968 15.4597L20.7644 15.3014L20.8472 15.0707L20.9488 14.7603L21.073 14.3608L21.2248 13.8612L21.4095 13.2487L21.6333 12.5102L21.9025 11.6339L22.223 10.6119L22.5993 9.44408L23.0324 8.14315L23.5181 6.74038L24.0447 5.29057L24.5909 3.87423L25.1257 2.59432L25.6107 1.56534L26.0048 0.895225L26.2716 0.663517L26.3872 0.902711L26.3453 1.58976L26.1582 2.65128L25.8529 3.98047L25.4653 5.4593L25.0324 6.9786L24.5871 8.45111L24.1551 9.81658L23.7541 11.0403L23.3942 12.108L23.0803 13.0198L22.8132 13.7848L22.5914 14.4161L22.4123 14.9283L22.2732 15.3353L22.1716 15.6488L22.1057 15.8785L22.0751 16.0309L22.0806 16.1095L22.1246 16.1145L22.2088 16.0479L22.3352 15.9106L22.5079 15.7002L22.7327 15.4117L23.0171 15.0379L23.8017 13.9976L24.3222 13.3122L24.9408 12.5073L25.663 11.5822L26.4878 10.5466L27.4036 9.4246L28.3843 8.25904L29.3862 7.11372L30.3482 6.07095L31.1967 5.22326L31.8555 4.65899L32.26 4.44474L32.3708 4.6099L32.1825 5.13915L31.7248 5.97594L31.0541 7.03568L30.241 8.2235L29.3566 9.45072L28.4623 10.6458L27.6046 11.7587L26.8145 12.7604L26.1086 13.6384L25.4934 14.3923L24.968 15.0294L24.1648 15.9975L23.8724 16.3528L23.6433 16.6373L23.4714 16.8601L23.3519 17.029L23.2811 17.1499L23.2572 17.2273L23.2797 17.2641L23.3494 17.2618L23.469 17.2208L23.6427 17.1402L23.8764 17.0178L24.178 16.8506L24.557 16.6346L25.5933 16.037L26.2754 15.6462L27.082 15.1898L28.02 14.6686L29.0881 14.0886L30.2726 13.464L31.5416 12.8191L32.8413 12.1898L34.095 11.6226L35.208 11.1701L36.0792 10.8837L36.6185 10.8029L36.7658 10.9467L36.5053 11.3076L35.8693 11.8529L34.9301 12.5316L33.7834 13.2855L32.5294 14.0593L31.257 14.8081L30.0349 15.5007L28.9091 16.1194L27.9051 16.6573L27.0325 17.1153L26.2899 17.4991L25.1618 18.0763L24.7546 18.2867L24.438 18.4551L24.2035 18.5876L24.0451 18.6893L23.9594 18.764L23.9465 18.8143L24.0075 18.8424L24.1422 18.8509L24.353 18.8418L24.6456 18.8162L25.0284 18.7749L25.5123 18.7183L26.1101 18.647L26.8349 18.562L27.6989 18.4651L28.7102 18.3594L29.8685 18.2499L31.1601 18.1437L32.552 18.0504L33.987 17.9816L35.3825 17.9497L36.6351 17.9661L37.6327 18.0385L38.2735 18.1688L38.4871 18.3514L38.2509 18.574L37.5955 18.8197L36.5964 19.0703L35.3572 19.3099L33.9878 19.5266L32.5874 19.7138L31.2335 19.8697L29.9788 19.9956L28.8533 20.0951L27.8688 20.1727L27.025 20.233L26.3138 20.2804L25.7235 20.3186L25.241 20.3508L24.8538 20.3796L24.5509 20.4072L24.3228 20.4355L24.1623 20.4662L24.064 20.5009L24.0247 20.5412L24.043 20.589L24.1194 20.6463L24.2564 20.7156L24.4584 20.7995L24.7317 20.9017L25.0845 21.0262L25.5267 21.178L26.0697 21.3626L26.7251 21.5865L27.5037 21.8564L28.413 22.1785L29.4536 22.5579L30.6151 22.9965L31.8707 23.491L33.1728 24.0306L34.4505 24.5947L35.6126 25.1527L36.5563 25.6656L37.1834 26.0911L37.4201 26.3904L37.2334 26.5369L36.6407 26.5214L35.705 26.3539L34.521 26.0608L33.1949 25.6778L31.826 25.243L30.4945 24.7909L29.2565 24.3488L28.1447 23.9359L27.1731 23.5637L26.3422 23.2378L25.6443 22.9596L25.0676 22.7281L24.599 22.5408L24.226 22.3949L23.9375 22.2881L23.7249 22.2186L23.5819 22.1859L23.5052 22.1909L23.4942 22.2362L23.5475 22.3237L23.6638 22.4558L23.8451 22.6365L24.0955 22.8719L24.4213 23.1702L25.3309 23.9942L25.9316 24.5419L26.638 25.1938L27.451 25.9565L28.3628 26.8298L29.3531 27.8026L30.3849 28.8486L31.403 29.9228L32.3353 30.9617L33.0999 31.887L33.6178 32.6171L33.8281 33.0808L33.702 33.2328L33.2506 33.064L32.5217 32.6026L31.5893 31.9068L30.5376 31.0513L29.4463 30.1124L28.38 29.1571L27.3845 28.2367L26.4869 27.3856L25.6991 26.6233L25.0217 25.9573L24.449 25.3875L23.5773 24.5145L23.2568 24.1959L22.9998 23.9458L22.7978 23.7575L22.6439 23.6258L22.5328 23.547L22.4602 23.5187L22.4234 23.5403L22.421 23.613L22.4524 23.7392L22.5183 23.9236L22.6203 24.1725L22.7611 24.4942L22.9439 24.8991L23.4516 26.0078L23.7844 26.7389L24.1733 27.6046L24.6179 28.613L25.1132 29.7638L25.6473 31.0435L26.1996 32.4193L26.7398 33.8348L27.2283 35.2089L27.6199 36.4396L27.8703 37.4168L27.9446 38.0405L27.8256 38.2419L27.5187 37.999L27.0511 37.3426L26.4664 36.3482L25.8148 35.1184L25.1444 33.7624L24.4945 32.3786L23.8926 31.0438L23.3546 29.8099L22.8867 28.7066L22.4881 27.7456L22.1541 26.9264L21.6513 25.6791L21.4677 25.2276L21.3205 24.8756L21.204 24.6139L21.1138 24.4355L21.0465 24.3368L20.9996 24.3174L20.9711 24.379L20.9587 24.5211L20.9604 24.7463L20.975 25.0606L21.0016 25.473L21.0396 25.9954L21.0879 26.6416L21.1456 27.4264L21.2106 28.3633L21.28 29.4617L21.3495 30.7225L21.413 32.1322L21.4629 33.6564L21.4902 35.2349L21.4857 36.779L21.4415 38.1765L21.3533 39.3042L21.2215 40.0483L21.0526 40.3274L20.858 40.1119L20.6523 39.4304L20.4498 38.3624L20.263 37.0199L20.0998 35.5239L19.964 33.9851L19.8556 32.4909L19.7722 31.1016L19.7097 29.8521L19.6638 28.7569L19.6302 27.8167L19.6051 27.0232L19.5855 26.3637L19.5687 25.824L19.5527 25.3903L19.5356 25.0502L19.5162 24.7934L19.4929 24.6117L19.4644 24.499L19.4294 24.4517L19.3862 24.468L19.333 24.5485L19.2676 24.6957L19.1874 24.9145L19.0891 25.2117L18.9687 25.5962L18.8217 26.0791L18.4256 27.3903L18.164 28.244L17.852 29.2425L17.4848 30.3876L17.0606 31.6689L16.5827 33.0584L16.0614 34.5055L15.5165 35.9335L14.9775 37.2427L14.4818 38.3193L14.0706 39.0529L13.7815 39.358L13.6409 39.1937L13.658 38.5742L13.8236 37.5658L14.1123 36.2714L14.4893 34.8086L14.9174 33.2893L15.3626 31.8046L15.798 30.4191L16.2049 29.1714L16.5718 28.0786L16.8931 27.1423L17.1677 26.3548L17.5822 25.1729L17.7275 24.7501L17.835 24.4224L17.9064 24.1798L17.9427 24.0154L17.943 23.9252L17.9053 23.9085L17.8277 23.9638L17.7082 24.0898L17.5432 24.2883L17.3272 24.5639L17.0528 24.9236L16.293 25.931L15.7873 26.5978L15.1849 27.3835L14.4793 28.2897L13.6704 29.3089L12.7677 30.4195L11.7949 31.5819L10.7927 32.7355L9.81969 33.8007L8.94794 34.6857L8.25409 35.3003L7.80566 35.5734L7.64685 35.4688L7.78863 34.9947L8.20665 34.2017L8.84791 33.1712L9.64321 31.9975L10.5208 30.7713L11.417 29.5672L12.283 28.4387L13.0853 27.4181L13.8053 26.5201L14.435 25.7467L14.9745 25.0918L15.8027 24.0934L16.1057 23.7258L16.3444 23.4308L16.5251 23.1987L16.6527 23.0216L16.7311 22.8934L16.7623 22.8093L16.7473 22.7662L16.6853 22.7623L16.5739 22.7971L16.4091 22.8714L16.1854 22.9869L15.8952 23.1467L15.5293 23.3546L14.5249 23.9337L13.8616 24.3143L13.0755 24.7602L12.1586 25.2713L11.1106 25.8427L9.94303 26.4615L8.68451 27.1053L7.38518 27.7399L6.11817 28.3205L4.97594 28.7948L4.05966 29.1107L3.46251 29.2261L3.25046 29.1183L3.44695 28.7904L4.02713 28.2714L4.9241 27.6102L6.04457 26.8643L7.2879 26.0904L8.56254 25.3351L9.79627 24.632L10.9396 24.0008L11.9639 23.45L12.8577 22.9795L13.6206 22.5845L14.2595 22.257L14.7846 21.9886L15.2071 21.7709L15.5375 21.5963L15.7846 21.4584L15.9549 21.3521L16.0521 21.2733L16.0767 21.2192L16.0274 21.1878L15.9046 21.1763L15.7062 21.1827L15.4271 21.2057L15.0593 21.2446L14.5923 21.2988L14.0136 21.3678L13.3099 21.4507L12.4687 21.5459L11.4812 21.6504L10.3458 21.7598L9.07372 21.867L7.69466 21.9631L6.26164 22.0367L4.85332 22.0753L3.57045 22.0672L2.5249 22.004L1.82153 21.8827L1.53701 21.7078L1.70225 21.4905L2.29504 21.2473L3.24582 20.9963L4.45421 20.7541L5.80993 20.5332L7.21123 20.341L8.57672 20.1801L9.84977 20.0497L10.9971 19.9463L12.0042 19.8655L12.8701 19.8027L13.6016 19.7535L14.2104 19.7141L14.7092 19.6811L15.1107 19.6519L15.4264 19.6243L15.6659 19.5962L15.8367 19.566L15.9446 19.5321L15.9932 19.4928L15.984 19.4463L15.917 19.3906L15.7899 19.3235L15.5986 19.242L15.3372 19.143L14.9977 19.0224L14.5704 18.8753L13.4076 18.4791L12.6492 18.217L11.761 17.9036L10.7409 17.5336L9.59736 17.1043L8.35414 16.6182L7.05535 16.0847L5.76809 15.5227L4.58087 14.9613L3.59549 14.4384L2.9121 13.9962L2.60986 13.6746L2.72891 13.5027L3.26014 13.4926L4.14694 13.6372L5.29845 13.9126L6.60896 14.2839L7.97701 14.7129L9.31883 15.1643L10.5745 15.6094L11.7077 16.0279L12.702 16.4071L13.555 16.7406L14.2733 17.0263L15.3534 17.4593L15.7408 17.6116L16.0421 17.7245L16.2664 17.7999L16.4201 17.8384L16.5073 17.8396L16.5287 17.8009L16.4855 17.7202L16.3792 17.5955L16.2085 17.4229L15.9695 17.1966L15.6563 16.909L14.7756 16.1111L14.1913 15.5791L13.502 14.9444L12.7057 14.1996L11.8086 13.3435L10.8289 12.3852L9.80043 11.3484L8.77572 10.2748L7.82444 9.22541L7.02756 8.27644L6.46562 7.51004L6.20346 7.00008L6.27562 6.7968L6.67762 6.9155L7.36679 7.33356L8.27232 7.99671L9.31058 8.83201L10.4004 9.76248L11.4743 10.7191L12.4833 11.6478L13.3976 12.5115L14.2032 13.2888L14.8979 13.9702L15.4867 14.5551L16.3854 15.4551L16.7169 15.7852L16.9835 16.0458L17.1937 16.2435L17.3548 16.3839L17.4725 16.471L17.551 16.5072L17.5933 16.4936L17.6012 16.4292L17.5752 16.3117L17.5149 16.137L17.4187 15.8989L17.2843 15.5894L17.1085 15.1985L16.8873 14.7145L16.6166 14.124L16.2927 13.4133L15.9127 12.5698L15.4768 11.5844L14.989 10.4557L14.4599 9.19495L13.9087 7.83135L13.3642 6.4173L12.8645 5.03025L12.4544 3.76935L12.1788 2.74456L12.0748 2.05888L12.1628 1.78747L12.4411 1.96032L12.8856 2.5549L13.455 3.50192L14.0993 4.70161L14.7696 6.0445L15.4249 7.42964L16.0358 8.77643L16.5846 10.0289L17.0638 11.1541L17.4732 12.138L17.8171 12.9794L18.1022 13.6852L18.336 14.2662L18.5259 14.7345L18.6786 15.1017L18.7996 15.3772L18.8938 15.5685L18.9645 15.6798L19.0145 15.712L19.0457 15.6633L19.0606 15.5341L19.0611 15.3224L19.0485 15.0228L19.0237 14.6268L18.9875 14.1228L18.8844 12.7355L18.8205 11.8237L18.7515 10.7513L18.6817 9.5159L18.6167 8.12827L18.5641 6.61895L18.5325 5.04394L18.5314 3.48735L18.5688 2.0583L18.65 0.879469L18.7751 0.067764L18.9387 -0.288934L19.1301 -0.151789L19.3351 0.459746L19.539 1.47312L19.729 2.78004L19.8963 4.25939L20.0366 5.79791L20.1492 7.30397L20.2363 8.71293L20.3018 9.98617L20.3501 11.1062L20.3854 12.0707L20.4116 12.8868L20.449 14.1246L20.465 14.5743L20.4818 14.9285L20.5008 15.198L20.5234 15.3912L20.551 15.5146L20.5849 15.5722L20.5972 15.5771Z" fill="url(#paint0_linear_2302_13098)"/>
<path fill-rule="evenodd" clip-rule="evenodd" d="M32.615 20.0018L32.6531 20.1281L32.7618 20.2566L32.933 20.3892L33.1596 20.5275L33.4343 20.6729L33.7494 20.8264L34.0969 20.9886L34.4679 21.1599L34.8524 21.3401L35.2397 21.5286L35.6184 21.7243L35.9765 21.9255L36.302 22.1301L36.5835 22.3356L36.8107 22.5391L36.9752 22.7376L37.0706 22.9282L37.0936 23.1082L37.0435 23.2753L36.9228 23.4277L36.7366 23.5643L36.4921 23.6847L36.1984 23.7893L35.8656 23.8789L35.5042 23.9549L35.1247 24.0193L34.7369 24.0742L34.35 24.1218L33.972 24.1645L33.6095 24.2048L33.2684 24.2449L32.9531 24.2869L32.6671 24.3329L32.4131 24.3849L32.193 24.4444L32.0082 24.5133L31.8593 24.5929L31.7468 24.6847L31.6707 24.7899L31.6308 24.9098L31.6265 25.0453L31.6571 25.1976L31.7214 25.3673L31.8182 25.555L31.9455 25.7613L32.101 25.9862L32.282 26.2293L32.4848 26.4899L32.7052 26.7667L32.938 27.0577L33.1773 27.3601L33.4161 27.6705L33.6467 27.9845L33.8609 28.297L34.0501 28.6023L34.2055 28.8939L34.3189 29.1654L34.3832 29.4105L34.3923 29.6232L34.3423 29.7986L34.2315 29.9328L34.0605 30.0238L33.8326 30.071L33.553 30.0759L33.229 30.0415L32.8694 29.9725L32.4838 29.8744L32.0822 29.7541L31.6744 29.6187L31.2698 29.4754L30.8768 29.3316L30.5032 29.1942L30.1554 29.0701L29.8393 28.9656L29.5596 28.8868L29.321 28.8398L29.1273 28.8307L28.9827 28.866L28.8914 28.953L28.8522 29.0935L28.858 29.2834L28.9022 29.5186L28.9787 29.7951L29.0814 30.1085L29.2042 30.454L29.4843 31.2174L29.6279 31.6214L29.7643 32.0293L29.8861 32.4317L29.9861 32.819L30.0577 33.181L30.095 33.5081L30.0934 33.7916L30.0496 34.0239L29.9621 34.1995L29.8313 34.3151L29.6591 34.3699L29.4492 34.3654L29.2065 34.3054L28.9368 34.1956L28.6465 34.0432L28.3421 33.8565L28.03 33.6439L27.7159 33.4143L27.405 33.1759L27.1018 32.9364L26.8098 32.7028L26.5317 32.4812L26.2698 32.2768L26.0252 32.094L25.7989 31.9363L25.5912 31.8067L25.4019 31.7075L25.2308 31.6405L25.0772 31.6072L24.9403 31.6087L24.8193 31.6457L24.7129 31.7189L24.6201 31.8285L24.5396 31.9745L24.4699 32.1565L24.4096 32.3738L24.3572 32.6251L24.3107 32.9086L24.2684 33.2217L24.2283 33.561L24.1881 33.9219L24.1457 34.2989L24.0985 34.6854L24.0443 35.0734L23.9808 35.4539L23.9057 35.8171L23.8173 36.1526L23.714 36.4498L23.5948 36.6985L23.4595 36.8897L23.3083 37.0158L23.1423 37.0716L22.9633 37.0545L22.7734 36.9647L22.5754 36.8056L22.3722 36.5831L22.1668 36.3055L21.962 35.9831L21.7604 35.6272L21.5642 35.2498L21.3751 34.8627L21.1942 34.4775L21.0222 34.1051L20.8592 33.7554L20.7051 33.4374L20.5591 33.1593L20.4203 32.9286L20.2872 32.7527L20.1585 32.6388L20.032 32.5947L19.9058 32.6269L19.7776 32.7302L19.6453 32.8967L19.5075 33.1192L19.3627 33.3902L19.2099 33.7024L19.0484 34.0477L18.8779 34.4171L18.6983 34.8009L18.5104 35.1884L18.3153 35.5682L18.1144 35.9284L17.91 36.2569L17.7045 36.5423L17.5007 36.7742L17.3017 36.9439L17.1103 37.045L16.9294 37.0738L16.7612 37.0295L16.6076 36.9143L16.4697 36.733L16.348 36.4929L16.2422 36.2028L16.1514 35.8727L16.0744 35.5132L16.0091 35.1347L15.9536 34.7473L15.9055 34.3601L15.8625 33.981L15.8221 33.6171L15.7821 33.2741L15.7403 32.9566L15.6946 32.6682L15.6432 32.4116L15.5843 32.1888L15.5163 32.0011L15.4375 31.8493L15.3468 31.7339L15.2427 31.655L15.124 31.6122L14.9897 31.6051L14.8389 31.6329L14.6706 31.6946L14.4842 31.7888L14.2794 31.9137L14.0561 32.0671L13.8144 32.2462L13.5551 32.4474L13.2796 32.6666L12.9896 32.8986L12.6879 33.1376L12.378 33.3767L12.0641 33.6083L11.7513 33.8241L11.4452 34.0156L11.1523 34.174L10.8789 34.2911L10.6315 34.3594L10.416 34.3731L10.2375 34.3279L10.0999 34.222L10.0054 34.0557L9.95472 33.8321L9.94654 33.5564L9.97794 33.2357L10.0445 32.8786L10.1404 32.4947L10.2592 32.094L10.3937 31.6864L10.5366 31.2812L10.6807 30.887L10.8188 30.5116L10.9442 30.1615L11.0505 29.8427L11.1316 29.56L11.1814 29.3179L11.1937 29.1205L11.1622 28.9719L11.0795 28.8763L10.9432 28.8331L10.757 28.8356L10.5253 28.877L10.2519 28.9512L9.94123 29.052L9.59814 29.1734L8.83784 29.4524L8.43453 29.5962L8.02664 29.7334L7.62339 29.8566L7.23457 29.9586L6.87017 30.0327L6.53992 30.073L6.25271 30.0746L6.01609 30.0342L5.83579 29.9502L5.7153 29.8228L5.6557 29.6538L5.65561 29.4467L5.7114 29.2064L5.81747 28.9387L5.96673 28.6498L6.15108 28.3463L6.36189 28.0345L6.59049 27.7204L6.82851 27.4091L7.06817 27.1051L7.30245 26.8121L7.52519 26.5329L7.73113 26.2696L7.91582 26.0237L8.07563 25.7959L8.20759 25.5867L8.30931 25.3959L8.37892 25.2234L8.41495 25.0684L8.41628 24.9303L8.38207 24.808L8.31176 24.7005L8.20507 24.6067L8.06198 24.5252L7.88282 24.4548L7.66829 24.3938L7.4196 24.3408L7.13856 24.2939L6.8277 24.2514L6.49038 24.2111L5.75499 24.1288L5.369 24.0822L4.98082 24.0286L4.59934 23.9659L4.23436 23.8919L3.89627 23.8045L3.59565 23.7024L3.3427 23.5845L3.14664 23.4505L3.01512 23.3006L2.95358 23.1357L2.96487 22.9577L3.04892 22.7686L3.20272 22.5711L3.42047 22.3682L3.69398 22.1629L4.01323 21.9579L4.36692 21.756L4.74313 21.5593L5.12988 21.3696L5.51559 21.188L5.88937 21.0153L6.24124 20.8516L6.5621 20.6968L6.84371 20.5502L7.07843 20.4108L7.259 20.2774L7.37812 20.1484L7.42804 20.0218L7.40192 19.8957L7.30397 19.7677L7.14217 19.6358L6.92391 19.4985L6.65644 19.3543L6.34722 19.2022L6.00428 19.0414L5.63644 18.8716L5.25339 18.6927L4.86574 18.5055L4.48488 18.3108L4.12271 18.1104L3.79123 17.9061L3.50198 17.7006L3.26548 17.4966L3.09057 17.2971L2.98384 17.1051L2.94922 16.9232L2.98773 16.7539L3.09743 16.5991L3.27367 16.46L3.50944 16.3369L3.79595 16.2299L4.12324 16.138L4.48081 16.0599L4.85813 15.9938L5.24519 15.9376L5.63278 15.889L6.01274 15.8456L6.37807 15.8051L6.72294 15.7652L7.04264 15.7236L7.33349 15.6783L7.59271 15.6274L7.81828 15.5692L8.0088 15.5019L8.16344 15.4241L8.28174 15.3343L8.36361 15.2313L8.40927 15.1139L8.41918 14.9809L8.3941 14.8314L8.33504 14.6645L8.24337 14.4796L8.12081 14.2763L7.96958 14.0544L7.79245 13.8142L7.59284 13.5563L7.37492 13.282L7.14369 12.9931L6.90502 12.6922L6.66567 12.3828L6.43318 12.0691L6.21577 11.756L6.02205 11.4492L5.8607 11.1549L5.74004 10.8797L5.66755 10.63L5.64934 10.4118L5.68973 10.2302L5.79082 10.0893L5.95234 9.99133L6.17153 9.93716L6.44337 9.92568L6.76082 9.95408L7.11537 10.018L7.49749 10.1118L7.89723 10.229L8.30467 10.3626L8.7104 10.5051L9.10574 10.6493L9.48293 10.7881L9.83522 10.9148L10.1568 11.0229L10.4425 11.1062L10.688 11.1587L10.8891 11.1742L11.0418 11.1464L11.1417 11.0681L11.1888 10.9359L11.1897 10.7536L11.1511 10.5253L11.0794 10.2551L10.9805 9.94721L10.8604 9.60653L10.7257 9.2385L10.5828 8.84952L10.4387 8.44695L10.3007 8.03911L10.1761 7.63514L10.0721 7.24482L9.99557 6.87813L9.95243 6.54482L9.94761 6.25389L9.98455 6.01302L10.065 5.82808L10.1891 5.70275L10.3549 5.63832L10.5591 5.6336L10.7969 5.68512L11.0628 5.78743L11.3502 5.93353L11.6528 6.11539L11.9641 6.32441L12.2782 6.5519L12.5899 6.78946L12.8946 7.02925L13.469 7.48805L13.7337 7.6955L13.9811 7.88202L14.2103 8.04393L14.421 8.17819L14.6132 8.28239L14.7872 8.35462L14.9435 8.39337L15.083 8.39749L15.2065 8.36614L15.3151 8.29872L15.41 8.19494L15.4924 8.05474L15.5637 7.87843L15.6254 7.66669L15.679 7.42067L15.7262 7.14213L15.7691 6.83354L15.8094 6.49819L15.8914 5.76548L15.9376 5.38003L15.9905 4.99172L16.0524 4.60936L16.1255 4.2427L16.2117 3.90209L16.3126 3.59811L16.4292 3.34101L16.562 3.14012L16.7107 3.00323L16.8744 2.93599L17.0515 2.94144L17.2398 3.01977L17.4367 3.16818L17.6392 3.3811L17.8445 3.65052L18.0496 3.96652L18.2518 4.31789L18.449 4.69274L18.6394 5.07907L18.8216 5.46527L18.9951 5.84037L19.1594 6.19432L19.315 6.51796L19.4622 6.80297L19.6021 7.04169L19.7359 7.22683L19.8653 7.35111L19.9919 7.40684L20.118 7.3868L20.2458 7.29426L20.3773 7.13727L20.5142 6.92325L20.6578 6.65943L20.8092 6.35326L20.9693 6.01271L21.1384 5.64651L21.3165 5.2643L21.5031 4.87662L21.6973 4.4948L21.8973 4.13071L22.1014 3.79636L22.3069 3.50335L22.5111 3.26231L22.7111 3.08222L22.9039 2.96988L23.0866 2.92944L23.257 2.96216L23.413 3.06633L23.5534 3.23749L23.6777 3.46882L23.786 3.75164L23.8791 4.07606L23.9582 4.43159L24.0252 4.80771L24.0821 5.19433L24.1313 5.58218L24.175 5.96302L24.2156 6.32973L24.2555 6.67641L24.2969 6.99825L24.3418 7.29151L24.3922 7.55333L24.4498 7.78162L24.5163 7.97498L24.5932 8.13248L24.682 8.25368L24.7839 8.33845L24.9001 8.38698L25.0318 8.39972L25.18 8.37739L25.3455 8.32099L25.5289 8.23186L25.7307 8.11169L25.9511 7.96265L26.1899 7.78747L26.4465 7.58951L26.7196 7.37288L27.0074 7.14251L27.3074 6.90421L27.6163 6.66465L27.9299 6.43133L28.2432 6.21241L28.5508 6.01648L28.8462 5.85225L29.1232 5.72806L29.3752 5.65149L29.5961 5.62878L29.7808 5.66439L29.9251 5.76063L30.0265 5.91739L30.0841 6.13215L30.0989 6.40002L30.0736 6.71413L30.0123 7.06606L29.9206 7.44633L29.805 7.84502L29.6725 8.2522L29.5304 8.65838L29.3861 9.05483L29.2466 9.43373L29.1187 9.78821L29.0089 10.1124L28.9234 10.4011L28.8682 10.65L28.8495 10.8548L28.8736 11.0114L28.9477 11.1157L29.0757 11.1668L29.2542 11.1711L29.479 11.1355L29.746 11.0661L30.051 10.9692L30.3893 10.8506L30.7554 10.7168L31.143 10.5742L31.5447 10.43L31.9525 10.2913L32.3571 10.1653L32.7489 10.0595L33.1179 9.9805L33.4542 9.93451L33.7488 9.92649L33.9939 9.96001L34.1835 10.037L34.3136 10.1576L34.3829 10.3202L34.3923 10.5215L34.3451 10.7569L34.2466 11.0207L34.1036 11.3066L33.9243 11.6082L33.7171 11.9191L33.4908 12.2332L33.2537 12.5452L33.0138 12.8506L32.5533 13.4272L32.3444 13.6931L32.156 13.9419L31.9921 14.1726L31.8555 14.3848L31.7488 14.5785L31.674 14.7539L31.6325 14.9116L31.6256 15.0523L31.6541 15.1771L31.7186 15.2868L31.8195 15.3828L31.9568 15.4661L32.1303 15.5383L32.3393 15.6006L32.5826 15.6548L32.8586 15.7025L33.165 15.7456L33.4983 15.7861L34.2283 15.8678L34.6132 15.9136L35.0016 15.9658L35.3848 16.0269L35.7531 16.0991L36.0962 16.1842L36.4034 16.2838L36.6646 16.3992L36.8703 16.5306L37.0125 16.6781L37.0855 16.8406L37.0859 17.0167L37.0133 17.2042L36.8703 17.4006L36.6622 17.6028L36.397 17.8079L36.0843 18.0131L35.7353 18.2157L35.3618 18.4133L34.976 18.6043L34.5894 18.7872L33.857 19.1265L33.5306 19.2827L33.2422 19.4305L32.9995 19.571L32.8099 19.7052L32.6805 19.8349L32.619 19.9617L32.615 20.0018Z" fill="url(#paint1_linear_2302_13098)"/>
<path d="M32.6511 14.2702C32.152 14.1186 29.648 13.4036 26.948 13.4031H26.9476C25.2256 13.4031 23.7385 13.6985 22.528 14.2816C21.7038 14.6784 21.0058 15.207 20.4449 15.8571C20.1488 15.8327 19.8523 15.8327 19.5562 15.8571C18.9953 15.207 18.2973 14.6784 17.4731 14.2816C16.2626 13.6985 14.7751 13.4031 13.0526 13.4031C10.1477 13.4031 7.41358 14.2496 7.29827 14.2859C6.35116 14.5832 5.71484 15.4542 5.71484 16.4536V17.8513C5.71484 18.4321 5.93027 18.9765 6.30987 19.39C6.40525 20.3005 6.59268 21.1461 6.86884 21.9095C7.23231 22.9133 7.75095 23.7846 8.40956 24.4992C9.65609 25.8515 11.3729 26.5962 13.2443 26.5962C14.1274 26.5962 15.0095 26.4332 15.8664 26.112C16.7073 25.797 17.4854 25.3439 18.1782 24.765C18.9213 24.145 19.5382 23.3951 20.0003 22.5634C20.463 23.396 21.0803 24.1465 21.8234 24.7669C22.5162 25.3453 23.2934 25.798 24.1338 26.113C24.9898 26.4337 25.8709 26.5967 26.753 26.5967C28.625 26.5967 30.3427 25.8515 31.5897 24.4988C32.2488 23.7837 32.7674 22.9123 33.1309 21.9085C33.4075 21.1456 33.5949 20.3001 33.6898 19.3895C34.069 18.976 34.2844 18.4316 34.2844 17.8513V16.4536C34.2844 15.4432 33.613 14.5469 32.6497 14.2702H32.6511Z" fill="white"/>
<path d="M13.0529 15.673C15.312 15.673 17.657 16.2628 18.5282 18.4683C18.9885 18.2293 19.4943 18.1089 20.001 18.1089C20.5078 18.1089 21.0103 18.2279 21.473 18.4683C22.3442 16.2633 24.6887 15.6735 26.9483 15.6735C29.5462 15.6735 32.0317 16.4536 32.0322 16.4536V17.8512C31.4452 18.0529 31.5002 18.4511 31.5002 18.4511C31.3285 22.625 29.0912 24.3261 26.7542 24.3261C24.2892 24.3261 21.714 22.4323 21.3373 19.5486C21.0108 19.1466 20.5059 18.9444 20.0006 18.9444C19.4952 18.9444 18.9932 19.1452 18.6648 19.5486C18.2938 22.4271 15.7139 24.3252 13.2455 24.3252C10.91 24.3252 8.67411 22.6264 8.50139 18.4511C8.50139 18.4511 8.55643 18.052 7.96947 17.8507V16.4531C7.96947 16.4531 10.4549 15.673 13.0533 15.673M13.0533 14.478C10.3059 14.478 7.7251 15.2782 7.61644 15.3121C7.12058 15.4679 6.7832 15.9302 6.7832 16.4531V17.8507C6.7832 18.2671 6.99721 18.6457 7.336 18.8612C7.40433 19.8454 7.58464 20.745 7.87267 21.5399C8.18727 22.4084 8.6314 23.1574 9.19322 23.7669C10.2352 24.8973 11.6744 25.5202 13.2455 25.5202C14.0009 25.5202 14.7578 25.3801 15.4951 25.1038C16.2235 24.8309 16.8978 24.438 17.4985 23.9366C18.6696 22.9596 19.4611 21.6403 19.7609 20.1824C19.8326 20.1547 19.9147 20.1389 20.0006 20.1389C20.0865 20.1389 20.17 20.1542 20.2421 20.1824C20.5439 21.6417 21.3363 22.9615 22.5064 23.9385C23.1067 24.4394 23.78 24.8319 24.5079 25.1048C25.2443 25.3806 26.0002 25.5206 26.7547 25.5206C28.3263 25.5206 29.7664 24.8978 30.8093 23.7664C31.3712 23.157 31.8153 22.4075 32.1299 21.539C32.4179 20.744 32.5978 19.8449 32.6661 18.8607C33.0049 18.6452 33.2189 18.2666 33.2189 17.8503V16.4526C33.2189 15.9044 32.8521 15.4421 32.3524 15.3016C31.969 15.185 29.5381 14.478 26.9492 14.478C23.5499 14.478 21.8032 15.6964 20.9088 17.009C20.6108 16.9459 20.3066 16.9134 20.0025 16.9134C19.6983 16.9134 19.3932 16.9459 19.0952 17.009C18.2008 15.6964 16.4541 14.4775 13.0543 14.4775L13.0533 14.478Z" fill="#191B29"/>
</g>
<defs>
<linearGradient id="paint0_linear_2302_13098" x1="2.07571" y1="17.6392" x2="37.9534" y2="22.3869" gradientUnits="userSpaceOnUse">
<stop stop-color="#FF36D3"/>
<stop offset="1" stop-color="#F10101"/>
</linearGradient>
<linearGradient id="paint1_linear_2302_13098" x1="20.0214" y1="2.92944" x2="20.0214" y2="37.0738" gradientUnits="userSpaceOnUse">
<stop stop-color="#F10101"/>
<stop offset="1" stop-color="#FF36D3"/>
</linearGradient>
<clipPath id="clip0_2302_13098">
<rect width="40" height="40" fill="white"/>
</clipPath>
</defs>
</svg>
