<svg width="84" height="84" viewBox="0 0 84 84" fill="none" xmlns="http://www.w3.org/2000/svg">
<path fill-rule="evenodd" clip-rule="evenodd" d="M36.7779 34.2191L36.8112 34.1154L36.771 33.896L36.6567 33.5531L36.4657 33.075L36.193 32.4456L35.8321 31.6447L35.3748 30.648L34.8122 29.428L34.1356 27.9556L33.3384 26.2033L32.4191 24.1504L31.3843 21.7908L30.2535 19.1428L29.0636 16.2614L27.8724 13.2492L26.7586 10.2623L25.817 7.50559L25.1464 5.21279L24.8327 3.61071L24.9294 2.87494L25.4442 3.0899L26.3351 4.22819L27.5191 6.15743L28.8903 8.67184L30.3403 11.5362L31.7755 14.5272L33.1262 17.4618L34.3487 20.2097L35.4223 22.6917L36.3435 24.8711L37.1198 26.7416L37.7652 28.316L38.2957 29.6173L38.7276 30.6718L39.0755 31.5051L39.3524 32.1395L39.5688 32.5923L39.733 32.8744L39.851 32.9902L39.9272 32.9369L39.9667 32.7151L39.9741 32.3232L39.9526 31.7519L39.9043 30.9854L39.8308 30.0018L39.6154 27.274L39.4792 25.4718L39.3305 23.3451L39.1776 20.8854L39.032 18.1089L38.9091 15.0699L38.8275 11.8721L38.8074 8.67663L38.8675 5.69789L39.0207 3.18386L39.2706 1.37942L39.608 0.47937L40.0121 0.584789L40.4531 1.67887L40.899 3.63158L41.3205 6.23128L41.6965 9.23067L42.0152 12.3914L42.2737 15.5152L42.4754 18.459L42.6282 21.1338L42.7413 23.4968L42.8242 25.5387L42.8854 27.2716L42.971 29.912L43.0064 30.8776L43.0424 31.6437L43.0825 32.2334L43.1297 32.6654L43.1869 32.954L43.2571 33.1089L43.3436 33.1355L43.45 33.0348L43.5809 32.8038L43.7416 32.4352L43.9386 31.9173L44.1799 31.2345L44.4748 30.3672L45.2715 27.9848L45.7994 26.4206L46.4318 24.58L47.1804 22.4545L48.0518 20.0553L49.0438 17.424L50.1404 14.6432L51.307 11.8442L52.4878 9.20679L53.6073 6.94563L54.5779 5.28215L55.3131 4.40428L55.7449 4.4252L55.8381 5.35521L55.5976 7.09792L55.0664 9.4727L54.3137 12.2546L53.4201 15.2172L52.4628 18.1661L51.5064 20.9566L50.5984 23.4968L49.7693 25.7405L49.0354 27.6757L48.4026 29.3129L47.4332 31.7912L47.0861 32.6889L46.8228 33.3944L46.6388 33.9293L46.5314 34.3098L46.5008 34.5466L46.5504 34.6436L46.6855 34.6027L46.9091 34.4286L47.2278 34.1207L47.6521 33.6731L48.1963 33.075L48.8781 32.3121L49.7183 31.3677L50.7393 30.2248L51.9625 28.8692L53.405 27.2949L55.0732 25.5097L56.9556 23.5442L59.0135 21.4593L61.1734 19.3528L63.3226 17.3593L65.3143 15.6407L66.9833 14.3654L68.172 13.6778L68.7621 13.6674L68.7008 14.3463L68.0126 15.6452L66.7912 17.4304L65.1769 19.5325L63.3262 21.7801L61.3857 24.0246L59.4745 26.155L57.6776 28.1001L56.0469 29.8239L54.6075 31.3167L53.3651 32.5866L52.3132 33.6515L51.4385 34.5337L50.7249 35.2562L50.1565 35.8406L49.7187 36.3058L49.3996 36.6679L49.19 36.9396L49.0839 37.131L49.0783 37.2491L49.1736 37.2988L49.3735 37.2825L49.6853 37.2005L50.1197 37.0513L50.6916 36.8314L51.4195 36.5358L52.326 36.1585L53.4366 35.6926L54.7786 35.1318L56.3783 34.4717L58.2561 33.7118L60.4202 32.8591L62.8568 31.9311L65.5191 30.9599L68.3171 29.9949L71.111 29.1023L73.7147 28.3612L75.9124 27.8533L77.4906 27.6487L78.2794 27.7897L78.19 28.2798L77.2367 29.0808L75.5328 30.1206L73.2635 31.3086L70.6456 32.5533L67.8883 33.7761L65.1659 34.9196L62.6043 35.9487L60.2817 36.8479L58.2361 37.6158L56.4762 38.2607L54.9918 38.7953L53.7629 39.2345L52.7655 39.5925L51.976 39.8827L51.3738 40.1165L50.9428 40.3034L50.6725 40.4511L50.559 40.5658L50.6048 40.6523L50.8104 40.7157L51.1771 40.7611L51.7137 40.7927L52.4352 40.8142L53.3626 40.8293L55.94 40.8579L57.6468 40.8824L59.665 40.9234L62.005 40.9901L64.6544 41.093L67.5657 41.2431L70.6442 41.4504L73.7404 41.7213L76.6524 42.056L79.143 42.4457L80.9737 42.8721L81.9499 43.3081L81.9635 43.7226L81.0187 44.0859L79.2305 44.3757L76.7961 44.5805L73.9517 44.7002L70.9286 44.7441L67.9222 44.7273L65.0758 44.6668L62.4798 44.5789L60.1797 44.4778L58.1876 44.3742L56.4939 44.2762L53.908 44.1177L52.9606 44.0633L52.2082 44.028L51.6286 44.0133L51.2034 44.0206L50.9187 44.0515L50.7653 44.1081L50.7377 44.1933L50.8349 44.3109L51.0601 44.4656L51.4205 44.6636L51.9275 44.9127L52.5968 45.2225L53.4479 45.6043L55.79 46.6401L57.3311 47.3259L59.1479 48.145L61.2511 49.1109L63.6322 50.2302L66.2537 51.4979L69.0378 52.8913L71.8581 54.3642L74.5394 55.8438L76.8688 57.233L78.6231 58.4204L79.6085 59.2974L79.7018 59.7795L78.8812 59.8252L77.2323 59.4445L74.9283 58.6956L72.1915 57.6699L69.2495 56.4721L66.3009 55.2019L63.496 53.9418L60.9321 52.7516L58.6602 51.669L56.6954 50.7134L55.0296 49.8909L52.5023 48.6303L51.585 48.1763L50.8634 47.8281L50.3158 47.5789L49.9256 47.4242L49.6823 47.3627L49.5817 47.3975L49.6227 47.5339L49.8011 47.7747L50.1174 48.1263L50.578 48.6L51.1942 49.2112L51.9813 49.9795L52.9572 50.9279L54.1406 52.0812L55.5474 53.4633L57.1861 55.0932L59.0511 56.9783L61.114 59.1057L63.315 61.4321L65.556 63.8752L67.6991 66.3087L69.5758 68.5669L71.0075 70.4624L71.8365 71.8155L71.9598 72.4895L71.3539 72.4217L70.0813 71.6369L68.2759 70.24L66.1126 68.39L63.773 66.2659L61.4166 64.0361L59.1656 61.8383L57.0997 59.7707L55.2615 57.8935L53.6643 56.2361L52.3021 54.805L51.1577 53.5926L50.2084 52.5832L49.4305 51.7582L48.8013 51.0988L48.301 50.588L47.9128 50.2115L47.623 49.9583L47.4214 49.8208L47.3004 49.7952L47.2553 49.881L47.2838 50.0815L47.3861 50.404L47.5647 50.8596L47.8239 51.4637L48.1702 52.2357L48.6116 53.1995L49.8148 55.8123L50.5925 57.5184L51.4925 59.5224L52.5098 61.8337L53.6273 64.4383L54.8111 67.2881L56.0069 70.2885L57.139 73.2921L58.1148 76.1007L58.8348 78.4832L59.2101 80.2089L59.1805 81.0911L58.7307 81.0287L57.895 80.031L56.7509 78.2154L55.4022 75.7786L53.9579 72.9543L52.515 69.97L51.1472 67.0162L49.9024 64.2321L48.8045 61.7043L47.8593 59.4756L47.0607 57.5564L46.3955 55.9362L45.4013 53.5012L45.0409 52.6342L44.7534 51.9694L44.528 51.4887L44.3561 51.1798L44.231 51.0375L44.1485 51.0637L44.1035 51.2587L44.0911 51.6232L44.1082 52.1649L44.1524 52.899L44.222 53.8464L44.4305 56.488L44.5642 58.2404L44.7113 60.3143L44.8643 62.7213L45.012 65.4498L45.1397 68.4526L45.2292 71.6344L45.2604 74.8433L45.2142 77.8727L45.0763 80.4777L44.8416 82.4101L44.5169 83.4638L44.1217 83.5205L43.6843 82.5779L43.2372 80.7493L42.8101 78.2365L42.4258 75.2841L42.0976 72.1345L41.8296 68.9937L41.6193 66.014L41.4593 63.2924L41.3405 60.8784L41.2534 58.7857L41.1893 57.005L41.1009 54.2825L41.0653 53.2826L41.0296 52.4864L40.9904 51.87L40.9445 51.4139L40.8891 51.1033L40.8211 50.9275L40.7375 50.8807L40.6346 50.961L40.5079 51.1709L40.3524 51.5169L40.1616 52.0101L39.928 52.6654L39.6423 53.5019L38.8699 55.8108L38.3574 57.3326L37.7425 59.1282L37.0131 61.2085L36.1614 63.5659L35.1879 66.1646L34.1062 68.9291L32.9475 71.7361L31.7644 74.413L30.6294 76.7491L29.6292 78.5218L28.8512 79.5347L28.3677 79.6605L28.2199 78.8714L28.4093 77.2478L28.8983 74.9593L29.621 72.2266L30.4975 69.2787L31.4494 66.3165L32.4096 63.4933L33.3277 60.909L34.1708 58.6166L34.9205 56.6326L35.5695 54.9492L36.1178 53.5448L36.5695 52.3917L36.9305 51.461L37.2067 50.7264L37.4031 50.1656L37.5226 49.7614L37.5657 49.5022L37.5292 49.3829L37.408 49.4022L37.1988 49.5552L36.8958 49.8415L36.4892 50.2663L35.9652 50.8395L35.3066 51.5751L34.4931 52.4895L33.5024 53.5997L32.3127 54.9207L30.906 56.4603L29.2735 58.2132L27.4234 60.1532L25.3895 62.2247L23.2394 64.3358L21.0794 66.3577L19.0517 68.1315L17.3202 69.4881L16.0457 70.277L15.3549 70.3982L15.312 69.8265L15.9051 68.6187L17.0501 66.9002L18.6123 64.8367L20.4356 62.6015L22.3707 60.348L24.2931 58.1937L26.1125 56.2159L27.772 54.4556L29.2426 52.9262L30.5161 51.6218L31.5976 50.5257L32.4995 49.616L33.2376 48.8695L33.8282 48.2645L34.2859 47.7814L34.6232 47.4039L34.8497 47.1185L34.9721 46.9149L34.9936 46.7855L34.9145 46.7251L34.7317 46.7309L34.4383 46.8024L34.0243 46.9408L33.4755 47.1491L32.7738 47.4323L31.8974 47.7961L29.5178 48.7927L27.9608 49.4369L26.1282 50.1811L24.0094 51.0199L21.6142 51.9376L18.983 52.9047L16.1986 53.8748L13.3926 54.784L10.7446 55.5548L8.4675 56.105L6.77757 56.3616L5.85463 56.277L5.80235 55.841L6.62334 55.0854L8.2187 54.0778L10.4122 52.9071L12.9892 51.6657L15.737 50.435L18.4747 49.276L21.0683 48.2271L23.4324 47.3069L25.5234 46.5184L27.3285 45.8547L28.8556 45.3035L31.1563 44.4801L31.9774 44.1799L32.6082 43.9378L33.0656 43.744L33.361 43.5905L33.4996 43.4709L33.4794 43.3803L33.2991 43.3135L32.9584 43.2655L32.4498 43.232L31.759 43.2091L30.866 43.1932L28.3706 43.1655L26.7114 43.1428L24.744 43.105L22.4551 43.0431L19.8529 42.9467L16.9783 42.8048L13.9179 42.6072L10.8122 42.3466L7.85558 42.0218L5.28148 41.6398L3.33093 41.2177L2.20872 40.7812L2.03906 40.3611L2.83625 39.9879L4.50171 39.6853L6.84856 39.4667L9.64378 39.3339L12.6526 39.2788L15.6727 39.2871L18.552 39.3418L21.1919 39.4263L23.5407 39.5262L25.5816 39.63L27.3216 39.7292L29.9875 39.8924L30.9683 39.9497L31.7501 39.9881L32.356 40.0062L32.8047 40.0025L33.111 39.9755L33.2849 39.9232L33.3324 39.8427L33.2551 39.7306L33.0507 39.5822L32.7125 39.3915L32.2297 39.1512L31.5875 38.8518L30.7668 38.4823L29.7451 38.0295L28.4974 37.4783L26.9985 36.8123L25.2266 36.0154L23.1691 35.0736L20.8306 33.9788L18.2433 32.7337L15.478 31.3579L12.6529 29.8935L9.93595 28.409L7.53546 26.9981L5.67526 25.771L4.55689 24.838L4.31718 24.2889L4.99532 24.1731L6.52207 24.4887L8.73581 25.1844L11.4193 26.1729L14.343 27.3503L17.3019 28.615L20.1376 29.8813L22.7443 31.0858L25.0646 32.1872L27.0782 33.1637L28.7904 34.0074L30.2213 34.7198L31.398 35.3074L32.3487 35.7791L33.0999 36.1436L33.674 36.4082L34.0884 36.5778L34.3546 36.6542L34.478 36.6352L34.4592 36.5151L34.3026 36.2913L34.0085 35.9579L33.5716 35.5046L32.9811 34.9166L32.2224 34.1747L30.1286 32.1377L28.7582 30.7935L27.1565 29.2039L25.3263 27.3592L23.2919 25.2685L21.1073 22.9693L18.8645 20.5375L16.6951 18.0923L14.7639 15.7939L13.2498 13.8279L12.3161 12.3778L12.0767 11.5892L12.5685 11.5383L13.7423 12.214L15.4739 13.5231L17.5925 15.3128L19.9157 17.4051L22.2786 19.6282L24.5528 21.8387L26.6519 23.9321L28.5279 25.8422L30.1635 27.5356L31.5621 29.0025L32.7398 30.2488L34.5222 32.1424L35.1737 32.8269L35.6933 33.3604L36.0984 33.7575L36.403 34.0297L36.6181 34.1853L36.7516 34.2286L36.7779 34.2191Z" fill="url(#paint0_linear_2053_9211)"/>
<path fill-rule="evenodd" clip-rule="evenodd" d="M68.4935 42.0039L68.5735 42.2691L68.8016 42.539L69.1613 42.8175L69.6371 43.108L70.2139 43.4133L70.8757 43.7356L71.6055 44.0762L72.3844 44.4359L73.1919 44.8143L74.0053 45.2102L74.8006 45.6212L75.5526 46.0437L76.2361 46.4734L76.8273 46.9049L77.3045 47.3322L77.6498 47.7491L77.8502 48.1494L77.8984 48.5274L77.7933 48.8782L77.5399 49.1982L77.1488 49.4851L76.6354 49.7381L76.0186 49.9576L75.3197 50.1458L74.5608 50.3055L73.7637 50.4407L72.9495 50.5559L72.137 50.6559L71.3431 50.7456L70.582 50.8302L69.8656 50.9143L69.2034 51.0026L68.6028 51.0993L68.0695 51.2084L67.6073 51.3335L67.2191 51.4781L66.9065 51.6453L66.6703 51.838L66.5105 52.059L66.4267 52.3107L66.4177 52.5954L66.4819 52.915L66.617 53.2714L66.8201 53.6657L67.0874 54.0989L67.4141 54.5711L67.7941 55.0816L68.22 55.6289L68.6829 56.2102L69.1718 56.8212L69.6742 57.4564L70.1757 58.1082L70.66 58.7677L71.1099 59.4239L71.5071 60.0649L71.8335 60.6773L72.0717 61.2476L72.2066 61.7622L72.2257 62.2089L72.1208 62.5772L71.8881 62.8591L71.5291 63.0501L71.0504 63.1493L70.4632 63.1596L69.7828 63.0874L69.0277 62.9423L68.2179 62.7365L67.3745 62.4838L66.5182 62.1994L65.6685 61.8985L64.8433 61.5965L64.0586 61.3081L63.3283 61.0474L62.6644 60.8279L62.0772 60.6624L61.576 60.5637L61.1693 60.5445L60.8656 60.6188L60.674 60.8014L60.5916 61.0964L60.6038 61.4952L60.6967 61.9893L60.8573 62.5699L61.073 63.2281L61.3309 63.9535L61.9191 65.5568L62.2206 66.4051L62.5069 67.2617L62.7627 68.1068L62.9728 68.92L63.1232 69.6802L63.2015 70.3672L63.1981 70.9624L63.1061 71.4502L62.9224 71.8191L62.6476 72.0619L62.286 72.177L61.8452 72.1675L61.3355 72.0414L60.7692 71.8109L60.1596 71.4909L59.5204 71.0987L58.8649 70.6524L58.2053 70.1701L57.5525 69.6694L56.9157 69.1666L56.3024 68.6761L55.7186 68.2107L55.1685 67.7815L54.6549 67.3976L54.1797 67.0664L53.7434 66.7942L53.346 66.5858L52.9866 66.4452L52.6641 66.3752L52.3767 66.3783L52.1224 66.4562L51.8991 66.6099L51.7042 66.84L51.5351 67.1466L51.3888 67.5288L51.2622 67.9851L51.152 68.5129L51.0545 69.1083L50.9657 69.7658L50.8814 70.4782L50.797 71.2361L50.7078 72.0279L50.6088 72.8395L50.4951 73.6542L50.3616 74.4533L50.204 75.2161L50.0182 75.9206L49.8013 76.5447L49.551 77.067L49.2668 77.4685L48.9493 77.7333L48.6008 77.8505L48.2248 77.8146L47.8261 77.6261L47.4103 77.2919L46.9836 76.8246L46.5522 76.2418L46.1221 75.5647L45.6988 74.8173L45.2868 74.0246L44.8896 73.2118L44.5097 72.403L44.1485 71.621L43.8064 70.8866L43.4827 70.2187L43.1761 69.6346L42.8845 69.1502L42.6051 68.7807L42.3347 68.5416L42.0692 68.4491L41.8042 68.5166L41.5348 68.7335L41.2571 69.0833L40.9677 69.5504L40.6636 70.1197L40.3428 70.7753L40.0036 71.5003L39.6454 72.2761L39.2685 73.0821L38.8739 73.8959L38.464 74.6935L38.0422 75.4498L37.6129 76.1397L37.1813 76.739L36.7535 77.226L36.3355 77.5823L35.9337 77.7946L35.5537 77.8551L35.2005 77.7621L34.878 77.5202L34.5884 77.1395L34.3327 76.6352L34.1105 76.026L33.92 75.3328L33.7581 74.5778L33.6211 73.7831L33.5046 72.9695L33.4035 72.1562L33.3131 71.3603L33.2283 70.5961L33.1443 69.8758L33.0565 69.209L32.9607 68.6033L32.8527 68.0645L32.729 67.5966L32.5861 67.2024L32.4208 66.8837L32.2302 66.6414L32.0115 66.4756L31.7624 66.3857L31.4804 66.3708L31.1636 66.4292L30.8102 66.5588L30.4189 66.7566L29.9888 67.019L29.5197 67.3411L29.0122 67.7171L28.4677 68.1397L27.889 68.6L27.2801 69.0873L26.6466 69.5891L25.9958 70.0912L25.3366 70.5775L24.6796 71.0308L24.0369 71.4328L23.4217 71.7655L22.8476 72.0114L22.328 72.1549L21.8755 72.1836L21.5007 72.0888L21.2117 71.8663L21.0133 71.5172L20.9069 71.0476L20.8897 70.4686L20.9556 69.7951L21.0953 69.0452L21.2968 68.239L21.5463 67.3975L21.8288 66.5415L22.1289 65.6906L22.4314 64.8629L22.7214 64.0745L22.9848 63.3394L23.2081 62.6698L23.3783 62.0762L23.4829 61.5678L23.5088 61.1532L23.4425 60.8411L23.269 60.6403L22.9826 60.5497L22.5917 60.5549L22.105 60.6419L21.5309 60.7976L20.8785 61.0093L20.1581 61.2643L18.5614 61.8501L17.7145 62.1522L16.8579 62.4403L16.0111 62.699L15.1945 62.9133L14.4293 63.0689L13.7358 63.1534L13.1326 63.1568L12.6358 63.072L12.2571 62.8956L12.0041 62.628L11.8789 62.2731L11.8787 61.8382L11.9959 61.3336L12.2186 60.7713L12.5321 60.1647L12.9192 59.5274L13.3619 58.8727L13.842 58.213L14.3418 57.5593L14.8451 56.9209L15.3371 56.3056L15.8049 55.7193L16.2373 55.1664L16.6252 54.6499L16.9608 54.1715L17.2379 53.7321L17.4515 53.3316L17.5977 52.9693L17.6733 52.6439L17.6761 52.3538L17.6043 52.097L17.4567 51.8713L17.2326 51.6742L16.9321 51.5031L16.5559 51.3551L16.1054 51.2271L15.5831 51.1157L14.9929 51.0173L14.3401 50.928L13.6318 50.8435L12.0874 50.6707L11.2769 50.5727L10.4617 50.4603L9.66057 50.3286L8.89411 50.173L8.18413 49.9897L7.55282 49.7752L7.02161 49.5277L6.6099 49.2462L6.3337 48.9313L6.20448 48.5852L6.22819 48.2112L6.4047 47.8141L6.72766 47.3995L7.18493 46.9734L7.75932 46.5422L8.42974 46.1118L9.17248 45.6878L9.96252 45.2747L10.7747 44.8763L11.5847 44.4949L12.3696 44.1322L13.1086 43.7886L13.7824 43.4634L14.3737 43.1556L14.8667 42.8629L15.2459 42.5827L15.496 42.3117L15.6008 42.046L15.546 41.7811L15.3403 41.5122L15.0005 41.2353L14.5422 40.9469L13.9805 40.6442L13.3311 40.3247L12.6109 39.9871L11.8385 39.6304L11.0341 39.2549L10.22 38.8617L9.4202 38.4529L8.65965 38.0319L7.96354 37.603L7.35612 37.1715L6.85947 36.7431L6.49214 36.3241L6.26801 35.9208L6.19531 35.5389L6.27618 35.1834L6.50656 34.8583L6.87666 34.566L7.37177 34.3077L7.97345 34.0829L8.66077 33.8899L9.41165 33.7259L10.204 33.5871L11.0168 33.4691L11.8308 33.367L12.6287 33.2759L13.3959 33.1909L14.1201 33.107L14.7915 33.0197L15.4023 32.9246L15.9466 32.8178L16.4203 32.6954L16.8204 32.5541L17.1452 32.3907L17.3936 32.2022L17.5655 31.9859L17.6614 31.7393L17.6822 31.46L17.6296 31.1461L17.5055 30.7956L17.313 30.4074L17.0557 29.9804L16.7381 29.5145L16.3661 29.01L15.9469 28.4684L15.4893 27.8923L15.0037 27.2856L14.5025 26.6539L13.9999 26.0041L13.5116 25.3452L13.0551 24.6877L12.6483 24.0434L12.3094 23.4255L12.056 22.8476L11.9038 22.3232L11.8656 21.8649L11.9504 21.4836L12.1627 21.1876L12.5019 20.9819L12.9622 20.8682L13.533 20.8441L14.1997 20.9037L14.9442 21.0379L15.7467 21.235L16.5861 21.4811L17.4418 21.7616L18.2938 22.0609L19.124 22.3637L19.9161 22.6553L20.6559 22.9213L21.3311 23.1482L21.9312 23.3231L22.4467 23.4334L22.869 23.466L23.1896 23.4076L23.3996 23.2431L23.4984 22.9655L23.5003 22.5826L23.4194 22.1032L23.2687 21.5358L23.0609 20.8893L22.8089 20.1739L22.5258 19.401L22.2257 18.5841L21.9232 17.7387L21.6334 16.8823L21.3718 16.0339L21.1534 15.2143L20.9926 14.4442L20.9021 13.7443L20.8919 13.1333L20.9695 12.6275L21.1385 12.2391L21.399 11.9759L21.7472 11.8406L22.176 11.8307L22.6755 11.9389L23.2337 12.1537L23.8374 12.4606L24.4727 12.8425L25.1265 13.2814L25.7862 13.7591L26.4408 14.258L27.0807 14.7616L28.2869 15.7251L28.8427 16.1607L29.3622 16.5524L29.8436 16.8924L30.2861 17.1743L30.6897 17.3932L31.055 17.5448L31.3833 17.6262L31.6762 17.6349L31.9356 17.569L32.1637 17.4275L32.3629 17.2095L32.536 16.9151L32.6857 16.5449L32.8152 16.1002L32.9278 15.5836L33.0271 14.9986L33.117 14.3506L33.2017 13.6463L33.3738 12.1077L33.4709 11.2982L33.582 10.4828L33.712 9.67981L33.8655 8.90982L34.0465 8.19454L34.2584 7.55618L34.5032 7.01627L34.7821 6.59441L35.0943 6.30693L35.4381 6.16572L35.81 6.17717L36.2055 6.34166L36.6189 6.65333L37.0444 7.10046L37.4754 7.66624L37.9061 8.32984L38.3308 9.06771L38.7449 9.85489L39.1446 10.6662L39.5274 11.4772L39.8916 12.2649L40.2368 13.0082L40.5633 13.6879L40.8725 14.2864L41.1664 14.7877L41.4474 15.1765L41.719 15.4375L41.985 15.5545L42.2498 15.5124L42.5182 15.3181L42.7943 14.9884L43.0817 14.539L43.3832 13.985L43.7013 13.342L44.0375 12.6268L44.3926 11.8578L44.7667 11.0552L45.1585 10.2411L45.5662 9.43923L45.9863 8.67464L46.4148 7.9725L46.8464 7.35719L47.2753 6.851L47.6952 6.4728L48.1 6.23689L48.4838 6.15198L48.8416 6.22068L49.1692 6.43944L49.4642 6.79888L49.7252 7.28467L49.9526 7.87859L50.1481 8.55987L50.3142 9.30649L50.4549 10.0963L50.5744 10.9082L50.6776 11.7227L50.7694 12.5225L50.8547 13.2926L50.9386 14.0206L51.0254 14.6965L51.1197 15.3123L51.2255 15.8621L51.3465 16.3416L51.4861 16.7476L51.6477 17.0784L51.834 17.3329L52.048 17.5109L52.2922 17.6128L52.5688 17.6396L52.8799 17.5927L53.2274 17.4742L53.6126 17.287L54.0365 17.0347L54.4994 16.7217L55.0008 16.3538L55.5396 15.9381L56.1131 15.4832L56.7175 14.9994L57.3475 14.499L57.9961 13.9959L58.6547 13.5059L59.3128 13.0462L59.9586 12.6348L60.5791 12.2899L61.1607 12.0291L61.6898 11.8683L62.1538 11.8206L62.5416 11.8954L62.8447 12.0975L63.0576 12.4267L63.1786 12.8777L63.2097 13.4402L63.1565 14.0998L63.0278 14.8389L62.8353 15.6374L62.5925 16.4747L62.3142 17.3298L62.0158 18.1828L61.7127 19.0153L61.4197 19.811L61.1512 20.5554L60.9206 21.2362L60.7411 21.8425L60.6252 22.3651L60.5859 22.7951L60.6365 23.1242L60.7921 23.3432L61.0609 23.4504L61.4358 23.4595L61.9078 23.3847L62.4686 23.2391L63.1091 23.0354L63.8195 22.7864L64.5882 22.5053L65.4021 22.2061L66.2459 21.9032L67.1022 21.6118L67.9519 21.3474L68.7747 21.125L69.5495 20.9592L70.2557 20.8626L70.8744 20.8458L71.3892 20.9162L71.7872 21.0779L72.0606 21.3311L72.206 21.6726L72.2257 22.0953L72.1266 22.5896L71.9197 23.1436L71.6196 23.7441L71.243 24.3774L70.8079 25.0302L70.3326 25.6898L69.8348 26.3451L69.331 26.9865L68.3639 28.1972L67.9252 28.7557L67.5297 29.2782L67.1853 29.7627L66.8985 30.2083L66.6745 30.6149L66.5173 30.9833L66.4303 31.3145L66.4157 31.6101L66.4756 31.872L66.6111 32.1025L66.823 32.304L67.1113 32.479L67.4756 32.6305L67.9144 32.7615L68.4254 32.8752L69.0051 32.9755L69.6484 33.066L70.3484 33.1509L71.8814 33.3224L72.6897 33.4186L73.5053 33.5284L74.31 33.6567L75.0834 33.8082L75.8039 33.9869L76.4492 34.1962L76.9977 34.4384L77.4296 34.7145L77.7283 35.0241L77.8815 35.3655L77.8823 35.7353L77.7298 36.1291L77.4295 36.5413L76.9926 36.966L76.4356 37.3968L75.7789 37.8277L75.046 38.2531L74.2618 38.6681L73.4515 39.0691L72.6396 39.4533L71.1016 40.1657L70.4162 40.4937L69.8106 40.8042L69.301 41.0992L68.9027 41.3812L68.6309 41.6534L68.5018 41.9196L68.4935 42.0039Z" fill="url(#paint1_linear_2053_9211)"/>
<path d="M64.0611 48.1736L63.9724 47.9919L63.8628 47.8223C63.0277 46.5244 61.7403 45.632 60.2387 45.3088C59.6617 45.1853 59.0808 45.1522 58.5098 45.2044C59.0788 36.6722 57.6289 30.5431 54.0825 26.4827C51.2685 23.2616 47.2637 21.4999 42.1788 21.249L42.0193 21.241H41.9934H41.9755L41.822 21.248C36.7371 21.4989 32.7323 23.2606 29.9183 26.4817C26.3719 30.5421 24.922 36.6712 25.491 45.2034C24.92 45.1512 24.3381 45.1843 23.7611 45.3078C22.2595 45.631 20.972 46.5234 20.137 47.8213L20.0284 47.9899L19.9387 48.1716C18.9771 50.126 19.0728 52.1978 20.2097 54.0036C21.7642 56.4749 25.2907 58.2777 30.9895 59.5144C35.1617 60.4198 39.4833 60.7892 41.9516 60.7571L41.9984 60.7591L42.0452 60.7571C42.1489 60.7581 42.2565 60.7591 42.3671 60.7591C44.6301 60.7591 48.7753 60.4329 53.0083 59.5144C58.7071 58.2777 62.2326 56.4749 63.7881 54.0036C64.925 52.1968 65.0217 50.126 64.0601 48.1716L64.0611 48.1736Z" fill="white"/>
<path d="M27.8292 46.435L28.4789 46.7472C31.9865 48.4316 36.7844 49.3591 41.991 49.3591C41.9959 49.3591 42.0009 49.3591 42.0049 49.3591C47.2114 49.3591 52.0104 48.4316 55.5169 46.7472L56.1666 46.435L56.2234 45.7123C56.8681 37.4621 55.6166 31.6603 52.397 27.9743C49.9985 25.229 46.5229 23.7243 42.0667 23.5045L42.0109 23.5015H41.9979H41.985L41.9302 23.5045C37.474 23.7243 33.9983 25.229 31.5998 27.9743C28.3803 31.6603 27.1287 37.4621 27.7734 45.7123L27.8302 46.435H27.8292ZM33.4692 29.6326C35.4243 27.3952 38.2134 26.2107 41.9959 26.0139H41.9979H41.9989C45.7815 26.2107 48.5716 27.3952 50.5257 29.6326C53.1862 32.6781 54.2564 37.6368 53.7921 44.7768C50.699 46.0987 46.4561 46.8486 42.0039 46.8486H41.99C37.5388 46.8486 33.2948 46.0977 30.2018 44.7768C29.7374 37.6368 30.8076 32.6781 33.4682 29.6326H33.4692Z" fill="#191B29"/>
<path d="M62.05 49.1764L62.0181 49.1122L61.9793 49.0519C61.4701 48.26 60.6849 47.7159 59.7691 47.5182C58.8534 47.3214 57.9157 47.4951 57.1305 48.009L57.0946 48.0331C50.7462 52.5 33.2513 52.5 26.9028 48.0331L26.8669 48.009C26.0817 47.4961 25.144 47.3214 24.2283 47.5182C23.3125 47.7149 22.5273 48.26 22.0181 49.0519L21.9793 49.1122L21.9474 49.1764C21.3385 50.4141 21.3923 51.6658 22.1038 52.7961C23.3036 54.7023 26.4524 56.221 31.4626 57.3081C35.4973 58.1844 39.7303 58.5357 41.9803 58.4996H42.0002H42.0201C42.1317 58.5016 42.2473 58.5026 42.3689 58.5026C44.6887 58.5026 48.7024 58.1412 52.5378 57.3081C57.548 56.221 60.6968 54.7023 61.8966 52.7961C62.6081 51.6658 62.6619 50.4141 62.053 49.1764H62.05ZM59.7901 51.453C59.4144 52.0503 57.9047 53.576 52.0107 54.8559C48.1484 55.694 44.1276 56.0323 42.0301 55.9901H42.0171H42.0052H41.9982H41.9912H41.9663C39.8678 56.0323 35.848 55.695 31.9857 54.8559C26.0917 53.576 24.582 52.0503 24.2064 51.453C23.9802 51.0937 23.9602 50.7724 24.1446 50.3619C24.2921 50.1621 24.5033 50.0246 24.7474 49.9724C25.0075 49.9162 25.2726 49.9634 25.4968 50.1049C28.8917 52.4809 35.0568 53.8992 41.9972 53.8992C48.9376 53.8992 55.1027 52.4809 58.4976 50.1049C58.7218 49.9634 58.9879 49.9162 59.247 49.9724C59.4911 50.0246 59.7024 50.1621 59.8498 50.3619C60.0342 50.7724 60.0143 51.0937 59.7881 51.453H59.7901Z" fill="#191B29"/>
<defs>
<linearGradient id="paint0_linear_2053_9211" x1="10.5359" y1="63.2527" x2="73.5427" y2="20.754" gradientUnits="userSpaceOnUse">
<stop stop-color="#FF36D3"/>
<stop offset="1" stop-color="#F10101"/>
</linearGradient>
<linearGradient id="paint1_linear_2053_9211" x1="42.0469" y1="6.15198" x2="42.0469" y2="77.8551" gradientUnits="userSpaceOnUse">
<stop stop-color="#F10101"/>
<stop offset="1" stop-color="#FF36D3"/>
</linearGradient>
</defs>
</svg>
